<svg width="246" height="246" viewBox="0 0 246 246" fill="none" xmlns="http://www.w3.org/2000/svg">
<rect width="246" height="246" rx="123" fill="#4150D9" fill-opacity="0.11"/>
<path d="M186.367 98.8389H160.678V163.859H186.367V98.8389Z" fill="#EFEFEF"/>
<path d="M168.828 101.496H162.539V107.786H168.828V101.496Z" fill="#FEFEFE"/>
<path d="M176.545 101.496H170.255V107.786H176.545V101.496Z" fill="#FEFEFE"/>
<path d="M184.068 101.496H177.778V107.786H184.068V101.496Z" fill="#FEFEFE"/>
<path d="M168.828 109.114H162.539V115.404H168.828V109.114Z" fill="#FEFEFE"/>
<path d="M176.545 109.114H170.255V115.404H176.545V109.114Z" fill="#FEFEFE"/>
<path d="M184.068 109.114H177.778V115.404H184.068V109.114Z" fill="#FEFEFE"/>
<path d="M168.828 116.645H162.539V122.934H168.828V116.645Z" fill="#FEFEFE"/>
<path d="M176.545 116.645H170.255V122.934H176.545V116.645Z" fill="#FEFEFE"/>
<path d="M184.068 116.645H177.778V122.934H184.068V116.645Z" fill="#FEFEFE"/>
<path d="M168.828 124.263H162.539V130.552H168.828V124.263Z" fill="#FEFEFE"/>
<path d="M176.545 124.263H170.255V130.552H176.545V124.263Z" fill="#FEFEFE"/>
<path d="M184.068 124.263H177.778V130.552H184.068V124.263Z" fill="#FEFEFE"/>
<path d="M168.828 131.88H162.539V138.169H168.828V131.88Z" fill="#FEFEFE"/>
<path d="M176.545 131.88H170.255V138.169H176.545V131.88Z" fill="#FEFEFE"/>
<path d="M184.068 131.88H177.778V138.169H184.068V131.88Z" fill="#FEFEFE"/>
<path d="M168.828 139.41H162.539V145.7H168.828V139.41Z" fill="#FEFEFE"/>
<path d="M176.545 139.41H170.255V145.7H176.545V139.41Z" fill="#FEFEFE"/>
<path d="M184.068 139.41H177.778V145.7H184.068V139.41Z" fill="#FEFEFE"/>
<path d="M127.803 84.8661C127.803 84.8661 125.24 93.0542 122.965 94.0235C120.689 94.9925 119.625 92.547 121.347 90.2386L126.593 84.3682C126.593 84.3682 127.159 84.6398 127.803 84.8661Z" fill="#613235"/>
<path d="M120.169 93.9221C115.752 92.9251 108.592 88.4062 109.893 86.5205C111.17 84.6703 112.916 86.2168 112.916 86.2168L121.856 90.0471C126.146 92.4064 123.564 94.9095 120.169 93.9221Z" fill="#613235"/>
<path d="M122.123 90.2033C122.036 90.1515 121.949 90.0999 121.855 90.0483C122.14 90.145 113.566 86.3761 113.16 86.1245C112.753 85.8727 111.169 84.6715 109.893 86.5216C108.592 88.4074 115.752 92.9265 120.169 93.9233C120.571 94.0401 120.961 94.1065 121.33 94.1316C121.612 92.8166 121.936 91.5006 122.123 90.2033Z" fill="#FFB200"/>
<path d="M115.128 92.2329C115.172 92.6506 115.214 93.0806 115.253 93.5154C115.263 93.6191 115.273 93.7231 115.283 93.8268C115.242 94.1118 115.137 94.3732 114.849 94.571C114.834 94.5805 114.823 94.5925 114.811 94.6047L109.572 94.7064L109.571 94.7115L109.64 95.0409C108.847 94.9188 108.05 94.8335 107.248 94.7557L105.341 94.7948L105.076 95.2571L105.184 94.5545C105.01 94.538 104.835 94.5191 104.658 94.5026C103.29 93.2082 103.763 90.808 103.909 89.0955C104.198 87.5982 104.887 86.1769 106.484 85.9036L106.484 85.8864L107.639 85.6348L107.862 85.6154C107.917 85.7621 108.045 85.8737 108.25 85.8589C109.11 85.8001 110.277 86.2787 111.046 85.7542C111.142 85.69 111.186 85.5727 111.184 85.4616L111.303 85.457L111.423 85.4795L111.828 85.5507C111.828 85.5507 113.132 86.0718 114.062 87.7358L115.099 90.7311C115.099 90.7309 116.528 91.822 115.128 92.2329Z" fill="#FFDA08"/>
<path d="M110.209 84.3338C110.162 84.3372 108.88 84.1546 107.82 84.4086C106.76 84.6626 105.909 85.3941 105.909 85.3941L108.208 86.9024L107.357 87.7981L112.3 89.5752L113.061 87.0216L112.18 86.7528L112.778 84.7818C112.778 84.7818 110.418 84.319 110.209 84.3338Z" fill="#FFB200"/>
<path d="M111.073 83.4641L110.818 85.0505L110.698 85.7959L110.588 86.4697L108.672 85.9178L109.836 82.291L111.073 83.4641Z" fill="#784346"/>
<path d="M108.543 82.0532C108.174 83.2086 108.814 84.4438 109.969 84.8127C111.237 85.216 111.764 85.2831 112.103 84.904C112.219 84.7757 112.314 84.5905 112.407 84.3509C112.508 84.0945 112.607 83.7768 112.729 83.3857C113.094 82.2317 112.457 80.9951 111.301 80.629C110.145 80.2601 108.911 80.8978 108.543 82.0532Z" fill="#784346"/>
<path d="M111.248 82.4784C111.248 82.4784 110.909 82.0567 110.133 82.3449" stroke="#1B193B" stroke-width="0.75" stroke-miterlimit="10"/>
<path d="M111.985 82.6271C111.985 82.6271 112.34 82.4486 112.811 82.7664" stroke="#1B193B" stroke-width="0.75" stroke-miterlimit="10"/>
<path d="M111.272 83.9611L111.862 83.9957C111.862 83.9957 111.576 83.6101 111.84 82.7617" stroke="#47222C" stroke-width="0.5" stroke-miterlimit="10"/>
<path d="M112.309 83.6025C112.54 83.6025 112.54 83.2441 112.309 83.2441C112.079 83.2441 112.078 83.6025 112.309 83.6025Z" fill="#1B193B"/>
<path d="M110.835 83.2939C111.065 83.2939 111.066 82.9355 110.835 82.9355C110.604 82.9355 110.604 83.2939 110.835 83.2939Z" fill="#1B193B"/>
<path d="M111.728 88.4335C111.551 88.4956 107.822 86.0826 107.64 85.631L108.916 85.5187L110.469 85.4781L110.725 85.4709L111.243 85.459H111.303L111.415 85.4757L111.422 85.4781C112.06 86.0849 111.728 88.4335 111.728 88.4335Z" fill="#784346"/>
<path d="M110.51 80.75C111.111 80.6423 111.74 80.8308 112.18 81.2508C112.62 81.6708 112.864 82.3145 112.826 82.9593C113.077 82.5152 113.159 81.9711 113.048 81.4828C112.936 80.9945 112.634 80.5678 112.226 80.3245C112.064 80.2275 111.887 80.1592 111.71 80.0952C111.202 79.9114 110.662 79.7573 110.122 79.8601C109.583 79.9628 109.049 80.3905 108.96 80.9665" fill="#1B193B"/>
<path d="M127.758 84.5838C127.865 84.3812 127.997 84.1903 128.109 83.9863C128.229 83.7691 128.319 83.5942 128.473 83.4418C128.48 83.4341 128.487 83.4267 128.494 83.4191C128.397 83.4802 128.337 83.5208 128.337 83.5208C128.337 83.5208 129.661 81.8831 129.422 81.7409C129.183 81.5988 128.2 83.0452 128.2 83.0452C128.2 83.0452 128.903 80.9726 128.634 80.8653C128.365 80.758 127.633 82.8655 127.633 82.8655C127.633 82.8655 127.836 81.0299 127.543 81.022C127.25 81.0141 126.487 84.6832 126.495 84.7799C126.502 84.8655 127.52 84.638 127.758 84.5838Z" fill="#613235"/>
<path d="M128.297 83.4111C128.297 83.4111 129.409 82.4578 129.452 82.5873C129.495 82.7165 127.959 85.5788 127.357 85.4622C126.755 85.3456 126.495 84.7801 126.495 84.7801L127.244 83.7974L128.28 83.3786" fill="#613235"/>
<path d="M126.495 84.7797C126.524 84.7384 126.148 83.8931 126.148 83.8931C126.148 83.8931 125.97 83.6762 126.108 83.1601C126.246 82.644 126.752 82.2278 126.811 82.0341C126.87 81.8403 127.175 82.2052 126.854 82.7406C126.533 83.276 127.009 83.7082 127.009 83.7082L126.495 84.7797Z" fill="#613235"/>
<path d="M115.253 93.5154C113.517 93.3071 113.713 92.0098 113.713 92.0098C114.255 92.3158 114.738 92.4257 115.128 92.2327C115.172 92.6505 115.214 93.0804 115.253 93.5154Z" fill="#FFB200"/>
<path d="M121.769 89.3547C121.769 89.3547 123.961 93.4965 123.877 93.7617C123.792 94.0269 123.161 94.0823 123.161 94.0823C123.161 94.0823 122.849 94.4816 122.443 94.6371C122.037 94.7926 121.001 94.398 121.001 94.398L121.108 89.3291L121.522 89.6825L121.769 89.3547Z" fill="#FFDA08"/>
<path d="M110.535 84.0469L111.689 84.4676C111.689 84.4676 111.245 84.8262 110.932 84.7498C110.617 84.6733 110.535 84.0469 110.535 84.0469Z" fill="#FEFEFE"/>
<path d="M111.488 80.2638C111.741 80.3477 111.919 80.6009 111.964 80.8487C112.01 81.0964 111.947 81.3387 111.863 81.5628C111.746 81.8736 111.571 82.1816 111.264 82.3283C110.959 82.4743 110.576 82.4363 110.217 82.3744C109.808 82.3037 109.392 82.2028 109.021 81.9964C108.782 81.8631 108.546 81.6818 108.281 81.6672C108.523 81.0952 108.822 80.5503 109.174 80.0414C109.243 79.9413 109.316 79.8402 109.423 79.7764C109.658 79.6357 109.984 79.7078 110.274 79.7843C110.584 79.8662 110.895 79.9487 111.205 80.0313" fill="#1B193B"/>
<path d="M110.103 81.5387L109.451 82.827C109.451 82.827 109.519 82.13 108.86 82.3604C108.202 82.5907 108.767 83.392 109.03 83.4085C109.292 83.425 109.154 84.4657 109.154 84.4657C109.154 84.4657 107.948 83.985 107.505 82.5228C107.061 81.0606 108.215 79.0093 110.789 79.8434C113.362 80.6772 109.842 81.7576 109.842 81.7576" fill="#1B193B"/>
<path d="M111.415 85.4757L110.478 86.7085L110.724 85.4709L111.243 85.459H111.303L111.415 85.4757Z" fill="#66393B"/>
<path d="M110.818 85.0507L110.698 85.7961C110.409 85.6002 109.819 85.1319 109.523 84.3937C109.501 84.3459 110.058 84.8715 110.818 85.0507Z" fill="#66393B"/>
<path d="M111.597 88.7879C112.637 91.0638 113.11 93.479 113.023 95.9793C113.012 96.2868 113.49 96.2863 113.501 95.9793C113.591 93.3923 113.086 90.9006 112.01 88.5468C111.882 88.2673 111.47 88.5098 111.597 88.7879Z" fill="#FFB200"/>
<path d="M109.128 80.384C108.29 80.2968 107.429 80.2027 106.684 79.8099C105.938 79.4171 105.327 78.6493 105.376 77.8085C105.423 77.006 106.059 76.3342 106.793 76.0059C107.527 75.6776 108.35 75.6272 109.153 75.5813C109.465 75.5637 109.787 75.5472 110.081 75.6533C110.497 75.8035 110.794 76.1794 110.986 76.5783C111.726 78.1194 110.977 80.1977 109.425 80.913" fill="#1B193B"/>
<path d="M89.2694 118.355C89.2694 126.782 82.6882 133.671 74.3847 134.168C74.3407 134.171 74.2968 134.173 74.2528 134.176C73.978 134.187 73.7062 134.195 73.4288 134.195C73.2008 134.195 72.9729 134.19 72.7476 134.182C72.7008 134.179 72.6516 134.179 72.6047 134.176C64.241 133.745 57.5881 126.826 57.5881 118.355C57.5881 109.607 64.6804 102.515 73.4288 102.515C82.1772 102.515 89.2694 109.606 89.2694 118.355Z" fill="#EFEFEF"/>
<path d="M73.5071 113.455L74.7545 167.841H72.103L73.3506 113.455H73.5071Z" fill="#DBD7D7"/>
<path d="M61.5493 119.818L73.9985 131.619L73.0761 131.609L85.2701 120.534L85.3473 120.613L73.988 132.543L73.5202 133.034L73.0653 132.532L61.5493 119.818Z" fill="#DBD7D7"/>
<path d="M68.21 116.729L73.8374 121.676H73.1577L78.6258 116.844L78.6697 116.888L73.8374 122.356L73.4967 122.742L73.1577 122.356L68.21 116.729Z" fill="#DBD7D7"/>
<path d="M171.464 96.9909L170.457 95.9471C171.395 94.6438 172.016 93.1778 172.315 91.6595L173.771 91.6851C174.63 91.7011 175.339 91.0163 175.353 90.157L175.367 89.3434C175.383 88.4841 174.699 87.775 173.839 87.7611L172.383 87.7355C172.138 86.2074 171.569 84.7209 170.676 83.3856L171.72 82.3778C172.338 81.781 172.355 80.7969 171.759 80.1788L171.192 79.5923C170.596 78.9742 169.611 78.957 168.993 79.5538L167.95 80.5616C166.646 79.6227 165.181 79.0022 163.662 78.7033L163.688 77.2473C163.704 76.3882 163.019 75.6789 162.159 75.665L161.346 75.6507C160.487 75.6347 159.778 76.3194 159.764 77.1788L159.738 78.6347C158.21 78.8803 156.724 79.449 155.388 80.3418L154.381 79.298C153.784 78.6799 152.8 78.6627 152.182 79.2595L151.595 79.8257C150.977 80.4225 150.96 81.4066 151.557 82.0247L152.564 83.0685C151.625 84.3718 151.005 85.8376 150.706 87.3561L149.25 87.3306C148.391 87.3146 147.682 87.9993 147.668 88.8587L147.654 89.672C147.637 90.5311 148.322 91.2404 149.182 91.2543L150.638 91.2799C150.883 92.8077 151.452 94.2945 152.345 95.6298L151.301 96.6376C150.683 97.2344 150.666 98.2185 151.262 98.8365L151.829 99.4231C152.425 100.041 153.41 100.058 154.028 99.4616L155.071 98.4538C156.375 99.3927 157.841 100.013 159.359 100.312L159.334 101.768C159.318 102.627 160.002 103.336 160.862 103.35L161.675 103.364C162.534 103.38 163.243 102.696 163.257 101.836L163.283 100.38C164.811 100.135 166.298 99.5662 167.633 98.6734L168.641 99.7172C169.238 100.335 170.222 100.352 170.84 99.7557L171.426 99.1894C172.044 98.5931 172.061 97.609 171.464 96.9909ZM164.996 95.7371C164.428 96.0536 163.826 96.2887 163.208 96.4381C162.012 96.7288 160.756 96.7068 159.571 96.3745C158.958 96.2034 158.365 95.9476 157.809 95.6112C157.294 95.3003 156.812 94.9178 156.376 94.4658C155.939 94.0138 155.574 93.5185 155.281 92.9936C154.964 92.4259 154.729 91.8239 154.58 91.2058C154.289 90.01 154.311 88.7536 154.643 87.5685C154.814 86.956 155.07 86.3625 155.407 85.8063C155.718 85.2921 156.1 84.8098 156.552 84.3733C157.004 83.9368 157.499 83.5712 158.024 83.2785C158.592 82.9617 159.194 82.7269 159.812 82.5773C161.008 82.2866 162.264 82.3085 163.449 82.6409C164.062 82.8119 164.655 83.0678 165.212 83.4042C165.726 83.7151 166.208 84.0976 166.644 84.5496C167.081 85.0016 167.446 85.4969 167.739 86.0218C168.056 86.5895 168.291 87.1915 168.44 87.8096C168.731 89.0054 168.709 90.2618 168.377 91.4469C168.206 92.0594 167.95 92.6529 167.613 93.2091C167.303 93.7233 166.92 94.2056 166.468 94.6419C166.016 95.0789 165.521 95.4444 164.996 95.7371Z" fill="#FE6B75"/>
<path d="M186.369 163.457V171.009H72.1733V160.786H185.624C185.98 161.626 186.234 162.522 186.369 163.457Z" fill="#DBD7D7"/>
<path d="M107.911 161.202C107.911 164.822 106.834 168.193 104.981 171.008H75.1029C73.2504 168.193 72.1733 164.822 72.1733 161.202C72.1733 161.062 72.1757 160.923 72.1784 160.786C72.4003 151.109 80.3116 143.332 90.0407 143.332C99.7699 143.332 107.684 151.109 107.906 160.786C107.908 160.923 107.911 161.062 107.911 161.202Z" fill="#DBD7D7"/>
<path d="M144.719 158.081C144.719 162.854 143.298 167.298 140.856 171.009H101.468C99.0256 167.298 97.6055 162.854 97.6055 158.081C97.6055 157.897 97.6088 157.713 97.6119 157.532C97.9044 144.775 108.334 134.522 121.16 134.522C133.986 134.522 144.419 144.775 144.712 157.532C144.715 157.713 144.719 157.897 144.719 158.081Z" fill="#DBD7D7"/>
<path d="M172.311 162.91C172.311 165.9 171.422 168.683 169.892 171.008H145.218C143.688 168.683 142.799 165.9 142.799 162.91C142.799 162.794 142.801 162.679 142.803 162.566C142.986 154.575 149.52 148.152 157.554 148.152C165.589 148.152 172.124 154.575 172.307 162.566C172.31 162.679 172.311 162.794 172.311 162.91Z" fill="#DBD7D7"/>
<path d="M186.481 165.029C186.481 165.563 186.444 166.084 186.369 166.597C186.137 168.208 185.553 169.707 184.696 171.008H166.482C165.352 169.293 164.697 167.238 164.697 165.029C164.697 164.944 164.699 164.86 164.699 164.777C164.731 163.364 165.033 162.017 165.554 160.786C167.21 156.879 171.079 154.136 175.588 154.136C180.098 154.136 183.968 156.879 185.623 160.786C185.98 161.626 186.234 162.521 186.369 163.456C186.431 163.887 186.468 164.329 186.478 164.777C186.481 164.86 186.481 164.945 186.481 165.029Z" fill="#DBD7D7"/>
<path d="M99.9696 167.24V171.008H43V165.909H99.5969C99.6829 166.11 99.7546 166.318 99.8167 166.53C99.8621 166.686 99.9003 166.846 99.929 167.008C99.9457 167.085 99.9577 167.161 99.9696 167.24Z" fill="#DBD7D7"/>
<path d="M60.8279 166.118C60.8279 166.256 60.8256 166.395 60.816 166.531C60.8112 166.691 60.7993 166.851 60.7825 167.009C60.7419 167.446 60.6655 167.871 60.5627 168.287C60.4815 168.614 60.3812 168.932 60.2665 169.243C60.0324 169.869 59.7313 170.459 59.3682 171.008H44.4622C44.1014 170.459 43.798 169.869 43.5638 169.243C43.4468 168.932 43.3488 168.614 43.2676 168.287C43.1625 167.871 43.0884 167.446 43.0454 167.009C43.0287 166.851 43.0167 166.691 43.0119 166.531C43.0024 166.395 43 166.256 43 166.118C43 166.048 43.0024 165.977 43.0048 165.91C43.0143 165.48 43.055 165.059 43.1242 164.646C43.1362 164.567 43.1505 164.486 43.1672 164.407C43.9628 160.3 47.5776 157.201 51.914 157.201C53.8683 157.201 55.6745 157.83 57.1415 158.895C58.9357 160.195 60.2259 162.149 60.6631 164.407C60.6798 164.486 60.6941 164.567 60.7061 164.646C60.7754 165.059 60.816 165.48 60.8256 165.91C60.8279 165.977 60.8279 166.048 60.8279 166.118Z" fill="#DBD7D7"/>
<path d="M79.1909 164.559C79.1909 166.94 78.4825 169.157 77.2643 171.008H57.6149C56.3964 169.157 55.6882 166.94 55.6882 164.559C55.6882 164.467 55.6899 164.375 55.6916 164.285C55.8376 157.921 61.0404 152.807 67.4389 152.807C73.8373 152.807 79.0418 157.921 79.1878 164.285C79.1895 164.375 79.1909 164.467 79.1909 164.559Z" fill="#DBD7D7"/>
<path d="M92.9561 166.968C92.9561 168.46 92.5125 169.849 91.7491 171.008H79.4402C78.6771 169.849 78.2332 168.46 78.2332 166.968C78.2332 166.911 78.2341 166.853 78.2351 166.797C78.3266 162.81 81.5859 159.606 85.5939 159.606C89.602 159.606 92.8622 162.81 92.9537 166.797C92.9552 166.853 92.9561 166.911 92.9561 166.968Z" fill="#DBD7D7"/>
<path d="M100.025 168.026C100.025 168.292 100.006 168.552 99.9689 168.808C99.8533 169.612 99.5623 170.359 99.1344 171.009H90.0482C89.4848 170.153 89.1575 169.128 89.1575 168.026C89.1575 167.984 89.1587 167.942 89.1587 167.901C89.1749 167.195 89.3254 166.524 89.5854 165.909C90.4113 163.96 92.3417 162.592 94.5907 162.592C96.8408 162.592 98.7712 163.96 99.5972 165.909C99.7752 166.328 99.902 166.775 99.9692 167.241C100 167.457 100.019 167.677 100.024 167.901C100.025 167.941 100.025 167.984 100.025 168.026Z" fill="#DBD7D7"/>
<path d="M203 165.909V171.008H146.033V167.24C146.045 167.161 146.057 167.085 146.073 167.008C146.102 166.846 146.14 166.686 146.183 166.53C146.245 166.318 146.319 166.11 146.405 165.909H203Z" fill="#DBD7D7"/>
<path d="M203 166.118C203 166.256 202.998 166.395 202.988 166.531C202.983 166.691 202.971 166.851 202.955 167.009C202.912 167.446 202.838 167.871 202.732 168.287C202.651 168.614 202.553 168.932 202.436 169.243C202.202 169.869 201.901 170.459 201.538 171.008H186.634C186.541 170.867 186.453 170.724 186.369 170.578C186.121 170.153 185.91 169.708 185.736 169.243C185.719 169.2 185.705 169.157 185.691 169.114C185.593 168.844 185.509 168.569 185.44 168.287C185.335 167.871 185.261 167.446 185.218 167.009C185.201 166.851 185.189 166.691 185.184 166.531C185.175 166.395 185.172 166.256 185.172 166.118C185.172 166.048 185.175 165.977 185.175 165.91C185.184 165.48 185.225 165.059 185.294 164.646C185.306 164.567 185.32 164.486 185.337 164.407C185.49 163.614 185.75 162.859 186.099 162.156C186.744 160.859 187.695 159.738 188.861 158.895C190.328 157.83 192.134 157.201 194.086 157.201C198.425 157.201 202.04 160.3 202.835 164.407C202.852 164.486 202.866 164.567 202.878 164.646C202.947 165.059 202.988 165.48 202.998 165.91C203 165.977 203 166.048 203 166.118Z" fill="#DBD7D7"/>
<path d="M166.81 164.559C166.81 166.94 167.519 169.157 168.737 171.008H188.386C189.605 169.157 190.313 166.94 190.313 164.559C190.313 164.467 190.312 164.375 190.31 164.285C190.164 157.921 184.961 152.807 178.563 152.807C172.164 152.807 166.96 157.921 166.814 164.285C166.812 164.375 166.81 164.467 166.81 164.559Z" fill="#DBD7D7"/>
<path d="M153.045 166.968C153.045 168.46 153.489 169.849 154.252 171.008H166.561C167.324 169.849 167.768 168.46 167.768 166.968C167.768 166.911 167.767 166.853 167.766 166.797C167.675 162.81 164.415 159.606 160.407 159.606C156.399 159.606 153.139 162.81 153.048 166.797C153.046 166.853 153.045 166.911 153.045 166.968Z" fill="#DBD7D7"/>
<path d="M145.977 168.026C145.977 168.292 145.995 168.552 146.032 168.808C146.148 169.612 146.439 170.359 146.867 171.009H155.953C156.517 170.153 156.844 169.128 156.844 168.026C156.844 167.984 156.843 167.942 156.843 167.901C156.826 167.195 156.676 166.524 156.416 165.909C155.59 163.96 153.66 162.592 151.411 162.592C149.161 162.592 147.23 163.96 146.404 165.909C146.226 166.328 146.099 166.775 146.032 167.241C146.001 167.457 145.983 167.677 145.978 167.901C145.977 167.941 145.977 167.984 145.977 168.026Z" fill="#DBD7D7"/>
<path d="M203 168.286H43V169.242H203V168.286Z" fill="#FEFEFE"/>
<path opacity="0.5" d="M203 166.53H43V167.008H203V166.53Z" fill="#FEFEFE"/>
<path opacity="0.25" d="M202.878 164.645H43.1243C43.1362 164.566 43.1505 164.485 43.1673 164.406H202.835C202.852 164.485 202.866 164.566 202.878 164.645Z" fill="#FEFEFE"/>
<path d="M128.429 147.646H116.011V162.461H128.429V147.646Z" fill="#2D3AAD"/>
<path d="M128.429 149.901V157.16C125.947 155.908 116.49 151.093 116.49 150.402L128.429 149.901Z" fill="#23204D"/>
<path d="M163.004 150.798H83.2472C82.5648 150.798 82.0117 150.244 82.0117 149.562V94.6739C82.0117 93.9916 82.5648 93.4385 83.2472 93.4385H163.004C163.686 93.4385 164.239 93.9916 164.239 94.6739V149.562C164.239 150.244 163.686 150.798 163.004 150.798Z" fill="#4150D9"/>
<path d="M161.247 97.0724V142.751C161.247 143.042 161.008 143.279 160.717 143.279H85.5343C85.2428 143.279 85.0039 143.042 85.0039 142.751V97.0724C85.0039 96.7809 85.2428 96.542 85.5343 96.542H160.717C161.008 96.542 161.247 96.7809 161.247 97.0724Z" fill="#FEFEFE"/>
<path d="M163.706 162.073H82.5445C82.2502 162.073 82.0117 162.312 82.0117 162.606V165.68C82.0117 165.975 82.2504 166.213 82.5445 166.213H163.706C164.001 166.213 164.239 165.974 164.239 165.68V162.606C164.239 162.312 164.001 162.073 163.706 162.073Z" fill="#2D3AAD"/>
<path d="M153.388 144.112L157.275 144.02L159.218 143.974L160.189 143.952C160.52 143.948 160.825 143.935 161.102 143.852C161.236 143.807 161.362 143.749 161.46 143.672C161.557 143.592 161.631 143.501 161.681 143.391C161.779 143.165 161.8 142.894 161.793 142.573L161.848 140.626C161.889 139.329 161.947 138.032 162.039 136.736C162.04 136.719 162.055 136.707 162.071 136.708C162.086 136.709 162.098 136.721 162.099 136.736C162.19 138.031 162.249 139.326 162.291 140.62L162.345 142.561C162.361 142.88 162.361 143.284 162.157 143.64C162.058 143.817 161.911 143.974 161.741 144.08C161.571 144.186 161.389 144.242 161.212 144.284C160.858 144.359 160.509 144.34 160.193 144.333L159.221 144.31L157.277 144.264L153.389 144.172C153.372 144.172 153.359 144.158 153.36 144.142C153.359 144.125 153.372 144.113 153.388 144.112Z" fill="#FEFEFE"/>
<path d="M159.301 130.712L159.498 132.751C157.316 133.367 155.343 134.443 153.679 135.859L152.092 134.552C151.157 133.78 149.771 133.914 149.001 134.851L148.271 135.738C147.499 136.674 147.633 138.059 148.571 138.829L150.158 140.136C149.087 142.04 148.411 144.183 148.225 146.443L146.186 146.641C144.979 146.758 144.096 147.831 144.213 149.038L144.324 150.183C144.441 151.39 145.513 152.273 146.721 152.157L148.759 151.959C149.376 154.141 150.451 156.114 151.867 157.778L150.56 159.365C149.788 160.301 149.922 161.686 150.86 162.456L151.746 163.186C152.682 163.958 154.067 163.824 154.837 162.887L156.144 161.3C158.049 162.37 160.191 163.047 162.451 163.232L162.649 165.271C162.766 166.478 163.839 167.361 165.046 167.245L166.191 167.134C167.399 167.016 168.282 165.944 168.165 164.737L167.967 162.698C170.15 162.082 172.123 161.006 173.786 159.59L175.373 160.897C176.309 161.669 177.695 161.535 178.465 160.597L179.194 159.711C179.967 158.775 179.833 157.39 178.895 156.62L177.308 155.313C178.378 153.408 179.055 151.266 179.241 149.006L181.279 148.808C182.486 148.691 183.37 147.618 183.253 146.411L183.142 145.266C183.025 144.059 181.952 143.175 180.745 143.292L178.706 143.49C178.09 141.308 177.015 139.335 175.599 137.671L176.905 136.084C177.678 135.148 177.543 133.763 176.606 132.993L175.719 132.263C174.784 131.491 173.398 131.625 172.628 132.563L171.321 134.15C169.417 133.079 167.274 132.402 165.014 132.217L164.816 130.178C164.699 128.971 163.627 128.088 162.42 128.205L161.274 128.316C160.067 128.432 159.184 129.505 159.301 130.712ZM165.35 137.778C166.255 137.926 167.127 138.195 167.942 138.573C169.519 139.301 170.889 140.429 171.906 141.837C172.433 142.564 172.864 143.368 173.184 144.228C173.479 145.023 173.676 145.87 173.762 146.753C173.847 147.636 173.816 148.504 173.679 149.341C173.531 150.247 173.262 151.118 172.884 151.933C172.156 153.51 171.028 154.88 169.62 155.898C168.893 156.425 168.089 156.856 167.229 157.175C166.434 157.471 165.588 157.668 164.705 157.753C163.822 157.839 162.953 157.808 162.116 157.671C161.21 157.522 160.339 157.253 159.524 156.876C157.947 156.147 156.577 155.02 155.56 153.612C155.033 152.885 154.602 152.081 154.282 151.22C153.987 150.425 153.789 149.579 153.704 148.696C153.618 147.813 153.649 146.945 153.787 146.108C153.935 145.202 154.204 144.33 154.581 143.516C155.31 141.939 156.438 140.569 157.846 139.551C158.573 139.024 159.377 138.593 160.237 138.273C161.032 137.978 161.878 137.781 162.761 137.695C163.644 137.61 164.513 137.641 165.35 137.778Z" fill="#62C7D3"/>
<path d="M154.246 136.364C154.955 135.641 155.766 135.02 156.642 134.514C157.518 134.006 158.457 133.612 159.423 133.313L159.438 133.364C158.983 133.598 158.535 133.824 158.089 134.046C157.869 134.163 157.645 134.271 157.429 134.392C157.209 134.506 156.994 134.629 156.78 134.751C156.349 134.994 155.934 135.263 155.516 135.533L155.206 135.742C155.105 135.814 155.006 135.89 154.902 135.96L154.593 136.178C154.494 136.255 154.39 136.329 154.284 136.401L154.246 136.364Z" fill="#FEFEFE"/>
<path d="M148.699 136.01C148.8 135.795 148.929 135.595 149.075 135.408C149.221 135.221 149.388 135.046 149.58 134.898C149.772 134.753 149.983 134.617 150.228 134.56C150.47 134.5 150.732 134.511 150.953 134.61L150.939 134.662C150.706 134.648 150.491 134.675 150.286 134.748C150.08 134.819 149.89 134.938 149.71 135.069C149.53 135.201 149.361 135.355 149.203 135.52C149.044 135.683 148.889 135.856 148.744 136.037L148.699 136.01Z" fill="#FEFEFE"/>
<path d="M168.102 157.699C168.101 157.692 168.094 157.686 168.087 157.684C168.086 157.683 168.09 157.683 168.09 157.683C168.09 157.683 168.1 157.681 168.106 157.68C168.119 157.679 168.138 157.672 168.153 157.669C168.187 157.658 168.22 157.645 168.254 157.631C168.322 157.601 168.389 157.569 168.455 157.534C168.588 157.466 168.719 157.392 168.847 157.314C169.103 157.157 169.351 156.985 169.59 156.803C170.072 156.444 170.524 156.047 170.948 155.625C171.792 154.777 172.519 153.815 173.067 152.759C173.619 151.706 173.992 150.561 174.184 149.382C174.371 148.202 174.385 146.989 174.269 145.779L174.374 145.762C174.647 146.955 174.743 148.204 174.599 149.439C174.531 150.056 174.401 150.668 174.222 151.264C174.037 151.86 173.799 152.439 173.51 152.992C172.929 154.095 172.15 155.09 171.231 155.923C170.773 156.34 170.279 156.717 169.757 157.047C169.494 157.21 169.224 157.362 168.947 157.497C168.808 157.565 168.667 157.629 168.521 157.685C168.448 157.712 168.374 157.737 168.298 157.759C168.26 157.769 168.221 157.779 168.181 157.787C168.159 157.789 168.141 157.794 168.115 157.794C168.102 157.794 168.093 157.796 168.075 157.792C168.066 157.79 168.059 157.789 168.049 157.786C168.035 157.779 168.02 157.767 168.011 157.754L168.102 157.699Z" fill="#FEFEFE"/>
<path d="M62.6826 120.583C62.5301 120.499 61.6939 118.737 61.8134 116.468C61.9329 114.198 63.3066 112.287 66.7112 112.645C70.1157 113.003 71.3103 120.29 71.3103 120.29" fill="#FFDA08"/>
<path d="M67.9458 165.86L70.9423 160.943L74.0886 162.334L70.1376 166.87" fill="#1B193B"/>
<path d="M44.4614 165.641L47.1626 162.919L51.3331 162.699L46.6504 166.431L44.4614 165.641Z" fill="#1B193B"/>
<path d="M85.5845 114.508C85.5845 114.508 79.7889 119.345 77.6441 118.978C75.4994 118.612 75.8769 116.296 78.2503 115.408L84.9261 113.563C84.9261 113.563 85.2161 114.034 85.5845 114.508Z" fill="#F58C62"/>
<path d="M71.1415 129.631C69.8461 128.911 68.4191 128.127 67.4493 126.983C67.3848 126.907 67.327 126.827 67.273 126.745L61.4308 127.14C61.4308 127.14 58.6106 145.469 56.748 147.773C55.2333 149.647 43.5491 156.893 46.0395 162.867C47.3008 163.184 50.1766 163.955 50.1766 163.955C51.7453 164.782 62.073 153.032 64.6502 149.236C66.9215 145.891 69.9374 135.241 71.3962 129.752C71.3114 129.717 71.2263 129.679 71.1415 129.631Z" fill="#FFB200"/>
<path d="M67.9457 165.86L70.2154 166.254C70.2154 166.254 73.884 167.371 73.9731 167.807C74.067 168.265 67.6358 167.741 67.6358 167.741C66.9169 167.274 67.2963 166.593 67.9457 165.86Z" fill="#1B193B"/>
<path d="M76.606 118.82C72.7028 118.48 66.006 115.45 66.8783 113.689C67.7341 111.962 69.4242 113.081 69.4242 113.081L77.5545 115.317C81.5231 116.835 79.634 119.271 76.606 118.82Z" fill="#F58C62"/>
<path d="M77.9268 115.38C77.8442 115.345 77.7625 115.311 77.6743 115.278L69.4133 113.048C69.4133 113.048 67.7003 111.917 66.8177 113.687C65.9179 115.491 72.7144 118.54 76.6852 118.862C77.0498 118.914 77.3976 118.923 77.7221 118.9C77.8052 117.719 77.9247 116.533 77.9268 115.38Z" fill="#FFB200"/>
<path d="M64.5878 120.106C64.579 120.094 64.5706 120.082 64.562 120.07C63.6821 120.073 62.8738 120.059 62.2949 120.044C62.3974 120.24 62.526 120.42 62.6827 120.583C62.8934 120.58 63.7698 120.566 64.9072 120.551C64.7954 120.394 64.6881 120.244 64.5878 120.106Z" fill="#FFDA08"/>
<path d="M69.2445 119.754C69.2128 119.761 69.1779 119.767 69.1449 119.774C69.2997 120.021 69.4514 120.266 69.5981 120.509C70.6771 120.506 71.5176 120.514 71.7699 120.539C72.0093 120.36 72.0936 120.132 72.1232 119.885C72.07 119.41 72.0143 118.938 71.9548 118.485C73.1783 118.096 71.8991 117.165 71.8991 117.165L70.9246 114.552C70.0729 113.109 68.9139 112.676 68.9139 112.676L68.5569 112.623L68.4516 112.605L68.3457 112.611C68.3512 112.708 68.3144 112.812 68.2311 112.872C67.5666 113.349 66.5297 112.952 65.7752 113.022C65.5953 113.039 65.4795 112.944 65.4274 112.814L65.2996 112.829C65.3041 112.834 65.3053 112.84 65.3103 112.845C67.0824 114.665 68.4535 117.184 69.2445 119.754Z" fill="#FFDA08"/>
<path d="M71.2082 123.308C71.2465 123.286 71.2847 123.263 71.3229 123.239C71.3325 123.306 71.3134 123.372 71.2727 123.425C71.2847 123.447 71.2966 123.468 71.3086 123.49C71.4113 123.509 71.526 123.49 71.6311 123.511C71.7649 123.537 71.8844 123.714 71.7769 123.8L71.8246 124.003C71.7625 124.041 71.7052 124.08 71.6455 124.118C71.7554 124.328 71.8175 124.448 71.8175 124.448L72.8878 125.418C72.7684 125.226 72.7039 125.124 72.7039 125.124L72.1345 122.828L70.9397 122.822C71.0357 122.995 71.1258 123.158 71.2082 123.308Z" fill="#FFDA08"/>
<path d="M84.9887 146.75C83.9901 143.783 79.2619 135.796 75.972 130.404C74.044 129.29 69.992 126.916 68.9622 126.003C68.8571 126.077 68.74 126.134 68.6206 126.096C68.4056 126.024 68.4175 125.716 68.4701 125.496C68.3339 125.508 68.1858 125.52 68.0639 125.458C67.9397 125.394 67.8632 125.224 67.9445 125.112C67.9851 125.054 68.0544 125.031 68.1236 125.014C67.658 124.407 67.0844 123.612 66.5059 122.802L61.5446 122.779L61.5439 122.78C61.5439 122.78 57.9171 126.849 60.2585 130.946C62.5999 135.044 75.5611 144.904 75.4775 146.457C75.4249 147.465 66.5086 161.253 69.7698 162.409L71.0575 163.023L72.1231 163.534L73.1361 164.017C74.8276 164.946 86.5919 151.51 84.9887 146.75Z" fill="#FFDA08"/>
<path d="M65.077 120.868L63.4 120.941L63.3286 121.074L65.3095 121.117C65.2505 121.034 65.1929 120.953 65.136 120.873C65.1162 120.872 65.0966 120.87 65.077 120.868Z" fill="#FFB200"/>
<path d="M63.2135 121.071L63.2565 120.733C63.1021 120.723 62.9478 120.709 62.7935 120.698C62.7533 120.661 62.7194 120.621 62.6826 120.583C62.6511 120.583 62.6289 120.584 62.6289 120.584C61.8949 120.864 61.7716 121.885 61.5435 122.779H61.5447L63.0157 121.067L63.2135 121.071Z" fill="#FFB200"/>
<path d="M71.7256 120.578L69.6934 120.666C69.8061 120.854 69.9167 121.04 70.0233 121.222L71.7459 121.261L72.1346 122.828L72.1618 122.828C72.191 122.024 72.3265 121.183 71.8524 120.558C71.8524 120.551 71.8207 120.545 71.7698 120.54C71.7655 120.543 71.7624 120.546 71.7581 120.55C71.7457 120.558 71.7361 120.569 71.7256 120.578Z" fill="#FFB200"/>
<path d="M63.2565 120.733L63.2135 121.071L63.3284 121.074L63.3998 120.941L65.0768 120.868C65.0966 120.869 65.1162 120.871 65.1358 120.873C65.0574 120.762 64.9812 120.655 64.9069 120.551C63.7694 120.566 62.8931 120.579 62.6824 120.583C62.7192 120.621 62.7531 120.661 62.7932 120.698C62.9478 120.709 63.1021 120.723 63.2565 120.733Z" fill="#FFB200"/>
<path d="M69.5981 120.509C69.6299 120.562 69.6622 120.614 69.6935 120.666L71.7257 120.578C71.7362 120.569 71.746 120.559 71.7582 120.55C71.7625 120.547 71.7658 120.543 71.7699 120.54C71.5176 120.514 70.6771 120.507 69.5981 120.509Z" fill="#FFB200"/>
<path d="M70.0232 121.223C70.3677 121.807 70.6773 122.352 70.9397 122.823L72.1345 122.828L71.7458 121.261L70.0232 121.223Z" fill="#FFB200"/>
<path d="M66.1312 122.276C65.8492 121.877 65.5697 121.485 65.3093 121.118L63.3284 121.074L63.1774 121.354L63.2135 121.072L63.0157 121.067L61.5447 122.78L66.506 122.802C66.3811 122.627 66.2556 122.451 66.1312 122.276Z" fill="#FFB200"/>
<path d="M63.1777 121.354L63.3285 121.074L63.2136 121.071L63.1777 121.354Z" fill="#FFB200"/>
<path d="M69.1449 119.774C68.0222 120.001 66.1735 120.065 64.562 120.071C64.5709 120.083 64.579 120.094 64.5878 120.107C64.6882 120.245 64.7952 120.394 64.9072 120.551C66.3379 120.532 68.172 120.512 69.5981 120.509C69.4514 120.267 69.2997 120.021 69.1449 119.774Z" fill="#FFDA08"/>
<path d="M68.5036 118.773C68.5012 118.771 68.5012 118.769 68.4988 118.764C68.4105 118.632 68.3221 118.501 68.2337 118.37C68.2241 118.355 68.2145 118.341 68.205 118.327C68.119 118.198 68.0306 118.071 67.9422 117.944C67.9374 117.937 67.9326 117.93 67.9278 117.923C67.8442 117.801 67.7606 117.681 67.6746 117.564C67.665 117.55 67.6555 117.536 67.6435 117.521C67.5599 117.407 67.4787 117.292 67.3951 117.18C67.3783 117.156 67.3592 117.134 67.3425 117.11C67.2613 117.001 67.1776 116.893 67.0964 116.786C67.0821 116.769 67.0701 116.752 67.0558 116.735C66.977 116.635 66.9005 116.535 66.8217 116.439C66.8121 116.427 66.8002 116.413 66.7906 116.401C66.7094 116.301 66.6281 116.203 66.5469 116.107C66.5278 116.088 66.5111 116.066 66.492 116.045C66.4131 115.952 66.3343 115.863 66.2554 115.775C66.2387 115.758 66.2244 115.741 66.2076 115.725C66.1288 115.641 66.05 115.558 65.9735 115.479C65.9687 115.474 65.9639 115.467 65.9592 115.462C65.8779 115.381 65.7991 115.304 65.7203 115.23C65.7059 115.216 65.6892 115.202 65.6749 115.187C65.5984 115.118 65.522 115.051 65.4479 114.989L65.4049 114.953C65.3284 114.891 65.252 114.831 65.1755 114.776C65.1731 114.774 65.1684 114.771 65.1636 114.769C65.0919 114.717 65.0202 114.671 64.9486 114.628C64.9366 114.621 64.9247 114.614 64.9151 114.607C64.8434 114.566 64.7741 114.53 64.7072 114.499C64.6929 114.494 64.681 114.487 64.669 114.482C64.5997 114.454 64.5328 114.427 64.4659 114.411C64.4612 114.408 64.454 114.408 64.4492 114.406C64.3847 114.389 64.3226 114.38 64.2605 114.375C64.2533 114.373 64.2461 114.373 64.239 114.373C64.1769 114.368 64.1171 114.37 64.0598 114.38C64.0502 114.382 64.0383 114.382 64.0287 114.384C63.9714 114.396 63.914 114.413 63.8615 114.437C63.8591 114.437 63.8567 114.439 63.8543 114.439C63.8233 114.451 63.797 114.466 63.7707 114.482C63.5867 114.607 63.4338 114.738 63.3048 114.877C63.2905 114.891 63.2785 114.908 63.2642 114.922C63.2475 114.941 63.2307 114.958 63.2164 114.975C63.2092 114.984 63.2045 114.991 63.1973 115.001C63.1782 115.025 63.1591 115.049 63.1423 115.073C63.1256 115.094 63.1089 115.118 63.0922 115.142C63.0754 115.166 63.0611 115.187 63.0468 115.211C63.0301 115.237 63.0157 115.261 63.0014 115.285C62.9894 115.309 62.9751 115.333 62.9632 115.354C62.9488 115.383 62.9369 115.409 62.9249 115.438C62.9154 115.46 62.9034 115.481 62.8963 115.503C62.8795 115.536 62.8676 115.572 62.8556 115.608C62.8509 115.622 62.8437 115.636 62.8389 115.651C62.8246 115.701 62.8103 115.751 62.7983 115.804C62.7935 115.816 62.7935 115.83 62.7887 115.842C62.7816 115.88 62.772 115.921 62.7672 115.959C62.7649 115.976 62.7625 115.992 62.7601 116.011C62.7553 116.047 62.7505 116.083 62.7481 116.119C62.7457 116.136 62.7457 116.155 62.7457 116.172C62.7434 116.207 62.741 116.246 62.741 116.281V116.332C62.741 116.37 62.741 116.41 62.7434 116.449C62.7457 116.463 62.7457 116.477 62.7457 116.494C62.7505 116.537 62.7529 116.578 62.7577 116.621C62.7601 116.633 62.7601 116.645 62.7625 116.654C62.7696 116.707 62.7768 116.757 62.7864 116.809V116.817C62.8294 117.044 62.8963 117.271 62.9799 117.495C62.9799 117.498 62.9823 117.5 62.9823 117.505C63.0038 117.557 63.0229 117.61 63.0444 117.662C63.0468 117.665 63.0492 117.67 63.0492 117.672C63.0731 117.725 63.0946 117.777 63.1185 117.83C63.1208 117.832 63.1208 117.834 63.1232 117.837C63.2475 118.114 63.3956 118.382 63.5533 118.635C63.5557 118.642 63.5581 118.647 63.5628 118.652C63.5891 118.695 63.6154 118.735 63.6417 118.778C63.6512 118.79 63.6584 118.804 63.668 118.819C63.6895 118.85 63.7086 118.883 63.7301 118.914C63.7444 118.933 63.7564 118.953 63.7707 118.972C63.785 118.996 63.7994 119.017 63.8161 119.039C63.8328 119.067 63.8519 119.093 63.871 119.12C63.8782 119.129 63.8854 119.141 63.8925 119.153C63.9762 119.268 64.0574 119.383 64.1362 119.488C64.2564 119.646 64.4007 119.845 64.562 120.07C66.1735 120.065 68.0222 120.001 69.1449 119.774C68.9358 119.441 68.7225 119.106 68.5036 118.773Z" fill="#FFDA08"/>
<path d="M71.6454 124.118C71.7052 124.079 71.7625 124.041 71.8246 124.003L71.7768 123.8C71.8843 123.714 71.7649 123.537 71.6311 123.511C71.526 123.489 71.4113 123.508 71.3086 123.489C71.2966 123.468 71.2847 123.446 71.2727 123.425C71.3133 123.372 71.3325 123.305 71.3229 123.238C71.2847 123.262 71.2464 123.286 71.2082 123.308C71.1256 123.158 71.0355 122.994 70.9397 122.822L66.5061 122.802C67.0845 123.612 67.6582 124.407 68.1238 125.014C68.0545 125.03 67.9852 125.054 67.9446 125.112C67.8634 125.224 67.9398 125.394 68.0641 125.458C68.1859 125.52 68.3341 125.508 68.4702 125.496C68.4177 125.716 68.4057 126.024 68.6208 126.096C68.7402 126.134 68.8573 126.077 68.9624 126.003C69.9921 126.915 74.0442 129.29 75.9722 130.404C74.51 128.007 73.3322 126.122 72.8902 125.42L72.8878 125.417L71.8175 124.447C71.8175 124.447 71.7553 124.328 71.6454 124.118Z" fill="#FFB200"/>
<path d="M69.6933 120.666L67.12 120.777V120.78L67.1873 121.07C66.5045 120.982 65.8217 120.924 65.1362 120.873C65.1931 120.953 65.2507 121.034 65.3097 121.117L70.0235 121.222C69.9167 121.04 69.8061 120.854 69.6933 120.666Z" fill="#FF8C00"/>
<path d="M67.1198 120.78V120.777L69.6932 120.666C69.6619 120.614 69.6296 120.561 69.5979 120.509C68.1718 120.512 66.3376 120.532 64.907 120.551C64.981 120.655 65.0573 120.762 65.1359 120.873C65.8213 120.925 66.5044 120.982 67.187 121.07L67.1198 120.78Z" fill="#FF8C00"/>
<path d="M70.0231 121.222L65.3093 121.117C65.5697 121.485 65.8493 121.877 66.1312 122.276C66.2557 122.451 66.3809 122.627 66.5061 122.802L70.9396 122.822C70.6773 122.352 70.3679 121.806 70.0231 121.222Z" fill="#FF8C00"/>
<path d="M66.2435 111.71C66.184 111.716 63.8345 112.207 63.8345 112.207L65.268 113.481L64.5512 114.178L69.648 116.07L70.2453 113.322L69.4887 113.362L69.8669 111.949C69.8669 111.949 67.9756 111.53 66.2435 111.71Z" fill="#FFB200"/>
<path d="M65.2329 112.836C65.5368 113.177 69.03 115.019 69.03 115.019C69.03 115.019 69.1287 113.143 68.556 112.624L68.4511 112.607L66.3539 112.71L65.2329 112.836Z" fill="#FEA574"/>
<path d="M67.744 112.889L65.9927 112.951L65.9712 109.602L67.3259 110.244L67.548 111.644L67.6556 112.33L67.744 112.889Z" fill="#FEA574"/>
<path d="M64.587 109.758C64.5956 110.825 65.7077 111.682 66.7742 111.673C67.9435 111.663 68.4025 111.574 68.5816 111.165C68.6433 111.026 68.672 110.845 68.6841 110.619C68.6982 110.377 68.6935 110.084 68.6884 109.724C68.677 108.659 67.8066 107.799 66.7398 107.811C65.6736 107.819 64.5784 108.69 64.587 109.758Z" fill="#FEA574"/>
<path d="M67.2029 109.371C67.2029 109.371 66.8042 109.111 66.2344 109.565" stroke="#1B193B" stroke-width="0.75" stroke-miterlimit="10"/>
<path d="M67.8586 109.293C67.8586 109.293 68.1066 109.046 68.5873 109.183" stroke="#1B193B" stroke-width="0.75" stroke-miterlimit="10"/>
<path d="M67.6292 110.604L68.1318 110.471C68.0023 110.173 67.7866 110.227 67.7754 109.445" stroke="#F05E4A" stroke-width="0.5" stroke-miterlimit="10"/>
<path d="M68.3484 110.049C68.5789 110.049 68.5794 109.69 68.3484 109.69C68.1178 109.69 68.1174 110.049 68.3484 110.049Z" fill="#1B193B"/>
<path d="M67.0322 110.195C67.2628 110.195 67.2633 109.837 67.0322 109.837C66.8017 109.837 66.8012 110.195 67.0322 110.195Z" fill="#1B193B"/>
<path d="M44.4614 165.642L46.5027 165.916C46.7978 166.034 50.3309 167.19 50.4169 167.626C50.5074 168.085 44.1451 167.52 44.1451 167.52C43.5738 167.148 43.8335 166.464 44.4614 165.642Z" fill="#1B193B"/>
<path d="M85.6861 114.277C85.8612 114.178 86.05 114.1 86.2303 114.002C86.4222 113.899 86.5722 113.812 86.7591 113.773C86.7677 113.771 86.7765 113.769 86.7853 113.766C86.684 113.765 86.6207 113.767 86.6207 113.767C86.6207 113.767 88.3799 113.186 88.2707 112.966C88.1615 112.747 86.7457 113.349 86.7457 113.349C86.7457 113.349 88.2525 112.151 88.1046 111.943C87.9568 111.736 86.4117 112.946 86.4117 112.946C86.4117 112.946 87.4359 111.685 87.223 111.54C87.0102 111.394 84.6982 113.745 84.658 113.821C84.6227 113.887 85.4842 114.204 85.6861 114.277Z" fill="#F58C62"/>
<path d="M86.6431 113.667C86.6431 113.667 87.9197 113.491 87.89 113.607C87.8604 113.724 85.3606 115.109 84.971 114.737C84.5813 114.364 84.658 113.821 84.658 113.821L85.6798 113.451L86.646 113.635" fill="#F58C62"/>
<path d="M84.658 113.821C84.6986 113.805 84.8238 113 84.8238 113C84.8238 113 84.7951 112.755 85.143 112.439C85.4908 112.123 86.0635 112.056 86.1992 111.941C86.3349 111.825 86.3868 112.241 85.8944 112.484C85.4019 112.727 85.5489 113.274 85.5489 113.274L84.658 113.821Z" fill="#F58C62"/>
<path d="M76.7915 119.263C76.9236 117.886 77.0555 116.509 77.1876 115.133C77.1953 115.054 77.2058 114.968 77.2615 114.911C77.3171 114.855 77.4342 114.857 77.459 114.933C77.475 114.981 77.4469 115.034 77.4545 115.085C77.4686 115.178 77.5995 115.209 77.6805 115.162C77.7615 115.114 77.8024 115.022 77.838 114.935C78.0597 115.22 78.0143 115.622 77.9653 115.98C77.8088 117.12 77.724 118.27 77.7116 119.42C77.5816 119.381 77.4784 119.264 77.4559 119.13C77.3979 119.277 77.1979 119.346 77.061 119.267" fill="#FFDA08"/>
<path d="M67.6556 112.33C67.3474 112.294 66.9006 112.117 66.4299 111.518C66.4299 111.518 67.0224 111.678 67.5481 111.644L67.6556 112.33Z" fill="#F58C62"/>
<path d="M67.1555 110.802L68.0713 110.891C68.0713 110.891 68.0216 111.419 67.5139 111.399C67.0062 111.379 67.1555 110.802 67.1555 110.802Z" fill="#FEFEFE"/>
<path d="M66.0314 111.499C65.9344 111.315 65.8374 111.13 65.7406 110.946C65.7094 110.886 65.6728 110.822 65.6121 110.8C65.5514 110.777 65.486 110.804 65.4222 110.813C65.1723 110.848 64.9639 110.601 64.8724 110.35C64.8182 110.203 64.7871 110.038 64.8258 109.885C64.8645 109.732 64.9873 109.595 65.136 109.587C65.3452 109.574 65.4953 109.798 65.5734 110.005C65.6515 110.212 65.7163 110.452 65.8983 110.563C65.9394 110.024 65.8737 109.476 65.7067 108.966C65.9791 109.066 66.3064 108.801 66.2906 108.495C66.3907 108.696 66.628 108.807 66.8349 108.749C67.0415 108.692 67.1976 108.471 67.1928 108.243C67.323 108.268 67.4281 108.367 67.5292 108.458C67.6302 108.549 67.7442 108.64 67.8763 108.645C68.0084 108.651 68.1508 108.525 68.1195 108.388C68.2012 108.54 68.4046 108.58 68.5546 108.509C68.7046 108.438 68.8062 108.283 68.8683 108.12C68.9577 107.888 68.9758 107.605 68.8447 107.396C68.7135 107.187 68.4022 107.108 68.234 107.284C68.0104 106.824 67.3691 106.787 66.9498 107.05C66.8822 107.093 66.8146 107.142 66.7367 107.151C66.6543 107.16 66.5745 107.122 66.4985 107.086C66.0369 106.869 65.5452 106.701 65.0409 106.695C64.5365 106.689 64.0154 106.861 63.659 107.241C63.3025 107.622 63.1446 108.23 63.3434 108.724C62.9592 108.939 62.8132 109.482 62.9255 109.928C63.0378 110.375 63.3534 110.733 63.7008 111.01C63.9349 111.196 64.191 111.356 64.4703 111.449C64.956 111.609 65.4786 111.554 65.9836 111.492" fill="#1B193B"/>
<path d="M63.3155 109.543C63.1251 109.976 62.7395 110.304 62.3068 110.496C61.8741 110.688 61.3958 110.756 60.923 110.774C60.745 110.781 60.541 110.769 60.4287 110.631C60.3329 110.513 60.3412 110.335 60.4134 110.202C60.4855 110.068 60.6103 109.971 60.7378 109.889C61.0503 109.687 61.4037 109.548 61.7702 109.483C60.8986 109.725 59.9107 109.496 59.2346 108.895C59.0537 108.734 58.8836 108.517 58.913 108.277C58.9429 108.034 59.167 107.862 59.3925 107.767C59.8758 107.563 60.4507 107.589 60.9137 107.836C60.4791 107.695 60.1415 107.355 59.8395 107.013C59.5531 106.688 59.2718 106.328 59.2061 105.899C59.1404 105.472 59.3734 104.969 59.7979 104.883C60.148 104.813 60.4851 105.034 60.7648 105.256C61.1942 105.596 61.6006 105.965 61.9807 106.36C61.8863 106.002 61.7195 105.661 61.683 105.292C61.6464 104.924 61.786 104.498 62.1283 104.357C62.5168 104.197 62.9593 104.482 63.1798 104.84C63.4003 105.197 63.4842 105.624 63.6856 105.992C63.6486 105.714 63.6115 105.429 63.6724 105.155C63.7334 104.88 63.9133 104.615 64.1816 104.533C64.4363 104.455 64.722 104.559 64.9131 104.745C65.104 104.93 65.213 105.185 65.282 105.443C65.5143 106.31 65.3205 107.281 64.7731 107.992" fill="#1B193B"/>
<path d="M69.0054 115.751C70.3486 117.714 71.0032 119.941 70.9301 122.319C70.9205 122.627 71.3986 122.627 71.4079 122.319C71.4834 119.866 70.8046 117.536 69.418 115.51C69.2452 115.257 68.831 115.496 69.0054 115.751Z" fill="#FFB200"/>
<path d="M110.092 129.091H107.796C107.345 126.59 106.358 124.272 104.958 122.263L106.588 120.633C107.55 119.673 107.55 118.113 106.588 117.152L105.677 116.242C104.717 115.279 103.157 115.279 102.196 116.242L100.567 117.872C98.5576 116.471 96.2401 115.485 93.7387 115.033V112.737C93.7387 111.378 92.6372 110.276 91.2778 110.276H89.9877C88.6282 110.276 87.5268 111.378 87.5268 112.737V115.033C85.0254 115.485 82.7079 116.471 80.6986 117.872L79.0692 116.242C78.1087 115.279 76.5486 115.279 75.5882 116.242L74.6779 117.152C73.7151 118.113 73.7151 119.673 74.6779 120.633L76.3073 122.263C74.9073 124.272 73.9205 126.59 73.469 129.091H71.173C69.8136 129.091 68.7122 130.192 68.7122 131.552V132.842C68.7122 134.201 69.8136 135.303 71.173 135.303H73.469C73.9205 137.804 74.9073 140.122 76.3073 142.131L74.6779 143.761C73.7151 144.721 73.7151 146.281 74.6779 147.242L75.5882 148.152C76.5486 149.115 78.1087 149.115 79.0692 148.152L80.6986 146.522C82.7079 147.922 85.0254 148.909 87.5268 149.361V151.657C87.5268 153.016 88.6282 154.118 89.9877 154.118H91.2778C92.6372 154.118 93.7387 153.016 93.7387 151.657V149.361C96.2401 148.909 98.5576 147.922 100.567 146.522L102.196 148.152C103.157 149.115 104.717 149.115 105.677 148.152L106.588 147.242C107.55 146.281 107.55 144.721 106.588 143.761L104.958 142.131C106.358 140.122 107.345 137.804 107.796 135.303H110.092C111.452 135.303 112.553 134.201 112.553 132.842V131.552C112.553 130.192 111.452 129.091 110.092 129.091ZM101.555 135.076C101.292 136.071 100.898 137.014 100.388 137.882C99.4048 139.563 97.9985 140.969 96.3178 141.952C95.4495 142.462 94.5063 142.856 93.5119 143.119C92.5928 143.363 91.6273 143.491 90.633 143.491C89.6386 143.491 88.6731 143.363 87.754 143.119C86.7597 142.856 85.8162 142.462 84.9482 141.952C83.2674 140.969 81.8612 139.563 80.8778 137.882C80.3684 137.014 79.9742 136.071 79.7107 135.076C79.467 134.157 79.3387 133.192 79.3387 132.197C79.3387 131.203 79.4672 130.237 79.7107 129.318C79.9742 128.324 80.3684 127.38 80.8778 126.512C81.8612 124.832 83.2674 123.425 84.9482 122.442C85.8164 121.933 86.7597 121.538 87.754 121.275C88.6731 121.031 89.6386 120.903 90.633 120.903C91.6273 120.903 92.5928 121.031 93.5119 121.275C94.5063 121.538 95.4498 121.933 96.3178 122.442C97.9988 123.425 99.405 124.832 100.388 126.512C100.898 127.381 101.292 128.324 101.555 129.318C101.799 130.237 101.927 131.203 101.927 132.197C101.927 133.191 101.799 134.157 101.555 135.076Z" fill="#FC542D"/>
<path d="M104.334 122.84C105.063 123.709 105.668 124.681 106.139 125.713C106.61 126.745 106.948 127.835 107.177 128.945L107.119 128.957C106.908 128.424 106.704 127.899 106.504 127.378C106.397 127.12 106.301 126.859 106.189 126.604C106.086 126.346 105.972 126.094 105.859 125.841C105.634 125.334 105.379 124.842 105.124 124.347L104.924 123.979C104.854 123.858 104.78 123.739 104.713 123.615L104.503 123.247C104.428 123.128 104.357 123.004 104.288 122.878L104.334 122.84Z" fill="#FEFEFE"/>
<path d="M105.328 116.689C105.556 116.826 105.765 116.991 105.959 117.174C106.151 117.358 106.328 117.563 106.472 117.793C106.613 118.023 106.742 118.273 106.779 118.553C106.82 118.828 106.78 119.12 106.645 119.356L106.59 119.335C106.63 119.077 106.623 118.833 106.563 118.596C106.507 118.359 106.394 118.135 106.268 117.919C106.139 117.704 105.987 117.5 105.82 117.305C105.654 117.11 105.478 116.918 105.292 116.737L105.328 116.689Z" fill="#FEFEFE"/>
<path d="M79.0312 135.994C79.0391 135.993 79.0475 135.986 79.0496 135.979C79.0508 135.978 79.0511 135.982 79.0511 135.982C79.0511 135.982 79.0515 135.993 79.052 136C79.0518 136.015 79.0578 136.036 79.0599 136.054C79.0685 136.093 79.0793 136.132 79.0914 136.171C79.1168 136.249 79.1454 136.327 79.1772 136.405C79.2386 136.561 79.307 136.715 79.3808 136.866C79.5279 137.169 79.693 137.464 79.8698 137.751C80.2184 138.327 80.6124 138.875 81.0374 139.394C81.893 140.427 82.8871 141.341 84.0062 142.067C85.1217 142.797 86.3583 143.336 87.653 143.678C88.9501 144.015 90.3014 144.161 91.6642 144.163L91.6718 144.282C90.3107 144.457 88.9069 144.43 87.5446 144.136C86.8632 143.993 86.1951 143.782 85.5486 143.517C84.9048 143.247 84.2841 142.919 83.6987 142.537C82.5304 141.769 81.5043 140.792 80.675 139.677C80.2583 139.121 79.8916 138.529 79.5793 137.911C79.4262 137.6 79.2862 137.283 79.165 136.958C79.1046 136.796 79.0482 136.631 79.0019 136.463C78.9794 136.379 78.9598 136.293 78.9436 136.206C78.9359 136.163 78.9295 136.118 78.9254 136.072C78.9252 136.047 78.9216 136.026 78.9244 135.998C78.9259 135.984 78.9247 135.973 78.9309 135.953C78.9338 135.943 78.9352 135.936 78.9405 135.925C78.9495 135.91 78.9651 135.895 78.9799 135.886L79.0312 135.994Z" fill="#FEFEFE"/>
<path d="M78.3181 128.333C78.3181 128.333 80.4851 129.208 80.515 129.371C80.5448 129.534 80.148 129.463 80.1595 129.575C80.1709 129.687 80.5243 129.814 80.4622 130.028C80.4003 130.242 79.9956 130.133 79.9956 130.133C79.9956 130.133 80.3874 130.351 80.3375 130.566C80.2875 130.781 79.8052 130.602 79.8052 130.602C79.8052 130.602 80.1344 130.726 80.1179 130.97C80.1014 131.214 79.4633 131.003 78.9986 130.777C78.5341 130.55 77.6836 129.848 77.8241 129.386C77.9645 128.923 78.3181 128.333 78.3181 128.333Z" fill="#FEA574"/>
<path d="M69.494 125.016C68.497 124.026 65.5999 120.161 64.5257 118.856C63.4515 117.551 61.9956 115.316 63.9337 113.874C66.0705 112.401 72.4236 123.462 72.4236 123.462L78.3179 128.333L77.9012 129.769C77.9012 129.769 70.491 126.005 69.494 125.016Z" fill="#FEA574"/>
<path d="M72.073 122.869C71.7075 123.174 71.3324 123.475 70.943 123.762C70.4365 124.13 69.8917 124.505 69.4378 124.957C68.3913 123.884 65.5793 120.138 64.5257 118.855C63.5724 117.698 62.3181 115.809 63.4028 114.389C63.5389 114.208 63.7133 114.036 63.9331 113.873C63.9594 113.854 63.9857 113.84 64.0144 113.826C65.9114 112.836 70.7351 120.625 72.073 122.869Z" fill="#FFE524"/>
<path d="M78.186 128.347C78.6617 128.164 79.1128 127.933 79.3933 128.25C79.6738 128.567 80.1982 128.628 80.1982 128.628C80.1982 128.628 80.1616 128.884 79.8568 128.884C79.5519 128.884 79.3445 128.616 79.3445 128.616L78.6861 128.969L78.186 128.347Z" fill="#FEA574"/>
<path d="M72.4098 123.019C71.4707 123.654 70.5695 124.345 69.7127 125.088C69.5968 125.188 69.453 125.297 69.3056 125.255C69.0863 125.192 69.0836 124.885 69.1281 124.661C68.9912 124.681 68.845 124.7 68.7193 124.642C68.5936 124.584 68.5079 124.418 68.5843 124.302C68.6409 124.217 68.7544 124.196 68.8538 124.17C69.1348 124.097 69.3823 123.934 69.6241 123.773C70.374 123.275 71.1242 122.777 71.8742 122.278C71.8921 122.363 71.8582 122.457 71.7901 122.51C71.9153 122.563 72.0598 122.516 72.1941 122.535C72.3286 122.555 72.4567 122.728 72.3542 122.817" fill="#FFDA08"/>
<path d="M163.323 115.231L154.465 110.013L153.835 111.115C153.835 111.115 160.316 119.078 163.386 119.167C164.394 118.624 163.323 115.231 163.323 115.231Z" fill="#66393B"/>
<path d="M161.694 113.976C159.61 112.642 157.049 111.124 157.049 111.124L155.518 113.778C155.518 113.778 161.694 119.754 164.193 119.912C164.383 119.86 164.535 119.766 164.661 119.66C163.905 118.298 161.62 113.645 161.694 113.976Z" fill="#FFB200"/>
<path d="M193.033 141.647L196.983 136.938L198.966 137.762L195.469 143.087L193.033 141.647Z" fill="#784346"/>
<path d="M160.869 160.941L159.49 166.973L157.335 167.146L158.025 160.769L160.869 160.941Z" fill="#784346"/>
<path d="M157.867 162.806C157.509 162.78 157.151 162.745 156.793 162.707C156.829 159.524 157.061 154.947 157.972 151.387C159.526 145.309 168.996 131.176 168.996 131.176C168.996 131.176 180.161 134.568 179.172 136.688C168.132 145.354 163.119 157.258 161.216 163.055C160.102 162.944 158.981 162.888 157.867 162.806Z" fill="#FFB200"/>
<path d="M180.868 131.176L186.097 146.157L194.107 138.756C194.452 139.119 194.801 139.479 195.156 139.833C195.845 140.518 196.548 141.19 197.262 141.851C194.936 146.284 190.405 153.224 184.825 153.224C176.628 153.224 168.996 131.176 168.996 131.176H180.868V131.176Z" fill="#FFDA08"/>
<path d="M195.885 137.642L197.969 134.709C197.969 134.709 203.34 139.232 202.916 139.514C202.513 139.783 199.306 138.394 198.987 138.255L198.446 139.108L195.885 137.642Z" fill="#1B193B"/>
<path d="M159.884 166.045L159.597 169.632C159.597 169.632 152.667 168.502 152.886 168.042C153.095 167.604 156.561 167.153 156.906 167.109L156.932 166.099L159.884 166.045Z" fill="#1B193B"/>
<path d="M164.193 119.912C165.159 119.977 171.849 119.888 171.849 119.888L171.998 115.05L163.994 115.468L161.694 113.977L162.59 117.618L164.193 119.912Z" fill="#FFB200"/>
<path d="M180.489 130.21C180.501 130.621 180.516 131.027 180.532 131.431H168.9C168.928 130.98 168.952 130.526 168.979 130.072C168.988 129.912 168.998 129.754 169.007 129.596C169.022 129.324 169.038 129.054 169.053 128.784C169.062 128.612 169.072 128.442 169.081 128.273C169.091 128.117 169.1 127.967 169.108 127.816V127.8C169.153 127.028 169.201 126.259 169.256 125.504C169.265 125.346 169.277 125.186 169.289 125.028C169.332 124.433 169.38 123.848 169.437 123.277C169.452 123.117 169.466 122.959 169.483 122.802C169.54 122.254 169.6 121.724 169.671 121.21C169.693 121.05 169.717 120.893 169.741 120.735C169.839 120.087 169.951 119.469 170.082 118.893C170.118 118.728 170.156 118.573 170.192 118.415C170.326 117.897 170.474 117.416 170.644 116.977C170.706 116.812 170.773 116.649 170.842 116.494C171.114 115.894 171.432 115.395 171.807 115.018H177.486C180.545 114.994 180.303 123.146 180.31 123.306C180.344 123.891 180.365 124.491 180.382 125.098C180.389 125.255 180.392 125.415 180.396 125.573C180.415 126.33 180.427 127.097 180.442 127.864V127.89C180.444 128.036 180.446 128.189 180.451 128.34C180.454 128.504 180.456 128.672 180.461 128.837C180.463 129.135 180.47 129.434 180.478 129.732C180.482 129.89 180.485 130.05 180.489 130.21Z" fill="#FFDA08"/>
<path d="M176.006 114.358C176.006 114.358 177.28 114.995 177.34 114.995C177.399 114.995 176.006 115.99 176.006 115.99L176.882 116.309L172.761 118.419C172.761 118.419 172.084 116.229 172.024 116.189C171.964 116.149 172.621 115.931 172.621 115.931C172.621 115.931 172.144 115.075 172.084 115.035C172.024 114.995 173.029 114.288 173.029 114.288L176.006 114.358Z" fill="#FFB200"/>
<path d="M173.413 117.166C173.413 117.166 176.161 115.453 176.167 115.005H173.028C172.889 115.785 173.413 117.166 173.413 117.166Z" fill="#784346"/>
<path d="M175.551 112.248L175.654 115.607H173.785L174.131 112.941" fill="#784346"/>
<path d="M176.935 112.334C176.935 113.471 176.011 114.393 174.876 114.393C173.691 114.393 173.189 114.314 172.974 113.935C172.955 113.904 172.938 113.868 172.924 113.832C172.893 113.755 172.871 113.669 172.857 113.569C172.847 113.514 172.843 113.457 172.835 113.395C172.812 113.12 172.816 112.771 172.816 112.334C172.816 111.199 173.739 110.274 174.876 110.274C176.011 110.274 176.935 111.199 176.935 112.334Z" fill="#784346"/>
<path d="M159.214 103.12L161.974 111.556L164.19 108.786L161.847 102.651C161.274 102.802 159.214 103.12 159.214 103.12Z" fill="#EDCA02"/>
<path d="M161.974 111.556L164.19 108.786C164.19 108.786 170.821 114.211 172.158 115.049L173.029 115.019L170.858 127.076C170.832 127.272 170.813 127.379 170.803 127.379C170.699 127.379 166.579 126.964 166.579 126.964L168.572 118.966L161.974 111.556Z" fill="#EDCA02"/>
<path d="M172.014 113.04L173.423 113.32L173.531 112.186L172.879 111.928C172.653 112.438 172.39 112.865 172.014 113.04Z" fill="#784346"/>
<path d="M175.343 112.247C175.362 112.247 175.895 111.689 176.135 112.332C176.375 112.974 175.81 113.507 175.259 113.28" fill="#784346"/>
<path d="M173.607 112.521C173.61 112.525 173.613 112.528 173.617 112.531C173.762 112.676 173.537 112.902 173.392 112.757C173.388 112.753 173.385 112.75 173.382 112.746C173.236 112.601 173.461 112.376 173.607 112.521Z" fill="#1B193B"/>
<path d="M173.834 113.244C173.796 113.256 173.693 113.794 172.924 113.832C172.893 113.755 172.871 113.669 172.857 113.569C172.847 113.514 172.843 113.457 172.835 113.395C173.201 113.34 173.81 113.244 173.834 113.244Z" fill="#FEFEFE"/>
<path d="M154.374 111.267C154.374 111.267 154.908 110.794 154.878 110.417C154.848 110.04 154.296 109.78 154.092 109.404C153.888 109.027 153.902 108.78 153.902 108.78C153.902 108.78 153.497 109.115 153.672 109.448C153.847 109.781 154.094 110.129 154.094 110.129C154.094 110.129 153.486 110.493 153.661 111.131C153.837 111.769 154.374 111.267 154.374 111.267Z" fill="#66393B"/>
<path d="M151.804 109.127C151.857 109.129 153.03 109.164 153.017 109.446C153.003 109.729 151.872 109.529 151.708 109.487C151.544 109.445 151.484 109.118 151.804 109.127Z" fill="#66393B"/>
<path d="M151.78 109.586C151.833 109.58 152.724 109.609 152.766 109.786C152.809 109.963 152.067 109.978 151.759 109.937C151.451 109.896 151.592 109.607 151.78 109.586Z" fill="#66393B"/>
<path d="M151.898 110.001C151.898 110.001 152.612 109.904 152.639 110.047C152.666 110.189 151.976 110.353 151.777 110.261C151.579 110.168 151.694 109.999 151.898 110.001Z" fill="#66393B"/>
<path d="M151.953 110.346C151.953 110.346 152.558 110.265 152.58 110.385C152.603 110.506 152.02 110.645 151.851 110.566C151.683 110.489 151.781 110.345 151.953 110.346Z" fill="#66393B"/>
<path d="M171.142 128.583C171.291 124.76 171.616 120.91 173.165 117.365C173.287 117.086 172.875 116.843 172.752 117.124C171.166 120.754 170.817 124.667 170.664 128.583C170.652 128.89 171.129 128.89 171.142 128.583Z" fill="#FFB200"/>
<path d="M173.732 128.823C176.383 135.397 179.087 142.091 183.456 147.744C183.925 148.351 184.412 148.945 184.918 149.522C185.181 149.821 185.476 150.287 185.913 150.345C186.495 150.423 187.135 149.806 187.56 149.522C188.113 149.153 188.651 148.764 189.174 148.356C191.84 146.278 194.073 143.716 195.818 140.826C195.977 140.562 195.564 140.321 195.405 140.585C193.848 143.165 191.899 145.476 189.587 147.411C188.961 147.935 188.311 148.43 187.639 148.893C187.34 149.098 186.999 149.372 186.671 149.529C186.115 149.795 185.877 149.724 185.391 149.337C184.205 148.396 183.282 146.769 182.436 145.529C178.898 140.347 176.528 134.487 174.193 128.696C174.08 128.415 173.617 128.538 173.732 128.823Z" fill="#FFB200"/>
<path d="M180.461 128.837C176.638 129.178 172.816 129.563 169.053 128.784C169.062 128.612 169.072 128.442 169.081 128.273C169.091 128.117 169.101 127.967 169.108 127.816C172.84 128.624 176.643 128.237 180.442 127.89C180.444 128.036 180.447 128.189 180.451 128.34C180.454 128.504 180.456 128.672 180.461 128.837Z" fill="#FFB200"/>
<path d="M173.258 111.789C173.258 111.789 173.935 111.65 174.174 112.148" stroke="#1B193B" stroke-width="0.75" stroke-miterlimit="10"/>
<path d="M174.986 111.767C174.788 112.179 174.591 112.591 174.393 113.004C174.545 113.109 174.72 113.181 174.901 113.211C174.928 113.027 174.956 112.84 175.037 112.672C175.118 112.504 175.262 112.357 175.444 112.318C175.626 112.28 175.841 112.38 175.888 112.56C175.918 112.673 175.881 112.794 175.821 112.894C175.705 113.087 175.501 113.226 175.278 113.261C175.384 113.552 175.49 113.843 175.596 114.134C175.604 114.157 175.613 114.18 175.63 114.196C175.669 114.233 175.731 114.221 175.782 114.204C176.45 113.985 176.991 113.415 177.176 112.737C177.616 112.768 178.064 112.524 178.277 112.137C178.335 112.032 178.377 111.906 178.34 111.792C178.302 111.677 178.156 111.596 178.055 111.662C178.267 111.327 178.353 110.914 178.29 110.522C178.262 110.347 178.191 110.158 178.032 110.077C177.874 109.995 177.628 110.106 177.648 110.283C177.706 109.952 177.573 109.595 177.314 109.382C177.061 109.175 176.623 109.145 176.449 109.421C176.339 109.175 176.164 108.958 175.948 108.796C175.8 108.686 175.621 108.599 175.438 108.62C175.255 108.642 175.081 108.805 175.103 108.988C174.893 108.9 174.683 108.815 174.472 108.731C174.29 108.659 174.091 108.588 173.901 108.64C173.712 108.691 173.565 108.926 173.673 109.089C173.487 109.009 173.283 108.968 173.079 108.969C172.914 108.969 172.734 109.006 172.626 109.131C172.518 109.258 172.537 109.492 172.692 109.551C172.575 109.521 172.448 109.585 172.376 109.682C172.303 109.779 172.275 109.901 172.26 110.021C172.239 110.191 172.247 110.379 172.355 110.512C172.494 110.684 172.744 110.704 172.965 110.711C173.127 110.716 173.3 110.718 173.436 110.631C173.283 110.652 173.222 110.868 173.303 110.999C173.385 111.131 173.549 111.186 173.703 111.201C173.966 111.227 174.237 111.165 174.462 111.026C174.43 111.198 174.399 111.369 174.367 111.54C174.358 111.591 174.349 111.644 174.366 111.692C174.399 111.787 174.516 111.821 174.615 111.84C174.846 111.885 175.076 111.931 175.306 111.976" fill="#1B193B"/>
<path d="M182.177 138.596L178.532 141.294L158.287 113.986L154.332 108.653L156.61 108.625L157.881 105.822L161.882 111.219L182.177 138.596Z" fill="#DBD7D7"/>
<path d="M184.361 138.01L176.595 127.658L176.595 127.658L170.638 119.717L169.164 117.754C168.625 118.143 168.038 118.566 167.429 119.002C166.302 119.811 165.095 120.678 163.951 121.502C163.328 121.949 162.722 122.384 162.157 122.789L163.736 124.893L169.694 132.833L177.461 143.187L184.361 138.01Z" fill="#FC542D"/>
<path d="M182.649 139.292L180.725 140.736L165.416 120.449C166.094 119.96 166.775 119.471 167.428 119.002L170.198 122.694L182.649 139.292Z" fill="#FE6B75"/>
<path d="M161.882 111.219C161.243 112.001 160.472 112.698 159.578 113.279C159.159 113.55 158.729 113.786 158.287 113.987C153.862 116.009 148.504 114.537 145.779 110.328C143.77 107.23 143.704 103.43 145.268 100.365L150.664 108.695L154.332 108.654L156.61 108.626L157.881 105.823L159.039 103.271L153.642 94.938C157.081 94.7677 160.52 96.3813 162.526 99.4803C164.944 103.214 164.552 107.952 161.882 111.219Z" fill="#DBD7D7"/>
<path d="M155.157 96.0088C155.986 96.0219 156.775 96.2444 157.528 96.5499C158.277 96.8636 158.988 97.2734 159.62 97.7837C159.785 97.9032 159.928 98.0489 160.082 98.1801L160.31 98.3822L160.521 98.602L160.939 99.0449L161.319 99.5211L161.508 99.7593L161.677 100.012L162.015 100.519C162.227 100.865 162.41 101.228 162.609 101.581L162.545 101.613C162.252 101.309 162.018 100.983 161.755 100.68L161.362 100.231C161.295 100.158 161.237 100.078 161.173 100.004L160.969 99.7923C160.831 99.653 160.698 99.5106 160.571 99.3646L160.149 98.9671L159.944 98.7637L159.725 98.5774C159.576 98.4558 159.437 98.3227 159.283 98.2099L158.83 97.858C158.674 97.7481 158.508 97.6533 158.355 97.5381C158.037 97.3247 157.701 97.1393 157.361 96.9539C156.677 96.5996 155.947 96.2878 155.167 96.0795L155.157 96.0088Z" fill="#FEFEFE"/>
<path d="M148.718 112.317C149.76 112.735 150.757 113.129 151.786 113.423C152.297 113.577 152.815 113.702 153.339 113.812C153.866 113.933 154.398 113.995 154.959 114.109L154.965 114.179C154.411 114.209 153.852 114.222 153.301 114.145C152.749 114.082 152.202 113.969 151.671 113.806C151.139 113.646 150.619 113.448 150.118 113.208C149.617 112.968 149.132 112.696 148.676 112.374L148.718 112.317Z" fill="#FEFEFE"/>
<path d="M182.681 126.003L172.495 124.604L172.119 125.956C172.119 125.956 181.39 130.712 184.257 129.61C184.978 128.72 182.681 126.003 182.681 126.003Z" fill="#784346"/>
<path d="M177.099 115.085C175.056 115.828 175.766 118.959 176.408 120.496C177.049 122.032 178.626 124.305 179.511 125.459C177.058 125.13 174.095 124.836 174.095 124.836L173.828 127.888C173.828 127.888 181.951 130.696 184.283 129.784C184.75 129.387 184.749 128.793 184.765 128.569C184.917 126.517 180.099 113.906 177.099 115.085Z" fill="#FFE419"/>
<path d="M171.607 123.565C171.471 123.482 171.298 123.444 171.035 123.531C170.857 123.589 170.063 124.128 170.02 124.307C169.976 124.485 170.703 125.642 171.089 125.376C171.386 125.307 171.478 125.183 171.505 125.124C171.473 125.216 171.391 125.509 171.525 125.723C171.685 125.981 172.276 125.995 172.276 125.995L172.786 125.006C172.786 125.006 171.744 123.648 171.607 123.565Z" fill="#784346"/>
<path d="M171.341 124.692C171.341 124.692 170.669 125.342 170.777 125.515C170.886 125.688 171.165 126.007 171.379 125.948C171.592 125.889 171.355 125.682 171.355 125.682L171.145 125.513L171.671 125.01L171.341 124.692Z" fill="#784346"/>
<path d="M170.928 125.366C171.148 125.203 171.367 125.04 171.586 124.877C171.708 124.786 171.589 124.578 171.466 124.67C171.246 124.834 171.027 124.997 170.808 125.16C170.686 125.251 170.805 125.458 170.928 125.366Z" fill="#47222C"/>
<path d="M170.652 124.965C170.892 124.801 171.132 124.638 171.372 124.474C171.499 124.388 171.379 124.181 171.252 124.268C171.012 124.431 170.772 124.595 170.531 124.758C170.405 124.844 170.525 125.052 170.652 124.965Z" fill="#47222C"/>
<path d="M170.389 124.596C170.629 124.433 170.869 124.269 171.109 124.106C171.235 124.02 171.116 123.813 170.988 123.9C170.748 124.063 170.508 124.227 170.268 124.39C170.142 124.476 170.261 124.683 170.389 124.596Z" fill="#47222C"/>
<path d="M63.3625 85.3672L64.279 87.0429L65.9545 87.9594L64.279 88.8757L63.3625 90.5514L62.446 88.8757L60.7705 87.9594L62.446 87.0429L63.3625 85.3672Z" stroke="#E6E8FF" stroke-miterlimit="10"/>
<path d="M68.6838 78.6123L69.6003 80.2878L71.2758 81.2043L69.6003 82.1208L68.6838 83.7963L67.7673 82.1208L66.0918 81.2043L67.7673 80.2878L68.6838 78.6123Z" fill="#E6E8FF"/>
<path d="M74.9333 85.2266L76.1728 87.4927L78.439 88.7322L76.1728 89.9717L74.9333 92.238L73.6938 89.9717L71.4275 88.7322L73.6938 87.4927L74.9333 85.2266Z" fill="#E6E8FF"/>
<path d="M122.112 125.062L121.539 124.469C122.073 123.729 122.425 122.896 122.595 122.034L123.422 122.048C123.91 122.057 124.313 121.668 124.321 121.18L124.329 120.718C124.338 120.23 123.949 119.827 123.461 119.819L122.634 119.805C122.494 118.937 122.171 118.093 121.664 117.334L122.257 116.762C122.608 116.423 122.618 115.863 122.279 115.513L121.957 115.179C121.618 114.829 121.059 114.819 120.708 115.158L120.115 115.73C119.375 115.197 118.542 114.845 117.68 114.675L117.694 113.848C117.703 113.359 117.314 112.957 116.826 112.949L116.364 112.941C115.876 112.932 115.473 113.32 115.465 113.809L115.451 114.636C114.583 114.775 113.739 115.098 112.98 115.605L112.408 115.012C112.069 114.661 111.509 114.652 111.159 114.99L110.825 115.312C110.474 115.651 110.465 116.21 110.804 116.561L111.376 117.154C110.843 117.895 110.491 118.727 110.321 119.59L109.494 119.575C109.005 119.566 108.603 119.955 108.595 120.443L108.587 120.905C108.578 121.393 108.966 121.796 109.455 121.804L110.282 121.818C110.421 122.686 110.744 123.531 111.251 124.289L110.658 124.862C110.307 125.201 110.298 125.76 110.637 126.111L110.958 126.444C111.297 126.795 111.856 126.805 112.207 126.466L112.8 125.893C113.541 126.426 114.373 126.779 115.236 126.949L115.221 127.776C115.212 128.264 115.601 128.667 116.089 128.675L116.551 128.683C117.039 128.692 117.442 128.303 117.45 127.815L117.465 126.988C118.333 126.848 119.177 126.525 119.936 126.018L120.508 126.611C120.847 126.962 121.406 126.972 121.757 126.633L122.09 126.311C122.441 125.973 122.451 125.413 122.112 125.062ZM118.438 124.35C118.115 124.53 117.773 124.663 117.422 124.748C116.743 124.913 116.029 124.901 115.356 124.712C115.008 124.615 114.671 124.47 114.355 124.279C114.063 124.102 113.789 123.885 113.541 123.628C113.293 123.371 113.085 123.09 112.919 122.792C112.739 122.469 112.606 122.127 112.521 121.776C112.355 121.097 112.368 120.383 112.557 119.71C112.654 119.362 112.799 119.025 112.99 118.709C113.167 118.417 113.384 118.143 113.641 117.895C113.898 117.647 114.179 117.439 114.477 117.273C114.8 117.093 115.141 116.96 115.493 116.875C116.172 116.71 116.886 116.722 117.559 116.911C117.907 117.008 118.244 117.154 118.56 117.345C118.852 117.521 119.126 117.739 119.374 117.995C119.622 118.252 119.829 118.533 119.996 118.832C120.175 119.154 120.309 119.496 120.394 119.847C120.559 120.526 120.546 121.24 120.358 121.913C120.261 122.261 120.115 122.598 119.924 122.914C119.748 123.207 119.53 123.48 119.274 123.728C119.017 123.976 118.736 124.184 118.438 124.35Z" fill="#EFEFEF"/>
<path d="M134.846 118.378L134.363 117.71C134.995 117.053 135.461 116.278 135.751 115.448L136.568 115.579C137.049 115.657 137.503 115.329 137.58 114.846L137.653 114.39C137.731 113.908 137.403 113.454 136.92 113.378L136.104 113.247C136.088 112.368 135.887 111.486 135.492 110.664L136.16 110.181C136.555 109.895 136.644 109.343 136.358 108.947L136.086 108.572C135.8 108.177 135.248 108.088 134.853 108.374L134.185 108.857C133.527 108.225 132.753 107.759 131.923 107.469L132.054 106.652C132.132 106.171 131.803 105.717 131.321 105.64L130.865 105.567C130.383 105.489 129.929 105.817 129.853 106.3L129.722 107.116C128.843 107.132 127.961 107.333 127.139 107.728L126.656 107.06C126.37 106.665 125.818 106.577 125.422 106.863L125.047 107.134C124.652 107.42 124.563 107.972 124.849 108.367L125.332 109.035C124.7 109.693 124.234 110.468 123.944 111.298L123.127 111.167C122.645 111.089 122.192 111.417 122.115 111.899L122.042 112.355C121.964 112.837 122.292 113.291 122.774 113.368L123.591 113.499C123.607 114.378 123.808 115.259 124.203 116.082L123.535 116.565C123.14 116.851 123.051 117.403 123.337 117.798L123.609 118.173C123.895 118.569 124.447 118.657 124.842 118.371L125.51 117.888C126.168 118.52 126.942 118.987 127.772 119.276L127.641 120.093C127.563 120.575 127.892 121.029 128.374 121.106L128.83 121.179C129.312 121.257 129.766 120.928 129.842 120.446L129.973 119.629C130.852 119.613 131.734 119.413 132.556 119.018L133.039 119.686C133.325 120.081 133.877 120.169 134.273 119.883L134.648 119.612C135.043 119.325 135.132 118.773 134.846 118.378ZM131.309 117.155C130.964 117.287 130.607 117.371 130.247 117.406C129.552 117.474 128.847 117.361 128.207 117.079C127.876 116.934 127.563 116.742 127.277 116.509C127.013 116.293 126.772 116.039 126.563 115.75C126.354 115.461 126.188 115.153 126.065 114.834C125.933 114.49 125.849 114.132 125.814 113.773C125.746 113.077 125.859 112.372 126.141 111.732C126.287 111.401 126.478 111.088 126.712 110.802C126.928 110.538 127.181 110.298 127.471 110.088C127.76 109.879 128.068 109.713 128.386 109.591C128.731 109.458 129.088 109.374 129.448 109.34C130.143 109.272 130.848 109.385 131.488 109.667C131.819 109.812 132.132 110.003 132.418 110.237C132.682 110.453 132.923 110.707 133.132 110.996C133.341 111.285 133.507 111.593 133.63 111.912C133.762 112.256 133.846 112.613 133.881 112.973C133.949 113.669 133.836 114.374 133.554 115.013C133.408 115.344 133.217 115.657 132.983 115.943C132.767 116.207 132.514 116.448 132.224 116.657C131.935 116.866 131.627 117.032 131.309 117.155Z" fill="#EFEFEF"/>
<path d="M134.136 132.577L133.701 132.056C134.183 131.48 134.521 130.818 134.712 130.12L135.39 130.181C135.79 130.218 136.144 129.922 136.179 129.522L136.213 129.143C136.25 128.743 135.955 128.39 135.555 128.354L134.877 128.293C134.814 127.573 134.599 126.86 134.228 126.207L134.748 125.773C135.057 125.515 135.098 125.057 134.841 124.749L134.596 124.457C134.339 124.148 133.881 124.107 133.573 124.364L133.052 124.799C132.476 124.317 131.814 123.979 131.116 123.788L131.177 123.11C131.213 122.71 130.918 122.356 130.518 122.32L130.139 122.286C129.739 122.25 129.385 122.545 129.35 122.945L129.289 123.623C128.568 123.686 127.856 123.901 127.203 124.272L126.769 123.752C126.511 123.443 126.053 123.402 125.745 123.659L125.452 123.903C125.144 124.161 125.103 124.619 125.36 124.927L125.795 125.448C125.313 126.024 124.974 126.686 124.784 127.384L124.106 127.323C123.706 127.287 123.352 127.582 123.317 127.982L123.282 128.361C123.246 128.761 123.541 129.114 123.941 129.15L124.619 129.211C124.682 129.932 124.897 130.644 125.268 131.297L124.747 131.732C124.439 131.989 124.398 132.447 124.655 132.755L124.899 133.048C125.157 133.356 125.615 133.398 125.923 133.14L126.444 132.706C127.019 133.187 127.682 133.526 128.38 133.717L128.319 134.395C128.282 134.794 128.577 135.148 128.978 135.184L129.356 135.218C129.756 135.255 130.11 134.959 130.146 134.559L130.207 133.881C130.927 133.818 131.64 133.603 132.292 133.232L132.727 133.753C132.984 134.061 133.443 134.102 133.751 133.845L134.043 133.601C134.352 133.343 134.393 132.885 134.136 132.577ZM131.162 131.774C130.887 131.902 130.598 131.991 130.305 132.04C129.738 132.135 129.153 132.083 128.612 131.888C128.332 131.787 128.064 131.648 127.816 131.472C127.587 131.31 127.375 131.115 127.186 130.89C126.998 130.664 126.845 130.421 126.726 130.166C126.597 129.891 126.508 129.603 126.459 129.309C126.364 128.742 126.417 128.157 126.612 127.616C126.712 127.336 126.852 127.068 127.027 126.82C127.189 126.591 127.384 126.379 127.61 126.19C127.835 126.002 128.078 125.849 128.333 125.73C128.608 125.601 128.897 125.512 129.19 125.463C129.757 125.368 130.342 125.421 130.883 125.616C131.163 125.716 131.431 125.856 131.679 126.031C131.908 126.193 132.12 126.388 132.309 126.614C132.497 126.839 132.651 127.082 132.769 127.337C132.898 127.612 132.987 127.901 133.036 128.194C133.131 128.761 133.078 129.346 132.883 129.888C132.783 130.167 132.643 130.435 132.468 130.683C132.306 130.913 132.111 131.124 131.885 131.313C131.66 131.501 131.417 131.655 131.162 131.774Z" fill="#EFEFEF"/>
<path d="M125.622 91.4209L95.8018 106.572" stroke="#DBD7D7" stroke-width="21" stroke-miterlimit="10"/>
<path d="M115.726 92.1611L94.1765 103.11C93.1136 103.65 92.5019 104.725 92.4996 105.838C92.4972 106.308 92.6049 106.784 92.8324 107.231L93.5185 108.582C94.2847 110.09 96.1296 110.693 97.6398 109.926L119.189 98.9772L115.726 92.1611Z" fill="#1B193B"/>
<path d="M132.828 100.891C132.753 98.8169 132.218 97.0701 130.448 96.2046L134.495 94.1484C134.374 95.7872 135.438 97.3265 136.875 98.8343L132.828 100.891Z" fill="#58B2BD"/>
<path d="M122.675 87.2371L127.263 96.2674C127.61 96.95 128.445 97.2221 129.127 96.8752L134.111 94.3432C134.793 93.9965 135.065 93.162 134.718 92.4794L130.13 83.4491C129.784 82.7665 128.949 82.4944 128.266 82.841L123.283 85.3733C122.601 85.72 122.329 86.5545 122.675 87.2371Z" fill="#62C7D3"/>
<path d="M131.852 101.001L132.523 102.324C132.876 103.017 133.724 103.294 134.417 102.941L137.595 101.327C138.288 100.974 138.565 100.127 138.213 99.4329L137.541 98.1108C137.188 97.4172 136.341 97.1405 135.647 97.4929L132.469 99.1075C131.776 99.4599 131.499 100.308 131.852 101.001Z" fill="#62C7D3"/>
<path d="M130.563 84.3172C128.265 79.5831 124.367 76.6284 120.442 75.0257C120.111 74.8905 119.842 75.3213 120.115 75.5521C123.563 78.4645 125.333 82.5153 126.027 87.2965" fill="#62C7D3"/>
<path d="M116.483 93.6523L92.4996 105.838C92.4972 106.308 92.6049 106.784 92.8324 107.232L93.0672 107.694L117.349 95.3565L116.483 93.6523Z" fill="#2D3AAD"/>
<path d="M128.309 95.3262L124.341 87.5163L124.395 87.4893C124.831 88.0865 125.232 88.7015 125.597 89.3351C125.787 89.6481 125.956 89.9714 126.137 90.2889L126.644 91.2596C126.969 91.9133 127.287 92.5703 127.576 93.2428C127.87 93.9118 128.133 94.597 128.363 95.2994L128.309 95.3262Z" fill="#FEFEFE"/>
<path d="M103.344 96.9072C103.163 97.1853 102.987 97.4682 102.824 97.7633C102.359 98.6026 101.976 99.4773 101.54 100.328C101.631 100.367 101.717 100.404 101.792 100.433C103.279 101.013 112.709 101.582 112.709 101.582L112.493 99.8968L104.143 97.4873C104.143 97.4873 103.847 97.2668 103.344 96.9072Z" fill="#784346"/>
<path d="M101.928 98.3753C102.384 98.2069 102.836 98.037 103.284 97.8485C103.811 97.6268 104.445 97.2864 105.016 97.2661C105.019 97.2661 105.022 97.266 105.025 97.2658C106.785 93.3686 109.265 87.0994 107.4 86.3351C104.824 85.3859 103.602 88.1595 103.026 89.9927C102.461 91.793 100.64 96.7961 100.269 98.457C100.625 98.533 100.977 98.6429 101.324 98.765C101.493 98.5973 101.695 98.4616 101.928 98.3753Z" fill="#FFE419"/>
<path d="M112.451 99.9697C112.451 99.9697 113.966 102.152 113.892 102.325C113.819 102.499 113.487 102.184 113.428 102.297C113.369 102.411 113.625 102.752 113.433 102.917C113.241 103.081 112.924 102.725 112.924 102.725C112.924 102.725 113.161 103.177 112.979 103.35C112.798 103.524 112.451 103.052 112.451 103.052C112.451 103.052 112.686 103.376 112.519 103.597C112.352 103.819 111.876 103.221 111.576 102.716C111.275 102.211 110.904 101.014 111.326 100.662C111.747 100.31 112.451 99.9697 112.451 99.9697Z" fill="#784346"/>
<path d="M112.316 99.9014C112.882 100.024 113.456 100.085 113.525 100.561C113.594 101.037 114.054 101.422 114.054 101.422C114.054 101.422 113.86 101.642 113.57 101.452C113.28 101.262 113.251 100.878 113.251 100.878L112.404 100.804L112.316 99.9014Z" fill="#784346"/>
<path d="M99.9354 98.2915L105.105 97.209L104.99 97.5939L105.627 97.7399L101.553 100.696C101.553 100.696 100.712 100.736 100.679 100.393C100.646 100.05 100.515 99.7028 100.515 99.7028C100.515 99.7028 99.2918 98.9354 99.9354 98.2915Z" fill="#FFB200"/>
</svg>
