<svg width="246" height="246" viewBox="0 0 246 246" fill="none" xmlns="http://www.w3.org/2000/svg">
<rect width="246" height="246" rx="123" fill="#4267B2" fill-opacity="0.11"/>
<path d="M136.404 188.153L128.883 170.442H122.817H116.752L109.231 188.153H99.6777V190.822H122.817H145.957V188.153H136.404Z" fill="#B5B5B5"/>
<path d="M170.128 176.265H75.5069C73.9661 176.265 72.7168 175.016 72.7168 173.475V107.452C72.7168 105.911 73.9661 104.662 75.5069 104.662H170.128C171.669 104.662 172.918 105.911 172.918 107.452V173.475C172.918 175.016 171.669 176.265 170.128 176.265Z" fill="#CCCCCC"/>
<path d="M170.128 104.662H75.5069C73.9661 104.662 72.7168 105.911 72.7168 107.452V165.105H172.918V107.452C172.918 105.911 171.669 104.662 170.128 104.662Z" fill="#232323"/>
<path d="M124.819 171.109C124.819 172.215 123.923 173.111 122.817 173.111C121.712 173.111 120.816 172.215 120.816 171.109C120.816 170.003 121.712 169.107 122.817 169.107C123.923 169.108 124.819 170.004 124.819 171.109Z" fill="#B5B5B5"/>
<path d="M169.127 108.331H76.5078V161.434H169.127V108.331Z" fill="white"/>
<path d="M169.127 108.331H76.5078V113.521H169.127V108.331Z" fill="#4267B2"/>
<path d="M109.074 111.796H87.0785C86.9112 111.796 86.7756 111.66 86.7756 111.493V110.36C86.7756 110.193 86.9112 110.058 87.0785 110.058H109.074C109.241 110.058 109.377 110.193 109.377 110.36V111.493C109.377 111.66 109.241 111.796 109.074 111.796Z" fill="white"/>
<path d="M82.9537 111.779H81.7376C81.6027 111.779 81.4932 111.67 81.4932 111.535V110.319C81.4932 110.184 81.6027 110.074 81.7376 110.074H82.9537C83.0886 110.074 83.1981 110.184 83.1981 110.319V111.535C83.1981 111.67 83.0886 111.779 82.9537 111.779Z" fill="white"/>
<path d="M148.008 112.131C148.673 112.131 149.212 111.592 149.212 110.927C149.212 110.263 148.673 109.724 148.008 109.724C147.343 109.724 146.804 110.263 146.804 110.927C146.804 111.592 147.343 112.131 148.008 112.131Z" fill="#112F54"/>
<path d="M153.09 112.131C153.755 112.131 154.294 111.592 154.294 110.927C154.294 110.263 153.755 109.724 153.09 109.724C152.425 109.724 151.886 110.263 151.886 110.927C151.886 111.592 152.425 112.131 153.09 112.131Z" fill="#112F54"/>
<path d="M158.172 112.131C158.837 112.131 159.376 111.592 159.376 110.927C159.376 110.263 158.837 109.724 158.172 109.724C157.508 109.724 156.969 110.263 156.969 110.927C156.969 111.592 157.508 112.131 158.172 112.131Z" fill="#112F54"/>
<path d="M163.254 112.131C163.919 112.131 164.458 111.592 164.458 110.927C164.458 110.263 163.919 109.724 163.254 109.724C162.589 109.724 162.05 110.263 162.05 110.927C162.05 111.592 162.589 112.131 163.254 112.131Z" fill="#112F54"/>
<path d="M169.091 113.522H76.5078V161.435H169.091V113.522Z" fill="#BED0E5"/>
<path d="M141.541 117.819H101.955V122.032H141.541V117.819Z" fill="white"/>
<path d="M141.541 125.874H101.955V159.158H141.541V125.874Z" fill="white"/>
<path d="M139 131.607H104.496V156.985H139V131.607Z" fill="#BED0E5"/>
<path d="M106.167 130.44C107.017 130.44 107.705 129.752 107.705 128.902C107.705 128.053 107.017 127.364 106.167 127.364C105.318 127.364 104.629 128.053 104.629 128.902C104.629 129.752 105.318 130.44 106.167 130.44Z" fill="#4267B2"/>
<path d="M122.483 127.949H109.043V129.855H122.483V127.949Z" fill="#4267B2"/>
<path d="M136.793 128.182C136.793 128.311 136.688 128.416 136.559 128.416C136.429 128.416 136.325 128.312 136.325 128.182C136.325 128.053 136.429 127.948 136.559 127.948C136.688 127.948 136.793 128.053 136.793 128.182Z" fill="#BED0E5"/>
<path d="M137.896 128.182C137.896 128.311 137.792 128.416 137.662 128.416C137.533 128.416 137.428 128.312 137.428 128.182C137.428 128.053 137.533 127.948 137.662 127.948C137.792 127.948 137.896 128.053 137.896 128.182Z" fill="#BED0E5"/>
<path d="M139 128.182C139 128.311 138.895 128.416 138.766 128.416C138.636 128.416 138.531 128.312 138.531 128.182C138.531 128.053 138.636 127.948 138.766 127.948C138.895 127.948 139 128.053 139 128.182Z" fill="#BED0E5"/>
<path d="M94.647 117.819H84.1487V119.725H94.647V117.819Z" fill="#4267B2"/>
<path d="M90.3378 121.079H84.1487V122.985H90.3378V121.079Z" fill="#4267B2"/>
<path d="M94.647 124.339H84.1487V126.245H94.647V124.339Z" fill="#4267B2"/>
<path d="M92.5056 132.413H84.1487V134.319H92.5056V132.413Z" fill="#4267B2"/>
<path d="M92.5056 135.673H84.1487V137.579H92.5056V135.673Z" fill="#4267B2"/>
<path d="M90.1551 142.192H84.1487V144.098H90.1551V142.192Z" fill="#4267B2"/>
<path d="M94.647 145.452H84.1487V147.358H94.647V145.452Z" fill="#4267B2"/>
<path d="M93.2368 148.712H84.1487V150.618H93.2368V148.712Z" fill="#4267B2"/>
<path d="M94.647 151.972H84.1487V153.877H94.647V151.972Z" fill="#4267B2"/>
<path d="M92.4532 155.232H84.1487V157.138H92.4532V155.232Z" fill="#4267B2"/>
<path d="M94.647 138.934H84.1487V140.839H94.647V138.934Z" fill="#4267B2"/>
<path d="M82.9777 118.772C82.9777 119.28 82.5664 119.691 82.0589 119.691C81.5515 119.691 81.1401 119.28 81.1401 118.772C81.1401 118.265 81.5515 117.854 82.0589 117.854C82.5664 117.854 82.9777 118.265 82.9777 118.772Z" fill="#4267B2"/>
<path d="M82.9777 122.032C82.9777 122.539 82.5664 122.951 82.0589 122.951C81.5515 122.951 81.1401 122.539 81.1401 122.032C81.1401 121.525 81.5515 121.113 82.0589 121.113C82.5664 121.113 82.9777 121.525 82.9777 122.032Z" fill="#4267B2"/>
<path d="M82.0594 126.211C82.5669 126.211 82.9782 125.799 82.9782 125.292C82.9782 124.784 82.5669 124.373 82.0594 124.373C81.552 124.373 81.1406 124.784 81.1406 125.292C81.1406 125.799 81.552 126.211 82.0594 126.211Z" fill="#4267B2"/>
<path d="M82.9777 133.366C82.9777 133.873 82.5664 134.285 82.0589 134.285C81.5515 134.285 81.1401 133.873 81.1401 133.366C81.1401 132.859 81.5515 132.447 82.0589 132.447C82.5664 132.448 82.9777 132.859 82.9777 133.366Z" fill="#4267B2"/>
<path d="M82.9777 136.626C82.9777 137.133 82.5664 137.545 82.0589 137.545C81.5515 137.545 81.1401 137.133 81.1401 136.626C81.1401 136.118 81.5515 135.707 82.0589 135.707C82.5664 135.707 82.9777 136.118 82.9777 136.626Z" fill="#4267B2"/>
<path d="M82.0592 140.804C82.5666 140.804 82.978 140.393 82.978 139.886C82.978 139.378 82.5666 138.967 82.0592 138.967C81.5517 138.967 81.1404 139.378 81.1404 139.886C81.1404 140.393 81.5517 140.804 82.0592 140.804Z" fill="#4267B2"/>
<path d="M82.0592 144.064C82.5666 144.064 82.978 143.653 82.978 143.145C82.978 142.638 82.5666 142.227 82.0592 142.227C81.5517 142.227 81.1404 142.638 81.1404 143.145C81.1404 143.653 81.5517 144.064 82.0592 144.064Z" fill="#4267B2"/>
<path d="M82.0594 147.324C82.5669 147.324 82.9782 146.913 82.9782 146.405C82.9782 145.898 82.5669 145.486 82.0594 145.486C81.552 145.486 81.1406 145.898 81.1406 146.405C81.1406 146.913 81.552 147.324 82.0594 147.324Z" fill="#4267B2"/>
<path d="M82.0592 150.584C82.5666 150.584 82.978 150.172 82.978 149.665C82.978 149.157 82.5666 148.746 82.0592 148.746C81.5517 148.746 81.1404 149.157 81.1404 149.665C81.1404 150.172 81.5517 150.584 82.0592 150.584Z" fill="#4267B2"/>
<path d="M82.0594 153.843C82.5669 153.843 82.9782 153.432 82.9782 152.925C82.9782 152.417 82.5669 152.006 82.0594 152.006C81.552 152.006 81.1406 152.417 81.1406 152.925C81.1406 153.432 81.552 153.843 82.0594 153.843Z" fill="#4267B2"/>
<path d="M82.0594 157.104C82.5669 157.104 82.9782 156.693 82.9782 156.185C82.9782 155.678 82.5669 155.267 82.0594 155.267C81.552 155.267 81.1406 155.678 81.1406 156.185C81.1406 156.693 81.552 157.104 82.0594 157.104Z" fill="#4267B2"/>
<path d="M164.458 117.819H149.212V134.884H164.458V117.819Z" fill="white"/>
<path d="M162.318 119.406H151.352V121.314H162.318V119.406Z" fill="#BED0E5"/>
<path d="M162.399 123.853H154.729V125.459H162.399V123.853Z" fill="#4267B2"/>
<path d="M162.399 127.38H154.729V128.986H162.399V127.38Z" fill="#4267B2"/>
<path d="M162.399 130.907H154.729V132.514H162.399V130.907Z" fill="#4267B2"/>
<path d="M153.811 128.184C153.811 128.738 153.362 129.187 152.808 129.187C152.254 129.187 151.805 128.738 151.805 128.184C151.805 127.63 152.254 127.181 152.808 127.181C153.362 127.181 153.811 127.63 153.811 128.184Z" fill="#BED0E5"/>
<path d="M152.808 129.453C153.51 129.453 154.079 128.884 154.079 128.183C154.079 127.481 153.51 126.912 152.808 126.912C152.106 126.912 151.538 127.481 151.538 128.183C151.538 128.884 152.106 129.453 152.808 129.453Z" stroke="#5580C4" stroke-width="0.5217" stroke-miterlimit="10"/>
<path d="M154.062 124.655C154.062 125.348 153.5 125.909 152.808 125.909C152.116 125.909 151.554 125.348 151.554 124.655C151.554 123.963 152.116 123.401 152.808 123.401C153.5 123.401 154.062 123.963 154.062 124.655Z" fill="#BED0E5"/>
<path d="M152.808 124.1V125.211" stroke="#4267B2" stroke-width="0.9008" stroke-miterlimit="10" stroke-linecap="round" stroke-linejoin="round"/>
<path d="M153.364 124.655H152.252" stroke="#4267B2" stroke-width="0.9008" stroke-miterlimit="10" stroke-linecap="round" stroke-linejoin="round"/>
<path d="M153.811 131.744C153.811 132.298 153.362 132.747 152.808 132.747C152.254 132.747 151.805 132.298 151.805 131.744C151.805 131.19 152.254 130.741 152.808 130.741C153.362 130.741 153.811 131.19 153.811 131.744Z" fill="#BED0E5"/>
<path d="M152.808 133.015C153.51 133.015 154.079 132.446 154.079 131.744C154.079 131.042 153.51 130.474 152.808 130.474C152.106 130.474 151.538 131.042 151.538 131.744C151.538 132.446 152.106 133.015 152.808 133.015Z" stroke="#5580C4" stroke-width="0.5217" stroke-miterlimit="10"/>
<path d="M164.458 136.993H149.212V139.367H164.458V136.993Z" fill="white"/>
<path d="M164.458 141.573H149.212V155.146H164.458V141.573Z" fill="white"/>
<path d="M162.92 143.245H150.75V150.433H162.92V143.245Z" fill="#BED0E5"/>
<path d="M158.421 151.636H150.75V153.242H158.421V151.636Z" fill="#4267B2"/>
<path d="M162.92 151.636H159.628V152.606H162.92V151.636Z" fill="#BED0E5"/>
<path d="M124.714 148.281H118.781C118.094 148.281 117.535 147.722 117.535 147.035V142.844C117.535 142.157 118.094 141.598 118.781 141.598H118.929C119.116 141.598 119.275 141.471 119.316 141.288C119.441 140.722 119.952 140.311 120.532 140.311H122.963C123.543 140.311 124.055 140.722 124.18 141.287C124.22 141.471 124.379 141.598 124.567 141.598H124.714C125.402 141.598 125.961 142.157 125.961 142.844V147.035C125.961 147.722 125.402 148.281 124.714 148.281ZM118.781 142.448C118.562 142.448 118.385 142.626 118.385 142.844V147.035C118.385 147.254 118.562 147.432 118.781 147.432H124.714C124.933 147.432 125.111 147.254 125.111 147.035V142.844C125.111 142.626 124.933 142.448 124.714 142.448H124.567C123.977 142.448 123.477 142.046 123.35 141.47C123.31 141.29 123.148 141.16 122.963 141.16H120.532C120.348 141.16 120.185 141.29 120.146 141.47C120.019 142.045 119.518 142.447 118.929 142.447H118.781V142.448Z" fill="#9CB8D3"/>
<path d="M121.748 146.582C120.779 146.582 119.992 145.794 119.992 144.826C119.992 143.858 120.78 143.07 121.748 143.07C122.716 143.07 123.503 143.858 123.503 144.826C123.503 145.794 122.716 146.582 121.748 146.582ZM121.748 143.855C121.212 143.855 120.776 144.29 120.776 144.826C120.776 145.362 121.212 145.797 121.748 145.797C122.283 145.797 122.719 145.362 122.719 144.826C122.719 144.29 122.283 143.855 121.748 143.855Z" fill="#9CB8D3"/>
<path d="M124.002 143.803C124.253 143.803 124.456 143.6 124.456 143.349C124.456 143.098 124.253 142.895 124.002 142.895C123.751 142.895 123.547 143.098 123.547 143.349C123.547 143.6 123.751 143.803 124.002 143.803Z" fill="#9CB8D3"/>
<path d="M178.576 154.28H141.005V134.239H178.576C179.205 134.239 179.714 134.749 179.714 135.378V153.141C179.714 153.77 179.205 154.28 178.576 154.28Z" fill="#305899"/>
<path d="M176.103 154.28H134.738V134.239H176.103C176.732 134.239 177.241 134.749 177.241 135.378V153.141C177.241 153.77 176.731 154.28 176.103 154.28Z" fill="#4267B2"/>
<path d="M179.714 136.964H181.582L184.935 132.008C186.144 130.22 186.791 128.73 186.791 126.572V122.761C186.791 122.099 187.325 121.466 187.978 121.359C189.655 121.086 192.31 121.971 192.31 126.54C192.31 128.98 192.31 131.67 192.31 131.67C192.31 131.67 196.839 131.67 198.707 131.67C200.575 131.67 203.76 132.732 202.146 137.317C202.146 137.317 204.482 140.757 201.424 143.219C201.424 143.219 203.122 146.658 199.216 148.399C199.216 148.399 200.49 153.452 193.399 153.452H184.589C183.939 153.452 183.303 153.259 182.761 152.898L179.713 150.862V136.964H179.714Z" fill="#D3E1EF"/>
<path d="M189.691 126.54C189.691 128.98 189.691 131.67 189.691 131.67C189.691 131.67 190.891 131.67 192.31 131.67C192.31 131.67 192.31 128.98 192.31 126.54C192.31 121.972 189.655 121.086 187.979 121.359C187.757 121.396 187.551 121.496 187.373 121.634C188.599 122.2 189.691 123.611 189.691 126.54Z" fill="#BED0E5"/>
<path d="M202.147 137.317C203.76 132.731 200.576 131.67 198.708 131.67C198.057 131.67 197.082 131.67 196.089 131.67C197.957 131.67 201.141 132.731 199.528 137.317C199.528 137.317 201.863 140.756 198.806 143.219C198.806 143.219 200.504 146.658 196.598 148.399C196.598 148.399 197.872 153.451 190.781 153.451H193.401C200.491 153.451 199.217 148.399 199.217 148.399C203.124 146.658 201.425 143.219 201.425 143.219C204.482 140.756 202.147 137.317 202.147 137.317Z" fill="#BED0E5"/>
<path d="M173.203 149.614C173.203 150.382 172.58 151.004 171.813 151.004C171.045 151.004 170.422 150.382 170.422 149.614C170.422 148.846 171.045 148.224 171.813 148.224C172.58 148.224 173.203 148.846 173.203 149.614Z" fill="white"/>
<path d="M134.331 132.747V155.896" stroke="#4267B2" stroke-width="2.5307" stroke-miterlimit="10"/>
<path d="M169.793 74.1699V90.2514" stroke="#5580C4" stroke-width="2.2582" stroke-miterlimit="10"/>
<path d="M75.1736 74.1699V90.2514" stroke="#5580C4" stroke-width="2.2582" stroke-miterlimit="10"/>
<path d="M122.591 96.6199C129.969 96.6199 135.949 90.639 135.949 83.2611C135.949 75.8833 129.969 69.9023 122.591 69.9023C115.213 69.9023 109.232 75.8833 109.232 83.2611C109.232 90.639 115.213 96.6199 122.591 96.6199Z" stroke="#5580C4" stroke-width="2.2582" stroke-miterlimit="10"/>
<path d="M122.591 95.2227C129.196 95.2227 134.551 89.8678 134.551 83.2623C134.551 76.6567 129.196 71.3018 122.591 71.3018C115.985 71.3018 110.63 76.6567 110.63 83.2623C110.63 89.8678 115.985 95.2227 122.591 95.2227Z" fill="#BED0E5"/>
<path d="M118.394 87.5347C116.414 88.2399 114.98 90.013 114.571 92.1339C116.692 94.0527 119.505 95.222 122.591 95.222C125.676 95.222 128.489 94.0527 130.611 92.1339C130.201 90.0133 128.767 88.2399 126.787 87.5347C125.324 87.0138 125.101 86.4756 125.073 86.2681C125.036 85.9974 125.233 85.7539 125.43 85.6165C126.518 84.8551 127.069 83.2188 127.069 80.753C127.069 77.7994 124.709 75.7412 122.591 75.7412C120.472 75.7412 118.112 77.7994 118.112 80.753C118.112 83.2191 118.664 84.8557 119.751 85.6165C119.948 85.7539 120.145 85.9974 120.108 86.2684C120.08 86.4756 119.857 87.0138 118.394 87.5347Z" fill="#4267B2"/>
<path d="M135.77 81.9388L161.938 68.126" stroke="#5580C4" stroke-width="2.2582" stroke-miterlimit="10"/>
<path d="M135.77 84.5859L161.938 98.3988" stroke="#5580C4" stroke-width="2.2582" stroke-miterlimit="10"/>
<path d="M149.502 78.7251C152.099 78.7251 154.204 76.62 154.204 74.0232C154.204 71.4264 152.099 69.3213 149.502 69.3213C146.905 69.3213 144.8 71.4264 144.8 74.0232C144.8 76.62 146.905 78.7251 149.502 78.7251Z" fill="#F25353"/>
<path d="M150.751 72.0186C150.177 72.0186 149.692 72.3821 149.502 72.8898C149.312 72.3821 148.827 72.0186 148.253 72.0186C147.514 72.0186 146.955 72.6188 146.915 73.3565C146.828 74.9699 149.502 76.408 149.502 76.408C149.502 76.408 152.177 74.9699 152.089 73.3565C152.049 72.6188 151.49 72.0186 150.751 72.0186Z" fill="white"/>
<path d="M172.973 73.5374C177.208 71.7832 179.219 66.9282 177.464 62.6934C175.71 58.4586 170.855 56.4476 166.62 58.2017C162.386 59.9559 160.375 64.8109 162.129 69.0458C163.883 73.2806 168.738 75.2916 172.973 73.5374Z" stroke="#5580C4" stroke-width="2.2582" stroke-miterlimit="10"/>
<path d="M175.046 71.1263C177.948 68.2245 177.948 63.5197 175.046 60.6178C172.144 57.716 167.439 57.716 164.537 60.6178C161.636 63.5197 161.636 68.2245 164.537 71.1263C167.439 74.0282 172.144 74.0282 175.046 71.1263Z" fill="#BED0E5"/>
<path d="M167.186 68.5262C165.955 68.9642 165.064 70.0661 164.81 71.3834C166.128 72.5755 167.875 73.302 169.793 73.302C171.71 73.302 173.457 72.5755 174.775 71.3834C174.521 70.0661 173.63 68.9642 172.4 68.5262C171.491 68.2025 171.352 67.8682 171.335 67.7394C171.312 67.5711 171.435 67.4198 171.557 67.3344C172.232 66.8614 172.575 65.8449 172.575 64.3127C172.575 62.4777 171.109 61.1992 169.793 61.1992C168.477 61.1992 167.01 62.478 167.01 64.3127C167.01 65.8449 167.353 66.8617 168.029 67.3344C168.151 67.4198 168.273 67.5711 168.25 67.7394C168.233 67.8682 168.094 68.2025 167.186 68.5262Z" fill="#4267B2"/>
<path d="M178.434 99.8799C179.168 95.3554 176.095 91.0923 171.571 90.358C167.046 89.6237 162.783 92.6962 162.049 97.2207C161.315 101.745 164.387 106.008 168.912 106.743C173.436 107.477 177.699 104.404 178.434 99.8799Z" stroke="#5580C4" stroke-width="2.2582" stroke-miterlimit="10"/>
<path d="M177.474 100.27C178.417 96.2756 175.944 92.2734 171.95 91.3304C167.957 90.3873 163.954 92.8605 163.011 96.8544C162.068 100.848 164.541 104.85 168.535 105.794C172.529 106.737 176.531 104.263 177.474 100.27Z" fill="#BED0E5"/>
<path d="M167.631 101.206C166.4 101.644 165.509 102.746 165.255 104.063C166.573 105.256 168.32 105.982 170.238 105.982C172.155 105.982 173.902 105.256 175.22 104.063C174.966 102.746 174.075 101.644 172.844 101.206C171.936 100.882 171.797 100.548 171.78 100.419C171.757 100.251 171.879 100.1 172.001 100.014C172.677 99.5411 173.02 98.5246 173.02 96.9924C173.02 95.1574 171.553 93.8789 170.237 93.8789C168.921 93.8789 167.455 95.1577 167.455 96.9924C167.455 98.5246 167.798 99.5414 168.473 100.014C168.595 100.1 168.718 100.251 168.695 100.419C168.678 100.548 168.539 100.882 167.631 101.206Z" fill="#4267B2"/>
<path d="M109.196 81.9388L83.0281 68.126" stroke="#5580C4" stroke-width="2.2582" stroke-miterlimit="10"/>
<path d="M109.196 84.5859L83.0283 98.3988" stroke="#5580C4" stroke-width="2.2582" stroke-miterlimit="10"/>
<path d="M82.8203 69.1003C84.6025 64.8774 82.6238 60.0094 78.4009 58.2273C74.178 56.4452 69.31 58.4238 67.5278 62.6467C65.7457 66.8696 67.7244 71.7377 71.9473 73.5198C76.1702 75.3019 81.0382 73.3232 82.8203 69.1003Z" stroke="#5580C4" stroke-width="2.2582" stroke-miterlimit="10"/>
<path d="M80.4273 71.1253C83.3292 68.2235 83.3292 63.5187 80.4273 60.6168C77.5255 57.715 72.8206 57.715 69.9188 60.6168C67.017 63.5187 67.017 68.2235 69.9188 71.1253C72.8206 74.0272 77.5255 74.0272 80.4273 71.1253Z" fill="#BED0E5"/>
<path d="M77.7806 68.5262C79.0109 68.9642 79.9021 70.0661 80.1561 71.3834C78.8381 72.5755 77.0908 73.302 75.1735 73.302C73.2563 73.302 71.5089 72.5755 70.1909 71.3834C70.4453 70.0661 71.3364 68.9642 72.5664 68.5262C73.4753 68.2025 73.6137 67.8682 73.631 67.7394C73.6538 67.5711 73.5315 67.4198 73.4095 67.3344C72.7338 66.8614 72.3911 65.8449 72.3911 64.3127C72.3911 62.4777 73.8575 61.1992 75.1735 61.1992C76.4896 61.1992 77.9559 62.478 77.9559 64.3127C77.9559 65.8449 77.6133 66.8617 76.9376 67.3344C76.8155 67.4198 76.6932 67.5711 76.716 67.7394C76.7333 67.8682 76.8717 68.2025 77.7806 68.5262Z" fill="#4267B2"/>
<path d="M76.0718 106.742C80.5954 106.002 83.6624 101.735 82.9222 97.2111C82.1819 92.6876 77.9147 89.6206 73.3911 90.3608C68.8675 91.1011 65.8005 95.3683 66.5408 99.8919C67.2811 104.415 71.5482 107.482 76.0718 106.742Z" stroke="#5580C4" stroke-width="2.2582" stroke-miterlimit="10"/>
<path d="M76.4496 105.784C80.4415 104.831 82.9057 100.824 81.9536 96.8318C81.0015 92.8399 76.9936 90.3757 73.0018 91.3278C69.0099 92.2799 66.5458 96.2878 67.4979 100.28C68.4499 104.271 72.4578 106.736 76.4496 105.784Z" fill="#BED0E5"/>
<path d="M77.3353 101.206C78.5656 101.644 79.4568 102.746 79.7108 104.063C78.3928 105.256 76.6455 105.982 74.7282 105.982C72.811 105.982 71.0636 105.256 69.7456 104.063C70 102.746 70.8911 101.644 72.1211 101.206C73.03 100.882 73.1684 100.548 73.1857 100.419C73.2085 100.251 73.0862 100.1 72.9641 100.014C72.2885 99.5411 71.9458 98.5246 71.9458 96.9924C71.9458 95.1574 73.4121 93.8789 74.7282 93.8789C76.0443 93.8789 77.5106 95.1577 77.5106 96.9924C77.5106 98.5246 77.168 99.5414 76.4923 100.014C76.3702 100.1 76.2479 100.251 76.2707 100.419C76.2883 100.548 76.4268 100.882 77.3353 101.206Z" fill="#4267B2"/>
<path d="M92.1904 98.2567C94.6082 98.2567 96.5683 96.2967 96.5683 93.8789C96.5683 91.461 94.6082 89.501 92.1904 89.501C89.7725 89.501 87.8125 91.461 87.8125 93.8789C87.8125 96.2967 89.7725 98.2567 92.1904 98.2567Z" fill="#4267B2"/>
<path d="M91.2979 95.3665C91.2979 95.3665 92.6085 95.7461 93.9682 95.5441C94.4091 95.4706 94.9788 93.817 94.6298 92.8246C94.4695 92.3696 92.9803 92.6043 92.9803 92.6043C92.9803 92.6043 93.1416 92.0899 93.068 91.7408C92.9945 91.3917 92.7189 91.0609 92.4158 91.0885C92.1126 91.1161 92.0943 91.2815 92.1495 91.5847C92.2048 91.8879 92.1495 92.3012 92.0301 92.4483C91.945 92.553 91.8226 92.7184 91.759 92.8847C91.7137 93.0039 91.5994 93.0822 91.4719 93.0822H91.2979V95.3665Z" fill="white"/>
<path d="M89.8812 95.6035H90.8C90.905 95.6035 90.9898 95.5184 90.9898 95.4137V93.0697C90.9898 92.9647 90.9047 92.8799 90.8 92.8799H89.8812C89.7762 92.8799 89.6914 92.965 89.6914 93.0697V95.4134C89.6914 95.5184 89.7765 95.6035 89.8812 95.6035Z" fill="white"/>
<path d="M97.069 77.7422C99.014 76.6336 99.692 74.1581 98.5834 72.2131C97.4748 70.2682 94.9994 69.5902 93.0544 70.6988C91.1094 71.8074 90.4314 74.2828 91.54 76.2278C92.6486 78.1727 95.124 78.8508 97.069 77.7422Z" fill="#FFC840"/>
<path d="M95.0598 70.167V78.274C97.2985 78.274 99.1133 76.4592 99.1133 74.2205C99.113 71.9818 97.2982 70.167 95.0598 70.167Z" fill="#F9B826"/>
<path d="M96.8015 73.7998C97.0663 73.7998 97.281 73.5851 97.281 73.3203C97.281 73.0555 97.0663 72.8408 96.8015 72.8408C96.5367 72.8408 96.322 73.0555 96.322 73.3203C96.322 73.5851 96.5367 73.7998 96.8015 73.7998Z" fill="#212121"/>
<path d="M93.3179 73.7998C93.5827 73.7998 93.7973 73.5851 93.7973 73.3203C93.7973 73.0555 93.5827 72.8408 93.3179 72.8408C93.0531 72.8408 92.8384 73.0555 92.8384 73.3203C92.8384 73.5851 93.0531 73.7998 93.3179 73.7998Z" fill="#212121"/>
<path d="M95.06 76.8841C96.2216 76.8841 97.1748 75.9926 97.273 74.8567C97.282 74.753 97.2014 74.6631 97.0974 74.6631H93.0233C92.9192 74.6631 92.8386 74.7533 92.8476 74.8567C92.9452 75.993 93.8984 76.8841 95.06 76.8841Z" fill="#212121"/>
<path d="M93.8501 76.5238C94.1982 76.7506 94.6131 76.8835 95.0599 76.8835C95.5063 76.8835 95.9212 76.7506 96.2696 76.5238C96.1145 76.002 95.6321 75.6211 95.0599 75.6211C94.4876 75.6211 94.0052 76.002 93.8501 76.5238Z" fill="#F65066"/>
<path d="M95.0598 75.6211V76.8835C95.5062 76.8835 95.9211 76.7506 96.2696 76.5238C96.1145 76.002 95.6318 75.6211 95.0598 75.6211Z" fill="#DD2C4A"/>
<path d="M149.502 95.5465C151.741 95.5465 153.556 93.7317 153.556 91.493C153.556 89.2543 151.741 87.4395 149.502 87.4395C147.263 87.4395 145.448 89.2543 145.448 91.493C145.448 93.7317 147.263 95.5465 149.502 95.5465Z" fill="#FFC840"/>
<path d="M149.502 87.4395V95.5465C151.741 95.5465 153.556 93.7317 153.556 91.493C153.556 89.2543 151.741 87.4395 149.502 87.4395Z" fill="#F9B826"/>
<path d="M149.502 94.1556C150.664 94.1556 151.617 93.2641 151.715 92.1282C151.724 92.0245 151.643 91.9346 151.539 91.9346H147.465C147.361 91.9346 147.28 92.0245 147.289 92.1282C147.387 93.2641 148.34 94.1556 149.502 94.1556Z" fill="#212121"/>
<path d="M148.292 93.7963C148.64 94.023 149.055 94.156 149.502 94.156C149.948 94.156 150.363 94.023 150.712 93.7963C150.557 93.2744 150.074 92.8936 149.502 92.8936C148.93 92.8939 148.447 93.2744 148.292 93.7963Z" fill="#F65066"/>
<path d="M149.502 92.8936V94.156C149.948 94.156 150.363 94.023 150.712 93.7963C150.557 93.2741 150.074 92.8936 149.502 92.8936Z" fill="#DD2C4A"/>
<path d="M151.77 90.8537L150.657 90.3967L151.617 89.5752" stroke="#212121" stroke-width="0.9087" stroke-miterlimit="10" stroke-linecap="round" stroke-linejoin="round"/>
<path d="M147.234 90.8537L148.347 90.3967L147.388 89.5752" stroke="#212121" stroke-width="0.9087" stroke-miterlimit="10" stroke-linecap="round" stroke-linejoin="round"/>
<path d="M178.092 65.9658L192.358 76.2592" stroke="#5580C4" stroke-width="2.2582" stroke-miterlimit="10"/>
<path d="M178.537 98.1355L192.377 88.1719" stroke="#5580C4" stroke-width="2.2582" stroke-miterlimit="10"/>
<path d="M195.319 88.8587C198.99 88.8587 201.966 85.8827 201.966 82.2116C201.966 78.5405 198.99 75.5645 195.319 75.5645C191.648 75.5645 188.672 78.5405 188.672 82.2116C188.672 85.8827 191.648 88.8587 195.319 88.8587Z" stroke="#5580C4" stroke-width="2.2582" stroke-miterlimit="10"/>
<path d="M195.319 88.1631C198.606 88.1631 201.27 85.4987 201.27 82.2119C201.27 78.9252 198.606 76.2607 195.319 76.2607C192.032 76.2607 189.368 78.9252 189.368 82.2119C189.368 85.4987 192.032 88.1631 195.319 88.1631Z" fill="#BED0E5"/>
<path d="M197.407 84.3374C198.392 84.6884 199.106 85.5706 199.31 86.6259C198.254 87.5807 196.855 88.1626 195.319 88.1626C193.784 88.1626 192.384 87.581 191.329 86.6259C191.532 85.5709 192.246 84.6884 193.231 84.3374C193.959 84.0782 194.07 83.8104 194.084 83.707C194.102 83.5724 194.004 83.451 193.906 83.3826C193.365 83.0037 193.091 82.1896 193.091 80.9625C193.091 79.4929 194.265 78.4688 195.319 78.4688C196.373 78.4688 197.548 79.4929 197.548 80.9625C197.548 82.1896 197.273 83.0037 196.732 83.3826C196.634 83.451 196.536 83.5721 196.554 83.707C196.568 83.8101 196.679 84.0779 197.407 84.3374Z" fill="#4267B2"/>
<path d="M66.8742 65.9658L52.6079 76.2592" stroke="#5580C4" stroke-width="2.2582" stroke-miterlimit="10"/>
<path d="M66.4294 98.1355L52.5889 88.1719" stroke="#5580C4" stroke-width="2.2582" stroke-miterlimit="10"/>
<path d="M49.6471 88.8587C53.3182 88.8587 56.2942 85.8827 56.2942 82.2116C56.2942 78.5405 53.3182 75.5645 49.6471 75.5645C45.976 75.5645 43 78.5405 43 82.2116C43 85.8827 45.976 88.8587 49.6471 88.8587Z" stroke="#5580C4" stroke-width="2.2582" stroke-miterlimit="10"/>
<path d="M49.6472 88.1631C52.934 88.1631 55.5984 85.4987 55.5984 82.2119C55.5984 78.9252 52.934 76.2607 49.6472 76.2607C46.3605 76.2607 43.696 78.9252 43.696 82.2119C43.696 85.4987 46.3605 88.1631 49.6472 88.1631Z" fill="#BED0E5"/>
<path d="M47.5593 84.3374C46.574 84.6884 45.8601 85.5706 45.6565 86.6259C46.7121 87.5807 48.1117 88.1626 49.6471 88.1626C51.1825 88.1626 52.582 87.581 53.6377 86.6259C53.434 85.5709 52.7201 84.6884 51.7349 84.3374C51.0071 84.0782 50.896 83.8104 50.8822 83.707C50.8639 83.5724 50.9619 83.451 51.0598 83.3826C51.6009 83.0037 51.8755 82.1896 51.8755 80.9625C51.8755 79.4929 50.7011 78.4688 49.6471 78.4688C48.5931 78.4688 47.4186 79.4929 47.4186 80.9625C47.4186 82.1896 47.6932 83.0037 48.2343 83.3826C48.332 83.451 48.4299 83.5721 48.4119 83.707C48.3981 83.8101 48.287 84.0779 47.5593 84.3374Z" fill="#4267B2"/>
</svg>
