<svg width="246" height="246" viewBox="0 0 246 246" fill="none" xmlns="http://www.w3.org/2000/svg">
<rect width="246" height="246" rx="123" fill="#00A19C" fill-opacity="0.11"/>
<path d="M203 158.105H43V197.59H203V158.105Z" fill="#00A19C"/>
<path d="M161.035 174.297H102.273C100.307 174.297 98.6995 172.689 98.6995 170.724V170.409C98.6995 168.444 100.307 166.836 102.273 166.836H161.035C163.001 166.836 164.609 168.444 164.609 170.409V170.724C164.609 172.689 163.001 174.297 161.035 174.297Z" fill="#008580"/>
<path d="M101.636 185.516H66.9365C65.1989 185.516 63.7771 184.095 63.7771 182.357V181.757C63.7771 180.019 65.1989 178.598 66.9365 178.598H101.635C103.373 178.598 104.795 180.019 104.795 181.757V182.357C104.795 184.095 103.373 185.516 101.636 185.516Z" fill="#008580"/>
<path d="M155.805 171.275H107.504C106.021 171.275 104.807 170.061 104.807 168.578V168.144C104.807 166.661 106.021 165.447 107.504 165.447H155.805C157.288 165.447 158.501 166.661 158.501 168.144V168.578C158.501 170.061 157.288 171.275 155.805 171.275Z" fill="white"/>
<path d="M156.006 168.762H107.303C106.316 168.762 105.46 168.082 105.056 167.105C104.898 167.487 104.807 167.912 104.807 168.362C104.807 169.965 105.93 171.276 107.303 171.276H156.006C157.378 171.276 158.501 169.965 158.501 168.362C158.501 167.913 158.41 167.487 158.252 167.105C157.848 168.082 156.993 168.762 156.006 168.762Z" fill="#D9D9D9"/>
<path d="M145.449 152.572H117.859V165.446H145.449V152.572Z" fill="#D9D9D9"/>
<path d="M145.449 165.448H117.859V164.294L145.449 162.934V165.448Z" fill="#A8A8A8"/>
<path d="M117.859 152.572H145.449V153.726L117.859 155.086V152.572Z" fill="#A8A8A8"/>
<path d="M178.111 152.572H85.1972C82.4203 152.572 80.1479 150.3 80.1479 147.523V95.3032C80.1479 92.5259 82.4203 90.2539 85.1972 90.2539H178.111C180.888 90.2539 183.16 92.5259 183.16 95.3032V147.523C183.16 150.3 180.888 152.572 178.111 152.572Z" fill="white"/>
<path d="M181.878 91.959C182.058 92.4735 182.161 93.0236 182.161 93.5977V145.916C182.161 148.666 179.911 150.916 177.161 150.916H86.1469C83.3968 150.916 81.1469 148.666 81.1469 145.916V93.598C81.1469 93.0239 81.25 92.4739 81.4301 91.9593C80.6362 92.8521 80.1482 94.0227 80.1482 95.3039V147.524C80.1482 150.301 82.4205 152.573 85.1975 152.573H178.111C180.888 152.573 183.16 150.301 183.16 147.524V95.3039C183.16 94.0223 182.672 92.8521 181.878 91.959Z" fill="#D9D9D9"/>
<path d="M177.246 147.97H86.0625C84.6868 147.97 83.561 146.845 83.561 145.469V96.0952C83.561 94.7195 84.6868 93.5938 86.0625 93.5938H177.246C178.622 93.5938 179.747 94.7192 179.747 96.0952V145.469C179.747 146.845 178.622 147.97 177.246 147.97Z" fill="#D46E5D"/>
<path d="M176.071 146.733H87.2377C85.9113 146.733 84.8262 145.648 84.8262 144.322V97.2416C84.8262 95.9152 85.9113 94.8301 87.2377 94.8301H176.071C177.397 94.8301 178.482 95.9152 178.482 97.2416V144.322C178.482 145.648 177.397 146.733 176.071 146.733Z" fill="#FF8570"/>
<path d="M173.524 94.8301H89.7842V146.733H173.524V94.8301Z" fill="#E7E7E7"/>
<path d="M166.715 142.682H146.902C144.765 142.682 143.017 140.934 143.017 138.797V137.179C143.017 135.932 144.036 134.912 145.283 134.912H168.333C169.58 134.912 170.6 135.932 170.6 137.179V138.797C170.6 140.934 168.852 142.682 166.715 142.682Z" fill="#BDBDBD"/>
<path d="M173.524 93.5938H89.7842V94.8302H173.524V93.5938Z" fill="#A8A8A8"/>
<path d="M173.524 146.732H89.7842V147.969H173.524V146.732Z" fill="#A8A8A8"/>
<path d="M143.683 125.355C142.621 125.355 141.751 124.486 141.751 123.424V101.005C141.751 99.9433 142.621 99.0742 143.683 99.0742C144.745 99.0742 145.614 99.9433 145.614 101.005V123.424C145.614 124.486 144.745 125.355 143.683 125.355Z" fill="#A8A8A8"/>
<path d="M143.683 124.497C143.227 124.497 142.854 124.124 142.854 123.669V100.762C142.854 100.306 143.227 99.9336 143.683 99.9336C144.138 99.9336 144.511 100.306 144.511 100.762V123.669C144.511 124.124 144.138 124.497 143.683 124.497Z" fill="#5C5C5C"/>
<path d="M133.037 150.223C133.037 150.986 132.418 151.606 131.654 151.606C130.89 151.606 130.271 150.986 130.271 150.223C130.271 149.459 130.89 148.84 131.654 148.84C132.418 148.84 133.037 149.459 133.037 150.223Z" fill="#A8A8A8"/>
<path d="M132.63 150.224C132.63 150.763 132.193 151.199 131.654 151.199C131.116 151.199 130.679 150.763 130.679 150.224C130.679 149.685 131.116 149.248 131.654 149.248C132.193 149.248 132.63 149.685 132.63 150.224Z" fill="#D9D9D9"/>
<path d="M132.625 91.9071C132.625 92.4425 132.191 92.8767 131.656 92.8767C131.121 92.8767 130.686 92.4425 130.686 91.9071C130.686 91.3717 131.121 90.9375 131.656 90.9375C132.191 90.9375 132.625 91.3717 132.625 91.9071Z" fill="#D9D9D9"/>
<path d="M134.506 91.9049C134.506 92.2493 134.227 92.5286 133.882 92.5286C133.538 92.5286 133.259 92.2493 133.259 91.9049C133.259 91.5606 133.538 91.2812 133.882 91.2812C134.227 91.2812 134.506 91.5606 134.506 91.9049Z" fill="#D9D9D9"/>
<path d="M129.521 91.9052C129.521 92.0751 129.383 92.2127 129.213 92.2127C129.043 92.2127 128.906 92.0751 128.906 91.9052C128.906 91.7353 129.043 91.5977 129.213 91.5977C129.383 91.5977 129.521 91.7356 129.521 91.9052Z" fill="#D9D9D9"/>
<path opacity="0.2" d="M90.5292 90.2539L89.1804 147.969H137.009L138.358 90.2539H90.5292Z" fill="black"/>
<path d="M125.789 85.4183V78.7956C125.789 71.771 120.041 66.0234 113.017 66.0234H111.754C104.729 66.0234 98.9819 71.771 98.9819 78.7956V85.4183" stroke="#00464F" stroke-width="4.5527" stroke-miterlimit="10" stroke-linecap="round" stroke-linejoin="round"/>
<path d="M135.942 77.7988H88.113V142.895H135.942V77.7988Z" fill="#005D6B"/>
<path d="M96.1479 80.506L88.113 77.7988V142.895L96.1479 145.602V80.506Z" fill="#007485"/>
<path d="M96.1479 80.5059L88.113 82.8732V147.969L96.1479 145.602V80.5059Z" fill="#004752"/>
<path d="M127.905 80.506L135.939 77.7988V142.895L127.905 145.602V80.506Z" fill="#007485"/>
<path d="M127.905 80.5059L135.939 82.8732V147.969L127.905 145.602V80.5059Z" fill="#004752"/>
<path d="M135.942 82.875H88.113V147.971H135.942V82.875Z" fill="#0090A4"/>
<path d="M112.028 145.715C103.602 145.715 95.5415 144.687 88.113 142.816V147.97H135.942V142.816C128.514 144.687 120.453 145.715 112.028 145.715Z" fill="#007485"/>
<path d="M127.553 89.1172C127.056 90.0916 125.862 90.4778 124.888 89.9802C123.913 89.4823 123.527 88.289 124.025 87.3146C124.523 86.3402 125.716 85.954 126.69 86.4516C127.665 86.9492 128.051 88.1428 127.553 89.1172Z" fill="#00464F"/>
<path d="M100.941 88.2155C100.941 89.3096 100.054 90.1966 98.9599 90.1966C97.8658 90.1966 96.9788 89.3096 96.9788 88.2155C96.9788 87.1214 97.8658 86.2344 98.9599 86.2344C100.054 86.2341 100.941 87.1211 100.941 88.2155Z" fill="#00464F"/>
<path d="M125.789 89.2969V82.6745C125.789 75.6499 120.041 69.9023 113.017 69.9023H111.754C104.729 69.9023 98.9819 75.6499 98.9819 82.6745V89.2969" stroke="#00535E" stroke-width="4.5527" stroke-miterlimit="10" stroke-linecap="round" stroke-linejoin="round"/>
<path d="M127.585 116.74C128.968 108.346 123.284 100.419 114.89 99.0358C106.496 97.6525 98.5694 103.336 97.1861 111.73C95.8028 120.125 101.486 128.051 109.881 129.434C118.275 130.818 126.201 125.134 127.585 116.74Z" stroke="white" stroke-width="4.5527" stroke-miterlimit="10" stroke-linecap="round" stroke-linejoin="round"/>
<path d="M112.386 129.642C117.893 129.642 122.358 122.746 122.358 114.238C122.358 105.731 117.893 98.834 112.386 98.834C106.878 98.834 102.413 105.731 102.413 114.238C102.413 122.746 106.878 129.642 112.386 129.642Z" stroke="white" stroke-width="4.5527" stroke-miterlimit="10" stroke-linecap="round" stroke-linejoin="round"/>
<path d="M112.386 129.642C114.926 129.642 116.985 122.746 116.985 114.238C116.985 105.731 114.926 98.834 112.386 98.834C109.846 98.834 107.787 105.731 107.787 114.238C107.787 122.746 109.846 129.642 112.386 129.642Z" stroke="white" stroke-width="4.5527" stroke-miterlimit="10" stroke-linecap="round" stroke-linejoin="round"/>
<path d="M112.386 124.211C120.893 124.211 127.79 119.746 127.79 114.238C127.79 108.73 120.893 104.266 112.386 104.266C103.878 104.266 96.9814 108.73 96.9814 114.238C96.9814 119.746 103.878 124.211 112.386 124.211Z" stroke="white" stroke-width="4.5527" stroke-miterlimit="10" stroke-linecap="round" stroke-linejoin="round"/>
<path d="M112.386 118.838C120.893 118.838 127.79 116.779 127.79 114.239C127.79 111.7 120.893 109.641 112.386 109.641C103.878 109.641 96.9814 111.7 96.9814 114.239C96.9814 116.779 103.878 118.838 112.386 118.838Z" stroke="white" stroke-width="4.5527" stroke-miterlimit="10" stroke-linecap="round" stroke-linejoin="round"/>
<path d="M150.929 124.789L147.393 126.83L150.929 128.872V127.93H153.684V125.731H150.929V124.789Z" fill="#BDBDBD"/>
<path d="M159.091 124.789L155.555 126.83L159.091 128.872V127.93H161.846V125.731H159.091V124.789Z" fill="#BDBDBD"/>
<path d="M167.253 124.789L163.717 126.83L167.253 128.872V127.93H170.008V125.731H167.253V124.789Z" fill="#BDBDBD"/>
<path opacity="0.2" d="M174.571 124.753L143.682 122.606V103.113L174.571 105.26C175.726 105.341 176.67 106.407 176.67 107.63V122.675C176.67 123.898 175.726 124.833 174.571 124.753Z" fill="black"/>
<path d="M176.412 121.961H143.683V102.469H176.412C177.635 102.469 178.636 103.469 178.636 104.693V119.737C178.636 120.96 177.635 121.961 176.412 121.961Z" fill="#007485"/>
<path d="M159.558 119.588C163.631 117.871 165.54 113.176 163.822 109.103C162.105 105.03 157.41 103.121 153.337 104.839C149.264 106.557 147.355 111.251 149.073 115.324C150.791 119.397 155.485 121.306 159.558 119.588Z" fill="#FF8570"/>
<path d="M167.166 105.717C165.899 105.717 164.717 106.081 163.717 106.708C164.879 108.239 165.569 110.146 165.569 112.215C165.569 114.284 164.879 116.192 163.717 117.723C164.717 118.35 165.899 118.714 167.166 118.714C170.755 118.714 173.664 115.804 173.664 112.215C173.664 108.626 170.755 105.717 167.166 105.717Z" fill="#FFC951"/>
<path d="M178.636 104.953H143.683V109.567H178.636V104.953Z" fill="#00879C"/>
<path d="M166.715 141.153H146.902C144.765 141.153 143.017 139.405 143.017 137.268C143.017 135.131 144.765 133.383 146.902 133.383H166.715C168.852 133.383 170.6 135.131 170.6 137.268C170.6 139.405 168.852 141.153 166.715 141.153Z" fill="#FF8570"/>
<path d="M166.715 139.497H146.902C145.049 139.497 143.491 138.182 143.109 136.439C143.05 136.707 143.017 136.983 143.017 137.267C143.017 139.404 144.765 141.152 146.902 141.152H166.716C168.852 141.152 170.6 139.404 170.6 137.267C170.6 136.983 170.567 136.706 170.509 136.439C170.127 138.182 168.568 139.497 166.715 139.497Z" fill="#D46E5D"/>
<path opacity="0.2" d="M154.385 136.855H146.692C146.008 136.855 145.449 136.296 145.449 135.612C145.449 134.929 146.008 134.369 146.692 134.369H154.385C155.069 134.369 155.628 134.929 155.628 135.612C155.628 136.296 155.069 136.855 154.385 136.855Z" fill="white"/>
<path opacity="0.2" d="M158.951 136.855H158.052C157.368 136.855 156.809 136.296 156.809 135.612C156.809 134.929 157.368 134.369 158.052 134.369H158.951C159.634 134.369 160.194 134.929 160.194 135.612C160.194 136.296 159.634 136.855 158.951 136.855Z" fill="white"/>
<path d="M96.2572 181.771H72.3145C70.0735 181.771 68.2402 179.937 68.2402 177.696V127.006C68.2402 124.765 70.0735 122.932 72.3145 122.932H96.2572C98.4982 122.932 100.331 124.765 100.331 127.006V177.696C100.331 179.937 98.4982 181.771 96.2572 181.771Z" fill="#D9D9D9"/>
<path d="M95.7303 180.732H72.842C70.6676 180.732 68.8887 178.953 68.8887 176.779V126.885C68.8887 124.711 70.6676 122.932 72.842 122.932H95.7303C97.9047 122.932 99.6836 124.711 99.6836 126.885V176.779C99.6832 178.953 97.9044 180.732 95.7303 180.732Z" fill="white"/>
<path d="M96.5357 174.164H72.0362C71.2855 174.164 70.6714 173.55 70.6714 172.799V130.814C70.6714 130.063 71.2855 129.449 72.0362 129.449H96.5357C97.2864 129.449 97.9005 130.063 97.9005 130.814V172.799C97.9005 173.55 97.2864 174.164 96.5357 174.164Z" fill="#00A19C"/>
<path d="M95.7821 172.942H72.7901C72.3047 172.942 71.9072 172.545 71.9072 172.059V131.555C71.9072 131.069 72.3043 130.672 72.7901 130.672H95.7821C96.2675 130.672 96.665 131.069 96.665 131.555V172.059C96.6647 172.545 96.2675 172.942 95.7821 172.942Z" fill="#00CFC8"/>
<path d="M88.6102 126.751H79.9612C79.7001 126.751 79.4863 126.537 79.4863 126.276C79.4863 126.015 79.7001 125.801 79.9612 125.801H88.6102C88.8716 125.801 89.0854 126.015 89.0854 126.276C89.0854 126.537 88.8716 126.751 88.6102 126.751Z" fill="#E7E7E7"/>
<path d="M88.6102 126.277H79.9612C79.7868 126.277 79.6351 126.18 79.5526 126.039C79.5116 126.109 79.4863 126.19 79.4863 126.277C79.4863 126.538 79.7001 126.751 79.9612 126.751H88.6102C88.8716 126.751 89.0854 126.538 89.0854 126.277C89.0854 126.19 89.0601 126.109 89.0188 126.039C88.9363 126.18 88.7849 126.277 88.6102 126.277Z" fill="#A8A8A8"/>
<path d="M91.1994 127.321C90.6247 127.321 90.1543 126.85 90.1543 126.276C90.1543 125.701 90.6247 125.23 91.1994 125.23C91.7741 125.23 92.2445 125.701 92.2445 126.276C92.2442 126.851 91.7741 127.321 91.1994 127.321Z" fill="#A8A8A8"/>
<path d="M91.1995 126.751C90.9384 126.751 90.7246 126.537 90.7246 126.276C90.7246 126.015 90.9384 125.801 91.1995 125.801C91.4606 125.801 91.6744 126.015 91.6744 126.276C91.6744 126.537 91.4606 126.751 91.1995 126.751Z" fill="#E7E7E7"/>
<path d="M84.2861 179.932C85.4766 179.932 86.4417 178.967 86.4417 177.777C86.4417 176.586 85.4766 175.621 84.2861 175.621C83.0957 175.621 82.1306 176.586 82.1306 177.777C82.1306 178.967 83.0957 179.932 84.2861 179.932Z" fill="#A8A8A8"/>
<path d="M84.286 179.02C84.9733 179.02 85.5305 178.463 85.5305 177.776C85.5305 177.088 84.9733 176.531 84.286 176.531C83.5987 176.531 83.0415 177.088 83.0415 177.776C83.0415 178.463 83.5987 179.02 84.286 179.02Z" fill="white"/>
<path d="M84.286 178.723C83.6495 178.723 83.1308 178.243 83.0565 177.627C83.0505 177.676 83.0415 177.725 83.0415 177.775C83.0415 178.463 83.5986 179.02 84.286 179.02C84.9733 179.02 85.5305 178.463 85.5305 177.775C85.5305 177.725 85.5215 177.676 85.5154 177.627C85.4412 178.244 84.9225 178.723 84.286 178.723Z" fill="#D9D9D9"/>
<path d="M92.0236 169.244H76.5484C74.8796 169.244 73.5142 167.879 73.5142 166.21V165.172C73.5142 164.074 74.4124 163.176 75.5103 163.176H93.062C94.1599 163.176 95.0582 164.074 95.0582 165.172V166.21C95.0578 167.879 93.6924 169.244 92.0236 169.244Z" fill="#00A19C"/>
<path d="M92.0236 168.211H76.5484C74.8796 168.211 73.5142 166.846 73.5142 165.177C73.5142 163.508 74.8796 162.143 76.5484 162.143H92.0236C93.6924 162.143 95.0578 163.508 95.0578 165.177C95.0578 166.846 93.6924 168.211 92.0236 168.211Z" fill="#FF8570"/>
<path d="M92.0236 166.919H76.5484C75.1014 166.919 73.8841 165.892 73.5855 164.531C73.5398 164.74 73.5142 164.956 73.5142 165.178C73.5142 166.846 74.8796 168.212 76.5484 168.212H92.0236C93.6924 168.212 95.0578 166.846 95.0578 165.178C95.0578 164.956 95.0322 164.74 94.9865 164.531C94.6879 165.892 93.4706 166.919 92.0236 166.919Z" fill="#D46E5D"/>
<path opacity="0.2" d="M82.3933 164.855H76.3844C75.8506 164.855 75.4138 164.419 75.4138 163.885C75.4138 163.351 75.8506 162.914 76.3844 162.914H82.3933C82.9271 162.914 83.3642 163.351 83.3642 163.885C83.3639 164.419 82.9271 164.855 82.3933 164.855Z" fill="white"/>
<path opacity="0.2" d="M85.9592 164.855H85.2568C84.723 164.855 84.2859 164.419 84.2859 163.885C84.2859 163.351 84.7227 162.914 85.2568 162.914H85.9592C86.4932 162.914 86.9297 163.351 86.9297 163.885C86.9297 164.419 86.4929 164.855 85.9592 164.855Z" fill="white"/>
<path d="M95.0579 135.219H73.5139V137.303H95.0579V135.219Z" fill="white"/>
<path d="M93.2134 143.004H73.5139V145.087H93.2134V143.004Z" fill="white"/>
<path d="M91.6742 139.109H73.5139V141.193H91.6742V139.109Z" fill="white"/>
<path d="M95.0579 146.896H73.5139V148.98H95.0579V146.896Z" fill="white"/>
<path d="M84.5507 154.682H73.5139V156.765H84.5507V154.682Z" fill="white"/>
<path d="M91.6742 150.789H73.5139V152.873H91.6742V150.789Z" fill="white"/>
<path d="M168.691 49H77.3096V59.3648H168.691V49Z" stroke="white" stroke-width="1.5" stroke-miterlimit="10"/>
</svg>
