<svg width="246" height="246" viewBox="0 0 246 246" fill="none" xmlns="http://www.w3.org/2000/svg">
<rect width="246" height="246" rx="123" fill="#00B6C7" fill-opacity="0.11"/>
<path d="M125.229 182.708C149.613 182.708 169.379 181.429 169.379 179.852C169.379 178.275 149.613 176.997 125.229 176.997C100.845 176.997 81.0786 178.275 81.0786 179.852C81.0786 181.429 100.845 182.708 125.229 182.708Z" fill="#1776A0"/>
<path d="M68.8931 186.123C80.9844 186.123 90.7862 184.844 90.7862 183.267C90.7862 181.69 80.9844 180.412 68.8931 180.412C56.8019 180.412 47 181.69 47 183.267C47 184.844 56.8019 186.123 68.8931 186.123Z" fill="#1776A0"/>
<path d="M163.97 190.195C173.102 190.195 180.505 188.917 180.505 187.34C180.505 185.763 173.102 184.484 163.97 184.484C154.838 184.484 147.436 185.763 147.436 187.34C147.436 188.917 154.838 190.195 163.97 190.195Z" fill="#1776A0"/>
<path d="M182.802 182.708C191.934 182.708 199.337 181.429 199.337 179.852C199.337 178.275 191.934 176.997 182.802 176.997C173.67 176.997 166.267 178.275 166.267 179.852C166.267 181.429 173.67 182.708 182.802 182.708Z" fill="#1776A0"/>
<path d="M95.2564 187.4C95.2564 188.163 92.0017 188.783 87.987 188.783C83.9723 188.783 80.7175 188.163 80.7175 187.4C80.7175 186.636 83.9723 186.017 87.987 186.017C92.0017 186.017 95.2564 186.636 95.2564 187.4Z" fill="#1776A0"/>
<path d="M134.233 157.578H116.225V177.018H134.233V157.578Z" fill="#CCCCCC"/>
<path d="M134.233 157.578H116.225V167.298H134.233V157.578Z" fill="#999999"/>
<path d="M79.6746 72.5479V76.4003" stroke="white" stroke-width="4" stroke-miterlimit="10" stroke-linecap="round" stroke-linejoin="round"/>
<path d="M81.601 74.4736H77.7485" stroke="white" stroke-width="4" stroke-miterlimit="10" stroke-linecap="round" stroke-linejoin="round"/>
<path d="M194.888 136.665V140.518" stroke="white" stroke-width="4" stroke-miterlimit="10" stroke-linecap="round" stroke-linejoin="round"/>
<path d="M196.814 138.592H192.961" stroke="white" stroke-width="4" stroke-miterlimit="10" stroke-linecap="round" stroke-linejoin="round"/>
<path d="M175.146 108.092V111.944" stroke="white" stroke-width="4" stroke-miterlimit="10" stroke-linecap="round" stroke-linejoin="round"/>
<path d="M177.073 110.018H173.22" stroke="white" stroke-width="4" stroke-miterlimit="10" stroke-linecap="round" stroke-linejoin="round"/>
<path d="M55.6841 134.739V138.592" stroke="white" stroke-width="4" stroke-miterlimit="10" stroke-linecap="round" stroke-linejoin="round"/>
<path d="M57.6108 136.665H53.7583" stroke="white" stroke-width="4" stroke-miterlimit="10" stroke-linecap="round" stroke-linejoin="round"/>
<path d="M163.813 164.099H86.6448C84.8467 164.099 83.3894 162.641 83.3894 160.843V110.477C83.3894 108.679 84.847 107.222 86.6448 107.222H163.812C165.611 107.222 167.068 108.679 167.068 110.477V160.843C167.068 162.641 165.611 164.099 163.813 164.099Z" fill="white"/>
<path d="M163.813 107.222H86.6448C84.8467 107.222 83.3894 108.679 83.3894 110.477V155.314H167.068V110.477C167.068 108.679 165.611 107.222 163.813 107.222Z" fill="#073D55"/>
<path d="M163.97 110.018H86.5894V155.314H163.97V110.018Z" fill="#00B6C7"/>
<path d="M86.5894 155.314L163.97 110.018H86.5894V155.314Z" fill="#04ACB5"/>
<path d="M138.571 175.621H112.039V178.789H138.571V175.621Z" fill="white"/>
<path d="M86.4316 181.796H54.9967C52.6063 181.796 50.6687 179.858 50.6687 177.468C50.6687 175.077 52.6063 173.14 54.9967 173.14H86.4316V181.796Z" fill="#F7B30B"/>
<path d="M86.4317 180.429H55.6694C54.0336 180.429 52.7075 179.103 52.7075 177.467C52.7075 175.831 54.0336 174.505 55.6694 174.505H86.432L86.4317 180.429Z" fill="#F2F2F2"/>
<path d="M75.8146 173.139H54.9967C52.6063 173.139 50.6687 171.202 50.6687 168.811C50.6687 166.421 52.6063 164.483 54.9967 164.483H75.8146V173.139Z" fill="#00B6C7"/>
<path d="M75.8147 171.773H55.6694C54.0336 171.773 52.7075 170.447 52.7075 168.812C52.7075 167.176 54.0336 165.85 55.6694 165.85H75.815L75.8147 171.773Z" fill="#F2F2F2"/>
<path d="M69.8649 160.865H66.9653V159.499H69.8649C71.3237 159.499 72.5109 158.312 72.5109 156.853V155.908H67.6441V154.541H73.8777V156.853C73.8777 159.065 72.0773 160.865 69.8649 160.865Z" fill="#AF3A12"/>
<path d="M64.261 164.439C61.0473 164.439 58.4421 161.833 58.4421 158.62V152.801H70.0799V158.62C70.0799 161.833 67.4748 164.439 64.261 164.439Z" fill="#CC440E"/>
<path d="M62.9167 158.62V152.801H58.4421V158.62C58.4421 161.833 61.0473 164.439 64.261 164.439C65.054 164.439 65.8092 164.279 66.4981 163.992C64.3954 163.114 62.9167 161.04 62.9167 158.62Z" fill="#AF3A12"/>
<path d="M155.942 162.438H147.988V150.051H160.376V158.004L155.942 162.438Z" fill="#F7B30B"/>
<path d="M155.942 162.438V158.004H160.376L155.942 162.438Z" fill="#E2A110"/>
<path d="M125.732 54H124.726V65.4794H125.732V54Z" fill="#5E4F42"/>
<path d="M125.801 73.5558C127.682 73.2391 128.949 71.4581 128.632 69.5779C128.316 67.6976 126.535 66.4301 124.654 66.7469C122.774 67.0636 121.507 68.8446 121.823 70.7248C122.14 72.6051 123.921 73.8725 125.801 73.5558Z" fill="white"/>
<path d="M132.861 70.1528C132.861 65.9375 129.444 62.5205 125.229 62.5205C121.013 62.5205 117.596 65.9378 117.596 70.1528H132.861Z" fill="#00B6C7"/>
<path d="M126.955 62.7189C126.4 62.5906 125.823 62.5205 125.229 62.5205C121.013 62.5205 117.596 65.9375 117.596 70.1528H121.049C121.049 66.5317 123.571 63.5016 126.955 62.7189Z" fill="#099696"/>
<path d="M183.796 135.69C190.211 135.69 195.412 130.489 195.412 124.074C195.412 117.659 190.211 112.458 183.796 112.458C177.38 112.458 172.18 117.659 172.18 124.074C172.18 130.489 177.38 135.69 183.796 135.69Z" fill="#073D55"/>
<path d="M189.91 130.19C193.287 126.812 193.287 121.336 189.91 117.959C186.532 114.581 181.056 114.581 177.679 117.959C174.301 121.336 174.301 126.812 177.679 130.19C181.056 133.567 186.532 133.567 189.91 130.19Z" fill="white"/>
<path d="M175.895 124.89C175.895 120.113 179.767 116.241 184.543 116.241C186.87 116.241 188.98 117.161 190.534 118.656C188.949 116.686 186.52 115.425 183.795 115.425C179.018 115.425 175.146 119.297 175.146 124.074C175.146 126.524 176.167 128.734 177.804 130.308C176.61 128.825 175.895 126.942 175.895 124.89Z" fill="#999999"/>
<path d="M183.918 124.77L178.93 122.438L179.42 121.391L183.673 123.379L188.119 118.934L188.936 119.751L183.918 124.77Z" fill="#00B6C7"/>
<path d="M77.1147 122.664V112.122C77.1147 110.96 76.1723 110.018 75.0097 110.018H55.9044C54.7419 110.018 53.7998 110.96 53.7998 112.122V122.664C53.7998 123.827 54.7422 124.769 55.9044 124.769H71.4785L81.0718 128.836L77.1147 122.664Z" fill="#F7B30B"/>
<path d="M55.6285 114.113H75.0474V113.085H55.6285V114.113Z" fill="white"/>
<path d="M55.6285 117.577H75.0474V116.549H55.6285V117.577Z" fill="white"/>
<path d="M55.6286 121.15H63.2961V120.122H55.6286V121.15Z" fill="white"/>
<path d="M166.496 102.976V92.4337C166.496 91.2712 167.439 90.3291 168.601 90.3291H187.706C188.869 90.3291 189.811 91.2715 189.811 92.4337V102.976C189.811 104.138 188.869 105.08 187.706 105.08H172.133L162.539 109.148L166.496 102.976Z" fill="#D83F16"/>
<path d="M168.508 94.8984H187.927V93.8703H168.508V94.8984Z" fill="white"/>
<path d="M168.507 98.3623H187.926V97.3341H168.507V98.3623Z" fill="white"/>
<path d="M168.508 101.936H176.175V100.907H168.508V101.936Z" fill="white"/>
<path opacity="0.5" d="M100.138 65.3488C99.9646 65.3488 99.7956 65.3664 99.6321 65.399C99.6321 65.3821 99.6346 65.3657 99.6346 65.3488C99.6346 62.5187 97.3406 60.2246 94.5105 60.2246C92.1009 60.2246 90.0855 61.8899 89.538 64.1305C89.2202 64.0268 88.882 63.9692 88.5297 63.9692C86.7338 63.9692 85.2778 65.4253 85.2778 67.2211C85.2778 69.0169 86.7338 70.4729 88.5297 70.4729H100.138C101.553 70.4729 102.7 69.3257 102.7 67.911C102.7 66.4963 101.552 65.3488 100.138 65.3488Z" fill="white"/>
<path opacity="0.5" d="M137.807 107.222C138.01 107.222 138.208 107.242 138.4 107.281C138.399 107.261 138.397 107.242 138.397 107.222C138.397 103.904 141.086 101.214 144.404 101.214C147.229 101.214 149.592 103.166 150.234 105.793C150.607 105.672 151.003 105.604 151.417 105.604C153.522 105.604 155.229 107.311 155.229 109.417C155.229 111.522 153.522 113.229 151.417 113.229H137.807C136.148 113.229 134.803 111.884 134.803 110.225C134.803 108.567 136.148 107.222 137.807 107.222Z" fill="white"/>
<path opacity="0.5" d="M74.5796 136.665C74.7053 136.665 74.8279 136.678 74.9463 136.702C74.9463 136.689 74.9444 136.677 74.9444 136.665C74.9444 134.612 76.609 132.947 78.6621 132.947C80.4103 132.947 81.8727 134.156 82.2698 135.781C82.5002 135.706 82.746 135.664 83.0017 135.664C84.3047 135.664 85.361 136.72 85.361 138.023C85.361 139.326 84.3047 140.383 83.0017 140.383H74.5796C73.553 140.383 72.7207 139.55 72.7207 138.524C72.7207 137.497 73.553 136.665 74.5796 136.665Z" fill="white"/>
<path opacity="0.5" d="M177.73 68.3877C177.855 68.3877 177.978 68.4005 178.097 68.4242C178.097 68.4117 178.095 68.3998 178.095 68.3877C178.095 66.3342 179.759 64.6699 181.813 64.6699C183.561 64.6699 185.023 65.8782 185.42 67.5038C185.651 67.4286 185.896 67.3867 186.152 67.3867C187.455 67.3867 188.511 68.443 188.511 69.7461C188.511 71.0491 187.455 72.1054 186.152 72.1054H177.73C176.703 72.1054 175.871 71.2731 175.871 70.2466C175.871 69.22 176.703 68.3877 177.73 68.3877Z" fill="white"/>
<path d="M197.015 145.086H170.575V180.574H197.015V145.086Z" fill="white"/>
<path d="M187.296 180.575V170.855H197.015L187.296 180.575Z" fill="#CCCCCC"/>
<path d="M179.535 147.574H172.815V154.294H179.535V147.574Z" fill="#F7B30B"/>
<path d="M184.948 147.574H180.655V148.881H184.948V147.574Z" fill="#CCCCCC"/>
<path d="M189.12 149.628H180.655V150.934H189.12V149.628Z" fill="#CCCCCC"/>
<path d="M194.888 155.625H172.815V156.932H194.888V155.625Z" fill="#CCCCCC"/>
<path d="M194.888 158.04H172.815V159.347H194.888V158.04Z" fill="#CCCCCC"/>
<path d="M194.888 160.455H172.815V161.762H194.888V160.455Z" fill="#CCCCCC"/>
<path d="M194.888 162.87H172.815V164.177H194.888V162.87Z" fill="#CCCCCC"/>
<path d="M179.535 165.284H172.815V166.591H179.535V165.284Z" fill="#CCCCCC"/>
<path d="M126.439 138.852C135.22 138.852 142.338 136.68 142.338 134C142.338 131.32 135.22 129.147 126.439 129.147C117.659 129.147 110.541 131.32 110.541 134C110.541 136.68 117.659 138.852 126.439 138.852Z" stroke="white" stroke-width="3" stroke-miterlimit="10"/>
<path d="M126.439 149.899C129.119 149.899 131.292 142.781 131.292 134C131.292 125.22 129.119 118.102 126.439 118.102C123.759 118.102 121.587 125.22 121.587 134C121.587 142.781 123.759 149.899 126.439 149.899Z" stroke="white" stroke-width="3" stroke-miterlimit="10"/>
<path d="M129.869 137.431C136.078 131.222 139.575 124.653 137.68 122.758C135.785 120.863 129.216 124.36 123.007 130.569C116.798 136.777 113.301 143.347 115.196 145.242C117.091 147.137 123.661 143.64 129.869 137.431Z" stroke="white" stroke-width="3" stroke-miterlimit="10"/>
<path d="M137.68 145.242C139.575 143.347 136.078 136.778 129.869 130.569C123.661 124.36 117.091 120.863 115.196 122.758C113.301 124.653 116.798 131.223 123.007 137.431C129.216 143.64 135.785 147.137 137.68 145.242Z" stroke="white" stroke-width="3" stroke-miterlimit="10"/>
<path d="M126.439 136.035C127.563 136.035 128.474 135.124 128.474 134C128.474 132.877 127.563 131.966 126.439 131.966C125.316 131.966 124.405 132.877 124.405 134C124.405 135.124 125.316 136.035 126.439 136.035Z" fill="#D83F16"/>
<path d="M118.562 124.2C119.507 124.2 120.272 123.434 120.272 122.49C120.272 121.546 119.507 120.78 118.562 120.78C117.618 120.78 116.853 121.546 116.853 122.49C116.853 123.434 117.618 124.2 118.562 124.2Z" fill="#F7B30B"/>
<path d="M129.582 148.32C130.526 148.32 131.292 147.554 131.292 146.61C131.292 145.666 130.526 144.9 129.582 144.9C128.638 144.9 127.872 145.666 127.872 146.61C127.872 147.554 128.638 148.32 129.582 148.32Z" fill="#F7B30B"/>
<path d="M135.91 131.729C136.855 131.729 137.62 130.964 137.62 130.019C137.62 129.075 136.855 128.31 135.91 128.31C134.966 128.31 134.201 129.075 134.201 130.019C134.201 130.964 134.966 131.729 135.91 131.729Z" fill="#073D55"/>
<path d="M163.97 187.173H178.597L171.284 174.506L163.97 161.839L156.656 174.506L149.343 187.173H163.97ZM160.091 176.775L163.97 170.055L167.85 176.775L171.73 183.494H163.971H156.211L160.091 176.775Z" fill="#073D55"/>
<path d="M88.1656 182.491C92.2792 182.491 95.6139 179.157 95.6139 175.043C95.6139 170.929 92.2792 167.595 88.1656 167.595C84.052 167.595 80.7173 170.929 80.7173 175.043C80.7173 179.157 84.052 182.491 88.1656 182.491Z" fill="#52B822"/>
<path d="M84.3354 175.043C84.3354 171.553 86.7354 168.625 89.9748 167.817C89.3956 167.672 88.7898 167.595 88.1658 167.595C84.0522 167.595 80.7175 170.929 80.7175 175.043C80.7175 179.157 84.0522 182.491 88.1658 182.491C88.7898 182.491 89.3956 182.414 89.9748 182.269C86.7354 181.461 84.3354 178.533 84.3354 175.043Z" fill="#4A9920"/>
<path d="M88.7919 179.168C88.3221 179.546 87.7263 179.773 87.0767 179.773C86.5432 179.773 86.0469 179.618 85.6255 179.354C86.5848 180.091 87.7807 180.536 89.0844 180.536C89.6783 180.536 90.2485 180.44 90.7861 180.27C90.0456 180.037 89.3685 179.661 88.7919 179.168Z" fill="#4A9920"/>
<path d="M92.6818 187.34H83.6495L81.8149 178.99H94.5164L92.6818 187.34Z" fill="white"/>
<path d="M81.8149 178.99L83.6495 187.34H86.6511L84.8165 178.99H81.8149Z" fill="#CCCCCC"/>
<path d="M52.7076 184.145C51.2315 184.145 50.0347 182.948 50.0347 181.472V159.833H55.3803V181.472C55.3803 182.948 54.1838 184.145 52.7076 184.145Z" fill="white"/>
<path d="M52.7075 183.515C51.5795 183.515 50.6653 182.601 50.6653 181.473V159.833H54.7501V181.473C54.7498 182.601 53.8355 183.515 52.7075 183.515Z" fill="#CCCCCC"/>
<path d="M50.665 169.735V181.473C50.665 182.601 51.5796 183.516 52.7073 183.516C53.835 183.516 54.7495 182.601 54.7495 181.473V169.735H50.665Z" fill="#F7B30B"/>
<path d="M52.3278 181.473V159.833H50.665V181.473C50.665 182.601 51.5796 183.515 52.7073 183.515C53.0036 183.515 53.2846 183.451 53.5386 183.337C52.8257 183.019 52.3278 182.305 52.3278 181.473Z" fill="#CCCCCC"/>
<path d="M54.2699 162.66H53.5391V167.392H54.2699V162.66Z" fill="white"/>
<path d="M55.9677 159.402H49.447V160.971H55.9677V159.402Z" fill="white"/>
<path d="M124.697 192.663C135.344 192.663 143.976 192.044 143.976 191.28C143.976 190.517 135.344 189.897 124.697 189.897C114.049 189.897 105.417 190.517 105.417 191.28C105.417 192.044 114.049 192.663 124.697 192.663Z" fill="#1776A0"/>
<path d="M141.968 191.28H108.405V188.783H141.968C142.657 188.783 143.216 189.342 143.216 190.032C143.216 190.721 142.657 191.28 141.968 191.28Z" fill="#52B822"/>
<path d="M108.405 188.783L103.869 190.032L108.405 191.28V188.783Z" fill="#CCCCCC"/>
<path d="M140.269 188.783H133.58V191.28H140.269V188.783Z" fill="#F7B30B"/>
<path d="M133.58 191.28H140.269H141.968C142.657 191.28 143.216 190.721 143.216 190.031H103.869L108.405 191.28H133.58Z" fill="#B3B3B3"/>
<path d="M97.2489 99.3027C93.6796 99.3027 90.7861 102.196 90.7861 105.765C90.7861 109.335 97.2489 118.992 97.2489 118.992C97.2489 118.992 103.712 109.335 103.712 105.765C103.712 102.196 100.818 99.3027 97.2489 99.3027ZM97.2489 109.151C95.3791 109.151 93.8636 107.635 93.8636 105.765C93.8636 103.896 95.3791 102.38 97.2489 102.38C99.1186 102.38 100.634 103.896 100.634 105.765C100.634 107.635 99.1183 109.151 97.2489 109.151Z" fill="#DCF20C"/>
<path d="M104.734 162.914C105.414 163.879 106.486 164.4 107.583 164.423C107.93 163.382 107.797 162.197 107.117 161.232C106.436 160.267 105.363 159.746 104.267 159.724C103.921 160.764 104.053 161.949 104.734 162.914Z" fill="#367212"/>
<path d="M113.362 163.32C111.473 162.782 110.086 163.402 109.234 164.046C108.64 164.496 107.826 164.496 107.232 164.046C106.38 163.402 104.992 162.782 103.104 163.32C98.4528 164.645 98.3114 169.202 99.4007 172.949C100.49 176.696 103.105 179.572 104.978 180.402C106.586 181.115 108.233 180.504 108.233 180.504C108.233 180.504 109.879 181.115 111.487 180.402C113.36 179.572 115.975 176.696 117.065 172.949C118.154 169.202 118.013 164.645 113.362 163.32Z" fill="#D83F16"/>
<path d="M109.057 180.403C107.185 179.573 104.569 176.697 103.48 172.95C102.45 169.409 102.522 165.146 106.459 163.57C105.624 163.159 104.502 162.923 103.105 163.321C98.4533 164.646 98.3119 169.203 99.4011 172.95C100.49 176.697 103.106 179.573 104.978 180.403C106.587 181.115 108.233 180.505 108.233 180.505C108.233 180.505 109.144 180.842 110.273 180.722C109.884 180.681 109.469 180.586 109.057 180.403Z" fill="#BC3115"/>
<path d="M109.167 159.582C107.847 160.901 107.324 162.71 107.583 164.423C109.296 164.683 111.105 164.159 112.425 162.84C113.744 161.52 114.268 159.711 114.008 157.998C112.295 157.739 110.486 158.262 109.167 159.582Z" fill="#52B822"/>
<path d="M114.009 157.998C112.296 157.739 110.487 158.262 109.167 159.582C107.848 160.901 107.324 162.71 107.584 164.423C107.584 164.423 108.824 159.835 114.009 157.998Z" fill="#439119"/>
</svg>
