<svg width="246" height="246" viewBox="0 0 246 246" fill="none" xmlns="http://www.w3.org/2000/svg">
<rect width="246" height="246" rx="123" fill="#455A64" fill-opacity="0.11"/>
<path d="M190.3 104.492C194.299 106.8 194.321 110.546 190.345 112.855C161.357 129.701 132.368 146.548 103.379 163.394C99.4068 165.703 92.9414 165.703 88.943 163.394C77.6306 156.863 66.3177 150.332 55.0052 143.8C51.0057 141.492 50.9832 137.746 54.9563 135.437C83.945 118.591 112.934 101.744 141.923 84.8981C145.897 82.5883 152.364 82.5891 156.362 84.8981C167.675 91.4297 178.987 97.961 190.3 104.492Z" fill="black"/>
<path d="M194.294 109.676C194.232 109.203 194.147 108.87 194.102 108.714C194.033 108.475 193.956 108.204 193.735 107.715C193.611 107.44 193.493 107.248 193.297 106.928C193.172 106.726 192.979 106.472 192.823 106.293C192.62 106.06 192.332 105.764 192.103 105.556C191.834 105.313 191.44 105.031 191.145 104.821C190.989 104.709 190.764 104.584 190.6 104.483C190.509 104.43 190.407 104.43 190.3 104.492C194.299 106.801 194.32 110.546 190.345 112.855L103.379 163.395C99.4067 165.704 92.9413 165.704 88.943 163.395L55.0051 143.801C51.0056 141.493 50.9832 137.747 54.9562 135.438C54.8474 135.375 54.7437 135.376 54.6503 135.43C54.3432 135.621 53.9419 135.888 53.6482 136.098C53.5043 136.201 53.3229 136.353 53.1932 136.473C52.9941 136.658 52.7308 136.908 52.5546 137.114C52.2281 137.495 52.0342 137.78 51.9285 137.953C51.496 138.658 51.3096 139.212 51.1838 139.661C51.1077 139.932 51.045 140.253 50.9973 140.613C50.9567 140.919 50.9512 141.152 50.9433 141.474L50.9422 141.946C50.9414 142.261 50.9796 142.576 51.0569 142.888C50.9796 142.576 50.9414 142.261 50.9422 141.946C50.9418 142.821 51.0841 143.444 51.2079 143.89C51.4338 144.702 51.8126 145.319 51.9368 145.522C52.0779 145.751 52.3101 146.062 52.4446 146.219C52.6606 146.47 52.9728 146.784 53.2165 147.008C53.4782 147.249 53.8689 147.522 54.1587 147.728C54.312 147.837 54.532 147.96 54.6921 148.059L88.63 167.653C89.3912 168.089 89.9995 168.325 90.0054 168.327C90.4281 168.49 90.9989 168.687 91.4306 168.824C91.6561 168.896 91.9632 168.968 92.193 169.023C93.3698 169.307 94.8159 169.47 96.1598 169.47C97.525 169.47 98.936 169.31 100.133 169.021C100.368 168.964 100.682 168.889 100.913 168.815C101.342 168.678 101.909 168.479 102.33 168.316C102.551 168.23 102.836 168.093 103.049 167.987C103.239 167.893 103.485 167.752 103.673 167.652L138.459 147.436L190.64 117.112C190.935 116.93 191.327 116.683 191.603 116.473C191.876 116.265 192.214 115.957 192.463 115.722C192.634 115.56 192.837 115.319 192.981 115.133C193.137 114.931 193.325 114.648 193.459 114.431C193.697 114.042 193.966 113.411 194.085 112.964C194.157 112.69 194.225 112.433 194.283 112.019C194.335 111.645 194.341 111.389 194.349 111.066L194.35 110.594C194.346 110.306 194.341 110.034 194.294 109.676Z" fill="black"/>
<path d="M169.803 99.4031C170.213 99.6392 170.214 100.022 169.808 100.258C169.403 100.493 168.743 100.493 168.334 100.257L160.942 95.989C160.533 95.7529 160.531 95.3705 160.935 95.1351C161.342 94.899 162.002 94.899 162.411 95.1351L169.803 99.4031Z" fill="black"/>
<path d="M158.14 92.6693C158.547 92.9047 158.549 93.2867 158.143 93.5232C157.738 93.7586 157.078 93.7586 156.671 93.5232C156.261 93.2871 156.259 92.9047 156.664 92.6693C157.071 92.4332 157.731 92.4332 158.14 92.6693Z" fill="black"/>
<path d="M78.6407 146.462C80.6816 147.641 80.6938 149.551 78.6647 150.73C76.6368 151.909 73.3375 151.909 71.2965 150.73C69.2556 149.552 69.2449 147.641 71.2725 146.462C73.302 145.283 76.5997 145.284 78.6407 146.462Z" fill="black"/>
<path d="M71.7904 146.983C73.8199 145.804 77.1173 145.805 79.1586 146.983C79.3644 147.102 79.5438 147.23 79.7086 147.362C79.4543 147.036 79.1011 146.73 78.6374 146.462C76.5965 145.284 73.2987 145.283 71.2692 146.462C69.4459 147.522 69.2764 149.173 70.7441 150.352C69.8792 149.242 70.2229 147.894 71.7904 146.983Z" fill="black"/>
<path d="M181.119 113.772C181.8 114.165 181.806 114.805 181.127 115.2L106.211 158.738C105.533 159.132 104.424 159.132 103.744 158.739L61.6052 134.409C60.9224 134.015 60.9185 133.373 61.5969 132.978L136.513 89.4406C137.191 89.0464 138.298 89.0475 138.981 89.4418L181.119 113.772Z" fill="black"/>
<path d="M61.5984 133.701L136.514 90.1634C137.193 89.7691 138.299 89.7703 138.982 90.1645L181.121 114.495C181.301 114.599 181.431 114.722 181.516 114.852C181.756 114.489 181.624 114.063 181.121 113.772L138.982 89.4419C138.299 89.0477 137.193 89.0461 136.514 89.4407L61.5984 132.979C61.1001 133.268 60.9731 133.691 61.2097 134.051C61.294 133.924 61.4218 133.804 61.5984 133.701Z" fill="black"/>
<path d="M186.358 96.6074C190.357 98.9161 190.378 102.661 186.403 104.97C157.414 121.817 128.425 138.663 99.4367 155.51C95.4644 157.819 88.999 157.819 85.0007 155.51C73.6882 148.978 62.3753 142.447 51.0628 135.916C47.0633 133.607 47.0408 129.861 51.0139 127.553C80.0026 110.706 108.992 93.8596 137.98 77.0133C141.954 74.7035 148.422 74.7043 152.42 77.0133C163.732 83.5449 175.045 90.0762 186.358 96.6074Z" fill="#455A64"/>
<path d="M190.352 101.792C190.29 101.318 190.205 100.985 190.16 100.829C190.091 100.59 190.014 100.32 189.793 99.8304C189.669 99.5556 189.551 99.3628 189.355 99.0435C189.23 98.8409 189.037 98.5874 188.881 98.408C188.678 98.175 188.39 97.8793 188.161 97.6716C187.892 97.4283 187.498 97.1465 187.203 96.9359C187.047 96.824 186.822 96.6994 186.658 96.5981C186.566 96.5453 186.465 96.5453 186.358 96.6075C190.357 98.9162 190.378 102.661 186.403 104.97L99.4368 155.511C95.4646 157.82 88.9991 157.82 85.0008 155.511L51.063 135.916C47.0635 133.608 47.041 129.862 51.0141 127.554C50.9053 127.491 50.8016 127.491 50.7082 127.545C50.4011 127.736 49.9997 128.003 49.706 128.214C49.5621 128.316 49.3808 128.468 49.2511 128.588C49.052 128.773 48.7886 129.023 48.6124 129.229C48.286 129.611 48.092 129.896 47.9864 130.068C47.5539 130.773 47.3674 131.327 47.2417 131.776C47.1656 132.047 47.1029 132.368 47.0552 132.728C47.0146 133.034 47.0091 133.267 47.0012 133.589L47 134.061C46.9992 134.376 47.0375 134.691 47.1147 135.003C47.0375 134.691 46.9992 134.376 47 134.062C46.9996 134.936 47.1419 135.56 47.2657 136.005C47.4916 136.817 47.8705 137.434 47.9947 137.637C48.1358 137.867 48.368 138.177 48.5024 138.334C48.7185 138.585 49.0307 138.899 49.2743 139.124C49.5361 139.364 49.9268 139.637 50.2166 139.843C50.3699 139.953 50.5899 140.075 50.75 140.174L84.6878 159.768C85.4491 160.204 86.0574 160.44 86.0633 160.442C86.4859 160.605 87.0568 160.802 87.4884 160.939C87.714 161.011 88.0211 161.083 88.2509 161.139C89.4277 161.422 90.8737 161.585 92.2177 161.585C93.5829 161.585 94.9938 161.426 96.1911 161.136C96.4261 161.079 96.7403 161.004 96.9705 160.93C97.3998 160.793 97.9671 160.594 98.3874 160.431C98.6086 160.345 98.894 160.208 99.1069 160.103C99.2973 160.008 99.5433 159.868 99.7305 159.767L134.517 139.551L186.697 109.227C186.993 109.045 187.385 108.798 187.661 108.588C187.934 108.381 188.272 108.073 188.521 107.837C188.691 107.675 188.895 107.434 189.039 107.248C189.195 107.046 189.383 106.763 189.517 106.546C189.755 106.157 190.024 105.527 190.143 105.079C190.215 104.806 190.283 104.548 190.34 104.135C190.393 103.76 190.399 103.505 190.407 103.181L190.408 102.709C190.404 102.421 190.399 102.149 190.352 101.792Z" fill="#263238"/>
<path d="M165.861 91.5183C166.27 91.7545 166.272 92.1369 165.866 92.373C165.461 92.6084 164.801 92.6084 164.392 92.3722L156.999 88.1043C156.59 87.8681 156.588 87.4857 156.993 87.2504C157.4 87.0142 158.059 87.0142 158.469 87.2504L165.861 91.5183Z" fill="#37474F"/>
<path d="M154.198 84.7845C154.605 85.0199 154.607 85.4019 154.201 85.6384C153.796 85.8738 153.136 85.8738 152.728 85.6384C152.319 85.4023 152.317 85.0199 152.722 84.7845C153.129 84.5484 153.788 84.5484 154.198 84.7845Z" fill="#37474F"/>
<path d="M74.6983 138.577C76.7392 139.756 76.7514 141.666 74.7223 142.845C72.6944 144.024 69.3951 144.024 67.3541 142.845C65.3132 141.667 65.3026 139.756 67.3301 138.577C69.3596 137.398 72.6573 137.399 74.6983 138.577Z" fill="#37474F"/>
<path d="M67.848 139.099C69.8775 137.919 73.1749 137.92 75.2162 139.099C75.422 139.217 75.6014 139.345 75.7662 139.477C75.5119 139.151 75.1587 138.845 74.6951 138.577C72.6541 137.399 69.3564 137.398 67.3269 138.577C65.5035 139.637 65.334 141.288 66.8017 142.467C65.9368 141.357 66.2806 140.009 67.848 139.099Z" fill="#263238"/>
<path d="M177.177 105.887C177.858 106.28 177.863 106.921 177.185 107.315L102.269 150.853C101.591 151.247 100.482 151.247 99.8011 150.854L57.6628 126.524C56.98 126.13 56.9761 125.488 57.6545 125.094L132.57 81.5558C133.249 81.1616 134.356 81.1628 135.038 81.557L177.177 105.887Z" fill="#CFD8DC"/>
<path d="M57.6562 125.816L132.572 82.2786C133.251 81.8844 134.357 81.8856 135.04 82.2798L177.178 106.61C177.359 106.715 177.489 106.837 177.574 106.967C177.814 106.605 177.682 106.178 177.178 105.887L135.04 81.5572C134.357 81.1629 133.251 81.1613 132.572 81.556L57.6562 125.094C57.1579 125.383 57.031 125.806 57.2675 126.167C57.3519 126.039 57.4796 125.919 57.6562 125.816Z" fill="#CFD8DC"/>
<path d="M138.845 148.792L138.843 149.435L133.565 152.505L133.566 151.863L138.845 148.792Z" fill="black"/>
<path d="M149.48 154.932L149.478 155.574L138.844 149.435L138.845 148.792L149.48 154.932Z" fill="black"/>
<path d="M149.48 154.933L149.478 155.575L144.197 158.645L144.198 158.002L149.48 154.933Z" fill="black"/>
<path d="M149.48 154.932L144.198 158.001L133.566 151.863L138.846 148.792L149.48 154.932Z" fill="black"/>
<path d="M144.198 158.001L144.197 158.644L133.565 152.506L133.566 151.863L144.198 158.001Z" fill="black"/>
<path d="M120.961 156.911L120.963 156.269C120.961 157.014 121.453 157.762 122.439 158.33L122.437 158.973C121.451 158.404 120.959 157.657 120.961 156.911Z" fill="black"/>
<path d="M122.438 158.33L122.436 158.973C121.451 158.404 120.959 157.657 120.961 156.911L120.963 156.269C120.961 157.014 121.453 157.762 122.438 158.33Z" fill="black"/>
<path d="M153.024 156.979L153.022 157.622L147.74 160.691L147.742 160.048L153.024 156.979Z" fill="black"/>
<path d="M198.138 166.527L198.136 167.17C198.134 167.906 197.65 168.64 196.684 169.202L196.686 168.559C197.652 167.997 198.136 167.263 198.138 166.527Z" fill="black"/>
<path d="M198.138 166.527L198.136 167.17C198.134 167.906 197.65 168.64 196.684 169.202L196.686 168.559C197.652 167.997 198.136 167.263 198.138 166.527Z" fill="black"/>
<path d="M195.805 169.071L195.803 169.713L146.183 141.065L146.185 140.422L195.805 169.071Z" fill="black"/>
<path d="M195.805 169.07L195.803 169.713L195.564 169.852L195.565 169.21L195.805 169.07Z" fill="black"/>
<path d="M196.686 168.56L196.684 169.203L195.564 169.853L195.565 169.211L196.686 168.56Z" fill="black"/>
<path d="M195.565 169.21L195.805 169.07L146.184 140.422L147.064 139.91C149.008 138.781 152.174 138.781 154.129 139.91L196.662 164.467C198.621 165.597 198.631 167.428 196.686 168.559L195.565 169.21Z" fill="black"/>
<path d="M190.526 172.141L190.525 172.784L140.899 144.135L140.901 143.492L190.526 172.141Z" fill="black"/>
<path d="M195.565 169.21L195.564 169.853L190.525 172.784L190.526 172.141L195.565 169.21Z" fill="black"/>
<path d="M195.805 169.071L195.565 169.21L190.526 172.141L140.901 143.493L146.185 140.422L195.805 169.071Z" fill="black"/>
<path d="M181.378 173.349L181.376 173.992L153.022 157.622L153.024 156.979L181.378 173.349Z" fill="black"/>
<path d="M176.097 176.418L176.095 177.061L147.74 160.69L147.742 160.048L176.097 176.418Z" fill="black"/>
<path d="M181.379 173.349L176.097 176.418L147.743 160.048L153.024 156.979L181.379 173.349Z" fill="black"/>
<path d="M181.378 173.349L181.377 173.991L176.095 177.061L176.097 176.418L181.378 173.349Z" fill="black"/>
<path d="M190.525 172.141L190.523 172.783L172.037 183.528L172.039 182.885L190.525 172.141Z" fill="black"/>
<path d="M164.974 182.885L164.972 183.527L122.437 158.973L122.438 158.33L164.974 182.885Z" fill="black"/>
<path d="M190.525 172.14L172.039 182.885C170.094 184.015 166.93 184.014 164.974 182.885L122.439 158.33C120.481 157.199 120.47 155.365 122.416 154.235L140.901 143.492L190.525 172.14ZM176.097 176.418L181.378 173.349L153.024 156.978L147.743 160.047L176.097 176.418ZM144.198 158.001L149.48 154.932L138.845 148.792L133.567 151.863L144.198 158.001Z" fill="black"/>
<path d="M172.039 182.885L172.037 183.527C170.091 184.658 166.927 184.656 164.972 183.527L164.974 182.885C166.93 184.014 170.093 184.015 172.039 182.885Z" fill="black"/>
<path d="M172.039 182.885L172.037 183.527C170.091 184.658 166.927 184.656 164.972 183.527L164.974 182.885C166.93 184.014 170.093 184.015 172.039 182.885Z" fill="black"/>
<path d="M134.903 140.908L134.901 141.551L129.622 144.621L129.624 143.979L134.903 140.908Z" fill="#006370"/>
<path d="M145.538 147.048L145.536 147.691L134.901 141.551L134.903 140.908L145.538 147.048Z" fill="#005F6B"/>
<path d="M145.538 147.048L145.536 147.69L140.254 150.76L140.256 150.117L145.538 147.048Z" fill="#005058"/>
<path d="M145.538 147.048L140.256 150.117L129.624 143.979L134.903 140.908L145.538 147.048Z" fill="#0094A4"/>
<path d="M140.256 150.117L140.255 150.76L129.623 144.621L129.624 143.979L140.256 150.117Z" fill="#004C54"/>
<path d="M117.019 149.026L117.021 148.384C117.019 149.13 117.511 149.877 118.496 150.446L118.494 151.088C117.509 150.519 117.017 149.772 117.019 149.026Z" fill="black"/>
<path d="M118.496 150.446L118.494 151.088C117.509 150.519 117.017 149.772 117.019 149.026L117.021 148.384C117.019 149.13 117.511 149.877 118.496 150.446Z" fill="#00626E"/>
<path d="M149.082 149.094L149.08 149.737L143.798 152.806L143.8 152.163L149.082 149.094Z" fill="#006370"/>
<path d="M194.196 158.643L194.194 159.285C194.192 160.021 193.708 160.755 192.741 161.317L192.743 160.674C193.71 160.113 194.193 159.378 194.196 158.643Z" fill="black"/>
<path d="M194.196 158.643L194.194 159.285C194.192 160.021 193.708 160.755 192.741 161.317L192.743 160.674C193.71 160.113 194.193 159.378 194.196 158.643Z" fill="#00626E"/>
<path d="M191.863 161.186L191.861 161.829L142.24 133.18L142.242 132.537L191.863 161.186Z" fill="#005F6B"/>
<path d="M191.863 161.187L191.861 161.829L191.621 161.969L191.623 161.326L191.863 161.187Z" fill="#243035"/>
<path d="M192.743 160.675L192.741 161.318L191.621 161.969L191.623 161.326L192.743 160.675Z" fill="#006370"/>
<path d="M191.623 161.325L191.863 161.186L142.242 132.537L143.122 132.026C145.065 130.896 148.231 130.896 150.187 132.026L192.72 156.582C194.678 157.713 194.688 159.543 192.743 160.674L191.623 161.325Z" fill="#00B8D0"/>
<path d="M186.584 164.257L186.582 164.9L136.956 136.251L136.958 135.608L186.584 164.257Z" fill="#232D32"/>
<path d="M191.623 161.325L191.621 161.968L186.582 164.899L186.584 164.256L191.623 161.325Z" fill="#243035"/>
<path d="M191.863 161.186L191.623 161.326L186.584 164.257L136.958 135.608L142.242 132.537L191.863 161.186Z" fill="#445862"/>
<path d="M177.436 165.464L177.434 166.107L149.08 149.737L149.082 149.094L177.436 165.464Z" fill="#005F6B"/>
<path d="M172.155 168.533L172.153 169.176L143.798 152.806L143.8 152.163L172.155 168.533Z" fill="#686D6F"/>
<path d="M177.436 165.464L172.155 168.533L143.8 152.163L149.082 149.094L177.436 165.464Z" fill="#CBD4D8"/>
<path d="M177.436 165.464L177.434 166.106L172.153 169.176L172.155 168.533L177.436 165.464Z" fill="#6D7274"/>
<path d="M186.582 164.256L186.58 164.898L168.095 175.643L168.096 175.001L186.582 164.256Z" fill="#006370"/>
<path d="M161.032 175L161.03 175.643L118.494 151.088L118.496 150.445L161.032 175Z" fill="#005F6B"/>
<path d="M186.582 164.256L168.097 175.001C166.151 176.132 162.987 176.13 161.032 175.001L118.496 150.446C116.538 149.315 116.528 147.481 118.473 146.351L136.959 135.608L186.582 164.256ZM172.154 168.534L177.436 165.465L149.082 149.094L143.8 152.163L172.154 168.534ZM140.256 150.117L145.538 147.048L134.903 140.908L129.624 143.979L140.256 150.117Z" fill="#00B8D0"/>
<path d="M168.096 175L168.094 175.643C166.149 176.773 162.985 176.772 161.029 175.643L161.031 175C162.987 176.129 166.151 176.131 168.096 175Z" fill="black"/>
<path d="M168.096 175L168.094 175.643C166.149 176.773 162.985 176.772 161.029 175.643L161.031 175C162.987 176.129 166.151 176.131 168.096 175Z" fill="#00626E"/>
<path d="M190.558 114.799C191.124 115.126 191.13 115.657 190.567 115.984L184.24 119.66L139.883 94.05L146.209 90.3734C146.772 90.0466 147.688 90.0477 148.254 90.375L190.558 114.799ZM180.856 114.774L183.142 113.446C183.424 113.282 183.423 113.018 183.139 112.853L151.638 94.6662C151.354 94.5018 150.897 94.5018 150.614 94.6662L148.329 95.9943C148.046 96.1587 148.048 96.4229 148.332 96.5873L179.832 114.775C180.117 114.939 180.573 114.939 180.856 114.774ZM185.716 116.526C185.68 116.456 185.677 116.39 185.762 116.341L185.807 116.315C185.902 116.266 186.015 116.273 186.133 116.298C186.249 116.321 186.311 116.334 186.346 116.287C186.384 116.243 186.359 116.272 186.416 116.198C186.473 116.123 186.451 116.154 186.486 116.107C186.504 116.083 186.497 116.067 186.471 116.052C186.447 116.038 186.406 116.025 186.355 116.008C186.31 115.994 186.27 115.978 186.237 115.959C186.19 115.932 186.161 115.9 186.161 115.859L186.166 115.821C186.171 115.748 186.258 115.706 186.371 115.675C186.481 115.643 186.541 115.629 186.508 115.581C186.478 115.534 186.501 115.565 186.45 115.489C186.397 115.412 186.42 115.443 186.389 115.396C186.383 115.387 186.375 115.38 186.366 115.374C186.329 115.353 186.269 115.364 186.176 115.38C186.055 115.4 185.942 115.402 185.857 115.352L185.811 115.326C185.726 115.271 185.738 115.206 185.78 115.137C185.813 115.083 185.834 115.048 185.796 115.027C185.788 115.022 185.777 115.018 185.762 115.014C185.682 114.994 185.74 115.007 185.604 114.972C185.478 114.94 185.531 114.953 185.45 114.933C185.37 114.912 185.34 114.947 185.28 115.009C185.222 115.071 185.145 115.119 185.025 115.119L184.957 115.117C184.887 115.116 184.836 115.1 184.795 115.076C184.759 115.055 184.73 115.028 184.705 114.998C184.676 114.966 184.656 114.94 184.631 114.926C184.608 114.913 184.582 114.909 184.542 114.918C184.462 114.936 184.514 114.923 184.384 114.952C184.251 114.982 184.304 114.969 184.223 114.987C184.143 115.004 184.164 115.042 184.197 115.11C184.232 115.18 184.235 115.245 184.152 115.294L184.105 115.321C184.01 115.37 183.897 115.363 183.779 115.339C183.664 115.315 183.601 115.302 183.566 115.349C183.528 115.394 183.551 115.363 183.496 115.439C183.436 115.514 183.461 115.482 183.426 115.529C183.408 115.553 183.416 115.569 183.441 115.584C183.466 115.598 183.506 115.611 183.557 115.628C183.601 115.642 183.641 115.657 183.673 115.676C183.719 115.702 183.748 115.735 183.749 115.776L183.746 115.815C183.742 115.888 183.654 115.93 183.541 115.961C183.431 115.993 183.371 116.007 183.401 116.056C183.434 116.101 183.412 116.071 183.462 116.147C183.513 116.225 183.493 116.193 183.523 116.24C183.529 116.249 183.536 116.256 183.545 116.261C183.58 116.282 183.641 116.271 183.736 116.256C183.856 116.235 183.97 116.234 184.052 116.282L184.1 116.309C184.183 116.366 184.173 116.43 184.131 116.498C184.098 116.553 184.078 116.587 184.115 116.609C184.124 116.613 184.135 116.618 184.149 116.621C184.227 116.643 184.175 116.63 184.305 116.662C184.433 116.695 184.38 116.682 184.461 116.703C184.541 116.723 184.571 116.688 184.631 116.627C184.691 116.563 184.768 116.515 184.889 116.515L184.954 116.518C185.023 116.519 185.075 116.535 185.116 116.559C185.152 116.58 185.181 116.607 185.205 116.637C185.234 116.669 185.255 116.695 185.279 116.709C185.302 116.722 185.329 116.726 185.369 116.717C185.449 116.699 185.397 116.712 185.527 116.683C185.66 116.653 185.607 116.666 185.687 116.648C185.768 116.63 185.748 116.594 185.716 116.526ZM145.656 94.1391L145.558 93.1437L147.357 93.2383L147.393 93.01L145.137 92.8921L145.262 94.1521L145.656 94.1391Z" fill="black"/>
<path d="M185.379 115.57C185.553 115.67 185.611 115.824 185.507 115.962C185.372 116.136 185.016 116.215 184.712 116.138C184.644 116.12 184.584 116.095 184.533 116.066C184.36 115.967 184.302 115.812 184.404 115.676C184.541 115.5 184.897 115.421 185.2 115.498C185.269 115.516 185.329 115.541 185.379 115.57Z" fill="black"/>
<path d="M147.393 93.0101L147.357 93.2383L145.557 93.1441L145.656 94.1395L145.262 94.1525L145.137 92.8926L147.393 93.0101Z" fill="black"/>
<path d="M161.969 103.549C161.967 103.632 161.852 103.699 161.709 103.7C161.636 103.698 161.568 103.683 161.523 103.656C161.476 103.629 161.448 103.589 161.447 103.549L161.445 103.13C161.196 103.102 160.967 103.031 160.784 102.925C160.537 102.783 160.398 102.592 160.397 102.391C160.398 102.19 160.53 101.999 160.775 101.857C161.021 101.714 161.349 101.637 161.698 101.636C162.044 101.636 162.373 101.716 162.62 101.858C162.866 102 163.003 102.189 163.004 102.39C163.005 102.593 162.871 102.782 162.626 102.925C162.443 103.031 162.212 103.101 161.967 103.13L161.969 103.549ZM161.701 102.844C161.912 102.844 162.108 102.798 162.255 102.712C162.403 102.626 162.482 102.513 162.482 102.391C162.481 102.272 162.398 102.157 162.251 102.073C162.103 101.987 161.905 101.939 161.699 101.939C161.488 101.939 161.293 101.985 161.145 102.071C160.997 102.157 160.918 102.27 160.919 102.393C160.919 102.513 161.011 102.626 161.154 102.709C161.298 102.791 161.493 102.844 161.701 102.844Z" fill="black"/>
<path d="M162.252 102.073C162.398 102.157 162.481 102.272 162.482 102.391C162.483 102.513 162.403 102.626 162.256 102.712C162.108 102.798 161.913 102.844 161.702 102.844C161.494 102.844 161.298 102.792 161.155 102.709C161.011 102.626 160.92 102.513 160.919 102.392C160.918 102.27 160.998 102.157 161.145 102.071C161.293 101.985 161.488 101.938 161.699 101.938C161.905 101.939 162.103 101.987 162.252 102.073Z" fill="black"/>
<path d="M170.786 107.316C170.942 107.406 170.941 107.55 170.788 107.638C170.635 107.727 170.387 107.728 170.231 107.638L164.686 104.437C164.533 104.348 164.531 104.203 164.684 104.114C164.837 104.026 165.087 104.026 165.241 104.114L170.786 107.316Z" fill="black"/>
<path d="M183.138 112.853C183.422 113.018 183.424 113.282 183.141 113.446L180.856 114.774C180.573 114.939 180.116 114.939 179.832 114.774L148.331 96.5874C148.047 96.423 148.046 96.1588 148.328 95.9944L150.614 94.6663C150.897 94.5019 151.353 94.5019 151.637 94.6663L183.138 112.853ZM161.709 103.7C161.852 103.698 161.967 103.631 161.969 103.549L161.967 103.13C162.212 103.101 162.443 103.031 162.625 102.925C162.871 102.783 163.005 102.594 163.004 102.39C163.003 102.189 162.866 102.001 162.62 101.858C162.373 101.716 162.044 101.636 161.697 101.636C161.349 101.637 161.021 101.714 160.775 101.857C160.53 101.999 160.398 102.189 160.397 102.392C160.398 102.592 160.537 102.783 160.784 102.925C160.967 103.031 161.196 103.102 161.445 103.13L161.447 103.549C161.447 103.589 161.475 103.629 161.523 103.656C161.568 103.682 161.636 103.698 161.709 103.7ZM170.231 107.638C170.387 107.728 170.635 107.727 170.788 107.638C170.941 107.549 170.942 107.405 170.786 107.316L165.241 104.114C165.088 104.025 164.837 104.025 164.684 104.114C164.532 104.203 164.532 104.348 164.686 104.437L170.231 107.638Z" fill="black"/>
<path d="M185.716 116.526C185.749 116.594 185.769 116.632 185.689 116.649C185.609 116.666 185.661 116.653 185.531 116.682C185.398 116.713 185.451 116.7 185.371 116.718C185.331 116.727 185.304 116.723 185.281 116.71C185.256 116.695 185.236 116.67 185.207 116.638C185.183 116.607 185.154 116.58 185.118 116.559C185.076 116.535 185.025 116.52 184.961 116.518L184.891 116.516C184.77 116.516 184.693 116.564 184.633 116.628C184.573 116.689 184.543 116.723 184.462 116.703C184.382 116.683 184.435 116.696 184.309 116.664C184.176 116.631 184.229 116.644 184.151 116.622C184.136 116.619 184.125 116.614 184.117 116.61C184.079 116.588 184.1 116.554 184.133 116.499C184.175 116.431 184.185 116.367 184.104 116.314L184.053 116.282C183.97 116.234 183.857 116.236 183.737 116.256C183.642 116.272 183.581 116.282 183.545 116.261C183.537 116.256 183.53 116.25 183.524 116.241C183.493 116.194 183.514 116.226 183.465 116.149C183.412 116.072 183.435 116.103 183.402 116.058C183.372 116.008 183.432 115.994 183.542 115.962C183.655 115.931 183.743 115.889 183.747 115.82L183.75 115.777C183.75 115.736 183.72 115.703 183.674 115.677C183.642 115.658 183.602 115.643 183.558 115.629C183.507 115.612 183.467 115.6 183.442 115.585C183.417 115.57 183.409 115.554 183.427 115.53C183.462 115.484 183.437 115.516 183.495 115.441C183.552 115.365 183.529 115.395 183.567 115.35C183.602 115.303 183.665 115.316 183.78 115.34C183.898 115.365 184.011 115.372 184.099 115.324L184.154 115.294C184.236 115.246 184.233 115.181 184.198 115.111C184.165 115.043 184.145 115.005 184.225 114.988C184.305 114.97 184.252 114.983 184.382 114.954C184.515 114.924 184.462 114.937 184.543 114.919C184.583 114.91 184.61 114.914 184.633 114.927C184.657 114.941 184.678 114.966 184.707 114.999C184.731 115.029 184.76 115.057 184.796 115.077C184.837 115.101 184.889 115.117 184.953 115.118L185.026 115.12C185.146 115.12 185.224 115.072 185.281 115.009C185.341 114.948 185.371 114.914 185.452 114.934C185.532 114.954 185.479 114.941 185.605 114.973C185.741 115.008 185.683 114.994 185.763 115.015C185.778 115.018 185.789 115.023 185.797 115.027C185.835 115.049 185.814 115.083 185.782 115.138C185.739 115.206 185.727 115.272 185.81 115.323L185.858 115.353C185.944 115.402 186.056 115.401 186.177 115.381C186.27 115.364 186.33 115.354 186.367 115.375C186.376 115.38 186.384 115.387 186.391 115.397C186.421 115.443 186.398 115.413 186.449 115.488C186.502 115.565 186.479 115.535 186.51 115.581C186.543 115.629 186.483 115.644 186.372 115.676C186.259 115.706 186.172 115.749 186.167 115.818L186.162 115.859C186.163 115.9 186.192 115.933 186.238 115.96C186.271 115.978 186.311 115.994 186.356 116.009C186.408 116.026 186.448 116.038 186.472 116.053C186.498 116.067 186.505 116.084 186.487 116.108C186.452 116.154 186.475 116.124 186.42 116.196C186.36 116.272 186.385 116.243 186.348 116.288C186.313 116.334 186.25 116.321 186.134 116.298C186.017 116.273 185.903 116.266 185.816 116.314L185.763 116.342C185.677 116.39 185.68 116.456 185.716 116.526ZM184.712 116.138C185.016 116.215 185.372 116.136 185.507 115.962C185.611 115.824 185.553 115.67 185.379 115.57C185.329 115.54 185.269 115.516 185.201 115.498C184.897 115.421 184.541 115.5 184.404 115.676C184.302 115.812 184.361 115.966 184.534 116.066C184.584 116.095 184.644 116.12 184.712 116.138Z" fill="black"/>
<path d="M186.616 106.914C187.182 107.241 187.188 107.772 186.625 108.099L180.298 111.775L135.94 86.1652L142.267 82.4886C142.829 82.1618 143.745 82.163 144.312 82.4902L186.616 106.914ZM176.914 106.89L179.199 105.561C179.482 105.397 179.48 105.133 179.196 104.969L147.695 86.7814C147.411 86.617 146.954 86.617 146.672 86.7814L144.386 88.1096C144.104 88.274 144.105 88.5381 144.389 88.7025L175.89 106.89C176.174 107.054 176.631 107.054 176.914 106.89ZM181.773 108.641C181.738 108.571 181.735 108.506 181.82 108.456L181.865 108.43C181.96 108.381 182.073 108.388 182.191 108.413C182.306 108.436 182.369 108.449 182.404 108.403C182.441 108.358 182.417 108.387 182.474 108.313C182.531 108.239 182.509 108.269 182.544 108.223C182.562 108.198 182.554 108.182 182.529 108.167C182.505 108.154 182.464 108.141 182.413 108.124C182.368 108.109 182.327 108.093 182.295 108.075C182.248 108.047 182.219 108.015 182.219 107.974L182.223 107.936C182.228 107.863 182.316 107.821 182.428 107.79C182.539 107.759 182.599 107.744 182.566 107.696C182.536 107.649 182.559 107.68 182.508 107.604C182.454 107.527 182.477 107.558 182.447 107.511C182.441 107.502 182.433 107.495 182.424 107.49C182.387 107.468 182.326 107.479 182.233 107.495C182.113 107.516 182 107.517 181.914 107.468L181.869 107.442C181.783 107.386 181.796 107.321 181.838 107.253C181.871 107.198 181.891 107.164 181.854 107.142C181.845 107.137 181.834 107.133 181.82 107.129C181.739 107.109 181.797 107.122 181.661 107.087C181.535 107.055 181.588 107.068 181.508 107.048C181.427 107.028 181.398 107.063 181.338 107.124C181.28 107.186 181.203 107.234 181.082 107.234L181.014 107.233C180.945 107.231 180.894 107.216 180.852 107.192C180.816 107.171 180.788 107.143 180.763 107.114C180.734 107.081 180.714 107.056 180.689 107.041C180.666 107.028 180.639 107.024 180.599 107.034C180.519 107.051 180.572 107.038 180.442 107.067C180.309 107.097 180.361 107.084 180.281 107.102C180.201 107.119 180.221 107.157 180.254 107.225C180.29 107.295 180.292 107.361 180.21 107.409L180.163 107.436C180.068 107.486 179.955 107.479 179.837 107.454C179.721 107.431 179.659 107.417 179.623 107.464C179.586 107.509 179.608 107.479 179.554 107.554C179.494 107.63 179.519 107.598 179.484 107.644C179.466 107.668 179.473 107.684 179.499 107.699C179.523 107.713 179.564 107.726 179.615 107.743C179.659 107.757 179.699 107.772 179.731 107.791C179.777 107.818 179.806 107.85 179.806 107.891L179.804 107.93C179.799 108.003 179.712 108.045 179.599 108.076C179.489 108.108 179.429 108.122 179.459 108.172C179.492 108.217 179.469 108.186 179.52 108.262C179.57 108.34 179.55 108.308 179.581 108.355C179.586 108.364 179.594 108.371 179.602 108.376C179.638 108.397 179.699 108.386 179.794 108.371C179.914 108.35 180.027 108.349 180.11 108.397L180.158 108.424C180.241 108.481 180.231 108.545 180.189 108.613C180.156 108.668 180.135 108.702 180.173 108.724C180.181 108.729 180.192 108.733 180.207 108.737C180.285 108.758 180.232 108.745 180.363 108.777C180.491 108.811 180.438 108.798 180.518 108.818C180.599 108.838 180.629 108.803 180.689 108.742C180.749 108.678 180.826 108.63 180.947 108.63L181.012 108.633C181.081 108.634 181.132 108.65 181.174 108.674C181.209 108.695 181.238 108.722 181.263 108.752C181.292 108.785 181.312 108.81 181.337 108.824C181.36 108.838 181.386 108.841 181.427 108.832C181.507 108.815 181.454 108.828 181.584 108.798C181.717 108.768 181.664 108.781 181.745 108.763C181.825 108.746 181.806 108.709 181.773 108.641ZM141.714 86.2543L141.615 85.2589L143.414 85.3535L143.451 85.1252L141.195 85.0074L141.319 86.2673L141.714 86.2543Z" fill="#FF9800"/>
<path d="M181.437 107.685C181.61 107.785 181.669 107.939 181.564 108.077C181.43 108.251 181.074 108.33 180.77 108.253C180.701 108.235 180.642 108.21 180.591 108.182C180.418 108.082 180.359 107.927 180.461 107.791C180.598 107.615 180.954 107.537 181.258 107.613C181.327 107.632 181.387 107.656 181.437 107.685Z" fill="#FF9800"/>
<path d="M143.451 85.1253L143.415 85.3536L141.615 85.2593L141.714 86.2548L141.32 86.2678L141.195 85.0078L143.451 85.1253Z" fill="white"/>
<path d="M158.027 95.6648C158.025 95.7476 157.91 95.8146 157.767 95.8158C157.694 95.8142 157.626 95.7984 157.581 95.772C157.533 95.7444 157.505 95.7054 157.505 95.6644L157.502 95.2457C157.254 95.2181 157.025 95.1467 156.841 95.0407C156.595 94.8984 156.456 94.708 156.455 94.5073C156.456 94.3055 156.588 94.115 156.833 93.9727C157.078 93.8304 157.406 93.7531 157.755 93.752C158.101 93.752 158.43 93.832 158.677 93.9743C158.924 94.1166 159.06 94.3055 159.062 94.5061C159.063 94.7095 158.928 94.8984 158.683 95.0411C158.501 95.1471 158.27 95.2169 158.024 95.2461L158.027 95.6648ZM157.759 94.9599C157.97 94.9599 158.165 94.9134 158.313 94.8278C158.46 94.7423 158.54 94.6287 158.539 94.5065C158.538 94.3875 158.455 94.2727 158.309 94.1884C158.16 94.1028 157.962 94.0547 157.756 94.0547C157.545 94.0547 157.35 94.1012 157.202 94.1872C157.055 94.2727 156.975 94.3863 156.976 94.5085C156.977 94.6291 157.068 94.7423 157.212 94.8251C157.356 94.9071 157.551 94.9599 157.759 94.9599Z" fill="#CFD8DC"/>
<path d="M158.309 94.1881C158.455 94.2725 158.539 94.3872 158.54 94.5063C158.54 94.6285 158.461 94.7417 158.313 94.8276C158.166 94.9131 157.97 94.9597 157.76 94.9597C157.551 94.9597 157.356 94.9068 157.212 94.824C157.069 94.7413 156.977 94.6281 156.977 94.5075C156.976 94.3853 157.055 94.2721 157.203 94.1862C157.35 94.1002 157.546 94.0537 157.757 94.0537C157.963 94.0541 158.161 94.1022 158.309 94.1881Z" fill="white"/>
<path d="M166.844 99.4312C167 99.5214 166.998 99.6653 166.846 99.7537C166.693 99.8424 166.445 99.8439 166.289 99.7537L160.744 96.5521C160.591 96.4634 160.589 96.3179 160.742 96.2296C160.894 96.1409 161.145 96.1409 161.299 96.2296L166.844 99.4312Z" fill="#CFD8DC"/>
<path d="M179.196 104.969C179.48 105.133 179.482 105.398 179.199 105.562L176.913 106.89C176.63 107.054 176.174 107.054 175.89 106.89L144.389 88.7026C144.105 88.5382 144.103 88.2741 144.386 88.1097L146.672 86.7815C146.954 86.6171 147.411 86.6171 147.695 86.7815L179.196 104.969ZM157.766 95.8149C157.91 95.8134 158.025 95.7467 158.027 95.6639L158.024 95.2453C158.27 95.2161 158.501 95.1463 158.683 95.0403C158.928 94.898 159.063 94.7091 159.062 94.5053C159.06 94.3046 158.924 94.1158 158.677 93.9735C158.43 93.8312 158.101 93.7511 157.755 93.7511C157.406 93.7527 157.078 93.8296 156.833 93.9719C156.588 94.1142 156.456 94.3046 156.454 94.5065C156.456 94.7071 156.595 94.8976 156.841 95.0399C157.025 95.1459 157.254 95.2173 157.502 95.2449L157.505 95.6636C157.505 95.7042 157.533 95.7436 157.581 95.7712C157.626 95.7976 157.694 95.8134 157.766 95.8149ZM166.289 99.7533C166.445 99.8436 166.693 99.842 166.846 99.7533C166.998 99.6646 167 99.5207 166.844 99.4308L161.299 96.2293C161.145 96.1406 160.894 96.1406 160.742 96.2293C160.589 96.318 160.59 96.4631 160.744 96.5518L166.289 99.7533Z" fill="white"/>
<path d="M181.773 108.641C181.806 108.709 181.827 108.747 181.747 108.764C181.667 108.782 181.719 108.769 181.589 108.798C181.456 108.828 181.509 108.815 181.428 108.833C181.388 108.842 181.362 108.838 181.339 108.825C181.314 108.811 181.294 108.786 181.265 108.753C181.24 108.722 181.211 108.695 181.175 108.675C181.134 108.651 181.083 108.635 181.018 108.634L180.948 108.631C180.828 108.631 180.75 108.679 180.69 108.743C180.63 108.804 180.601 108.839 180.52 108.819C180.44 108.798 180.492 108.812 180.367 108.78C180.233 108.746 180.286 108.759 180.208 108.737C180.194 108.734 180.183 108.73 180.174 108.725C180.137 108.703 180.157 108.669 180.19 108.614C180.232 108.546 180.242 108.482 180.161 108.43L180.111 108.398C180.028 108.349 179.915 108.351 179.795 108.372C179.7 108.387 179.639 108.397 179.603 108.377C179.594 108.372 179.587 108.365 179.581 108.356C179.551 108.309 179.571 108.341 179.523 108.264C179.47 108.187 179.493 108.218 179.46 108.173C179.43 108.124 179.49 108.109 179.6 108.077C179.713 108.047 179.8 108.005 179.805 107.935L179.807 107.893C179.807 107.851 179.778 107.818 179.732 107.792C179.7 107.774 179.66 107.758 179.616 107.744C179.564 107.727 179.524 107.715 179.5 107.701C179.474 107.686 179.467 107.669 179.485 107.645C179.52 107.599 179.495 107.631 179.552 107.557C179.609 107.48 179.587 107.51 179.624 107.465C179.659 107.419 179.722 107.432 179.838 107.455C179.956 107.48 180.069 107.487 180.156 107.439L180.211 107.41C180.294 107.362 180.291 107.296 180.256 107.226C180.222 107.158 180.202 107.12 180.282 107.103C180.362 107.086 180.31 107.099 180.44 107.069C180.573 107.039 180.52 107.052 180.601 107.034C180.641 107.025 180.667 107.029 180.69 107.042C180.715 107.056 180.735 107.082 180.764 107.114C180.789 107.145 180.818 107.172 180.854 107.192C180.895 107.216 180.946 107.232 181.011 107.233L181.083 107.235C181.204 107.235 181.281 107.187 181.339 107.125C181.399 107.063 181.429 107.029 181.509 107.049C181.59 107.069 181.537 107.056 181.663 107.088C181.798 107.123 181.741 107.11 181.821 107.13C181.836 107.134 181.847 107.138 181.855 107.143C181.893 107.164 181.872 107.199 181.839 107.254C181.797 107.322 181.785 107.387 181.868 107.438L181.916 107.468C182.001 107.518 182.114 107.516 182.235 107.496C182.327 107.479 182.388 107.469 182.425 107.49C182.434 107.496 182.442 107.503 182.448 107.512C182.479 107.559 182.456 107.528 182.507 107.604C182.56 107.68 182.537 107.65 182.567 107.697C182.6 107.745 182.54 107.759 182.43 107.791C182.317 107.822 182.229 107.864 182.225 107.934L182.22 107.974C182.22 108.016 182.25 108.048 182.296 108.075C182.328 108.094 182.369 108.109 182.414 108.124C182.465 108.141 182.505 108.154 182.53 108.168C182.556 108.183 182.563 108.199 182.545 108.223C182.51 108.269 182.532 108.239 182.477 108.312C182.418 108.387 182.443 108.358 182.405 108.403C182.371 108.45 182.308 108.437 182.192 108.413C182.074 108.389 181.961 108.381 181.873 108.43L181.821 108.457C181.735 108.506 181.738 108.571 181.773 108.641ZM180.77 108.253C181.074 108.33 181.43 108.251 181.564 108.077C181.668 107.939 181.61 107.785 181.437 107.685C181.387 107.656 181.327 107.632 181.258 107.613C180.955 107.537 180.599 107.615 180.462 107.791C180.36 107.927 180.418 108.081 180.591 108.182C180.642 108.21 180.701 108.235 180.77 108.253Z" fill="white"/>
<path d="M86.4554 139.647L86.4581 140.125L86.0643 140.124L86.0615 139.646C86.0611 139.582 86.1486 139.531 86.2567 139.532C86.3119 139.532 86.3615 139.545 86.3974 139.566C86.4333 139.587 86.4554 139.615 86.4554 139.647Z" fill="black"/>
<path d="M87.9603 139.941C88.2422 140.104 88.2461 140.37 87.9635 140.534L86.7808 141.222C86.4981 141.386 86.0392 141.385 85.7573 141.222L84.5644 140.533C84.2825 140.37 84.2809 140.106 84.5636 139.942L85.7463 139.254C86.029 139.09 86.4855 139.09 86.7674 139.253L87.9603 139.941ZM86.4622 140.829L86.4595 140.352L87.285 140.351C87.3954 140.351 87.4829 140.301 87.4801 140.238C87.4801 140.206 87.4577 140.177 87.4222 140.157C87.3867 140.136 87.3378 140.124 87.2838 140.124L86.4583 140.124L86.4555 139.647C86.4555 139.615 86.4331 139.586 86.3976 139.565C86.3617 139.545 86.312 139.532 86.2568 139.532C86.1488 139.53 86.0613 139.581 86.0617 139.645L86.0644 140.124L85.2389 140.124C85.1285 140.124 85.041 140.174 85.0414 140.238C85.043 140.27 85.0655 140.298 85.1013 140.319C85.1372 140.339 85.1861 140.353 85.2401 140.353L86.0656 140.353L86.0684 140.831C86.0688 140.862 86.0909 140.89 86.1263 140.911C86.1618 140.931 86.2107 140.944 86.2647 140.945C86.3751 140.944 86.4626 140.894 86.4622 140.829Z" fill="black"/>
<path d="M87.422 140.158C87.4575 140.178 87.4796 140.207 87.48 140.239C87.4827 140.301 87.3952 140.352 87.2848 140.352L86.4593 140.353L86.0655 140.353L85.24 140.353C85.1859 140.353 85.1371 140.34 85.1012 140.319C85.0653 140.298 85.0424 140.27 85.0413 140.239C85.0409 140.175 85.1284 140.124 85.2388 140.124L86.0643 140.124L86.4581 140.125L87.2836 140.125C87.3377 140.125 87.3865 140.137 87.422 140.158Z" fill="black"/>
<path d="M86.4623 140.829C86.4627 140.893 86.3751 140.944 86.2648 140.944C86.2108 140.943 86.1619 140.93 86.1264 140.91C86.0909 140.889 86.0688 140.861 86.0684 140.831L86.0657 140.352L86.4595 140.352L86.4623 140.829Z" fill="black"/>
<path d="M86.3302 142.277C86.4083 142.322 86.4087 142.395 86.331 142.44C86.2561 142.484 86.1303 142.484 86.0527 142.438L82.4632 140.366C82.3851 140.321 82.3847 140.248 82.4596 140.205C82.5373 140.16 82.6627 140.16 82.7407 140.205L86.3302 142.277Z" fill="black"/>
<path d="M73.7306 130.663L118.088 156.273L113.967 158.668C113.405 158.995 112.486 158.995 111.92 158.668L69.616 134.244C69.0495 133.917 69.0467 133.385 69.6093 133.058L73.7306 130.663ZM100.999 148.061L99.8165 148.748C99.5339 148.913 99.5378 149.179 99.8197 149.341L101.013 150.03C101.295 150.193 101.754 150.195 102.036 150.03L103.219 149.343C103.501 149.178 103.497 148.912 103.216 148.75L102.023 148.061C101.741 147.898 101.282 147.897 100.999 148.061ZM93.3728 143.658L92.1901 144.345C91.9074 144.51 91.909 144.774 92.1933 144.938L93.3838 145.626C93.6681 145.79 94.125 145.79 94.4073 145.626L95.59 144.938C95.8726 144.774 95.871 144.51 95.5868 144.345L94.3962 143.658C94.112 143.493 93.6555 143.493 93.3728 143.658ZM108.628 152.466L107.446 153.153C107.163 153.318 107.165 153.582 107.449 153.746L108.639 154.434C108.924 154.598 109.381 154.598 109.663 154.434L110.846 153.746C111.128 153.582 111.127 153.318 110.842 153.153L109.652 152.466C109.368 152.301 108.911 152.301 108.628 152.466ZM85.746 139.254L84.5633 139.942C84.2806 140.106 84.2822 140.371 84.5641 140.533L85.757 141.222C86.0389 141.385 86.4982 141.386 86.7805 141.222L87.9631 140.534C88.2458 140.37 88.2419 140.104 87.96 139.941L86.767 139.253C86.4852 139.09 86.0287 139.09 85.746 139.254ZM78.1168 134.85L76.9341 135.537C76.6514 135.702 76.653 135.966 76.9373 136.13L78.1278 136.817C78.4121 136.982 78.869 136.982 79.1513 136.817L80.334 136.13C80.6166 135.966 80.6151 135.701 80.3308 135.537L79.1402 134.849C78.856 134.685 78.3995 134.685 78.1168 134.85ZM86.0527 142.438C86.1308 142.483 86.2561 142.483 86.331 142.44C86.4087 142.395 86.4083 142.322 86.3302 142.277L82.7408 140.205C82.6627 140.16 82.5373 140.16 82.4597 140.205C82.3848 140.248 82.3852 140.321 82.4632 140.366L86.0527 142.438ZM101.308 151.246C101.386 151.291 101.512 151.291 101.587 151.248C101.664 151.203 101.664 151.13 101.586 151.085L97.9968 149.013C97.9187 148.968 97.7933 148.968 97.7157 149.013C97.6408 149.056 97.6412 149.129 97.7192 149.174L101.308 151.246ZM78.4259 138.035C78.5016 138.079 78.6269 138.079 78.7018 138.035C78.7795 137.99 78.7791 137.917 78.7034 137.874L75.1143 135.802C75.0363 135.757 74.9109 135.757 74.8332 135.802C74.7583 135.845 74.7587 135.918 74.8368 135.963L78.4259 138.035ZM108.935 155.65C109.013 155.694 109.139 155.694 109.213 155.651C109.291 155.606 109.291 155.533 109.213 155.488L105.623 153.416C105.547 153.372 105.422 153.372 105.345 153.417C105.27 153.461 105.27 153.534 105.346 153.577L108.935 155.65ZM93.6815 146.843C93.7572 146.887 93.8825 146.887 93.9574 146.843C94.0351 146.798 94.0347 146.725 93.959 146.682L90.3695 144.609C90.2915 144.565 90.1661 144.565 90.0885 144.609C90.0136 144.653 90.0139 144.726 90.092 144.771L93.6815 146.843Z" fill="black"/>
<path d="M78.8268 135.242L78.8303 135.721H78.4369L78.4353 135.242C78.4349 135.179 78.5224 135.128 78.6304 135.129C78.6845 135.128 78.7333 135.14 78.7688 135.161C78.8043 135.182 78.8264 135.211 78.8268 135.242Z" fill="black"/>
<path d="M79.7953 135.753C79.8311 135.774 79.8532 135.803 79.8536 135.835C79.854 135.896 79.7665 135.947 79.6585 135.949H78.8322H78.4379H77.6116C77.5576 135.948 77.5087 135.935 77.4732 135.914C77.4378 135.894 77.4157 135.866 77.4153 135.835C77.4149 135.772 77.5024 135.721 77.6128 135.721H78.4371H78.8306H79.6549C79.7097 135.72 79.7594 135.733 79.7953 135.753Z" fill="black"/>
<path d="M80.3311 135.537C80.6154 135.701 80.6169 135.966 80.3343 136.13L79.1516 136.817C78.8689 136.982 78.4124 136.982 78.1281 136.817L76.9376 136.13C76.6533 135.966 76.6517 135.702 76.9344 135.537L78.1171 134.85C78.3998 134.685 78.8563 134.685 79.1405 134.85L80.3311 135.537ZM78.8358 136.426L78.8322 135.948H79.6585C79.7666 135.947 79.8541 135.896 79.8537 135.835C79.8533 135.803 79.8312 135.774 79.7953 135.753C79.7595 135.733 79.7098 135.72 79.6546 135.72H78.8303L78.8267 135.242C78.8267 135.21 78.8046 135.181 78.7688 135.161C78.7333 135.14 78.6844 135.128 78.6304 135.128C78.5224 135.127 78.4349 135.177 78.4352 135.242L78.4368 135.72H77.6125C77.5021 135.72 77.4146 135.771 77.415 135.835C77.415 135.865 77.4374 135.893 77.4729 135.914C77.5084 135.934 77.5573 135.947 77.6113 135.948H78.4376L78.4392 136.426C78.4408 136.458 78.4632 136.486 78.4991 136.507C78.535 136.528 78.5839 136.541 78.6379 136.541C78.7459 136.54 78.8334 136.489 78.8358 136.426Z" fill="black"/>
<path d="M78.8358 136.426C78.8338 136.489 78.7463 136.54 78.6383 136.541C78.5842 136.54 78.5354 136.527 78.4995 136.507C78.4636 136.486 78.4407 136.458 78.4396 136.426L78.438 135.948H78.8322L78.8358 136.426Z" fill="black"/>
<path d="M78.7034 137.874C78.7787 137.918 78.7794 137.99 78.7018 138.035C78.6269 138.079 78.5015 138.079 78.4258 138.035L74.8367 135.963C74.7587 135.918 74.7583 135.845 74.8332 135.801C74.9108 135.756 75.0362 135.756 75.1143 135.801L78.7034 137.874Z" fill="black"/>
<path d="M94.0824 144.05L94.0859 144.528H93.6925L93.6909 144.05C93.6905 143.986 93.778 143.935 93.8861 143.937C93.9401 143.936 93.989 143.948 94.0244 143.969C94.0599 143.989 94.0824 144.018 94.0824 144.05Z" fill="black"/>
<path d="M95.5867 144.345C95.871 144.509 95.8725 144.774 95.5899 144.938L94.4072 145.625C94.1245 145.79 93.668 145.79 93.3838 145.625L92.1932 144.938C91.9089 144.774 91.9074 144.509 92.19 144.345L93.3727 143.657C93.6554 143.493 94.1119 143.493 94.3965 143.657L95.5867 144.345ZM94.0914 145.234L94.0879 144.756H94.9142C95.0222 144.755 95.1097 144.704 95.1093 144.643C95.1093 144.611 95.0868 144.582 95.051 144.561C95.0151 144.541 94.9654 144.528 94.9102 144.528H94.0859L94.0823 144.05C94.0823 144.018 94.0599 143.989 94.0244 143.969C93.9889 143.948 93.94 143.936 93.886 143.936C93.778 143.935 93.6905 143.985 93.6909 144.05L93.6924 144.528H92.8681C92.7577 144.528 92.6702 144.579 92.6706 144.643C92.6706 144.673 92.6931 144.701 92.7285 144.722C92.764 144.742 92.8129 144.755 92.8669 144.756H93.6932L93.6948 145.234C93.6964 145.266 93.7189 145.294 93.7547 145.315C93.7906 145.335 93.8395 145.349 93.8935 145.349C94.0019 145.348 94.0894 145.297 94.0914 145.234Z" fill="black"/>
<path d="M95.0509 144.561C95.0868 144.582 95.1088 144.611 95.1092 144.643C95.1096 144.704 95.0221 144.755 94.9141 144.756H94.0878H93.6935H92.8672C92.8132 144.755 92.7643 144.742 92.7289 144.722C92.6934 144.701 92.6713 144.673 92.6709 144.643C92.6705 144.579 92.758 144.528 92.8684 144.528H93.6927H94.0862H94.9105C94.9657 144.528 95.015 144.541 95.0509 144.561Z" fill="black"/>
<path d="M94.0914 145.234C94.0894 145.297 94.0019 145.348 93.8939 145.349C93.8399 145.348 93.791 145.335 93.7551 145.314C93.7192 145.294 93.6964 145.266 93.6952 145.234L93.6936 144.756H94.0878L94.0914 145.234Z" fill="black"/>
<path d="M93.9592 146.681C94.0345 146.725 94.0353 146.798 93.9576 146.843C93.8827 146.886 93.7574 146.886 93.6817 146.843L90.0926 144.77C90.0145 144.725 90.0141 144.652 90.089 144.609C90.1667 144.564 90.2921 144.564 90.3701 144.609L93.9592 146.681Z" fill="black"/>
<path d="M101.718 149.638C101.718 149.701 101.631 149.752 101.521 149.752C101.467 149.751 101.418 149.738 101.382 149.718C101.346 149.697 101.323 149.669 101.322 149.638L101.32 149.161L101.716 149.16L101.718 149.638Z" fill="black"/>
<path d="M103.216 148.75C103.498 148.913 103.502 149.178 103.219 149.343L102.036 150.03C101.754 150.195 101.295 150.193 101.013 150.03L99.82 149.342C99.5381 149.179 99.5342 148.913 99.8168 148.749L101 148.061C101.282 147.897 101.741 147.898 102.023 148.061L103.216 148.75ZM101.718 149.638L101.715 149.16L102.541 149.16C102.651 149.16 102.739 149.109 102.736 149.046C102.736 149.014 102.714 148.985 102.678 148.965C102.642 148.944 102.592 148.931 102.537 148.931H101.714L101.712 148.455C101.712 148.423 101.689 148.394 101.653 148.373C101.617 148.353 101.568 148.34 101.512 148.34C101.404 148.338 101.317 148.389 101.317 148.453L101.319 148.931H100.495C100.384 148.931 100.297 148.982 100.297 149.046C100.299 149.077 100.321 149.106 100.357 149.126C100.393 149.147 100.442 149.16 100.496 149.161L101.32 149.16L101.321 149.637C101.322 149.668 101.345 149.697 101.381 149.718C101.417 149.738 101.466 149.752 101.52 149.752C101.631 149.752 101.719 149.702 101.718 149.638Z" fill="black"/>
<path d="M102.678 148.964C102.714 148.985 102.736 149.013 102.736 149.046C102.738 149.108 102.651 149.159 102.54 149.159L101.715 149.16L101.32 149.16L100.496 149.161C100.442 149.16 100.393 149.147 100.357 149.126C100.321 149.105 100.298 149.077 100.297 149.045C100.296 148.982 100.384 148.931 100.494 148.931H101.319H101.714H102.537C102.592 148.931 102.642 148.944 102.678 148.964Z" fill="black"/>
<path d="M101.586 151.085C101.664 151.13 101.664 151.203 101.586 151.248C101.511 151.291 101.386 151.291 101.308 151.246L97.7186 149.173C97.6405 149.129 97.6401 149.056 97.715 149.012C97.7927 148.967 97.918 148.967 97.9961 149.012L101.586 151.085Z" fill="black"/>
<path d="M101.711 148.455L101.714 148.932H101.319L101.318 148.453C101.317 148.39 101.405 148.339 101.513 148.34C101.568 148.34 101.618 148.352 101.654 148.373C101.689 148.394 101.711 148.423 101.711 148.455Z" fill="black"/>
<path d="M109.345 154.041C109.345 154.105 109.257 154.156 109.147 154.156C109.094 154.156 109.046 154.143 109.01 154.122C108.975 154.102 108.952 154.074 108.951 154.042L108.948 153.564L109.342 153.563L109.345 154.041Z" fill="black"/>
<path d="M109.338 152.858L109.341 153.336L108.947 153.335L108.944 152.857C108.946 152.794 109.034 152.743 109.139 152.743C109.194 152.743 109.244 152.756 109.28 152.777C109.316 152.798 109.338 152.826 109.338 152.858Z" fill="black"/>
<path d="M110.843 153.153C111.127 153.317 111.128 153.581 110.846 153.746L109.663 154.433C109.38 154.597 108.924 154.597 108.64 154.433L107.449 153.746C107.165 153.581 107.163 153.317 107.446 153.153L108.629 152.465C108.911 152.301 109.368 152.301 109.652 152.465L110.843 153.153ZM109.345 154.04L109.342 153.563L110.167 153.562C110.278 153.562 110.365 153.511 110.362 153.449C110.364 153.418 110.342 153.39 110.306 153.369C110.271 153.349 110.221 153.336 110.166 153.336L109.341 153.336L109.338 152.858C109.337 152.826 109.315 152.797 109.279 152.777C109.244 152.756 109.194 152.743 109.139 152.743C109.033 152.743 108.946 152.794 108.944 152.857L108.946 153.336L108.121 153.335C108.013 153.337 107.925 153.388 107.923 153.45C107.925 153.481 107.947 153.509 107.983 153.53C108.019 153.551 108.068 153.564 108.122 153.565L108.948 153.564L108.95 154.043C108.952 154.074 108.974 154.102 109.01 154.123C109.045 154.143 109.094 154.156 109.147 154.156C109.257 154.156 109.345 154.105 109.345 154.04Z" fill="black"/>
<path d="M109.212 155.489C109.291 155.534 109.291 155.606 109.213 155.651C109.138 155.695 109.013 155.695 108.935 155.65L105.345 153.577C105.27 153.534 105.269 153.461 105.345 153.418C105.422 153.373 105.548 153.373 105.623 153.416L109.212 155.489Z" fill="black"/>
<path d="M110.306 153.37C110.342 153.39 110.363 153.419 110.362 153.45C110.365 153.512 110.278 153.563 110.167 153.563L109.342 153.564L108.948 153.564L108.122 153.564C108.068 153.564 108.019 153.551 107.984 153.53C107.948 153.509 107.925 153.481 107.924 153.45C107.926 153.387 108.013 153.336 108.121 153.335L108.947 153.335L109.34 153.336L110.166 153.336C110.221 153.337 110.271 153.349 110.306 153.37Z" fill="black"/>
<path d="M82.5132 131.763L82.516 132.24L82.1221 132.24L82.1194 131.761C82.119 131.697 82.2065 131.646 82.3145 131.647C82.3697 131.647 82.4194 131.66 82.4553 131.681C82.4911 131.702 82.5132 131.731 82.5132 131.763Z" fill="white"/>
<path d="M84.0179 132.057C84.2998 132.22 84.3037 132.485 84.0211 132.65L82.8384 133.337C82.5557 133.502 82.0968 133.5 81.815 133.337L80.622 132.648C80.3401 132.486 80.3386 132.221 80.6212 132.057L81.8039 131.37C82.0866 131.205 82.5431 131.205 82.825 131.368L84.0179 132.057ZM82.5198 132.945L82.5171 132.467L83.3426 132.467C83.453 132.467 83.5405 132.416 83.5377 132.353C83.5377 132.321 83.5153 132.292 83.4798 132.272C83.4443 132.251 83.3954 132.239 83.3414 132.24L82.5159 132.239L82.5131 131.762C82.5131 131.73 82.4907 131.701 82.4552 131.681C82.4193 131.66 82.3696 131.647 82.3144 131.647C82.2064 131.646 82.1189 131.696 82.1193 131.761L82.1221 132.239L81.2965 132.239C81.1862 132.239 81.0986 132.29 81.099 132.354C81.1006 132.385 81.1231 132.413 81.159 132.434C81.1948 132.455 81.2437 132.468 81.2977 132.468L82.1232 132.468L82.126 132.947C82.1264 132.977 82.1485 133.005 82.184 133.026C82.2194 133.046 82.2683 133.059 82.3223 133.06C82.4327 133.06 82.5202 133.009 82.5198 132.945Z" fill="#F57C00"/>
<path d="M83.4796 132.273C83.5151 132.293 83.5372 132.322 83.5376 132.354C83.5404 132.417 83.4528 132.468 83.3425 132.468L82.5169 132.468L82.1231 132.468L81.2976 132.469C81.2436 132.468 81.1947 132.455 81.1588 132.434C81.1229 132.414 81.1001 132.386 81.0989 132.354C81.0985 132.29 81.186 132.239 81.2964 132.239L82.1219 132.24L82.5157 132.24L83.3413 132.24C83.3953 132.24 83.4442 132.252 83.4796 132.273Z" fill="white"/>
<path d="M82.5199 132.945C82.5203 133.008 82.4328 133.059 82.3224 133.059C82.2684 133.059 82.2195 133.046 82.184 133.025C82.1485 133.005 82.1264 132.977 82.1261 132.946L82.1233 132.467L82.5171 132.467L82.5199 132.945Z" fill="white"/>
<path d="M82.3878 134.392C82.4659 134.437 82.4663 134.51 82.3886 134.555C82.3137 134.599 82.188 134.599 82.1103 134.554L78.5208 132.481C78.4428 132.436 78.4424 132.364 78.5173 132.32C78.5949 132.275 78.7203 132.275 78.7984 132.32L82.3878 134.392Z" fill="white"/>
<path d="M69.7882 122.778L114.146 148.388L110.025 150.783C109.462 151.11 108.544 151.11 107.977 150.783L65.6736 126.359C65.1071 126.032 65.1043 125.5 65.6669 125.173L69.7882 122.778ZM97.0568 140.176L95.8741 140.864C95.5915 141.028 95.5954 141.294 95.8773 141.457L97.0702 142.145C97.3521 142.308 97.8114 142.31 98.0937 142.145L99.2764 141.458C99.559 141.293 99.5551 141.028 99.2732 140.865L98.0803 140.176C97.7988 140.013 97.3395 140.012 97.0568 140.176ZM89.4304 135.773L88.2477 136.461C87.9651 136.625 87.9666 136.889 88.2509 137.053L89.4415 137.741C89.7257 137.905 90.1826 137.905 90.4649 137.741L91.6476 137.053C91.9302 136.889 91.9287 136.625 91.6444 136.461L90.4538 135.773C90.1696 135.609 89.7131 135.609 89.4304 135.773ZM104.686 144.581L103.503 145.268C103.221 145.433 103.222 145.697 103.506 145.861L104.697 146.549C104.981 146.713 105.438 146.713 105.72 146.549L106.903 145.861C107.186 145.697 107.184 145.433 106.9 145.268L105.709 144.581C105.425 144.417 104.969 144.417 104.686 144.581ZM81.8036 131.369L80.6209 132.057C80.3382 132.221 80.3398 132.486 80.6217 132.648L81.8146 133.337C82.0965 133.5 82.5558 133.501 82.8381 133.337L84.0208 132.65C84.3034 132.485 84.2995 132.219 84.0176 132.057L82.8247 131.368C82.5428 131.205 82.0863 131.205 81.8036 131.369ZM74.1744 126.965L72.9917 127.653C72.7091 127.817 72.7106 128.081 72.9949 128.246L74.1855 128.933C74.4697 129.097 74.9266 129.097 75.2089 128.933L76.3916 128.245C76.6742 128.081 76.6727 127.817 76.3884 127.652L75.1978 126.965C74.9136 126.801 74.4571 126.801 74.1744 126.965ZM82.1103 134.554C82.1884 134.599 82.3137 134.599 82.3886 134.555C82.4663 134.51 82.4659 134.437 82.3879 134.392L78.7984 132.32C78.7203 132.275 78.5949 132.275 78.5173 132.32C78.4424 132.364 78.4428 132.436 78.5208 132.481L82.1103 134.554ZM97.3659 143.362C97.444 143.407 97.5693 143.407 97.6442 143.363C97.7219 143.318 97.7215 143.245 97.6435 143.2L94.0544 141.128C93.9763 141.083 93.8509 141.083 93.7733 141.128C93.6984 141.172 93.6988 141.244 93.7768 141.289L97.3659 143.362ZM74.4835 130.15C74.5592 130.194 74.6846 130.194 74.7595 130.15C74.8371 130.106 74.8367 130.033 74.761 129.989L71.1719 127.917C71.0939 127.872 70.9685 127.872 70.8909 127.917C70.816 127.961 70.8164 128.033 70.8944 128.078L74.4835 130.15ZM104.993 147.765C105.071 147.81 105.196 147.81 105.271 147.766C105.349 147.721 105.348 147.648 105.27 147.604L101.681 145.531C101.605 145.487 101.48 145.487 101.402 145.533C101.328 145.576 101.328 145.649 101.403 145.693L104.993 147.765ZM89.7391 138.958C89.8148 139.002 89.9402 139.002 90.0151 138.958C90.0927 138.913 90.0923 138.841 90.0166 138.797L86.4272 136.725C86.3491 136.68 86.2237 136.68 86.1461 136.725C86.0712 136.768 86.0716 136.841 86.1496 136.886L89.7391 138.958Z" fill="#FF9800"/>
<path d="M74.8844 127.358L74.8879 127.836H74.4945L74.4929 127.358C74.4925 127.294 74.58 127.243 74.6881 127.244C74.7421 127.243 74.791 127.256 74.8264 127.277C74.8619 127.297 74.884 127.326 74.8844 127.358Z" fill="white"/>
<path d="M75.8531 127.869C75.889 127.89 75.9111 127.918 75.9115 127.95C75.9119 128.011 75.8243 128.062 75.7163 128.064H74.89H74.4958H73.6695C73.6155 128.063 73.5666 128.05 73.5311 128.03C73.4956 128.009 73.4735 127.981 73.4731 127.951C73.4728 127.887 73.5603 127.836 73.6707 127.836H74.495H74.8884H75.7128C75.7676 127.836 75.8172 127.848 75.8531 127.869Z" fill="white"/>
<path d="M76.3887 127.652C76.673 127.817 76.6745 128.081 76.3919 128.245L75.2092 128.933C74.9265 129.097 74.47 129.097 74.1858 128.933L72.9952 128.246C72.7109 128.081 72.7094 127.817 72.992 127.653L74.1747 126.965C74.4574 126.801 74.9139 126.801 75.1985 126.965L76.3887 127.652ZM74.8934 128.542L74.8899 128.063H75.7162C75.8242 128.062 75.9117 128.011 75.9113 127.95C75.9109 127.918 75.8888 127.889 75.853 127.869C75.8171 127.848 75.7674 127.835 75.7122 127.835H74.8879L74.8843 127.357C74.8843 127.325 74.8619 127.296 74.8264 127.276C74.7909 127.255 74.742 127.243 74.688 127.243C74.58 127.242 74.4925 127.293 74.4929 127.357L74.4944 127.835H73.6701C73.5597 127.835 73.4722 127.886 73.4726 127.95C73.4726 127.98 73.4947 128.008 73.5305 128.029C73.566 128.05 73.6149 128.063 73.6689 128.063H74.4952L74.4968 128.542C74.4984 128.573 74.5209 128.601 74.5567 128.622C74.5926 128.643 74.6415 128.656 74.6955 128.656C74.8035 128.655 74.891 128.604 74.8934 128.542Z" fill="#F57C00"/>
<path d="M74.8934 128.542C74.8914 128.604 74.8039 128.655 74.6959 128.656C74.6419 128.656 74.593 128.643 74.5571 128.622C74.5212 128.602 74.4984 128.573 74.4972 128.542L74.4956 128.063H74.8898L74.8934 128.542Z" fill="white"/>
<path d="M74.761 129.99C74.8363 130.034 74.8371 130.106 74.7594 130.151C74.6845 130.195 74.5591 130.195 74.4834 130.151L70.8943 128.079C70.8163 128.034 70.8159 127.961 70.8908 127.917C70.9685 127.873 71.0938 127.873 71.1719 127.917L74.761 129.99Z" fill="white"/>
<path d="M90.14 136.165L90.1436 136.644H89.7501L89.7485 136.165C89.7481 136.101 89.8357 136.051 89.9437 136.052C89.9977 136.051 90.0466 136.064 90.0821 136.084C90.1175 136.105 90.14 136.133 90.14 136.165Z" fill="white"/>
<path d="M91.6443 136.46C91.9286 136.625 91.9302 136.889 91.6475 137.053L90.4648 137.741C90.1821 137.905 89.7256 137.905 89.4414 137.741L88.2508 137.053C87.9665 136.889 87.965 136.625 88.2476 136.46L89.4303 135.773C89.713 135.608 90.1695 135.608 90.4542 135.773L91.6443 136.46ZM90.149 137.35L90.1455 136.871H90.9718C91.0798 136.87 91.1673 136.819 91.1669 136.758C91.1669 136.726 91.1445 136.697 91.1086 136.677C91.0727 136.656 91.023 136.643 90.9678 136.643H90.1435L90.14 136.165C90.14 136.133 90.1175 136.104 90.082 136.084C90.0465 136.063 89.9976 136.051 89.9436 136.051C89.8356 136.05 89.7481 136.101 89.7485 136.165L89.7501 136.643H88.9257C88.8153 136.643 88.7278 136.694 88.7282 136.758C88.7282 136.788 88.7507 136.816 88.7862 136.837C88.8216 136.858 88.8705 136.871 88.9245 136.871H89.7508L89.7524 137.35C89.754 137.381 89.7765 137.409 89.8123 137.43C89.8482 137.451 89.8971 137.464 89.9511 137.464C90.0595 137.463 90.147 137.412 90.149 137.35Z" fill="#F57C00"/>
<path d="M91.1087 136.677C91.1446 136.697 91.1667 136.726 91.1671 136.758C91.1675 136.819 91.08 136.87 90.9719 136.871H90.1456H89.7514H88.9251C88.8711 136.871 88.8222 136.858 88.7867 136.837C88.7512 136.817 88.7292 136.789 88.7288 136.758C88.7284 136.694 88.8159 136.644 88.9263 136.644H89.7506H90.1441H90.9684C91.0236 136.644 91.0729 136.656 91.1087 136.677Z" fill="white"/>
<path d="M90.149 137.349C90.147 137.412 90.0595 137.463 89.9515 137.464C89.8975 137.463 89.8486 137.45 89.8127 137.43C89.7768 137.409 89.754 137.381 89.7528 137.349L89.7512 136.871H90.1455L90.149 137.349Z" fill="white"/>
<path d="M90.0171 138.798C90.0924 138.841 90.0932 138.914 90.0155 138.959C89.9406 139.003 89.8152 139.003 89.7395 138.959L86.1505 136.886C86.0724 136.841 86.072 136.768 86.1469 136.725C86.2246 136.68 86.3499 136.68 86.428 136.725L90.0171 138.798Z" fill="white"/>
<path d="M97.776 141.753C97.7763 141.817 97.6888 141.868 97.5784 141.868C97.5244 141.867 97.4755 141.854 97.4397 141.833C97.4038 141.813 97.3809 141.784 97.3797 141.753L97.3782 141.276L97.7736 141.275L97.776 141.753Z" fill="white"/>
<path d="M99.2735 140.865C99.5554 141.028 99.5593 141.294 99.2767 141.458L98.094 142.146C97.8113 142.31 97.3524 142.308 97.0705 142.146L95.8776 141.457C95.5957 141.294 95.5918 141.028 95.8744 140.864L97.0571 140.176C97.3398 140.012 97.7987 140.014 98.0806 140.176L99.2735 140.865ZM97.7758 141.753L97.7731 141.276L98.5986 141.275C98.709 141.275 98.7965 141.224 98.7937 141.161C98.7937 141.129 98.7717 141.101 98.7354 141.08C98.6995 141.06 98.6498 141.046 98.5946 141.046H97.7719L97.7691 140.57C97.7691 140.538 97.747 140.509 97.7108 140.488C97.6749 140.468 97.6252 140.455 97.57 140.455C97.462 140.453 97.3745 140.504 97.3749 140.568L97.3765 141.046H96.5521C96.4417 141.046 96.3542 141.097 96.3546 141.161C96.3562 141.192 96.3787 141.221 96.4145 141.242C96.4504 141.263 96.4993 141.276 96.5533 141.276L97.3773 141.276L97.3788 141.753C97.38 141.784 97.4029 141.812 97.4388 141.833C97.4746 141.853 97.5235 141.867 97.5775 141.867C97.6887 141.868 97.7762 141.817 97.7758 141.753Z" fill="#F57C00"/>
<path d="M98.7353 141.079C98.7711 141.1 98.7932 141.129 98.7932 141.161C98.796 141.223 98.7085 141.274 98.5981 141.274L97.7725 141.275L97.3771 141.275L96.5532 141.276C96.4992 141.275 96.4503 141.262 96.4144 141.241C96.3785 141.221 96.3557 141.192 96.3545 141.161C96.3541 141.097 96.4416 141.046 96.552 141.046H97.3763H97.7714H98.5941C98.6497 141.046 98.6994 141.059 98.7353 141.079Z" fill="white"/>
<path d="M97.6435 143.2C97.7215 143.245 97.7219 143.318 97.6442 143.363C97.5693 143.407 97.444 143.407 97.3659 143.361L93.7764 141.289C93.6984 141.244 93.698 141.171 93.7729 141.127C93.8505 141.083 93.9759 141.083 94.054 141.127L97.6435 143.2Z" fill="white"/>
<path d="M97.7693 140.57L97.7721 141.047H97.3771L97.3755 140.569C97.3751 140.505 97.4626 140.454 97.5706 140.455C97.6258 140.455 97.6755 140.468 97.7114 140.489C97.7469 140.51 97.7689 140.538 97.7693 140.57Z" fill="white"/>
<path d="M105.402 146.156C105.403 146.22 105.315 146.271 105.205 146.271C105.152 146.271 105.104 146.258 105.068 146.238C105.033 146.217 105.01 146.189 105.009 146.158L105.006 145.679L105.4 145.679L105.402 146.156Z" fill="white"/>
<path d="M105.396 144.974L105.398 145.451L105.004 145.451L105.002 144.972C105.004 144.909 105.092 144.858 105.197 144.858C105.252 144.858 105.302 144.871 105.338 144.892C105.373 144.913 105.396 144.942 105.396 144.974Z" fill="white"/>
<path d="M106.9 145.268C107.185 145.432 107.186 145.696 106.904 145.861L105.721 146.548C105.438 146.712 104.982 146.712 104.697 146.548L103.507 145.861C103.223 145.696 103.221 145.432 103.504 145.268L104.686 144.58C104.969 144.416 105.426 144.416 105.71 144.58L106.9 145.268ZM105.402 146.156L105.4 145.678L106.225 145.677C106.336 145.677 106.423 145.627 106.42 145.564C106.421 145.533 106.4 145.505 106.364 145.484C106.329 145.464 106.279 145.451 106.224 145.451L105.398 145.451L105.396 144.973C105.395 144.941 105.373 144.913 105.337 144.892C105.301 144.871 105.252 144.859 105.197 144.859C105.091 144.859 105.004 144.91 105.001 144.972L105.004 145.451L104.179 145.45C104.071 145.452 103.983 145.503 103.981 145.565C103.983 145.596 104.005 145.625 104.041 145.646C104.077 145.666 104.126 145.679 104.18 145.68L105.005 145.679L105.008 146.158C105.01 146.189 105.032 146.218 105.068 146.238C105.103 146.259 105.152 146.271 105.204 146.271C105.315 146.271 105.403 146.22 105.402 146.156Z" fill="#F57C00"/>
<path d="M105.27 147.604C105.348 147.649 105.349 147.722 105.271 147.767C105.196 147.81 105.07 147.81 104.992 147.765L101.403 145.693C101.328 145.649 101.327 145.576 101.403 145.533C101.48 145.488 101.606 145.488 101.681 145.531L105.27 147.604Z" fill="white"/>
<path d="M106.364 145.485C106.4 145.505 106.421 145.534 106.42 145.565C106.423 145.627 106.335 145.678 106.225 145.678L105.399 145.679L105.006 145.679L104.18 145.68C104.126 145.679 104.077 145.666 104.041 145.645C104.005 145.624 103.983 145.596 103.981 145.565C103.983 145.502 104.071 145.451 104.179 145.45L105.004 145.451L105.398 145.451L106.224 145.451C106.279 145.452 106.329 145.464 106.364 145.485Z" fill="white"/>
<path d="M130.703 138.121C130.857 138.21 130.858 138.355 130.705 138.444C130.55 138.533 130.299 138.533 130.146 138.445L107.072 125.124C106.916 125.033 106.918 124.889 107.073 124.8C107.225 124.711 107.474 124.709 107.63 124.8L130.703 138.121Z" fill="black"/>
<path d="M132.401 132.678C132.71 132.857 132.712 133.145 132.404 133.324C132.097 133.502 131.6 133.502 131.29 133.324L112.062 122.223C111.753 122.044 111.751 121.756 112.059 121.577C112.366 121.399 112.863 121.399 113.173 121.577L132.401 132.678Z" fill="black"/>
<path d="M133.421 136.541C133.575 136.63 133.578 136.774 133.423 136.864C133.271 136.952 133.02 136.952 132.866 136.864L109.793 123.542C109.636 123.452 109.638 123.308 109.791 123.22C109.945 123.13 110.191 123.13 110.348 123.22L133.421 136.541Z" fill="black"/>
<path d="M139.756 141.772C139.909 141.86 139.91 142.006 139.755 142.096C139.602 142.184 139.352 142.184 139.198 142.096L108.432 124.333C108.276 124.243 108.278 124.099 108.43 124.011C108.585 123.92 108.833 123.919 108.989 124.009L139.756 141.772Z" fill="black"/>
<path d="M140.85 135.196C141.157 135.373 141.161 135.662 140.854 135.841C140.546 136.02 140.047 136.019 139.74 135.841L114.101 121.039C113.792 120.86 113.79 120.573 114.098 120.394C114.405 120.215 114.902 120.215 115.212 120.394L140.85 135.196Z" fill="black"/>
<path d="M112.872 113.88L157.23 139.49L132.066 154.114L87.7078 128.504L112.872 113.88ZM115.212 120.393C114.902 120.215 114.406 120.215 114.098 120.393C113.791 120.572 113.792 120.86 114.102 121.039L139.74 135.841C140.047 136.019 140.546 136.02 140.854 135.841C141.162 135.663 141.158 135.373 140.851 135.196L115.212 120.393ZM112.059 121.578C111.752 121.756 111.754 122.044 112.063 122.223L131.291 133.324C131.6 133.503 132.097 133.503 132.405 133.324C132.713 133.146 132.711 132.858 132.401 132.679L113.174 121.578C112.864 121.399 112.367 121.399 112.059 121.578ZM139.198 142.096C139.352 142.185 139.603 142.185 139.755 142.096C139.91 142.006 139.909 141.861 139.756 141.772L108.99 124.009C108.834 123.919 108.586 123.921 108.431 124.011C108.278 124.1 108.276 124.243 108.433 124.333L139.198 142.096ZM130.146 138.445C130.299 138.534 130.55 138.534 130.705 138.444C130.858 138.355 130.857 138.21 130.703 138.121L107.629 124.8C107.473 124.71 107.225 124.711 107.072 124.8C106.918 124.89 106.916 125.033 107.072 125.124L130.146 138.445ZM133.423 136.864C133.578 136.774 133.575 136.63 133.421 136.542L110.348 123.22C110.192 123.13 109.946 123.13 109.791 123.22C109.638 123.309 109.637 123.453 109.793 123.543L132.866 136.864C133.02 136.953 133.271 136.953 133.423 136.864Z" fill="black"/>
<path d="M126.761 130.236C126.915 130.325 126.915 130.47 126.763 130.559C126.608 130.649 126.357 130.649 126.203 130.56L103.13 117.239C102.974 117.149 102.976 117.005 103.13 116.915C103.283 116.826 103.531 116.824 103.688 116.915L126.761 130.236Z" fill="#CFD8DC"/>
<path d="M128.459 124.795C128.768 124.973 128.77 125.261 128.462 125.44C128.155 125.619 127.658 125.619 127.348 125.44L108.12 114.339C107.811 114.16 107.809 113.872 108.117 113.694C108.424 113.515 108.921 113.515 109.231 113.694L128.459 124.795Z" fill="#FF9800"/>
<path d="M129.479 128.656C129.632 128.745 129.636 128.889 129.481 128.979C129.328 129.068 129.078 129.068 128.924 128.979L105.85 115.657C105.694 115.567 105.696 115.424 105.848 115.335C106.003 115.245 106.249 115.245 106.405 115.335L129.479 128.656Z" fill="#CFD8DC"/>
<path d="M135.813 133.887C135.967 133.976 135.968 134.121 135.813 134.211C135.66 134.3 135.409 134.3 135.256 134.211L104.49 116.448C104.334 116.359 104.335 116.214 104.488 116.126C104.643 116.036 104.891 116.035 105.047 116.124L135.813 133.887Z" fill="#CFD8DC"/>
<path d="M136.908 127.311C137.215 127.489 137.219 127.778 136.912 127.957C136.604 128.135 136.105 128.134 135.797 127.957L110.159 113.154C109.849 112.976 109.848 112.688 110.155 112.509C110.463 112.33 110.96 112.33 111.269 112.509L136.908 127.311Z" fill="#FF9800"/>
<path d="M108.93 105.995L153.287 131.605L128.123 146.229L83.7654 120.619L108.93 105.995ZM111.269 112.509C110.96 112.33 110.463 112.33 110.156 112.509C109.848 112.687 109.85 112.975 110.159 113.154L135.798 127.957C136.105 128.134 136.604 128.135 136.912 127.957C137.219 127.778 137.215 127.489 136.908 127.311L111.269 112.509ZM108.117 113.693C107.81 113.871 107.811 114.159 108.121 114.338L127.349 125.439C127.658 125.618 128.155 125.618 128.463 125.439C128.77 125.261 128.769 124.973 128.459 124.794L109.232 113.693C108.922 113.514 108.425 113.514 108.117 113.693ZM135.256 134.211C135.409 134.3 135.66 134.3 135.813 134.211C135.968 134.121 135.967 133.976 135.813 133.887L105.048 116.125C104.891 116.035 104.643 116.036 104.488 116.126C104.336 116.215 104.334 116.359 104.49 116.449L135.256 134.211ZM126.203 130.561C126.357 130.649 126.608 130.649 126.763 130.559C126.915 130.47 126.914 130.325 126.761 130.236L103.687 116.915C103.531 116.825 103.283 116.826 103.13 116.915C102.975 117.005 102.973 117.149 103.129 117.239L126.203 130.561ZM129.481 128.979C129.636 128.889 129.633 128.745 129.479 128.657L106.405 115.335C106.249 115.245 106.004 115.245 105.848 115.335C105.696 115.424 105.694 115.568 105.85 115.658L128.924 128.979C129.078 129.068 129.328 129.068 129.481 128.979Z" fill="#F7F9F9"/>
<path d="M91.7253 125.4L93.1095 124.806L92.0876 125.61L91.7253 125.4Z" fill="black"/>
<path d="M93.8215 124.73L91.831 126.333L91.4509 126.114L91.8156 125.826L91.3552 125.56L90.8596 125.772L90.5146 125.573L93.2731 124.413L93.8215 124.73ZM91.7253 125.4L92.0876 125.61L93.1091 124.806L91.7253 125.4Z" fill="black"/>
<path d="M90.5265 122.828C90.9041 123.046 90.8801 123.273 90.5 123.493L90.1925 123.672C89.8125 123.893 89.421 123.907 89.0438 123.689L88.8675 123.588L87.9746 124.106L87.5969 123.888L89.9726 122.508L90.5265 122.828ZM89.7928 123.47L90.1504 123.262C90.3203 123.163 90.3077 123.095 90.1866 123.025L90.0104 122.924L89.2078 123.39L89.384 123.492C89.5046 123.562 89.6225 123.569 89.7928 123.47Z" fill="black"/>
<path d="M90.1866 123.026C90.3073 123.095 90.3203 123.164 90.1504 123.262L89.7928 123.47C89.6229 123.569 89.5046 123.562 89.384 123.492L89.2078 123.39L90.0104 122.924L90.1866 123.026Z" fill="black"/>
<path d="M97.2923 126.735L95.2289 127.383L94.4408 127.841L94.0659 127.624L94.8536 127.166L95.9657 125.969L96.3584 126.196L95.5628 126.991L96.9324 126.527L97.2923 126.735Z" fill="black"/>
<path d="M109.386 131.915C110.008 132.274 110.009 132.854 109.394 133.211L106.53 134.875C105.915 135.233 104.914 135.235 104.292 134.875L75.7746 118.41C75.1529 118.05 75.1498 117.469 75.7648 117.112L78.6281 115.448C79.2431 115.09 80.2468 115.09 80.8685 115.449L109.386 131.915ZM95.2288 127.382L97.2926 126.734L96.9327 126.526L95.5631 126.99L96.3591 126.195L95.9664 125.969L94.8543 127.166L94.0666 127.624L94.4415 127.84L95.2288 127.382ZM91.4509 126.114L91.8309 126.333L93.8214 124.73L93.2726 124.413L90.5142 125.573L90.8591 125.772L91.3547 125.56L91.8151 125.826L91.4509 126.114ZM90.1925 123.672L90.5 123.494C90.88 123.273 90.9041 123.046 90.5264 122.828L89.9725 122.508L87.5968 123.889L87.9745 124.107L88.8675 123.588L89.0437 123.69C89.4214 123.907 89.8124 123.893 90.1925 123.672Z" fill="black"/>
<path d="M87.7827 117.515L89.1669 116.921L88.145 117.725L87.7827 117.515Z" fill="#F57C00"/>
<path d="M89.8791 116.846L87.8886 118.449L87.5086 118.229L87.8732 117.941L87.4128 117.675L86.9172 117.887L86.5723 117.688L89.3307 116.528L89.8791 116.846ZM87.783 117.515L88.1453 117.725L89.1667 116.921L87.783 117.515Z" fill="white"/>
<path d="M86.5841 114.943C86.9618 115.161 86.9377 115.388 86.5577 115.609L86.2502 115.787C85.8701 116.008 85.4787 116.023 85.1014 115.805L84.9252 115.703L84.0322 116.222L83.6545 116.004L86.0302 114.623L86.5841 114.943ZM85.8504 115.585L86.208 115.378C86.3779 115.279 86.3653 115.21 86.2443 115.141L86.068 115.039L85.2654 115.505L85.4416 115.607C85.5622 115.677 85.6801 115.684 85.8504 115.585Z" fill="white"/>
<path d="M86.2443 115.141C86.3649 115.211 86.3779 115.279 86.208 115.378L85.8504 115.585C85.6805 115.684 85.5622 115.677 85.4416 115.607L85.2654 115.505L86.068 115.039L86.2443 115.141Z" fill="#F57C00"/>
<path d="M93.3499 118.85L91.2865 119.498L90.4985 119.956L90.1235 119.739L90.9112 119.282L92.0233 118.084L92.416 118.311L91.6204 119.106L92.99 118.642L93.3499 118.85Z" fill="white"/>
<path d="M105.444 124.03C106.066 124.39 106.067 124.969 105.451 125.327L102.588 126.991C101.973 127.348 100.972 127.35 100.35 126.991L71.8322 110.525C71.2105 110.166 71.2074 109.585 71.8224 109.227L74.6857 107.563C75.3007 107.205 76.3044 107.205 76.9261 107.564L105.444 124.03ZM91.2864 119.497L93.3502 118.849L92.9903 118.642L91.6207 119.105L92.4167 118.31L92.024 118.084L90.9119 119.281L90.1242 119.739L90.4991 119.956L91.2864 119.497ZM87.5085 118.229L87.8885 118.448L89.879 116.845L89.3302 116.529L86.5718 117.688L86.9167 117.887L87.4123 117.675L87.8727 117.941L87.5085 118.229ZM86.2501 115.787L86.5576 115.609C86.9376 115.388 86.9617 115.161 86.584 114.943L86.0301 114.624L83.6545 116.004L84.0321 116.222L84.9251 115.703L85.1013 115.805C85.479 116.023 85.8701 116.008 86.2501 115.787Z" fill="#F57C00"/>
<path d="M123.785 85.7283L100.858 99.0514L96.9118 96.7727C96.4009 96.4778 96.3981 96.0012 96.9059 95.7059L97.2635 95.4982L117.639 83.657L117.997 83.4492C118.502 83.1555 119.327 83.1544 119.838 83.4492L123.785 85.7283Z" fill="black"/>
<path d="M125.94 101.405C127.511 102.312 127.519 103.783 125.959 104.69C125.806 104.778 125.555 104.778 125.402 104.69C125.248 104.601 125.247 104.456 125.4 104.367C126.027 104.003 126.338 103.527 126.336 103.048C126.333 102.571 126.014 102.094 125.385 101.728C125.231 101.64 125.228 101.496 125.383 101.406C125.536 101.317 125.786 101.317 125.94 101.405Z" fill="black"/>
<path d="M127.799 103.274C127.714 103.894 127.264 104.499 126.449 104.973C126.356 105.027 126.259 105.078 126.16 105.127C124.32 106.032 121.552 105.981 119.803 104.971C118.057 103.963 117.959 102.36 119.515 101.291C119.672 101.374 119.912 101.371 120.06 101.284C120.209 101.198 120.214 101.059 120.07 100.968C121.91 100.063 124.678 100.115 126.424 101.123C127.446 101.712 127.904 102.504 127.799 103.274ZM125.402 104.689C125.555 104.778 125.806 104.778 125.959 104.689C127.519 103.782 127.511 102.312 125.94 101.405C125.787 101.316 125.536 101.316 125.383 101.405C125.228 101.495 125.231 101.639 125.385 101.727C126.014 102.094 126.333 102.57 126.336 103.047C126.339 103.526 126.028 104.002 125.4 104.366C125.247 104.455 125.248 104.601 125.402 104.689Z" fill="black"/>
<path d="M120.059 100.962C120.063 100.964 120.067 100.966 120.071 100.969C120.215 101.059 120.21 101.198 120.061 101.285C119.913 101.371 119.673 101.374 119.517 101.291C119.513 101.289 119.509 101.287 119.504 101.285L117.453 100.1C117.449 100.098 117.445 100.096 117.442 100.093C117.3 100.004 117.303 99.8638 117.451 99.7775C117.6 99.6911 117.842 99.6888 117.996 99.7708C118 99.7727 118.004 99.7751 118.008 99.7775L120.059 100.962Z" fill="black"/>
<path d="M117.451 99.7779C117.303 99.8642 117.3 100.005 117.442 100.094C115.602 100.999 112.836 100.949 111.088 99.9395C109.342 98.9314 109.244 97.3281 110.801 96.2589C110.884 96.2014 110.973 96.1454 111.066 96.0914C111.88 95.6183 112.921 95.3562 113.989 95.3045C115.319 95.2399 116.689 95.502 117.71 96.0914C119.458 97.1006 119.553 98.7028 117.997 99.7716C117.842 99.6896 117.6 99.6915 117.451 99.7779ZM116.685 99.6572C116.839 99.7459 117.09 99.7459 117.242 99.6572C118.803 98.7505 118.795 97.2796 117.224 96.3729C117.071 96.2842 116.819 96.2842 116.667 96.3729C116.512 96.4632 116.515 96.6071 116.669 96.6954C117.298 97.0616 117.615 97.5367 117.62 98.0149C117.62 98.4931 117.311 98.9697 116.684 99.3344C116.531 99.4235 116.529 99.5673 116.685 99.6572Z" fill="black"/>
<path d="M134.299 96.4949C134.909 96.8466 135.019 97.3914 134.57 97.8128L126.784 105.094C126.669 105.201 126.428 105.233 126.242 105.166C126.216 105.157 126.192 105.146 126.17 105.133C126.26 105.079 126.356 105.027 126.45 104.973C127.265 104.499 127.714 103.894 127.799 103.274L133.899 97.57C134.156 97.3303 134.092 97.0177 133.744 96.817L131.995 95.807C131.842 95.7183 131.841 95.5732 131.993 95.4845C132.146 95.3958 132.397 95.3958 132.55 95.4845L134.299 96.4949Z" fill="black"/>
<path d="M105.744 106.299C106.028 106.463 106.03 106.727 105.75 106.89C105.467 107.055 105.01 107.055 104.726 106.89C104.444 106.727 104.443 106.463 104.725 106.299C105.005 106.136 105.462 106.136 105.744 106.299Z" fill="black"/>
<path d="M108.842 108.088C109.127 108.252 109.128 108.516 108.848 108.679C108.566 108.844 108.109 108.844 107.825 108.679C107.543 108.516 107.541 108.252 107.824 108.088C108.104 107.925 108.561 107.925 108.842 108.088Z" fill="black"/>
<path d="M110.38 108.976C110.665 109.14 110.666 109.404 110.386 109.567C110.104 109.731 109.647 109.731 109.363 109.567C109.081 109.404 109.08 109.14 109.362 108.976C109.642 108.813 110.099 108.813 110.38 108.976Z" fill="black"/>
<path d="M148.63 100.073C149.139 100.366 149.139 100.844 148.634 101.138L148.276 101.345L127.901 113.187L127.543 113.394C127.035 113.689 126.213 113.689 125.704 113.396L121.37 110.893L144.296 97.5703L148.63 100.073Z" fill="black"/>
<path d="M118.353 75.0742L162.708 100.683L123.238 123.621L78.8826 98.0122L118.353 75.0742ZM131.537 114.342L150.282 103.448C150.733 103.187 150.73 102.762 150.277 102.501L148.276 101.345L148.633 101.138C149.138 100.844 149.138 100.366 148.63 100.072L144.295 97.5699L144.55 97.4217C145.113 97.0948 145.11 96.5658 144.544 96.2386L126.084 85.5809C125.517 85.2541 124.602 85.2525 124.039 85.5793L123.784 85.7276L119.837 83.4489C119.326 83.154 118.501 83.1552 117.996 83.4489L117.638 83.6567L115.637 82.5012C115.184 82.2398 114.451 82.2398 114.001 82.5012L95.2562 93.3946C94.806 93.656 94.8084 94.0805 95.2617 94.3419L97.2629 95.497L96.9053 95.7048C96.3975 95.9997 96.4003 96.4763 96.9112 96.7716L100.858 99.0502L100.603 99.1985C100.04 99.5253 100.046 100.056 100.612 100.383L119.072 111.04C119.638 111.367 120.551 111.367 121.114 111.04L121.369 110.892L125.703 113.395C126.212 113.688 127.034 113.688 127.542 113.393L127.9 113.185L129.901 114.341C130.355 114.603 131.087 114.603 131.537 114.342ZM106.286 107.791C106.571 107.955 107.028 107.955 107.31 107.791C107.59 107.628 107.589 107.363 107.304 107.199C107.022 107.037 106.563 107.035 106.283 107.198C106.001 107.362 106.005 107.628 106.286 107.791ZM107.824 108.679C108.109 108.843 108.565 108.843 108.848 108.679C109.128 108.516 109.126 108.251 108.842 108.087C108.56 107.924 108.103 107.924 107.823 108.087C107.541 108.251 107.542 108.516 107.824 108.679ZM109.362 109.566C109.646 109.731 110.103 109.731 110.386 109.566C110.666 109.404 110.664 109.139 110.38 108.975C110.098 108.812 109.641 108.812 109.361 108.975C109.079 109.139 109.08 109.404 109.362 109.566ZM104.726 106.89C105.011 107.054 105.467 107.054 105.749 106.89C106.029 106.727 106.028 106.462 105.744 106.298C105.462 106.135 105.005 106.135 104.725 106.298C104.443 106.463 104.444 106.727 104.726 106.89ZM103.188 106.002C103.472 106.166 103.929 106.166 104.212 106.002C104.492 105.839 104.49 105.574 104.206 105.41C103.924 105.248 103.467 105.248 103.187 105.41C102.905 105.574 102.906 105.839 103.188 106.002Z" fill="black"/>
<path d="M117.639 83.6579L97.2633 95.4991L95.2622 94.3436C94.8092 94.0818 94.8069 93.6576 95.2567 93.3962L114.002 82.5028C114.452 82.2414 115.184 82.2411 115.637 82.5028L117.639 83.6579Z" fill="black"/>
<path d="M127.423 92.5249C127.579 92.6152 127.578 92.7591 127.425 92.8474C127.272 92.9361 127.024 92.9377 126.868 92.8474L125.119 91.8374C124.771 91.6367 124.235 91.602 123.821 91.7518L113.988 95.3042C112.921 95.3559 111.88 95.6184 111.066 96.0911C110.972 96.1451 110.884 96.2015 110.8 96.2587C110.768 96.2405 110.749 96.2267 110.732 96.2117C110.617 96.1041 110.671 95.9646 110.856 95.8979L123.4 91.3639C124.126 91.1025 125.067 91.1648 125.674 91.5149L127.423 92.5249Z" fill="black"/>
<path d="M117.224 96.3731C118.794 97.2799 118.803 98.7507 117.242 99.6575C117.09 99.7462 116.839 99.7462 116.685 99.6575C116.529 99.5672 116.531 99.4233 116.683 99.335C117.311 98.9703 117.619 98.4937 117.619 98.0155C117.614 97.5373 117.298 97.0622 116.668 96.696C116.515 96.6073 116.511 96.4634 116.666 96.3735C116.819 96.2844 117.07 96.2844 117.224 96.3731Z" fill="black"/>
<path d="M104.206 105.411C104.49 105.576 104.492 105.84 104.212 106.003C103.929 106.167 103.472 106.167 103.188 106.003C102.906 105.84 102.905 105.575 103.187 105.411C103.467 105.248 103.924 105.248 104.206 105.411Z" fill="black"/>
<path d="M107.305 107.199C107.589 107.363 107.59 107.628 107.31 107.79C107.028 107.955 106.571 107.955 106.287 107.79C106.005 107.628 106.001 107.362 106.284 107.198C106.563 107.035 107.023 107.036 107.305 107.199Z" fill="black"/>
<path d="M144.544 96.2397C145.111 96.5665 145.114 97.0955 144.551 97.4228L144.296 97.571L121.37 110.894L121.115 111.043C120.552 111.37 119.639 111.37 119.073 111.043L100.613 100.385C100.046 100.058 100.041 99.5272 100.604 99.2003L100.859 99.0521L123.785 85.7286L124.04 85.5804C124.602 85.2536 125.518 85.2548 126.085 85.582L144.544 96.2397ZM126.242 105.167C126.428 105.234 126.669 105.202 126.784 105.095L134.57 97.8138C135.019 97.3924 134.909 96.8476 134.299 96.4959L132.55 95.4859C132.396 95.3972 132.146 95.3972 131.993 95.4859C131.841 95.5746 131.841 95.7197 131.995 95.8084L133.744 96.8184C134.092 97.0191 134.156 97.3313 133.899 97.5714L127.799 103.276C127.904 102.506 127.446 101.714 126.425 101.125C124.679 100.117 121.911 100.065 120.071 100.97L118.009 99.7787C119.553 98.7032 119.458 97.1015 117.709 96.0918C116.689 95.5025 115.319 95.2403 113.989 95.3049L123.822 91.7525C124.235 91.6027 124.772 91.6378 125.119 91.8381L126.868 92.8481C127.024 92.9384 127.273 92.9368 127.425 92.8481C127.578 92.7594 127.579 92.6155 127.423 92.5256L125.674 91.5156C125.067 91.1655 124.126 91.1028 123.4 91.3646L110.856 95.8987C110.671 95.9657 110.617 96.1048 110.733 96.2125C110.749 96.2278 110.768 96.2416 110.789 96.2539C109.244 97.3285 109.341 98.9319 111.087 99.9399C112.835 100.949 115.601 101 117.441 100.094L119.504 101.285C117.959 102.361 118.057 103.964 119.803 104.972C121.552 105.982 124.32 106.033 126.161 105.128C126.192 105.146 126.216 105.157 126.242 105.167Z" fill="black"/>
<path d="M150.277 102.501C150.73 102.763 150.733 103.187 150.283 103.449L131.538 114.342C131.088 114.604 130.355 114.604 129.902 114.342L127.901 113.187L148.277 101.346L150.277 102.501Z" fill="black"/>
<path d="M119.842 77.8435L96.9161 91.1666L92.9694 88.8879C92.4585 88.5931 92.4558 88.1164 92.9635 87.8211L93.3211 87.6134L113.697 75.7722L114.054 75.5645C114.559 75.2708 115.385 75.2696 115.896 75.5645L119.842 77.8435Z" fill="#F4F5F7"/>
<path d="M121.998 93.5206C123.568 94.4273 123.577 95.8982 122.016 96.8049C121.864 96.8936 121.613 96.8936 121.459 96.8049C121.305 96.7162 121.305 96.5711 121.457 96.4824C122.085 96.1178 122.396 95.6423 122.393 95.163C122.39 94.6863 122.072 94.2097 121.442 93.8435C121.289 93.7548 121.285 93.6109 121.44 93.521C121.593 93.4319 121.844 93.4319 121.998 93.5206Z" fill="white"/>
<path d="M123.856 95.3891C123.772 96.0089 123.322 96.614 122.507 97.0879C122.413 97.1419 122.317 97.1935 122.218 97.242C120.378 98.1472 117.609 98.0959 115.861 97.0863C114.115 96.0783 114.017 94.4749 115.574 93.4062C115.73 93.4893 115.97 93.4858 116.118 93.3995C116.267 93.3131 116.273 93.1743 116.128 93.0837C117.968 92.1785 120.736 92.2302 122.482 93.2382C123.504 93.8276 123.962 94.6196 123.856 95.3891ZM121.459 96.8044C121.613 96.8931 121.864 96.8931 122.016 96.8044C123.577 95.8977 123.569 94.4268 121.998 93.5201C121.845 93.4314 121.593 93.4314 121.441 93.5201C121.286 93.6104 121.289 93.7539 121.443 93.8426C122.072 94.2088 122.391 94.6854 122.394 95.1621C122.397 95.6418 122.085 96.1169 121.458 96.4816C121.305 96.5707 121.306 96.7161 121.459 96.8044Z" fill="#00BCD4"/>
<path d="M116.117 93.077C116.121 93.0793 116.125 93.0817 116.128 93.0841C116.273 93.1743 116.268 93.3135 116.119 93.3998C115.97 93.4862 115.731 93.4897 115.574 93.4065C115.57 93.4046 115.566 93.4022 115.562 93.3998L113.511 92.2156C113.507 92.2132 113.503 92.2108 113.499 92.2085C113.357 92.1194 113.36 91.979 113.509 91.8927C113.657 91.8064 113.899 91.804 114.054 91.886C114.058 91.888 114.061 91.8903 114.066 91.8927L116.117 93.077Z" fill="#455A64"/>
<path d="M113.509 91.8931C113.36 91.9794 113.357 92.1198 113.499 92.2089C111.659 93.114 108.893 93.064 107.145 92.0547C105.399 91.0467 105.301 89.4433 106.858 88.3742C106.942 88.3166 107.03 88.2606 107.123 88.2066C107.937 87.7336 108.979 87.4714 110.046 87.4197C111.376 87.3551 112.746 87.6173 113.767 88.2066C115.515 89.2159 115.611 90.818 114.054 91.8868C113.899 91.8048 113.657 91.8068 113.509 91.8931ZM112.743 91.7725C112.896 91.8612 113.147 91.8612 113.3 91.7725C114.86 90.8657 114.852 89.3948 113.281 88.4881C113.128 88.3994 112.877 88.3994 112.724 88.4881C112.569 88.5784 112.572 88.7223 112.726 88.8106C113.355 89.1768 113.672 89.6519 113.677 90.1301C113.677 90.6083 113.369 91.0849 112.741 91.4496C112.588 91.5387 112.587 91.6826 112.743 91.7725Z" fill="#00BCD4"/>
<path d="M130.357 88.6101C130.966 88.9618 131.077 89.5066 130.628 89.9281L122.841 97.2087C122.727 97.3164 122.486 97.3483 122.3 97.2813C122.273 97.2718 122.249 97.2608 122.228 97.2486C122.317 97.1938 122.414 97.1425 122.507 97.0881C123.322 96.6142 123.772 96.0091 123.857 95.3894L129.957 89.6852C130.214 89.4455 130.15 89.1329 129.802 88.9322L128.053 87.9222C127.899 87.8335 127.899 87.6884 128.051 87.5997C128.203 87.511 128.454 87.511 128.608 87.5997L130.357 88.6101Z" fill="#455A64"/>
<path d="M101.801 98.4138C102.086 98.5782 102.087 98.8423 101.807 99.0052C101.525 99.1696 101.068 99.1696 100.784 99.0052C100.502 98.8423 100.5 98.5778 100.783 98.4138C101.063 98.2514 101.52 98.2514 101.801 98.4138Z" fill="#ECEFF1"/>
<path d="M104.9 100.203C105.184 100.368 105.186 100.632 104.906 100.795C104.623 100.959 104.167 100.959 103.883 100.795C103.601 100.632 103.599 100.367 103.882 100.203C104.161 100.04 104.618 100.04 104.9 100.203Z" fill="#ECEFF1"/>
<path d="M106.438 101.091C106.722 101.255 106.724 101.519 106.444 101.682C106.161 101.847 105.705 101.847 105.421 101.682C105.139 101.519 105.137 101.255 105.42 101.091C105.699 100.928 106.156 100.928 106.438 101.091Z" fill="#ECEFF1"/>
<path d="M144.688 92.1887C145.196 92.4824 145.196 92.9602 144.691 93.2539L144.334 93.4617L123.958 105.303L123.601 105.511C123.093 105.805 122.27 105.805 121.762 105.512L117.427 103.01L140.354 89.6865L144.688 92.1887Z" fill="#F4F5F7"/>
<path d="M114.411 67.1895L158.766 92.798L119.296 115.736L74.9404 90.1275L114.411 67.1895ZM127.595 106.457L146.34 95.5635C146.79 95.3021 146.788 94.8776 146.335 94.6162L144.334 93.4607L144.691 93.2529C145.196 92.9592 145.196 92.4814 144.688 92.1877L140.353 89.6851L140.608 89.5369C141.171 89.2101 141.168 88.681 140.601 88.3538L122.141 77.6961C121.575 77.3693 120.66 77.3677 120.097 77.6946L119.842 77.8428L115.895 75.5641C115.384 75.2692 114.558 75.2704 114.053 75.5641L113.696 75.7719L111.695 74.6164C111.242 74.355 110.509 74.355 110.059 74.6164L91.3141 85.5098C90.8639 85.7712 90.8662 86.1958 91.3196 86.4572L93.3207 87.6123L92.9632 87.82C92.4554 88.1149 92.4581 88.5915 92.9691 88.8868L96.9157 91.1655L96.6607 91.3137C96.0981 91.6405 96.1036 92.1712 96.6697 92.498L115.13 103.156C115.696 103.482 116.609 103.482 117.172 103.156L117.427 103.007L121.761 105.51C122.27 105.804 123.093 105.804 123.601 105.508L123.958 105.301L125.959 106.456C126.413 106.719 127.145 106.719 127.595 106.457ZM102.344 99.906C102.629 100.07 103.085 100.07 103.368 99.906C103.648 99.7432 103.646 99.4786 103.362 99.3146C103.08 99.1518 102.621 99.1502 102.341 99.3131C102.058 99.4771 102.062 99.7432 102.344 99.906ZM103.882 100.794C104.166 100.958 104.623 100.958 104.906 100.794C105.186 100.631 105.184 100.366 104.9 100.202C104.618 100.04 104.161 100.04 103.881 100.202C103.599 100.366 103.6 100.631 103.882 100.794ZM105.42 101.682C105.704 101.846 106.161 101.846 106.444 101.682C106.724 101.519 106.722 101.254 106.438 101.09C106.156 100.927 105.699 100.927 105.419 101.09C105.137 101.255 105.138 101.519 105.42 101.682ZM100.784 99.0052C101.069 99.1696 101.525 99.1696 101.807 99.0052C102.087 98.8424 102.086 98.5778 101.801 98.4138C101.52 98.251 101.063 98.251 100.783 98.4138C100.5 98.5778 100.502 98.8424 100.784 99.0052ZM99.246 98.117C99.5303 98.2814 99.9872 98.281 100.269 98.117C100.549 97.9542 100.548 97.6896 100.264 97.5256C99.9817 97.3628 99.5251 97.3628 99.2449 97.5256C98.9626 97.69 98.9638 97.9542 99.246 98.117Z" fill="white"/>
<path d="M113.696 75.7732L93.321 87.6143L91.3198 86.4588C90.8669 86.197 90.8645 85.7729 91.3143 85.5115L110.059 74.6181C110.509 74.3567 111.242 74.3563 111.695 74.6181L113.696 75.7732Z" fill="#F7F9F9"/>
<path d="M123.481 84.6401C123.637 84.7304 123.635 84.8743 123.483 84.9626C123.33 85.0513 123.082 85.0529 122.926 84.9626L121.176 83.9526C120.829 83.7519 120.292 83.7172 119.879 83.867L110.046 87.4195C108.979 87.4711 107.937 87.7337 107.123 88.2063C107.03 88.2604 106.941 88.3167 106.858 88.3739C106.826 88.3558 106.807 88.342 106.79 88.327C106.674 88.2194 106.729 88.0798 106.914 88.0132L119.458 83.4791C120.184 83.2177 121.125 83.28 121.731 83.6301L123.481 84.6401Z" fill="#455A64"/>
<path d="M113.281 88.4884C114.852 89.3951 114.86 90.866 113.3 91.7727C113.147 91.8614 112.897 91.8614 112.743 91.7727C112.587 91.6824 112.588 91.5385 112.741 91.4502C113.369 91.0856 113.677 90.6089 113.677 90.1307C113.672 89.6525 113.355 89.1775 112.726 88.8112C112.573 88.7225 112.569 88.5786 112.724 88.4887C112.877 88.3997 113.128 88.3996 113.281 88.4884Z" fill="white"/>
<path d="M100.264 97.5264C100.548 97.6904 100.549 97.9549 100.269 98.1178C99.9868 98.2822 99.5303 98.2822 99.246 98.1178C98.9642 97.9549 98.9626 97.6904 99.2452 97.5264C99.5252 97.3636 99.9817 97.3636 100.264 97.5264Z" fill="#FF9800"/>
<path d="M103.362 99.3153C103.647 99.4797 103.648 99.7438 103.368 99.9066C103.085 100.071 102.629 100.071 102.345 99.9066C102.063 99.7438 102.059 99.4781 102.341 99.3137C102.621 99.1509 103.08 99.1525 103.362 99.3153Z" fill="#ECEFF1"/>
<path d="M140.602 88.3549C141.168 88.6817 141.171 89.2108 140.609 89.538L140.354 89.6862L117.428 103.01L117.173 103.158C116.61 103.485 115.697 103.485 115.13 103.158L96.6705 92.4999C96.104 92.173 96.0985 91.6424 96.6615 91.3156L96.9165 91.1673L119.843 77.8439L120.098 77.6956C120.66 77.3688 121.576 77.37 122.143 77.6972L140.602 88.3549ZM122.3 97.2823C122.486 97.3493 122.727 97.317 122.842 97.2097L130.628 89.9291C131.077 89.5076 130.966 88.9628 130.357 88.6111L128.608 87.6011C128.454 87.5124 128.204 87.5124 128.051 87.6011C127.898 87.6898 127.899 87.8349 128.053 87.9236L129.802 88.9336C130.15 89.1343 130.214 89.4465 129.957 89.6866L123.857 95.3908C123.962 94.6212 123.504 93.8292 122.483 93.2398C120.737 92.2318 117.969 92.1805 116.129 93.0853L114.066 91.8939C115.611 90.8185 115.516 89.2167 113.767 88.2071C112.747 87.6177 111.377 87.3555 110.046 87.4202L119.879 83.8677C120.293 83.7179 120.829 83.753 121.177 83.9533L122.926 84.9633C123.082 85.0536 123.33 85.052 123.483 84.9633C123.636 84.8746 123.637 84.7307 123.481 84.6408L121.732 83.6308C121.125 83.2807 120.184 83.2181 119.458 83.4798L106.914 88.0139C106.729 88.0809 106.675 88.2201 106.79 88.3277C106.807 88.3431 106.826 88.3569 106.847 88.3691C105.301 89.4438 105.399 91.0471 107.145 92.0552C108.893 93.0644 111.659 93.1149 113.499 92.2093L115.562 93.4007C114.017 94.4761 114.115 96.0795 115.861 97.0875C117.609 98.0972 120.378 98.1484 122.218 97.2433C122.25 97.2614 122.274 97.2724 122.3 97.2823Z" fill="#ECEFF1"/>
<path d="M146.335 94.6164C146.788 94.8778 146.791 95.3024 146.341 95.5638L127.596 106.457C127.146 106.719 126.413 106.719 125.96 106.457L123.959 105.302L144.334 93.4609L146.335 94.6164Z" fill="#F7F9F9"/>
<path d="M78.0717 111.093V102.819L59.6548 84.4023" stroke="white" stroke-miterlimit="10"/>
<path d="M60.2052 83.9045C59.9159 83.6152 59.4467 83.6152 59.157 83.9045C58.8676 84.1939 58.8676 84.663 59.157 84.9528C59.4463 85.2422 59.9155 85.2422 60.2052 84.9528C60.4946 84.6634 60.4946 84.1939 60.2052 83.9045Z" fill="white"/>
<path d="M119.318 80.0706V61.7041" stroke="white" stroke-miterlimit="10"/>
<path d="M120.059 61.7412C120.059 61.3319 119.727 61 119.318 61C118.908 61 118.576 61.3319 118.576 61.7412C118.576 62.1504 118.908 62.4823 119.318 62.4823C119.727 62.4823 120.059 62.1504 120.059 61.7412Z" fill="white"/>
<path d="M158.566 93.566L167.947 75.1699H174.641" stroke="white" stroke-miterlimit="10"/>
<path d="M174.604 75.911C175.013 75.911 175.345 75.5792 175.345 75.1699C175.345 74.7605 175.013 74.4287 174.604 74.4287C174.195 74.4287 173.863 74.7605 173.863 75.1699C173.863 75.5792 174.195 75.911 174.604 75.911Z" fill="white"/>
</svg>
