<svg width="246" height="246" viewBox="0 0 246 246" fill="none" xmlns="http://www.w3.org/2000/svg">
<rect width="246" height="246" rx="123" fill="#5BCAEC" fill-opacity="0.2"/>
<path d="M86.1084 86.9805H59.9023V89.6636H86.1084V86.9805Z" fill="#EDEDED"/>
<path d="M112.363 107.186H93.4426V109.869H112.363V107.186Z" fill="#EDEDED"/>
<path d="M127.867 107.186H115.311V109.869H127.867V107.186Z" fill="#EDEDED"/>
<path d="M160.662 107.186H130.347V109.869H160.662V107.186Z" fill="#EDEDED"/>
<path d="M79.6793 147.818H60.1997V150.502H79.6793V147.818Z" fill="#EDEDED"/>
<path d="M109.81 86.9805H91.2065V89.6636H109.81V86.9805Z" fill="#EDEDED"/>
<path d="M109.81 117.289H91.2065V119.972H109.81V117.289Z" fill="#EDEDED"/>
<path d="M89.8535 127.391H81.9048V130.074H89.8535V127.391Z" fill="#EDEDED"/>
<path d="M91.8101 137.641H73.9561V140.324H91.8101V137.641Z" fill="#EDEDED"/>
<path d="M119.157 137.641H94.5093V140.324H119.157V137.641Z" fill="#EDEDED"/>
<path d="M78.8034 127.465H60.1997V130.148H78.8034V127.465Z" fill="#EDEDED"/>
<path d="M71.2382 137.641H60.1997V140.324H71.2382V137.641Z" fill="#EDEDED"/>
<path d="M104.015 127.465H93.6011V130.148H104.015V127.465Z" fill="#EDEDED"/>
<path d="M78.7289 107.186H60.1252V109.869H78.7289V107.186Z" fill="#EDEDED"/>
<path d="M86.6451 117.289H60.1252V119.972H86.6451V117.289Z" fill="#EDEDED"/>
<path d="M138.521 86.9805H114.819V89.6636H138.521V86.9805Z" fill="#EDEDED"/>
<path d="M201.801 107.186H178.1V109.869H201.801V107.186Z" fill="#EDEDED"/>
<path d="M170.943 117.289H147.241V119.972H170.943V117.289Z" fill="#EDEDED"/>
<path d="M179.753 86.9805H156.051V89.6636H179.753V86.9805Z" fill="#EDEDED"/>
<path d="M142.903 117.289H129.006V119.972H142.903V117.289Z" fill="#EDEDED"/>
<path d="M151.579 86.9805H142.903V89.6636H151.579V86.9805Z" fill="#EDEDED"/>
<path d="M123.495 117.289H114.819V119.972H123.495V117.289Z" fill="#EDEDED"/>
<path d="M73.4749 97.082H59.9023V99.7653H73.4749V97.082Z" fill="#EDEDED"/>
<path d="M106.833 147.895H96.1167V150.578H106.833V147.895Z" fill="#EDEDED"/>
<path d="M81.1892 97.082H76.8066V99.7653H81.1892V97.082Z" fill="#EDEDED"/>
<path d="M203 97.082H166.777V99.7653H203V97.082Z" fill="#EDEDED"/>
<path d="M163.43 97.082H151.579V99.7653H163.43V97.082Z" fill="#EDEDED"/>
<path d="M175.281 107.186H163.43V109.869H175.281V107.186Z" fill="#EDEDED"/>
<path d="M148.442 97.082H123.226V99.7653H148.442V97.082Z" fill="#EDEDED"/>
<path d="M119.649 97.082H110.973V99.7653H119.649V97.082Z" fill="#EDEDED"/>
<path d="M90.4462 107.186H81.7705V109.869H90.4462V107.186Z" fill="#EDEDED"/>
<path d="M92.1755 147.895H83.4998V150.578H92.1755V147.895Z" fill="#EDEDED"/>
<path d="M107.664 97.082H92.5481V99.7653H107.664V97.082Z" fill="#EDEDED"/>
<path d="M177.382 108.16H144.904V137.988H177.382V108.16Z" fill="url(#paint0_linear_3564_4048)"/>
<path d="M179.915 112.647V133.503C179.915 137.598 178.216 140.912 176.121 140.912H173.658V105.238H176.121C178.216 105.238 179.915 108.556 179.915 112.647Z" fill="url(#paint1_linear_3564_4048)"/>
<path d="M82.8896 108.16H115.368V137.988H82.8896V108.16Z" fill="url(#paint2_linear_3564_4048)"/>
<path d="M80.3572 133.503V112.647C80.3572 108.552 82.0559 105.238 84.1507 105.238H86.6141V140.912H84.1507C82.0559 140.912 80.3572 137.595 80.3572 133.503Z" fill="url(#paint3_linear_3564_4048)"/>
<path d="M169.324 123.076C169.324 141.658 156.413 157.225 139.069 161.291C136.181 161.97 133.169 162.328 130.072 162.328C126.977 162.328 123.966 161.97 121.078 161.291C103.734 157.225 90.823 141.658 90.823 123.076C90.823 101.397 108.396 83.8242 130.072 83.8242C135.782 83.8242 141.209 85.042 146.103 87.2369C152.845 90.2568 158.582 95.1249 162.665 101.194C166.871 107.446 169.324 114.976 169.324 123.076Z" fill="url(#paint4_linear_3564_4048)"/>
<path d="M139.068 126.598V161.29C136.18 161.968 133.168 162.326 130.073 162.326C126.978 162.326 123.967 161.968 121.078 161.29V126.598H139.068Z" fill="white"/>
<path d="M143.682 133.163C151.199 125.646 151.199 113.459 143.682 105.942C136.165 98.4256 123.978 98.4256 116.461 105.942C108.945 113.459 108.945 125.646 116.461 133.163C123.978 140.68 136.165 140.68 143.682 133.163Z" fill="white"/>
<path d="M130.073 136.324C139.337 136.324 146.846 128.815 146.846 119.551C146.846 110.287 139.337 102.777 130.073 102.777C120.809 102.777 113.3 110.287 113.3 119.551C113.3 128.815 120.809 136.324 130.073 136.324Z" fill="url(#paint5_linear_3564_4048)"/>
<path d="M130.073 130.426C136.078 130.426 140.946 125.558 140.946 119.553C140.946 113.548 136.078 108.68 130.073 108.68C124.068 108.68 119.2 113.548 119.2 119.553C119.2 125.558 124.068 130.426 130.073 130.426Z" fill="url(#paint6_linear_3564_4048)"/>
<path d="M130.482 98.1035H129.664C128.496 98.1035 127.549 97.1566 127.549 95.9885V89.3924C127.549 88.2242 128.496 87.2773 129.664 87.2773H130.482C131.65 87.2773 132.597 88.2243 132.597 89.3924V95.9885C132.597 97.1566 131.65 98.1035 130.482 98.1035Z" fill="url(#paint7_linear_3564_4048)"/>
<path opacity="0.54" d="M141.552 112.473C142.14 110.044 140.647 107.599 138.219 107.012C135.79 106.424 133.345 107.916 132.757 110.345C132.17 112.773 133.662 115.219 136.091 115.806C138.519 116.394 140.964 114.902 141.552 112.473Z" fill="white"/>
<path d="M182.994 173.092H77.1523V177.065H182.994V173.092Z" fill="url(#paint8_linear_3564_4048)"/>
<path d="M192.132 185.806H68.0149C65.8207 185.806 64.042 184.028 64.042 181.834V180.244C64.042 178.05 65.8207 176.271 68.0149 176.271H192.132C194.326 176.271 196.105 178.05 196.105 180.244V181.834C196.105 184.028 194.326 185.806 192.132 185.806Z" fill="url(#paint9_linear_3564_4048)"/>
<path d="M131.451 89.4016C131.451 90.1627 130.834 90.7797 130.073 90.7797C129.312 90.7797 128.695 90.1628 128.695 89.4016C128.695 88.6405 129.312 88.0234 130.073 88.0234C130.834 88.0235 131.451 88.6405 131.451 89.4016Z" fill="white"/>
<path d="M164.533 100.273L160.837 110.204L139.068 92.2343L147.972 86.3164C154.714 89.3364 160.45 94.2045 164.533 100.273Z" fill="url(#paint10_linear_3564_4048)"/>
<path d="M95.613 100.273L99.3097 110.204L121.078 92.2346L112.174 86.3164C105.432 89.3364 99.6961 94.2045 95.613 100.273Z" fill="url(#paint11_linear_3564_4048)"/>
<path d="M95.613 145.876L99.3097 135.945L121.078 153.915L112.174 159.833C105.432 156.813 99.6961 151.945 95.613 145.876Z" fill="url(#paint12_linear_3564_4048)"/>
<path d="M164.533 145.876L160.837 135.945L139.068 153.915L147.972 159.833C154.714 156.813 160.45 151.945 164.533 145.876Z" fill="url(#paint13_linear_3564_4048)"/>
<path opacity="0.72" d="M192.131 145.68H68.0146V176.271H192.131V145.68Z" fill="url(#paint14_linear_3564_4048)"/>
<path d="M188.018 64.7344L160.893 64.8592L160.984 84.5192L161.003 88.6604L165.125 84.5002L188.108 84.3945L188.018 64.7344Z" fill="url(#paint15_linear_3564_4048)"/>
<path d="M176.575 75.405C176.579 76.549 175.654 77.4795 174.51 77.4831C173.366 77.4868 172.435 76.5621 172.432 75.4181C172.428 74.2739 173.353 73.3435 174.497 73.3399C175.641 73.3363 176.571 74.2608 176.575 75.405Z" fill="white"/>
<path d="M183.379 75.3854C183.382 76.5295 182.458 77.4599 181.314 77.4636C180.17 77.4672 179.239 76.5426 179.235 75.3984C179.232 74.2544 180.156 73.3239 181.3 73.3203C182.445 73.3166 183.375 74.2413 183.379 75.3854Z" fill="white"/>
<path d="M169.927 75.4284C169.931 76.5725 169.006 77.503 167.862 77.5066C166.718 77.5102 165.788 76.5856 165.784 75.4415C165.78 74.2973 166.705 73.367 167.849 73.3633C168.993 73.3598 169.924 74.2843 169.927 75.4284Z" fill="white"/>
<path d="M109.335 49L139.254 49.1377L139.155 70.8235L139.134 75.3913L134.587 70.8025L109.235 70.6858L109.335 49Z" fill="url(#paint16_linear_3564_4048)"/>
<path d="M121.957 60.772C121.953 62.034 122.973 63.0603 124.235 63.0642C125.497 63.0682 126.523 62.0483 126.527 60.7864C126.531 59.5244 125.511 58.4981 124.249 58.4942C122.987 58.4901 121.961 59.5099 121.957 60.772Z" fill="white"/>
<path d="M114.452 60.7466C114.448 62.0086 115.468 63.0349 116.73 63.0389C117.992 63.0428 119.019 62.023 119.023 60.761C119.026 59.499 118.007 58.4727 116.745 58.4688C115.483 58.4648 114.456 59.4846 114.452 60.7466Z" fill="white"/>
<path d="M129.29 60.7935C129.286 62.0555 130.305 63.0818 131.567 63.0857C132.829 63.0896 133.856 62.0698 133.86 60.8079C133.864 59.5458 132.844 58.5196 131.582 58.5156C130.32 58.5116 129.294 59.5314 129.29 60.7935Z" fill="white"/>
<path d="M69.1278 76.168L92.137 76.2739L92.0602 92.9511L92.0441 96.4639L88.5476 92.9349L69.051 92.8452L69.1278 76.168Z" fill="url(#paint17_linear_3564_4048)"/>
<path d="M78.8347 85.2206C78.8316 86.1911 79.6159 86.9803 80.5865 86.9834C81.5571 86.9866 82.3463 86.2022 82.3494 85.2316C82.3524 84.2611 81.5682 83.4719 80.5976 83.4688C79.6271 83.4657 78.8378 84.25 78.8347 85.2206Z" fill="white"/>
<path d="M73.0632 85.203C73.0601 86.1735 73.8445 86.9628 74.815 86.9659C75.7855 86.969 76.5747 86.1847 76.5779 85.2141C76.5809 84.2435 75.7966 83.4543 74.826 83.4512C73.8556 83.4482 73.0663 84.2325 73.0632 85.203Z" fill="white"/>
<path d="M84.4736 85.2382C84.4705 86.2087 85.2549 86.9979 86.2254 87.0009C87.1959 87.004 87.9851 86.2197 87.9883 85.2492C87.9914 84.2786 87.207 83.4894 86.2364 83.4863C85.266 83.4832 84.4767 84.2675 84.4736 85.2382Z" fill="white"/>
<path d="M52.8146 109.869L71.292 109.954L71.2303 123.347L71.2173 126.168L68.4095 123.334L52.7529 123.262L52.8146 109.869Z" fill="url(#paint18_linear_3564_4048)"/>
<path d="M63.0319 118.127C63.5758 117.569 63.5642 116.675 63.006 116.131C62.4479 115.588 61.5544 115.599 61.0105 116.157C60.4666 116.715 60.4781 117.609 61.0363 118.153C61.5945 118.697 62.4879 118.685 63.0319 118.127Z" fill="white"/>
<path d="M55.9749 117.125C55.9724 117.905 56.6022 118.539 57.3816 118.541C58.161 118.544 58.7948 117.914 58.7972 117.134C58.7997 116.355 58.1699 115.721 57.3905 115.719C56.611 115.716 55.9773 116.346 55.9749 117.125Z" fill="white"/>
<path d="M65.1379 117.153C65.1355 117.932 65.7653 118.566 66.5447 118.568C67.324 118.571 67.9579 117.941 67.9603 117.162C67.9627 116.382 67.3329 115.749 66.5536 115.746C65.7742 115.744 65.1404 116.373 65.1379 117.153Z" fill="white"/>
<path d="M44.5062 136.161C45.9925 135.45 47.472 140.182 47.472 140.182C49.9984 143.52 53.5291 139.079 53.1837 144.069C52.5796 152.802 63.2352 146.815 58.3193 155.932C53.4034 165.049 62.6599 161.087 59.605 168.439C56.55 175.79 60.5096 184.558 55.913 180.955C55.913 180.955 51.8657 172.079 47.6916 169.333C43.5176 166.587 50.1923 163.329 48.8863 159.599C46.9895 154.182 42.4192 154.395 45.7144 148.573C49.0096 142.751 39.4534 138.577 44.5062 136.161Z" fill="url(#paint19_linear_3564_4048)"/>
<path d="M57.3686 177.614C55.3762 176.213 53.0443 166.448 52.9052 160.632C52.8339 157.653 51.9533 156.411 51.1763 155.316C50.4336 154.27 49.7921 153.365 50.1658 151.29C50.8798 147.323 49.0024 145.61 48.9834 145.593L49.2007 145.346C49.2843 145.419 51.2394 147.185 50.4901 151.348C50.141 153.288 50.7164 154.099 51.445 155.126C52.2095 156.203 53.1609 157.544 53.2346 160.624C53.3838 166.866 55.7679 176.086 57.5581 177.345L57.3686 177.614Z" fill="white"/>
<path d="M58.114 178.337C57.857 178.338 57.5776 178.308 57.2715 178.246C56.5036 178.091 56.0001 177.686 55.7749 177.042C55.2378 175.506 56.4823 173.01 57.4923 171.808C57.509 171.788 59.1997 169.721 59.0193 166.857C58.9891 166.377 58.9393 165.933 58.8953 165.541C58.7683 164.408 58.6766 163.589 59.1633 163.042C59.5923 162.56 60.4204 162.351 61.9324 162.344C64.5841 162.332 65.6326 161.234 66.475 160.352C66.8328 159.977 67.1707 159.623 67.5813 159.399C68.9027 158.678 70.3024 158.571 70.9095 159.147C71.1977 159.42 71.4412 159.956 70.9637 160.954C70.5272 161.866 69.9611 162.444 69.5062 162.908C68.8943 163.532 68.4899 163.945 68.7003 164.767C68.7497 164.96 68.8068 165.155 68.864 165.351C69.2728 166.749 69.7361 168.334 67.3432 169.409C66.8354 169.637 66.3727 169.819 65.9645 169.979C64.2941 170.635 63.2859 171.03 62.1477 173.433C61.9273 173.898 61.7328 174.339 61.5448 174.765C60.6475 176.799 59.9685 178.337 58.114 178.337ZM67.7394 159.688C67.3739 159.888 67.0678 160.208 66.7135 160.579C65.8279 161.507 64.7259 162.66 61.9341 162.674C60.5439 162.68 59.7653 162.861 59.4096 163.261C59.0205 163.698 59.1055 164.456 59.223 165.504C59.2673 165.9 59.3175 166.349 59.3483 166.837C59.5372 169.836 57.8183 171.932 57.745 172.019C56.7452 173.21 55.6127 175.579 56.086 176.933C56.2701 177.459 56.6909 177.793 57.3368 177.923C59.5903 178.378 60.2125 176.968 61.2433 174.632C61.4323 174.204 61.6277 173.761 61.8499 173.292C63.044 170.771 64.158 170.334 65.8442 169.673C66.2489 169.514 66.7077 169.334 67.2082 169.109C69.3393 168.151 68.9548 166.836 68.5478 165.443C68.4896 165.244 68.4315 165.046 68.3812 164.849C68.1247 163.847 68.6305 163.331 69.271 162.677C69.7316 162.207 70.2536 161.675 70.6665 160.812C70.8829 160.359 71.0614 159.745 70.683 159.386C70.1851 158.914 68.9195 159.044 67.7394 159.688Z" fill="url(#paint20_linear_3564_4048)"/>
<path d="M57.307 180.241L56.978 180.224C56.9942 179.914 57.4094 172.627 60.3353 170.494C63.5454 168.155 64.5575 165.64 65.0395 163.952C65.6075 161.963 68.4983 161.432 68.6211 161.41L68.6784 161.735C68.6504 161.74 65.8675 162.252 65.3563 164.043C64.8609 165.777 63.8215 168.361 60.5294 170.761C57.7289 172.802 57.311 180.167 57.307 180.241Z" fill="url(#paint21_linear_3564_4048)"/>
<path d="M63.997 143.515C61.9173 142.802 62.3494 146.81 61.4706 149.776C60.5918 152.742 51.6946 151.07 55.4292 158.496C59.1638 165.923 50.706 160.98 53.2323 167.461C55.7587 173.942 53.4521 180.873 56.1981 179.11C58.9442 177.347 57.7409 169.186 60.5968 168.216C63.4527 167.246 63.9188 166.115 61.0911 163.479C58.2635 160.843 68.5006 158.226 65.9742 152.902C63.4478 147.579 66.3997 144.339 63.997 143.515Z" fill="url(#paint22_linear_3564_4048)"/>
<path d="M57.4725 178.8C57.2109 177.691 54.9775 167.927 57.0615 166.747C58.8983 165.707 58.8531 161.661 58.5664 157.841C58.3128 154.459 62.6561 152.878 62.8412 152.812L62.9514 153.123C62.9085 153.138 58.6603 154.686 58.8951 157.816C59.1894 161.739 59.2209 165.903 57.2238 167.034C55.6412 167.93 57.0983 175.776 57.7932 178.724L57.4725 178.8Z" fill="white"/>
<path d="M62.2 175.322L59.2307 186.587H52.5952L49.626 175.322H62.2Z" fill="url(#paint23_linear_3564_4048)"/>
<path d="M62.1998 175.322C62.1998 175.322 55.6631 176.55 55.6631 186.587H52.5951L49.6257 175.322H62.1998Z" fill="url(#paint24_linear_3564_4048)"/>
<path d="M90.9994 155.922H77.5344V156.721H90.9994V155.922Z" fill="#E2D2CA"/>
<path d="M79.3388 195.15H80.5188V158.8H79.3388V195.15Z" fill="#706865"/>
<path d="M98.2515 155.695H88.8921V156.837H98.2515V155.695Z" fill="#CCBDB7"/>
<path d="M95.3438 145.957H91.7996V156.722H95.3438V145.957Z" fill="#998E89"/>
<path d="M124.561 156.734H72.7043V158.801H124.561V156.734Z" fill="#B59074"/>
<path d="M62.7516 144.224C62.7516 144.224 62.1844 152.178 63.7384 153.13C64.712 153.726 68.5937 155.737 68.4786 156.114C68.3635 156.491 66.2869 159.47 66.2869 159.47C66.2869 159.47 58.8307 154.56 58.5905 153.013C58.3555 151.501 58.9574 141.367 59.9822 140.9C60.7498 140.55 61.155 140.84 62.1223 141.558C63.4799 142.566 62.7516 144.224 62.7516 144.224Z" fill="#FFB555"/>
<path d="M71.9252 190.188C71.9252 190.188 71.6933 191.797 71.6644 192.039C71.6354 192.281 69.0852 191.897 69.0852 191.897L68.8787 189.981C68.8787 189.981 71.6064 189.961 71.9252 190.188Z" fill="#424773"/>
<path d="M71.6917 191.836C71.6917 191.836 72.4997 192.805 73.2813 193.228C74.0627 193.651 75.2909 193.818 75.7529 194.256C76.0865 194.571 76.9679 195.931 73.7222 195.904C70.4764 195.876 68.9115 196.096 68.5637 195.574C68.216 195.053 69.0668 191.727 69.0668 191.727C69.0668 191.727 69.8356 192.003 71.6917 191.836Z" fill="#EBEBEB"/>
<path d="M88.2646 190.204C88.2646 190.204 88.0326 191.813 88.0037 192.055C87.9747 192.297 85.4245 191.913 85.4245 191.913L85.218 189.997C85.218 189.997 87.9457 189.977 88.2646 190.204Z" fill="#424773"/>
<path d="M88.0309 191.851C88.0309 191.851 88.8389 192.821 89.6204 193.244C90.4018 193.666 93.2778 194.014 93.7399 194.451C94.0735 194.767 94.6282 196.038 90.0613 195.919C86.8165 195.835 85.2506 196.112 84.9028 195.59C84.5551 195.069 85.406 191.742 85.406 191.742C85.406 191.742 86.1302 192.038 88.0309 191.851Z" fill="#EBEBEB"/>
<path d="M63.6998 162.389C63.6998 162.389 72.9715 163.958 75.0656 164.286C77.1597 164.615 88.5144 167.441 89.9343 168.302C91.0647 168.987 89.3415 185.446 88.939 191.726H84.4666L84.1423 172.889C78.7755 173.023 74.9458 171.633 71.0377 172.227C67.1295 172.821 63.8714 173.664 61.3879 170.333C61.3879 170.333 61.2959 163.116 63.6998 162.389Z" fill="#424487"/>
<path d="M72.8384 191.742L68.4801 191.472L68.0552 172.89C65.7448 172.947 64.9529 172.801 63.0832 172.574L59.5642 164.395C62.6481 165.011 72.5291 167.503 73.8467 168.302C74.9771 168.988 73.2409 185.462 72.8384 191.742Z" fill="#424487"/>
<path d="M67.9676 127.635C67.9676 127.635 71.3665 126.696 72.6632 129.334C73.96 131.973 73.3721 136.975 71.6591 137.445C69.946 137.916 67.4827 137.374 66.7716 135.732C66.0605 134.09 65.4932 131.756 65.6635 130.245C65.8337 128.734 67.0651 127.996 67.9676 127.635Z" fill="#EEA886"/>
<path d="M70.7711 136.918C70.7711 136.918 70.7338 138.925 70.955 139.352C71.1762 139.78 66.2222 139.673 66.2222 139.673C66.2222 139.673 67.003 137.263 66.56 135.21C66.1216 133.178 70.7711 136.918 70.7711 136.918Z" fill="#EEA886"/>
<path d="M66.2931 134.452C66.2931 134.452 66.5578 134.99 67.8402 134.903C69.1225 134.816 70.8138 133.269 71.3582 133.131C71.9026 132.993 71.9349 132.683 71.9349 132.683L72.223 133.195L72.7809 133.28C72.7809 133.28 72.4017 131.73 73.2276 131.184C74.0535 130.638 72.8556 126.241 68.6743 127.301C68.6743 127.301 65.4832 127.886 65.4403 129.667C65.3975 131.449 65.6736 133.508 66.2931 134.452Z" fill="#3A3F47"/>
<path d="M71.2155 139.3C71.2155 139.3 71.2017 138.483 70.8312 138.404C70.4607 138.326 66.9369 137.841 66.4822 138.02L66.2871 139.099C66.2871 139.099 67.1633 139.638 71.2155 139.3Z" fill="#E2D2CA"/>
<path d="M72.235 132.318C72.1399 131.648 71.3783 130.878 70.9421 131.922C70.5059 132.965 71.2366 134.485 71.7259 134.403C72.2152 134.322 72.364 133.227 72.235 132.318Z" fill="#EEA886"/>
<path d="M85.9745 148.958C85.9728 148.957 85.9709 148.957 85.9685 148.957C85.9939 148.969 85.9976 148.969 85.9745 148.958Z" fill="#323657"/>
<path d="M66.9763 128.112C66.9763 128.112 62.8322 127.917 66.2531 134.386L66.9763 128.112Z" fill="#3A3F47"/>
<path d="M57.7429 193.944L58.0512 194.812L71.0768 190.776L70.4526 189.02L57.7429 193.944Z" fill="#A19691"/>
<path d="M71.5237 175.998H70.0432V190.16H71.5237V175.998Z" fill="#A19691"/>
<path d="M75.1494 175.244H66.4172V176.079H75.1494V175.244Z" fill="#5E5854"/>
<path d="M83.9384 193.945L83.63 194.812L70.6045 190.776L71.1769 188.91L83.9384 193.945Z" fill="#A19691"/>
<path d="M74.7609 194.72V195.728L70.6045 190.776L71.1769 188.91L74.7609 194.72Z" fill="#A19691"/>
<path d="M85.1556 195.151C85.1556 195.823 84.6106 196.368 83.9383 196.368C83.266 196.368 82.7209 195.823 82.7209 195.151C82.7209 194.479 83.266 193.934 83.9383 193.934C84.6106 193.934 85.1556 194.479 85.1556 195.151Z" fill="#BFB2AC"/>
<path d="M74.8644 195.151C74.8644 195.823 74.3193 196.368 73.647 196.368C72.9747 196.368 72.4297 195.823 72.4297 195.151C72.4297 194.479 72.9746 193.934 73.647 193.934C74.3193 193.934 74.8644 194.479 74.8644 195.151Z" fill="#BFB2AC"/>
<path d="M58.9602 195.151C58.9602 195.823 58.4153 196.368 57.7429 196.368C57.0706 196.368 56.5256 195.823 56.5256 195.151C56.5256 194.479 57.0706 193.934 57.7429 193.934C58.4152 193.934 58.9602 194.479 58.9602 195.151Z" fill="#BFB2AC"/>
<path d="M79.6236 175.245H62.0575C61.1957 175.245 60.4971 174.546 60.4971 173.684V173.644C60.4971 172.783 61.1957 172.084 62.0575 172.084H79.6236C80.4853 172.084 81.1839 172.783 81.1839 173.644V173.684C81.184 174.546 80.4853 175.245 79.6236 175.245Z" fill="#292C47"/>
<path d="M117.927 158.801H116.747V195.151H117.927V158.801Z" fill="#706865"/>
<path d="M107.317 151.14H79.8263C78.9666 151.14 78.2698 150.443 78.2698 149.584V131.107C78.2698 130.248 78.9667 129.551 79.8263 129.551H107.317C108.177 129.551 108.874 130.248 108.874 131.107V149.584C108.874 150.444 108.177 151.14 107.317 151.14Z" fill="#B8ABA5"/>
<path d="M107.675 130.719H79.4683V147.758H107.675V130.719Z" fill="#F5F7FF"/>
<path d="M99.9074 156.762V156.378C99.9074 156.378 99.3673 153.988 95.5467 153.988C91.7263 153.988 91.8036 156.762 91.8036 156.762H99.9074Z" fill="#998E89"/>
<path d="M91.7574 154.343C91.7574 154.343 92.5873 154.279 92.8914 154.096C93.1955 153.912 95.0147 152.689 95.4421 152.884C95.8695 153.08 98.7132 153.952 98.6144 154.367C98.5157 154.783 98.2526 154.743 98.052 154.67C97.8513 154.596 95.7863 154.162 95.604 154.236C95.604 154.236 97.6324 154.975 97.6407 155.515C97.6488 156.055 97.2162 156.187 97.0238 156.391C96.8315 156.595 96.6005 157.102 96.0778 157.141C95.5552 157.18 93.0045 156.292 92.4794 156.252C91.9544 156.212 90.9826 156.285 90.9165 156.199C90.8505 156.114 91.7574 154.343 91.7574 154.343Z" fill="#EEA886"/>
<path d="M76.647 140.433C74.0007 139.968 71.2152 139.3 71.2152 139.3L66.2867 139.1C66.2867 139.1 61.7634 140.095 59.9821 140.9C59.8131 140.976 59.8124 144.935 59.3486 145.973L60.8255 149.089C60.8255 149.089 61.6787 155.261 61.8557 158.006C61.9371 159.266 61.6259 170.185 61.6259 170.185C61.6259 170.185 62.0686 170.403 65.4323 170.774C68.796 171.145 77.2003 170.64 77.2533 170.243C77.3064 169.845 75.6256 155.45 75.5512 154.704C75.437 153.56 75.8817 148.273 75.8817 148.273C76.5155 149.124 78.1311 152.968 79.8151 154.797C80.8059 155.873 85.7109 156.533 86.6355 156.564C88.648 156.631 92.3197 157.032 92.4269 156.836C92.5126 156.719 92.7467 153.577 92.5166 153.5C92.3151 153.433 85.4975 153.041 83.7508 152.114C83.1118 151.775 81.2015 147.609 81.2015 147.609C81.2015 147.609 78.1069 141.089 76.647 140.433Z" fill="#FFB555"/>
<path d="M66.9345 169.87H58.6606C57.006 169.87 55.6646 168.528 55.6646 166.874V153.107C55.6646 151.453 57.006 150.111 58.6606 150.111H66.9345C68.5892 150.111 69.9306 151.453 69.9306 153.107V166.874C69.9306 168.528 68.5891 169.87 66.9345 169.87Z" fill="#292C47"/>
<path d="M67.4027 174.459C65.2998 174.459 63.5939 173.753 62.332 172.359C59.4801 169.211 59.9927 163.676 60.0158 163.442C60.0591 163.006 60.4485 162.687 60.8839 162.731C61.32 162.774 61.6385 163.162 61.5955 163.598C61.5894 163.661 61.135 168.678 63.5115 171.297C64.4728 172.357 65.7456 172.872 67.4027 172.872C67.841 172.872 68.1964 173.227 68.1964 173.665C68.1965 174.104 67.8411 174.459 67.4027 174.459Z" fill="#292C47"/>
<path d="M89.5076 132.976H81.6912C81.568 132.976 81.468 132.877 81.468 132.753V132.299C81.468 132.176 81.568 132.076 81.6912 132.076H89.5076C89.6308 132.076 89.7307 132.176 89.7307 132.299V132.753C89.7307 132.877 89.6308 132.976 89.5076 132.976Z" fill="#DFE1E8"/>
<path d="M89.5076 134.908H81.6912C81.568 134.908 81.468 134.808 81.468 134.685V134.231C81.468 134.108 81.568 134.008 81.6912 134.008H89.5076C89.6308 134.008 89.7307 134.108 89.7307 134.231V134.685C89.7307 134.808 89.6308 134.908 89.5076 134.908Z" fill="#DFE1E8"/>
<path d="M88.9803 146.4H82.2184C81.804 146.4 81.468 146.064 81.468 145.65V136.971C81.468 136.557 81.804 136.221 82.2184 136.221H88.9803C89.3947 136.221 89.7306 136.557 89.7306 136.971V145.65C89.7306 146.064 89.3947 146.4 88.9803 146.4Z" fill="#DFE1E8"/>
<path d="M104.925 146.401H92.5867C91.9307 146.401 91.3989 145.869 91.3989 145.213V133.264C91.3989 132.608 91.9307 132.076 92.5867 132.076H104.925C105.581 132.076 106.113 132.608 106.113 133.264V145.213C106.113 145.869 105.581 146.401 104.925 146.401Z" fill="#DFE1E8"/>
<path d="M176.719 152.655C176.719 152.655 176.545 153.157 176.583 153.522C176.614 153.812 176.465 154.291 176.411 154.549C176.356 154.808 176.242 155.944 176.285 156.222C176.303 156.335 176.689 156.984 176.7 157.219C176.71 157.454 176.672 157.935 176.878 157.916C177.083 157.897 177.235 157.474 177.235 157.474C177.235 157.474 177.258 157.687 177.443 157.726C177.801 157.801 177.947 157.622 177.947 157.622C177.947 157.622 178.114 157.822 178.272 157.816C178.62 157.802 178.757 157.625 178.757 157.625C178.757 157.625 178.93 157.718 179.16 157.657C179.454 157.579 179.527 157.288 179.527 157.288C179.527 157.288 179.917 157.274 179.99 157.068C180.063 156.863 180.006 156.677 180.019 156.504C180.032 156.332 179.707 154.879 179.012 153.945C178.317 153.011 178.722 151.836 178.722 151.836L176.719 152.655Z" fill="#EEA886"/>
<path d="M176.554 159.735L176.076 157.594C175.999 157.25 176.217 156.906 176.562 156.83L179.956 156.072C180.301 155.995 180.644 156.213 180.721 156.558L181.198 158.698C181.275 159.043 181.058 159.386 180.713 159.463L177.318 160.22C176.974 160.297 176.631 160.079 176.554 159.735ZM176.655 157.249C176.542 157.274 176.47 157.387 176.496 157.501L176.973 159.641C176.999 159.754 177.111 159.826 177.225 159.801L180.619 159.043C180.733 159.018 180.804 158.905 180.779 158.792L180.301 156.651C180.276 156.538 180.163 156.466 180.05 156.492L176.655 157.249Z" fill="#0E1E2B"/>
<path d="M174.478 169.467L187.213 166.625L185.177 157.501L172.442 160.343L174.478 169.467Z" fill="#54281A"/>
<path d="M173.623 165.629L186.358 162.787L185.178 157.498L172.443 160.34L173.623 165.629Z" fill="#873F2B"/>
<path d="M151.543 135.056C151.543 135.056 151.227 134.472 151.295 134.363C151.364 134.254 151.587 134.139 152.078 134.71C152.569 135.28 152.636 135.499 152.886 135.72C153.135 135.942 151.543 135.056 151.543 135.056Z" fill="#EFAA88"/>
<path d="M151.366 138.152L152.543 137.73L149.965 130.526L148.788 130.947L151.366 138.152Z" fill="#6B6B6B"/>
<path d="M150.41 136.163C150.41 136.163 150.063 136.532 150.282 136.895C150.501 137.258 150.337 137.441 150.648 137.66C150.958 137.879 150.666 138.317 151.013 138.427C151.318 138.523 152.136 138.35 152.537 138.396C152.562 138.398 152.586 138.402 152.607 138.407C152.632 138.412 152.654 138.419 152.674 138.427C152.984 138.554 154.17 138.901 154.462 138.883C154.754 138.865 155.283 137.219 155.283 137.219C155.283 137.219 154.572 136.948 153.86 136.437C153.216 135.975 152.363 135.019 151.855 134.909C151.801 134.897 151.751 134.895 151.706 134.904C151.232 134.995 150.246 135.543 150.209 135.707C150.173 135.871 150.41 136.163 150.41 136.163Z" fill="#EFAA88"/>
<path d="M150.41 136.163C150.41 136.163 150.063 136.532 150.282 136.895C150.501 137.258 150.337 137.441 150.647 137.66C150.958 137.879 150.666 138.317 151.012 138.427C151.318 138.523 152.136 138.35 152.537 138.396C152.335 138.362 151.759 138.258 151.712 138.159C151.217 137.111 151.822 134.983 151.822 134.983L151.855 134.909C151.801 134.897 151.751 134.895 151.706 134.904C151.232 134.995 150.246 135.543 150.209 135.707C150.173 135.871 150.41 136.163 150.41 136.163Z" fill="#E09F80"/>
<path d="M149.451 131.778C149.516 131.99 149.633 132.142 149.711 132.117C149.79 132.093 149.8 131.902 149.735 131.69C149.669 131.478 149.552 131.326 149.474 131.35C149.395 131.375 149.385 131.566 149.451 131.778Z" fill="#C4C4C4"/>
<path d="M154.799 190.2C154.799 190.2 154.073 191.469 153.59 191.783C153.106 192.096 150.848 194.367 150.164 194.408C149.48 194.45 148.137 194.366 148.047 194.643C147.956 194.92 147.747 196.292 149.64 196.58C151.533 196.868 152.037 196.896 152.558 196.491C153.08 196.087 155.063 194.984 155.56 195.06L155.2 197.426L155.697 197.502C155.697 197.502 156.617 194.64 157.081 194.13C157.546 193.619 157.461 191.476 156.621 190.477C155.78 189.477 154.799 190.2 154.799 190.2Z" fill="#EEA886"/>
<path d="M150.164 194.409C150.164 194.409 152.234 194.966 153.217 194.39C154.2 193.813 155.543 192.239 157.334 192.432C157.334 192.432 157.87 193.334 156.582 195.073C156.582 195.073 155.727 197.144 155.697 197.502L155.2 197.427L155.56 195.061C155.56 195.061 153.67 195.621 152.257 196.834C152.257 196.834 148.543 196.947 148.002 195.726C148.002 195.726 147.697 195.111 147.935 194.578C148.174 194.046 150.164 194.409 150.164 194.409Z" fill="#1F3F59"/>
<path d="M183.036 188.08C183.036 188.08 182.922 189.538 182.619 190.028C182.315 190.518 181.243 193.535 180.642 193.864C180.041 194.194 178.791 194.692 178.827 194.98C178.863 195.269 179.26 196.599 181.095 196.052C182.929 195.504 183.397 195.315 183.696 194.726C183.995 194.137 185.318 192.294 185.8 192.15L186.484 194.444L186.966 194.3C186.966 194.3 186.576 191.319 186.778 190.659C186.981 190 185.989 188.098 184.802 187.553C183.616 187.008 183.036 188.08 183.036 188.08Z" fill="#EEA886"/>
<path d="M180.642 193.864C180.642 193.864 182.751 193.484 183.394 192.543C184.038 191.602 184.58 189.605 186.282 189.016C186.282 189.016 187.152 189.602 186.729 191.725C186.729 191.725 186.84 193.962 186.965 194.3L186.484 194.443L185.8 192.15C185.8 192.15 184.329 193.463 183.57 195.163C183.57 195.163 180.259 196.85 179.25 195.978C179.25 195.978 178.71 195.552 178.699 194.968C178.687 194.385 180.642 193.864 180.642 193.864Z" fill="#1F3F59"/>
<path d="M162.364 158.924C162.364 158.924 159.368 167.321 158.893 169.144C158.418 170.966 158.487 172.877 158.212 173.641C157.936 174.404 154.567 190.581 154.567 190.581C154.567 190.581 155.721 191.5 156.818 190.871C156.818 190.871 161.565 180.689 162.353 178.84C163.092 177.102 162.624 172.19 163.865 171.02C165.107 169.85 172.768 159.472 172.564 155.183C172.361 150.893 162.364 158.924 162.364 158.924Z" fill="#EEA987"/>
<path d="M182.404 187.861C182.404 187.861 183.509 189.832 183.584 190.184C183.658 190.535 185.171 190.369 185.507 188.998C185.507 188.998 184.219 186.508 184.258 186.44C184.296 186.372 182.404 187.861 182.404 187.861Z" fill="#EEA987"/>
<path d="M166.981 159.519C166.981 159.519 170.488 168.246 171.37 169.91C172.251 171.575 173.555 172.423 173.868 173.172C174.181 173.921 182.465 187.969 182.465 187.969C182.465 187.969 183.919 187.778 184.302 186.573C184.302 186.573 180.864 176.192 180.194 174.297C179.564 172.516 176.139 169.12 176.263 167.419C176.387 165.718 174.095 154.254 171.046 151.231C167.997 148.207 166.981 159.519 166.981 159.519Z" fill="#EEA987"/>
<path d="M163.486 154.944C163.486 154.944 159.205 165.593 158.352 168.549C158.352 168.549 172.637 173.138 179.401 171.263C179.401 171.263 175.45 162.485 175.33 158.942C175.216 155.574 172.904 152.883 172.904 152.883L163.486 154.944Z" fill="#1A2C4A"/>
<path d="M177.155 157.35C177.155 157.35 176.861 156.046 177.143 155.685C177.425 155.323 177.558 155.787 177.558 155.787C177.558 155.787 177.419 155.331 177.776 155.177C178.132 155.024 178.258 155.576 178.258 155.576C178.258 155.576 178.247 155.201 178.649 155.18C179.051 155.159 179.051 155.642 179.051 155.642C179.051 155.642 179.331 155.1 179.658 155.475C180.209 156.108 179.99 157.068 179.99 157.068C179.99 157.068 179.915 157.294 179.527 157.288C179.527 157.288 179.381 157.856 178.757 157.625C178.757 157.625 178.254 158.081 177.947 157.622C177.947 157.622 177.384 158.076 177.155 157.35Z" fill="#DB9C7C"/>
<path d="M167.357 129.649C167.357 129.649 166.616 131.389 167.194 132.85C167.772 134.311 169.249 135.605 169.682 136.122C170.115 136.638 173.713 142.273 173.741 142.513C173.769 142.752 174.335 146.291 175.041 148.435C175.748 150.578 176.124 154.056 176.124 154.056L178.878 153.434C178.878 153.434 178.275 143.973 177.23 141.979C176.113 139.848 173.152 133.276 173.152 133.276C173.152 133.276 170.627 127.641 167.357 129.649Z" fill="#285173"/>
<path d="M169.503 129.268C169.503 129.268 166.981 131.415 166.024 132.367C165.067 133.319 161.916 136.736 161.577 137.818C161.238 138.899 162.195 140.555 162.867 141.362C163.486 142.104 162.835 143.687 162.864 144.613C162.893 145.54 162.81 154.125 163.076 155.067C163.343 156.009 171.445 157.804 174.53 154.874C174.53 154.874 172.14 148.628 171.53 147.399C170.893 146.117 172.17 139.583 172.808 138.043C173.445 136.504 172.926 129.985 169.503 129.268Z" fill="#285173"/>
<path d="M169.739 129.283C169.604 128.169 169.915 126.594 169.915 126.594C169.915 126.594 165.775 128.189 166.437 128.738C166.61 128.881 166.719 129.142 166.785 129.449C166.975 130.322 166.823 131.574 166.823 131.574L165.386 133.075C164.84 133.612 169.805 129.824 169.739 129.283Z" fill="#EEA886"/>
<path d="M166.438 128.737C166.61 128.88 166.719 129.141 166.785 129.448C168.405 128.616 169.263 127.264 169.289 127.223C168.37 128.216 166.438 128.737 166.438 128.737Z" fill="#A77860"/>
<path d="M170.469 131.965C171.002 132.303 171.836 133.565 170.914 135.079C169.962 136.642 168.249 138.35 167.678 139.185C167.106 140.019 164.143 144.191 163.488 143.96C162.833 143.73 161.76 143.038 160.301 142.429C158.903 141.847 153.083 138.809 153.083 138.809L154.243 136.583C154.243 136.583 155.553 137.123 156.703 137.639C157.853 138.155 160.48 138.992 162.803 139.773C162.803 139.773 165.533 136.177 165.936 135.482C166.339 134.786 168.074 130.445 170.469 131.965Z" fill="#2D5C82"/>
<path d="M169.713 128.971L166.324 130.995L166.414 131.851L164.888 133.559C164.888 133.559 168.247 130.941 170.123 129.472L169.713 128.971Z" fill="#EDDAD3"/>
<path d="M169.675 118.603C169.675 118.603 171.615 116.065 174.028 117.843C176.442 119.621 174.899 124.938 176.768 125.791C178.637 126.644 184.317 124.067 184.788 128.059C184.788 128.059 183.028 125.791 180.47 127.133C177.911 128.476 174.192 128.585 173.629 124.775C173.067 120.964 171.506 122.488 170.998 121.472C170.49 120.456 169.675 118.603 169.675 118.603Z" fill="#303030"/>
<path d="M169.919 118.531C169.919 118.531 171.065 119.082 171.285 121.475C171.285 121.475 172.152 118.946 169.919 118.531Z" fill="#FAB46C"/>
<path d="M163.386 119.968C163.386 119.968 162.504 120.939 162.923 123.686C162.923 123.686 162.765 125.879 162.445 126.273C162.126 126.666 163.363 126.76 163.503 127.029C163.644 127.298 163.938 128.573 164.827 129.313C165.716 130.054 169.878 127.557 170.034 126.231C170.191 124.905 172.919 119.143 168.245 119.065C163.572 118.986 163.386 119.968 163.386 119.968Z" fill="#EEA886"/>
<path d="M162.822 122.732C162.822 122.732 162.155 117.286 168.018 117.914C173.604 118.511 170.497 125.036 169.832 127.093C169.832 127.093 169.841 123.875 167.179 123.875C164.518 123.875 163.999 123.308 162.822 122.732Z" fill="#303030"/>
<path d="M167.58 123.059C167.89 122.468 169.042 122.732 168.946 123.618C168.849 124.503 167.97 125.418 167.651 125.003C167.332 124.589 167.125 123.927 167.58 123.059Z" fill="#EEA987"/>
<defs>
<linearGradient id="paint0_linear_3564_4048" x1="161.143" y1="73.2747" x2="161.143" y2="204.996" gradientUnits="userSpaceOnUse">
<stop stop-color="#3E589E"/>
<stop offset="1" stop-color="#B8EBFF"/>
</linearGradient>
<linearGradient id="paint1_linear_3564_4048" x1="173.658" y1="123.075" x2="179.915" y2="123.075" gradientUnits="userSpaceOnUse">
<stop stop-color="#8EC3F9"/>
<stop offset="1" stop-color="#B8EBFF"/>
</linearGradient>
<linearGradient id="paint2_linear_3564_4048" x1="99.1288" y1="73.2747" x2="99.1288" y2="204.996" gradientUnits="userSpaceOnUse">
<stop stop-color="#3E589E"/>
<stop offset="1" stop-color="#B8EBFF"/>
</linearGradient>
<linearGradient id="paint3_linear_3564_4048" x1="86.6141" y1="123.075" x2="80.3572" y2="123.075" gradientUnits="userSpaceOnUse">
<stop stop-color="#8EC3F9"/>
<stop offset="1" stop-color="#B8EBFF"/>
</linearGradient>
<linearGradient id="paint4_linear_3564_4048" x1="90.8229" y1="123.076" x2="169.324" y2="123.076" gradientUnits="userSpaceOnUse">
<stop stop-color="#8EC3F9"/>
<stop offset="1" stop-color="#B8EBFF"/>
</linearGradient>
<linearGradient id="paint5_linear_3564_4048" x1="130.073" y1="108.731" x2="130.073" y2="158.187" gradientUnits="userSpaceOnUse">
<stop stop-color="#3E589E"/>
<stop offset="1" stop-color="#B8EBFF"/>
</linearGradient>
<linearGradient id="paint6_linear_3564_4048" x1="130.073" y1="108.137" x2="130.073" y2="187.437" gradientUnits="userSpaceOnUse">
<stop stop-color="#3E589E"/>
<stop offset="1" stop-color="#B8EBFF"/>
</linearGradient>
<linearGradient id="paint7_linear_3564_4048" x1="131.885" y1="98.0297" x2="119.301" y2="60.941" gradientUnits="userSpaceOnUse">
<stop stop-color="#3E589E"/>
<stop offset="1" stop-color="#B8EBFF"/>
</linearGradient>
<linearGradient id="paint8_linear_3564_4048" x1="97.9742" y1="175.078" x2="216.967" y2="175.078" gradientUnits="userSpaceOnUse">
<stop stop-color="#617AE0"/>
<stop offset="1" stop-color="#B8EBFF"/>
</linearGradient>
<linearGradient id="paint9_linear_3564_4048" x1="130.073" y1="228.515" x2="130.073" y2="153.769" gradientUnits="userSpaceOnUse">
<stop stop-color="#8EC3F9"/>
<stop offset="1" stop-color="#B8EBFF"/>
</linearGradient>
<linearGradient id="paint10_linear_3564_4048" x1="151.801" y1="74.9958" x2="151.801" y2="122.126" gradientUnits="userSpaceOnUse">
<stop stop-color="#8EC3F9"/>
<stop offset="1" stop-color="#B8EBFF"/>
</linearGradient>
<linearGradient id="paint11_linear_3564_4048" x1="108.346" y1="74.9958" x2="108.346" y2="122.126" gradientUnits="userSpaceOnUse">
<stop stop-color="#8EC3F9"/>
<stop offset="1" stop-color="#B8EBFF"/>
</linearGradient>
<linearGradient id="paint12_linear_3564_4048" x1="132.731" y1="220.423" x2="98.7913" y2="122.263" gradientUnits="userSpaceOnUse">
<stop stop-color="#8EC3F9"/>
<stop offset="1" stop-color="#B8EBFF"/>
</linearGradient>
<linearGradient id="paint13_linear_3564_4048" x1="133.512" y1="202.789" x2="167.452" y2="104.63" gradientUnits="userSpaceOnUse">
<stop stop-color="#8EC3F9"/>
<stop offset="1" stop-color="#B8EBFF"/>
</linearGradient>
<linearGradient id="paint14_linear_3564_4048" x1="130.073" y1="141.359" x2="130.073" y2="219.149" gradientUnits="userSpaceOnUse">
<stop stop-color="#40CDE6"/>
<stop offset="1" stop-color="#4088E6"/>
</linearGradient>
<linearGradient id="paint15_linear_3564_4048" x1="174.501" y1="40.3689" x2="174.501" y2="103.216" gradientUnits="userSpaceOnUse">
<stop stop-color="#40D5E6"/>
<stop offset="1" stop-color="#5577FF"/>
</linearGradient>
<linearGradient id="paint16_linear_3564_4048" x1="124.245" y1="22.124" x2="124.245" y2="91.447" gradientUnits="userSpaceOnUse">
<stop stop-color="#40D5E6"/>
<stop offset="1" stop-color="#5577FF"/>
</linearGradient>
<linearGradient id="paint17_linear_3564_4048" x1="80.594" y1="55.4992" x2="80.594" y2="108.811" gradientUnits="userSpaceOnUse">
<stop stop-color="#40D5E6"/>
<stop offset="1" stop-color="#5577FF"/>
</linearGradient>
<linearGradient id="paint18_linear_3564_4048" x1="62.0224" y1="93.2712" x2="62.0224" y2="136.083" gradientUnits="userSpaceOnUse">
<stop stop-color="#40D5E6"/>
<stop offset="1" stop-color="#5577FF"/>
</linearGradient>
<linearGradient id="paint19_linear_3564_4048" x1="43" y1="158.939" x2="60.2382" y2="158.939" gradientUnits="userSpaceOnUse">
<stop stop-color="#40D5E6"/>
<stop offset="1" stop-color="#5577FF"/>
</linearGradient>
<linearGradient id="paint20_linear_3564_4048" x1="55.6456" y1="168.557" x2="71.2343" y2="168.557" gradientUnits="userSpaceOnUse">
<stop stop-color="#40D5E6"/>
<stop offset="1" stop-color="#5577FF"/>
</linearGradient>
<linearGradient id="paint21_linear_3564_4048" x1="56.978" y1="170.826" x2="68.6784" y2="170.826" gradientUnits="userSpaceOnUse">
<stop stop-color="#40D5E6"/>
<stop offset="1" stop-color="#5577FF"/>
</linearGradient>
<linearGradient id="paint22_linear_3564_4048" x1="52.7528" y1="161.41" x2="66.379" y2="161.41" gradientUnits="userSpaceOnUse">
<stop stop-color="#40D5E6"/>
<stop offset="1" stop-color="#5577FF"/>
</linearGradient>
<linearGradient id="paint23_linear_3564_4048" x1="49.626" y1="180.955" x2="62.2" y2="180.955" gradientUnits="userSpaceOnUse">
<stop stop-color="#FF9340"/>
<stop offset="1" stop-color="#FFCE45"/>
</linearGradient>
<linearGradient id="paint24_linear_3564_4048" x1="49.6258" y1="180.955" x2="62.1998" y2="180.955" gradientUnits="userSpaceOnUse">
<stop stop-color="#C97332"/>
<stop offset="1" stop-color="#FFCE45"/>
</linearGradient>
</defs>
</svg>
