<svg width="246" height="246" viewBox="0 0 246 246" fill="none" xmlns="http://www.w3.org/2000/svg">
<rect width="246" height="246" rx="123" fill="#BCE1E5" fill-opacity="0.31"/>
<path d="M194.943 154.459H173.062C176.953 154.459 180.108 150.622 180.108 145.89C180.108 141.157 176.953 137.32 173.062 137.32H190.122C194.014 137.32 197.169 133.484 197.169 128.751C197.169 124.018 194.014 120.182 190.122 120.182H186.904C189.01 118.7 190.431 115.937 190.431 112.766C190.431 109.193 188.633 106.134 186.078 104.847H194.325C198.217 104.847 201.372 101.011 201.372 96.278C201.372 91.5452 198.217 87.7085 194.325 87.7085H172.444C176.335 87.7085 179.49 83.8719 179.49 79.1395C179.49 74.4067 176.335 70.5705 172.444 70.5705H189.504C193.396 70.5705 196.55 66.7338 196.55 62.0011C196.55 57.2683 193.396 53.4316 189.504 53.4316H51.6019C47.7103 53.4316 44.5554 57.2683 44.5554 62.0011C44.5554 66.7338 47.7107 70.5705 51.6019 70.5705H60.5036C56.6116 70.5705 53.4563 74.4067 53.4563 79.1395C53.4563 83.8719 56.6116 87.7085 60.5036 87.7085H56.4236C52.5317 87.7085 49.3764 91.5452 49.3764 96.278C49.3764 101.011 52.5317 104.847 56.4236 104.847H68.7504C66.195 106.134 64.3967 109.193 64.3967 112.766C64.3967 115.937 65.8175 118.7 67.924 120.182H52.2203C48.3283 120.182 45.1738 124.018 45.1738 128.751C45.1738 133.484 48.3283 137.32 52.2203 137.32H61.1212C57.23 137.32 54.0747 141.157 54.0747 145.89C54.0747 150.622 57.23 154.459 61.1212 154.459H57.042C53.1505 154.459 49.9948 158.295 49.9948 163.028C49.9948 167.761 53.1505 171.597 57.042 171.597H69.3692C66.8138 172.884 65.0147 175.943 65.0147 179.516C65.0147 184.249 68.17 188.085 72.0612 188.085H184.003C187.895 188.085 191.049 184.249 191.049 179.516C191.049 175.943 189.251 172.884 186.696 171.597H194.944C198.835 171.597 201.99 167.761 201.99 163.028C201.99 158.295 198.834 154.459 194.943 154.459Z" fill="#BCE1E5"/>
<path d="M75.4717 194.497C75.4717 191.214 96.3478 188.553 122.099 188.553C147.85 188.553 167.776 192.414 167.776 195.697C167.776 198.979 147.85 200.441 122.099 200.441C96.3478 200.441 75.4717 197.78 75.4717 194.497Z" fill="#C0C2C4"/>
<path d="M81.8265 146.363L73.5645 151.521V197.799L81.8265 192.873V146.363Z" fill="#3E0D00"/>
<path d="M175.212 146.357L166.951 151.521V197.798L175.212 192.868V146.357Z" fill="#3E0D00"/>
<path d="M166.95 151.521H73.5645V154.825H166.95V151.521Z" fill="#582100"/>
<path d="M81.8209 146.363L73.5645 151.521H166.95L175.208 146.363H81.8209Z" fill="#71300D"/>
<path d="M166.95 151.521H165.704V197.799H166.95V151.521Z" fill="#572000"/>
<path d="M74.8113 151.521H73.5645V197.799H74.8113V151.521Z" fill="#572000"/>
<path d="M143.007 193.746C143.007 194.862 142.104 195.767 140.987 195.767C139.872 195.767 138.967 194.862 138.967 193.746C138.967 192.631 139.872 191.727 140.987 191.727C142.104 191.727 143.007 192.631 143.007 193.746Z" fill="#00010D"/>
<path d="M140.987 186.711V192.171" stroke="#00010D" stroke-width="3.6881" stroke-miterlimit="10"/>
<path d="M152.138 141.172H149.575V162.456H152.138V141.172Z" fill="#28313B"/>
<path d="M154.208 144.152C154.208 144.771 153.576 145.273 152.797 145.273H148.916C148.138 145.273 147.506 144.771 147.506 144.152C147.506 143.533 148.138 143.031 148.916 143.031H152.797C153.576 143.031 154.208 143.533 154.208 144.152Z" fill="#1B232D"/>
<path d="M154.208 147.053C154.208 147.672 153.576 148.174 152.797 148.174H148.916C148.138 148.174 147.506 147.672 147.506 147.053C147.506 146.433 148.138 145.932 148.916 145.932H152.797C153.576 145.932 154.208 146.433 154.208 147.053Z" fill="#1B232D"/>
<path d="M154.208 149.955C154.208 150.574 153.576 151.076 152.797 151.076H148.916C148.138 151.076 147.506 150.574 147.506 149.955C147.506 149.336 148.138 148.834 148.916 148.834H152.797C153.576 148.834 154.208 149.336 154.208 149.955Z" fill="#1B232D"/>
<path d="M154.208 152.832C154.208 153.451 153.576 153.953 152.797 153.953H148.916C148.138 153.953 147.506 153.451 147.506 152.832C147.506 152.213 148.138 151.711 148.916 151.711H152.797C153.576 151.711 154.208 152.213 154.208 152.832Z" fill="#1B232D"/>
<path d="M154.208 155.734C154.208 156.353 153.576 156.855 152.797 156.855H148.916C148.138 156.855 147.506 156.353 147.506 155.734C147.506 155.115 148.138 154.613 148.916 154.613H152.797C153.576 154.613 154.208 155.115 154.208 155.734Z" fill="#1B232D"/>
<path d="M154.208 158.395C154.208 159.014 153.576 159.515 152.797 159.515H148.916C148.138 159.515 147.506 159.014 147.506 158.395C147.506 157.776 148.138 157.273 148.916 157.273H152.797C153.576 157.273 154.208 157.776 154.208 158.395Z" fill="#1B232D"/>
<path d="M153.906 164.596C153.906 167.045 151.92 169.031 149.471 169.031H132.504C130.055 169.031 128.069 167.045 128.069 164.596C128.069 162.145 130.055 160.16 132.504 160.16H149.471C151.92 160.16 153.906 162.145 153.906 164.596Z" fill="#D83633"/>
<path d="M149.471 160.16H149.439C149.619 160.643 149.722 161.163 149.722 161.708C149.722 164.158 147.736 166.144 145.287 166.144H128.353C128.981 167.828 130.6 169.031 132.504 169.031H149.47C151.92 169.031 153.906 167.045 153.906 164.596C153.906 162.145 151.92 160.16 149.471 160.16Z" fill="#D1D3D4"/>
<path d="M160.131 136.746C160.131 140.011 157.483 142.659 154.218 142.659H142.219C138.954 142.659 136.306 140.011 136.306 136.746V130.836C136.306 127.571 138.954 124.924 142.219 124.924H154.218C157.483 124.924 160.131 127.571 160.131 130.836V136.746Z" fill="#D83633"/>
<path d="M154.855 124.957C155.664 125.904 156.156 127.131 156.156 128.474V133.889C156.156 136.881 153.731 139.307 150.738 139.307H139.745C138.525 139.307 137.404 138.899 136.499 138.22C137.155 140.77 139.463 142.657 142.218 142.657H154.218C157.483 142.657 160.13 140.009 160.13 136.744V130.834C160.131 127.784 157.821 125.275 154.855 124.957Z" fill="#D1D3D4"/>
<path d="M142.286 169.031H139.689V187.194H142.286V169.031Z" fill="#151D27"/>
<path d="M140.694 186.711L132.547 193.609" stroke="#151D27" stroke-width="3.6881" stroke-miterlimit="10"/>
<path d="M141.492 186.711L149.638 193.609" stroke="#151D27" stroke-width="3.6881" stroke-miterlimit="10"/>
<path d="M134.142 194.497C134.142 195.612 133.238 196.515 132.123 196.515C131.006 196.515 130.102 195.612 130.102 194.497C130.102 193.381 131.006 192.477 132.123 192.477C133.238 192.477 134.142 193.381 134.142 194.497Z" fill="#151D27"/>
<path d="M151.659 194.497C151.659 195.612 150.753 196.515 149.638 196.515C148.522 196.515 147.618 195.612 147.618 194.497C147.618 193.381 148.522 192.477 149.638 192.477C150.753 192.477 151.659 193.381 151.659 194.497Z" fill="#151D27"/>
<path d="M138.084 121.326H132.819V117.301L138.084 114.996V121.326Z" fill="#F9A374"/>
<path d="M134.999 120.4C133.765 119.532 133.567 117.893 134.267 116.668L132.819 117.302V121.327H138.084V121.06C137.006 121.224 135.824 120.981 134.999 120.4Z" fill="#E6E7E8"/>
<path d="M147.208 153.85L148.465 124.72C148.127 120.234 144.999 119.827 144.999 119.827L137.578 119.043L135.052 120.729L132.715 119.221L126.648 123.207C126.648 123.207 125.728 123.917 125.046 127.048L126.641 153.85H147.208V153.85Z" fill="#E6E7E8"/>
<path d="M136.206 120.73H134.106L132.766 123.215L134.217 125.382L134.303 125.387H135.915L137.337 123.214L136.206 120.73Z" fill="#D83633"/>
<path d="M134.216 125.381L133.827 148.341L135.715 151.606L137.487 148.202L135.915 125.386L134.216 125.381Z" fill="#98221E"/>
<path d="M147.783 153.85L148.465 124.444C148.127 119.958 144.999 119.551 144.999 119.551L138.172 118.801L139.802 153.85L147.783 153.85Z" fill="#003F54"/>
<path d="M132.569 153.852L132.716 119.223L126.649 123.208C126.649 123.208 125.729 123.919 125.046 127.05L126.641 153.852H132.569Z" fill="#003F54"/>
<path d="M126.642 153.852H147.783C147.783 153.852 150.728 165.564 136.436 164.532C136.436 164.532 124.97 164.892 126.642 153.852Z" fill="#181421"/>
<path d="M126.642 153.852L109.271 156.935L113.177 192.479H117.626L117.128 162.756H129.923L126.642 153.852Z" fill="#181421"/>
<path d="M131.838 119.791L132.847 118.604L135.052 120.73L131.084 124.462L131.838 119.791Z" fill="white"/>
<path d="M138.983 118.88L138.084 117.836L135.052 120.73L139.689 124.462L138.983 118.88Z" fill="white"/>
<path d="M140.997 107.794C140.899 109.295 141.586 110.559 142.529 110.619C143.472 110.68 144.315 109.515 144.411 108.015C144.507 106.516 143.821 105.251 142.877 105.19C141.934 105.129 141.092 106.296 140.997 107.794Z" fill="#F9A374"/>
<path d="M142.332 107.259C142.332 107.259 142.335 107.175 142.353 107.037C142.371 106.898 142.418 106.701 142.505 106.487C142.594 106.28 142.751 106.037 142.984 106.005C143.042 105.996 143.102 106 143.165 106.009C143.175 106.014 143.24 106.028 143.26 106.039C143.282 106.053 143.304 106.058 143.332 106.077C143.438 106.144 143.529 106.252 143.597 106.379C143.67 106.504 143.724 106.646 143.762 106.788C143.797 106.93 143.827 107.08 143.824 107.21C143.815 107.36 143.827 107.513 143.811 107.644C143.797 107.778 143.785 107.904 143.773 108.021C143.751 108.139 143.736 108.249 143.722 108.346C143.71 108.444 143.685 108.527 143.673 108.596C143.644 108.735 143.63 108.817 143.63 108.817C143.63 108.817 143.669 108.744 143.729 108.615C143.756 108.549 143.799 108.472 143.832 108.377C143.866 108.283 143.906 108.176 143.945 108.058C143.979 107.939 144.007 107.804 144.039 107.662C144.072 107.519 144.076 107.376 144.093 107.224C144.106 107.05 144.088 106.885 144.048 106.717C144.007 106.551 143.95 106.385 143.863 106.227C143.775 106.073 143.651 105.925 143.483 105.824C143.445 105.798 143.391 105.777 143.341 105.758C143.288 105.741 143.274 105.742 143.209 105.728C143.115 105.719 143.022 105.721 142.929 105.741C142.741 105.782 142.596 105.912 142.51 106.041C142.419 106.171 142.373 106.307 142.34 106.43C142.278 106.679 142.286 106.891 142.295 107.034C142.308 107.18 142.332 107.259 142.332 107.259Z" fill="#C8825F"/>
<path d="M142.332 107.26C142.332 107.26 142.225 107.11 142.829 107.02C142.829 107.02 143.523 107.062 143.222 107.83C143.156 107.995 143.104 108.165 143.084 108.343C143.056 108.593 143.209 108.918 143.075 109.15C142.902 109.452 142.345 109.338 142.27 109.018C142.213 108.773 142.47 108.322 142.59 108.134C142.59 108.134 142.955 107.56 142.332 107.26Z" fill="#C8825F"/>
<path d="M142.266 108.986C142.267 108.987 142.246 108.999 142.224 109.03C142.198 109.061 142.172 109.111 142.153 109.175C142.14 109.208 142.138 109.243 142.135 109.283C142.133 109.322 142.127 109.365 142.141 109.406C142.151 109.447 142.157 109.493 142.172 109.536C142.189 109.577 142.216 109.614 142.239 109.654C142.266 109.69 142.288 109.734 142.323 109.76C142.354 109.79 142.392 109.813 142.424 109.837C142.489 109.89 142.56 109.917 142.624 109.928C142.75 109.96 142.837 109.951 142.837 109.951C142.837 109.951 142.791 109.866 142.718 109.781C142.7 109.759 142.68 109.737 142.658 109.717C142.64 109.691 142.624 109.662 142.604 109.639C142.584 109.615 142.567 109.587 142.543 109.565C142.519 109.543 142.51 109.512 142.493 109.487C142.451 109.44 142.428 109.385 142.397 109.332C142.381 109.307 142.371 109.28 142.361 109.254C142.352 109.227 142.334 109.201 142.327 109.176C142.289 109.076 142.266 108.986 142.266 108.986Z" fill="#C8825F"/>
<path d="M125.19 102.476C125.19 102.476 124.111 113.747 129.629 117.295C129.629 117.295 132.386 120.004 135.698 117.63C135.698 117.63 140.611 114.98 141.421 112.959C141.421 112.959 145.662 94.6575 135.364 94.0664C135.364 94.0664 126.569 92.0308 125.19 102.476Z" fill="#F9A374"/>
<path d="M135.363 94.0662C135.363 94.0662 134.665 93.9043 133.63 93.9063C135.457 94.6156 136.855 96.1318 137.788 97.979C139.109 100.596 140.019 103.813 140.171 106.749C140.372 110.644 138.372 114.619 134.868 116.505C133.407 117.291 131.58 118.032 129.902 117.525C130.675 118.126 133.002 119.563 135.697 117.63C135.697 117.63 140.611 114.98 141.421 112.958C141.421 112.958 145.662 94.6577 135.363 94.0662Z" fill="#E6E7E8"/>
<path d="M135.607 105.24C135.607 105.73 136.005 106.128 136.495 106.128C136.986 106.128 137.383 105.73 137.383 105.24C137.383 104.75 136.986 104.352 136.495 104.352C136.005 104.352 135.607 104.75 135.607 105.24Z" fill="#2E2E2F"/>
<path d="M136.443 104.672C136.372 104.771 136.475 104.968 136.674 105.112C136.873 105.254 137.092 105.29 137.164 105.19C137.236 105.091 137.133 104.894 136.934 104.75C136.734 104.608 136.515 104.572 136.443 104.672Z" fill="white"/>
<path d="M134.804 102.266C134.804 102.266 134.417 102.396 134.376 102.83C134.376 102.83 134.393 103.347 134.824 103.302C134.824 103.302 138.004 102.892 139.232 103.681C139.232 103.681 139.084 101.35 134.804 102.266Z" fill="#3C2415"/>
<path d="M130.266 105.24C130.266 105.73 129.868 106.128 129.378 106.128C128.887 106.128 128.49 105.73 128.49 105.24C128.49 104.75 128.887 104.352 129.378 104.352C129.868 104.352 130.266 104.75 130.266 105.24Z" fill="#2E2E2F"/>
<path d="M129.43 104.672C129.501 104.771 129.398 104.968 129.198 105.112C129 105.254 128.781 105.29 128.709 105.19C128.637 105.091 128.74 104.894 128.939 104.75C129.138 104.608 129.358 104.572 129.43 104.672Z" fill="white"/>
<path d="M131.069 102.266C131.069 102.266 131.456 102.396 131.497 102.83C131.497 102.83 131.478 103.347 131.048 103.302C131.048 103.302 127.868 102.892 126.641 103.681C126.641 103.681 126.79 101.35 131.069 102.266Z" fill="#3C2415"/>
<path d="M132.284 107.271C132.284 107.271 132.173 107.645 131.98 108.163C131.883 108.419 131.77 108.718 131.649 109.038C131.62 109.117 131.591 109.198 131.562 109.28L131.514 109.402C131.51 109.414 131.491 109.465 131.498 109.443L131.486 109.494C131.45 109.647 131.434 109.814 131.432 109.971C131.434 110.128 131.455 110.279 131.503 110.407C131.55 110.539 131.633 110.636 131.733 110.723C131.942 110.889 132.251 110.953 132.512 110.976C132.778 111.004 133.011 110.991 133.174 110.99C133.339 110.984 133.434 110.981 133.434 110.981C133.434 110.981 133.347 111.02 133.195 111.089C133.039 111.148 132.815 111.233 132.521 111.278C132.234 111.316 131.855 111.338 131.468 111.123C131.278 111.018 131.112 110.836 131.012 110.63C130.907 110.425 130.863 110.202 130.853 109.988C130.843 109.773 130.865 109.566 130.909 109.362L130.93 109.28C130.952 109.215 130.952 109.225 130.964 109.194L131.017 109.065C131.054 108.98 131.091 108.896 131.127 108.814C131.212 108.655 131.292 108.501 131.374 108.36C131.465 108.222 131.545 108.089 131.632 107.975C131.971 107.511 132.284 107.271 132.284 107.271Z" fill="#D78E65"/>
<path d="M130.392 112.662H135.341C135.341 112.662 135.253 114.492 132.866 114.682C132.866 114.682 130.685 114.806 130.392 112.662Z" fill="white"/>
<path d="M129.982 112.662C129.982 112.662 130.356 112.616 130.919 112.577C131.481 112.54 132.231 112.515 132.981 112.514C133.731 112.514 134.48 112.539 135.043 112.577C135.605 112.615 135.98 112.662 135.98 112.662C135.98 112.662 135.605 112.708 135.043 112.747C134.48 112.784 133.731 112.808 132.981 112.809C132.231 112.808 131.481 112.784 130.919 112.746C130.356 112.707 129.982 112.662 129.982 112.662Z" fill="#CD8861"/>
<path d="M130.452 112.973C130.452 112.973 130.47 113.074 130.534 113.239C130.566 113.321 130.608 113.418 130.672 113.521C130.733 113.625 130.813 113.735 130.911 113.844C131.006 113.954 131.129 114.054 131.265 114.146C131.335 114.191 131.412 114.227 131.487 114.27C131.567 114.303 131.649 114.337 131.732 114.372C131.819 114.397 131.908 114.422 131.997 114.448C132.089 114.464 132.182 114.482 132.276 114.499C132.462 114.521 132.67 114.543 132.856 114.54C133.245 114.536 133.635 114.463 133.975 114.337C134.316 114.211 134.608 114.025 134.81 113.811C135.015 113.601 135.148 113.386 135.225 113.227C135.305 113.07 135.341 112.973 135.341 112.973C135.341 112.973 135.336 112.998 135.327 113.045C135.318 113.092 135.307 113.163 135.278 113.248C135.252 113.335 135.215 113.439 135.16 113.554C135.107 113.67 135.034 113.796 134.934 113.92C134.738 114.169 134.442 114.418 134.073 114.576C133.707 114.739 133.285 114.823 132.86 114.834C132.639 114.835 132.442 114.809 132.231 114.78C132.129 114.759 132.026 114.741 131.927 114.714C131.83 114.68 131.733 114.648 131.638 114.615C131.547 114.57 131.456 114.53 131.372 114.484C131.292 114.428 131.211 114.378 131.138 114.321C130.996 114.203 130.872 114.079 130.78 113.948C130.588 113.69 130.517 113.43 130.478 113.254C130.444 113.076 130.452 112.973 130.452 112.973Z" fill="#CD8861"/>
<path d="M131.084 113.531C131.084 113.531 131.307 113.508 131.642 113.489C131.976 113.469 132.421 113.462 132.867 113.457C133.312 113.462 133.758 113.469 134.092 113.489C134.426 113.507 134.649 113.531 134.649 113.531C134.649 113.531 134.426 113.555 134.092 113.573C133.758 113.593 133.312 113.6 132.867 113.605C132.421 113.6 131.976 113.593 131.642 113.573C131.308 113.554 131.084 113.531 131.084 113.531Z" fill="#D1D3D4"/>
<path d="M132.118 112.973C132.118 112.973 132.142 113.05 132.159 113.167C132.18 113.283 132.187 113.438 132.192 113.593C132.187 113.749 132.18 113.904 132.16 114.02C132.142 114.137 132.118 114.214 132.118 114.214C132.118 114.214 132.095 114.137 132.076 114.02C132.056 113.904 132.05 113.749 132.044 113.593C132.05 113.438 132.056 113.283 132.077 113.167C132.094 113.05 132.118 112.973 132.118 112.973Z" fill="#D1D3D4"/>
<path d="M133.319 112.973C133.319 112.973 133.343 113.05 133.361 113.167C133.381 113.283 133.388 113.438 133.393 113.593C133.388 113.749 133.381 113.904 133.361 114.02C133.343 114.137 133.319 114.214 133.319 114.214C133.319 114.214 133.295 114.137 133.277 114.02C133.257 113.904 133.25 113.749 133.245 113.593C133.25 113.438 133.258 113.283 133.277 113.167C133.295 113.05 133.319 112.973 133.319 112.973Z" fill="#D1D3D4"/>
<path d="M125.19 102.603C125.112 103.469 125.046 104.372 125.109 105.24C125.109 105.24 122.824 97.8802 127.604 92.9045C130.428 89.9636 135.342 90.5888 135.342 90.5888C141.745 90.897 143.703 96.9941 143.703 96.9941C144.775 101.687 143.297 105.246 143.297 105.246C142.486 105.123 142.289 105.246 142.289 105.246L142.077 108.818H141.547V104.931C141.498 102.423 139.674 102.414 139.674 102.414C140.007 101.346 139.906 100.258 139.529 99.1971C139.262 98.4453 138.343 97.6826 137.538 97.5904C137.334 97.5672 136.861 97.7443 136.804 97.9732C136.288 100.019 131.62 99.6793 131.594 99.6761C130.924 99.5807 130.204 99.3907 129.649 98.9919C129.363 98.7868 129.136 98.5587 129.031 98.2076C128.918 97.8273 129.063 97.4057 128.69 97.1147C128.36 96.8566 127.702 96.8213 127.369 97.0871C127.369 97.0871 125.534 98.8164 126.273 101.576C126.273 101.576 125.284 101.553 125.19 102.603Z" fill="#3C2415"/>
<path d="M132.025 115.15C132.025 115.15 132.125 115.143 132.259 115.134C132.326 115.129 132.402 115.128 132.481 115.127C132.561 115.121 132.644 115.131 132.729 115.123C132.813 115.127 132.896 115.127 132.976 115.125C133.055 115.125 133.132 115.135 133.199 115.134C133.332 115.139 133.434 115.161 133.434 115.161C133.434 115.161 133.363 115.226 133.235 115.299C133.173 115.339 133.093 115.362 133.006 115.384C132.919 115.412 132.823 115.416 132.728 115.418C132.632 115.42 132.537 115.404 132.45 115.385C132.363 115.364 132.284 115.332 132.22 115.298C132.091 115.227 132.025 115.15 132.025 115.15Z" fill="#CD8861"/>
<path d="M117.6 192.479H113.168C113.168 192.479 111.763 193.537 109.225 193.874C109.225 193.874 107.999 193.876 107.746 194.848C107.746 194.848 107.577 195.44 107.746 196.075C107.746 196.075 111.128 197.061 114.491 196.075C114.491 196.075 115.126 195.66 115.189 196.166H117.601C117.601 196.166 118.088 194.311 117.6 192.479Z" fill="#0A0313"/>
<path d="M128.168 192.479H123.736C123.736 192.479 122.332 193.537 119.794 193.874C119.794 193.874 118.568 193.876 118.314 194.848C118.314 194.848 118.144 195.44 118.314 196.075C118.314 196.075 121.696 197.061 125.059 196.075C125.059 196.075 125.694 195.66 125.757 196.166H128.168C128.168 196.166 128.655 194.311 128.168 192.479Z" fill="#0A0313"/>
<path d="M138.637 164.516H131.481L128.099 192.479H123.709L122.158 159.371L136.094 153.852H147.783C147.783 153.852 148.725 158.009 146.638 161.17C146.638 161.17 144.058 164.799 138.637 164.516Z" fill="#23202D"/>
<path d="M128.069 126.312C128.069 126.312 126.895 145.249 103.481 144.968" stroke="#003F54" stroke-width="14.7523" stroke-miterlimit="10"/>
<path d="M99.2284 143.446C99.2284 143.446 98.4625 142.924 97.9535 143.051L95.4863 145.683L95.0535 146.062C95.0535 146.062 95.8602 146.428 96.6381 145.683C96.6381 145.683 98.4745 143.627 99.2284 143.446Z" fill="#F9A374"/>
<path d="M100.738 143.446C100.738 143.446 99.9734 142.924 99.4644 143.051L96.996 145.683L96.564 146.062C96.564 146.062 97.3715 146.428 98.149 145.683C98.149 145.683 99.985 143.627 100.738 143.446Z" fill="#F9A374"/>
<path d="M98.0878 143.096C98.0878 143.096 97.3219 142.575 96.8134 142.702L94.3458 145.332L93.9133 145.713C93.9133 145.713 94.7201 146.078 95.4984 145.332C95.4984 145.332 97.3348 143.277 98.0878 143.096Z" fill="#F9A374"/>
<path d="M103.509 145.46C103.509 145.46 101.722 146.275 100.724 146.365C100.724 146.365 99.9221 146.624 98.6997 147.564C98.6997 147.564 97.9194 147.991 98.0524 146.745C98.0524 146.745 99.147 145.487 100.196 145.179C100.196 145.179 98.3442 142.549 96.8132 142.702C96.8132 142.702 99.2704 142.109 100.459 142.375C100.459 142.375 101.146 142.452 103.509 142.375V145.46Z" fill="#F9A374"/>
<path d="M94.5918 146.194H101.098C101.098 146.194 100.102 144.498 100.102 141.903C100.102 139.307 95.8134 138.385 95.8134 141.903C95.8138 145.421 94.5918 146.194 94.5918 146.194Z" fill="#A7A9AC"/>
<path d="M119.495 142.558C119.495 143.527 119.156 143.592 118.22 143.592H75.9861C75.0506 143.592 74.7861 143.527 74.7861 142.558V113.274C74.7861 112.305 75.0502 112.113 75.9861 112.113H118.22C119.157 112.113 119.495 112.305 119.495 113.274V142.558Z" fill="#BCBEC0"/>
<path d="M91.3254 147.986V148.335C91.3254 148.643 91.5447 148.891 91.816 148.891H103.78C104.051 148.891 104.271 148.643 104.271 148.335V147.986H91.3254Z" fill="#D1D3D4"/>
<path d="M118.334 113.443H75.8718V140.553H118.334V113.443Z" fill="#58595B"/>
<path d="M117.637 113.934H76.5701V140.063H117.637V113.934Z" fill="#249DC3"/>
<path d="M100.571 129.305C88.654 137.112 76.5425 140.023 76.5425 140.023L76.5978 113.893L117.664 113.972C117.664 113.972 112.489 121.499 100.571 129.305Z" fill="#56B9D6"/>
<path d="M94.5918 146.195H101.098L104.27 147.988H91.3254L94.5918 146.195Z" fill="#BCBEC0"/>
<path d="M100.752 129.395C100.752 130.468 99.1354 131.34 97.1403 131.34C95.1452 131.34 93.5281 130.468 93.5281 129.395C93.5281 128.32 95.1452 127.449 97.1403 127.449C99.1354 127.449 100.752 128.32 100.752 129.395Z" fill="#95979A"/>
<path d="M98.3748 130.826C98.3748 131.484 97.8221 132.017 97.1396 132.017C96.4583 132.017 95.9048 131.484 95.9048 130.826C95.9048 130.166 96.4579 129.633 97.1396 129.633C97.8221 129.633 98.3748 130.167 98.3748 130.826Z" fill="#95979A"/>
<path d="M107.144 111.067C107.144 105.542 102.665 101.879 97.1395 101.879C91.6148 101.879 87.1377 105.542 87.1377 111.067C87.1377 115.781 91.0188 117.929 92.1879 121.176C93.0961 123.698 92.2244 124.98 92.8275 124.98C94.2078 124.98 100.419 124.98 101.453 124.98C101.892 124.98 100.765 123.968 101.673 121.555C102.906 118.277 107.144 115.666 107.144 111.067Z" fill="#F7941D"/>
<path d="M92.6083 108.103C93.1217 105.612 94.3737 103.628 96.1396 101.922C91.0846 102.336 87.1377 105.881 87.1377 111.069C87.1377 115.783 91.0188 117.931 92.1879 121.177C93.0961 123.7 92.2244 124.982 92.8275 124.982H98.004C93.89 120.646 91.4096 113.919 92.6083 108.103Z" fill="#E5CBC7"/>
<path d="M101.453 124.98H92.8276L93.4076 129.918H101.019L101.453 124.98Z" fill="#BEC0C2"/>
<path d="M97.8857 129.173L101.053 129.524L101.115 128.82L97.8857 129.173Z" fill="#A3A5A8"/>
<path d="M98.7803 127.766L101.187 128.001L101.229 127.531L98.7803 127.766Z" fill="#A3A5A8"/>
<path d="M96.7271 126.465L101.302 126.699L101.343 126.23L96.7271 126.465Z" fill="#A3A5A8"/>
<path d="M96.4651 128.827L93.313 129.116L93.2493 128.576L96.4651 128.827Z" fill="#A3A5A8"/>
<path d="M95.7605 127.365L93.135 127.6L93.0801 127.131L95.7605 127.365Z" fill="#A3A5A8"/>
<path d="M97.6241 126.119L92.9835 126.312L92.9338 125.885L97.6241 126.119Z" fill="#A3A5A8"/>
<path d="M106.527 110.814C106.527 113.893 104.702 116.388 102.452 116.388C100.2 116.388 98.3752 113.893 98.3752 110.814C98.3752 107.735 100.201 105.24 102.452 105.24C104.702 105.24 106.527 107.735 106.527 110.814Z" fill="#FCAF17"/>
<path d="M146.089 124.268C144.263 120.316 161.273 150.298 123.331 146.219" stroke="#003F54" stroke-width="15.3255" stroke-miterlimit="10"/>
<path d="M121.042 144.453L119.062 144.057C119.062 144.057 116.469 144.681 116.063 145.017C115.661 145.353 116.129 145.78 116.129 145.78L116.661 145.596L118.45 145.095L119.841 145.371C119.841 145.371 121.04 145.444 121.042 144.453Z" fill="#E1956A"/>
<path d="M120.137 148.011C122.79 147.357 123.17 148.544 123.17 148.544L123.41 145.202C122.766 144.442 120.933 144.432 120.933 144.432L118.191 144.578C118.191 144.578 116.572 145.698 116.23 146.106C115.889 146.516 116.422 146.846 116.422 146.846L116.915 146.561L118.165 145.611L119.72 145.78L118.099 145.966L116.889 147.125C116.258 147.724 116.953 148.082 116.953 148.082L118.434 146.757L120.696 147.112C119.948 147.275 118.697 147.575 118.697 147.575C118.697 147.575 118.482 148.162 119.064 148.162L120.137 148.011Z" fill="#F9A374"/>
<path d="M144.395 128.166C144.395 128.166 144.51 128.399 144.67 128.826C144.825 129.253 145.042 129.869 145.22 130.633C145.312 131.014 145.397 131.431 145.461 131.877C145.527 132.322 145.581 132.797 145.601 133.29C145.619 133.783 145.626 134.296 145.577 134.816C145.542 135.336 145.447 135.861 145.336 136.382C145.199 136.897 145.041 137.409 144.818 137.888C144.615 138.375 144.329 138.815 144.042 139.225C143.896 139.429 143.731 139.615 143.577 139.8C143.41 139.974 143.238 140.136 143.076 140.297C142.899 140.441 142.727 140.583 142.56 140.719C142.388 140.846 142.209 140.953 142.045 141.063C141.711 141.275 141.382 141.433 141.092 141.564C140.793 141.679 140.543 141.798 140.323 141.862C139.886 141.995 139.636 142.062 139.636 142.062C139.636 142.062 139.87 141.945 140.279 141.755C140.485 141.665 140.717 141.516 140.99 141.368C141.13 141.298 141.26 141.192 141.406 141.097C141.548 140.997 141.708 140.908 141.852 140.783C141.999 140.662 142.159 140.546 142.311 140.41C142.459 140.271 142.612 140.127 142.77 139.979C142.912 139.816 143.062 139.654 143.208 139.482C143.337 139.296 143.489 139.123 143.616 138.926C143.871 138.535 144.107 138.112 144.295 137.658C144.497 137.21 144.638 136.728 144.761 136.243C144.872 135.754 144.969 135.26 145.009 134.764C145.058 134.27 145.084 133.779 145.081 133.303C145.075 132.35 144.996 131.457 144.888 130.695C144.777 129.935 144.666 129.298 144.56 128.859C144.461 128.417 144.395 128.166 144.395 128.166Z" fill="#00212F"/>
<path d="M172.803 162.835C181.793 151.83 187.187 137.773 187.187 122.454C187.187 87.1764 158.589 58.5781 123.311 58.5781C88.0335 58.5781 59.4348 87.1764 59.4348 122.454C59.4348 137.773 64.8297 151.83 73.8199 162.835" stroke="#003D5B" stroke-width="1.0661" stroke-miterlimit="10" stroke-dasharray="3.2 3.2"/>
<path d="M137.266 59.4099C137.475 51.8693 131.532 45.5871 123.991 45.3781C116.45 45.1692 110.168 51.1126 109.959 58.6532C109.75 66.1938 115.694 72.476 123.234 72.685C130.775 72.8939 137.057 66.9505 137.266 59.4099Z" fill="#D7DF23"/>
<path d="M152.527 76.821C152.527 84.3644 158.642 90.4799 166.185 90.4799C173.729 90.4799 179.844 84.3648 179.844 76.821C179.844 69.2772 173.729 63.1621 166.185 63.1621C158.642 63.1621 152.527 69.2772 152.527 76.821Z" fill="#249DC3"/>
<path d="M60.0503 76.821C60.0503 84.3644 66.1654 90.4799 73.7088 90.4799C81.2522 90.4799 87.3677 84.3648 87.3677 76.821C87.3677 69.2772 81.2522 63.1621 73.7088 63.1621C66.1654 63.1621 60.0503 69.2772 60.0503 76.821Z" fill="#949AA8"/>
<path d="M173.528 121.778C173.528 129.321 179.643 135.437 187.187 135.437C194.73 135.437 200.846 129.321 200.846 121.778C200.846 114.235 194.73 108.119 187.187 108.119C179.643 108.119 173.528 114.235 173.528 121.778Z" fill="#93C1BD"/>
<path d="M72.7245 124.922C74.458 117.581 69.9119 110.224 62.5705 108.491C55.229 106.757 47.8723 111.303 46.1388 118.645C44.4053 125.986 48.9514 133.343 56.2928 135.076C63.6343 136.81 70.991 132.264 72.7245 124.922Z" fill="#289FAA"/>
<path d="M134.233 59.0669C134.233 64.7499 129.627 69.3565 123.944 69.3565C118.261 69.3565 113.654 64.7499 113.654 59.0669C113.654 53.3843 118.261 48.7773 123.944 48.7773C129.627 48.7773 134.233 53.3843 134.233 59.0669Z" fill="#2599A3"/>
<path d="M126.999 49.6634C128.153 50.3556 128.556 51.6445 128.672 52.9554C128.708 53.3562 129.175 53.4828 129.408 53.1546C129.855 52.527 130.705 53.6327 130.984 53.9201C131.193 54.1161 131.371 54.3381 131.519 54.5862L131.173 55.5176C131.022 55.3232 130.896 55.1128 130.796 54.8884C130.571 54.4363 130.245 53.4588 129.555 53.5265C128.806 53.5995 128.093 53.9654 127.484 54.3926C127.324 54.5044 127.106 54.6768 127.051 54.8763C126.93 55.3172 127.85 56.7576 126.524 56.7235C126.232 56.7163 126.115 57.0245 126.218 57.2566C126.633 58.1828 127.881 58.6076 127.857 59.7093C127.852 59.9201 128.075 60.0981 128.28 60.0315C128.517 59.9554 128.682 59.8877 128.911 59.7875C129.161 59.6604 129.419 59.5494 129.683 59.456C130.067 59.4556 130.262 59.6131 130.268 59.9281C129.959 60.1269 129.792 60.2295 129.709 60.6095C129.565 61.2663 129.278 61.8491 129.189 62.534C129.011 63.9067 129.022 65.0345 128.013 66.1109C127.84 66.2949 128.011 66.5899 128.257 66.5294C128.814 66.3927 129.287 65.9867 129.857 65.9122C129.962 65.8985 130.058 65.8492 130.086 65.7374C130.185 65.3467 130.906 63.9379 131.468 63.9848C131.438 64.4297 132.136 64.592 132.266 64.1151C132.693 62.5512 133.48 61.1241 133.993 59.5935C134.001 59.4192 134.006 59.2436 134.006 59.0673C134.006 54.4575 130.973 50.5588 126.795 49.2494C126.718 49.2254 126.613 49.5204 126.999 49.6634Z" fill="#A7C3D2"/>
<path d="M117.052 52.6428C117.143 52.5783 117.234 52.5222 117.326 52.4681C117.161 53.0328 116.907 53.5538 117.029 54.1646C117.152 54.7826 117.848 55.4314 118.226 55.9192C118.457 56.2182 118.705 56.4951 118.988 56.7452C119.413 57.1211 119.001 57.1219 118.626 57.5119C118.332 57.8169 118.014 58.3439 118.302 58.7703C118.698 59.355 118.522 59.9081 118.696 60.5437C118.903 61.2944 120.142 62.3288 119.104 63.1251C118.635 63.4842 119.058 64.077 119.026 64.5363C118.981 65.1819 119.123 65.8404 119.362 66.4476C119.349 66.6179 119.344 66.7923 119.351 66.9694C119.371 67.4447 120.104 67.4479 120.092 66.9694C120.046 65.1495 121.201 64.1852 122.392 62.9949C123.276 62.1112 124.431 61.6747 125.304 60.8251C125.745 60.3983 125.681 59.7242 125.29 59.3013C125.056 59.0468 124.647 58.9106 124.343 58.7663C124.141 58.6705 123.945 58.5695 123.75 58.4601C123.329 58.2236 123.808 58.2273 124.056 58.121C124.381 57.9816 124.298 57.4133 123.955 57.3568C122.86 57.1752 122.162 56.2943 121.132 55.9725C120.726 55.8458 120.339 55.7925 119.918 55.7585C119.141 55.6959 119.083 55.3372 119.096 54.6022C119.102 54.2608 118.735 54.0956 118.455 54.2343C118.422 54.2511 118.389 54.2676 118.355 54.284C117.873 52.7386 120.386 52.4929 120.421 53.6375C120.436 54.1289 121.161 54.2487 121.288 53.755C121.485 52.9963 122.192 51.8753 123.202 52.4957C123.454 52.6512 123.827 52.4524 123.81 52.1463C123.795 51.8509 123.814 51.5695 123.838 51.2846C123.983 51.3102 124.127 51.3363 124.271 51.3691C124.633 51.4513 124.908 51.0165 124.637 50.7403C124.323 50.4217 123.075 50.0462 122.582 49.6859C123.67 49.5063 124.577 49.6594 125.681 49.544C125.895 49.5216 126.028 49.2186 126.015 49.0527C125.346 48.9156 124.817 49.0214 124.107 49.0214C121.46 49.0214 119.048 50.0209 117.225 51.6621C117.057 51.8417 116.891 52.0272 116.723 52.2184C116.533 52.4364 116.787 52.8312 117.052 52.6428Z" fill="#A7C3D2"/>
<path d="M116.89 52.4C116.98 52.3358 117.072 52.2793 117.164 52.2248C116.999 52.7895 116.745 53.3105 116.867 53.9213C116.99 54.5393 117.686 55.1882 118.064 55.6759C118.295 55.9749 118.544 56.2518 118.826 56.5015C119.252 56.8775 118.84 56.8787 118.464 57.2682C118.17 57.5732 117.852 58.1002 118.141 58.5267C118.537 59.1114 118.36 59.6645 118.535 60.2997C118.741 61.0508 119.98 62.0852 118.942 62.8811C118.474 63.2402 118.896 63.8329 118.865 64.2922C118.819 64.9379 118.961 65.5964 119.2 66.2035C119.187 66.3739 119.183 66.5478 119.19 66.725C119.209 67.1999 119.942 67.2035 119.93 66.725C119.884 64.905 121.039 63.9408 122.23 62.7508C123.114 61.8667 124.269 61.4307 125.143 60.5806C125.582 60.1538 125.518 59.4797 125.128 59.0569C124.893 58.8024 124.485 58.6661 124.181 58.5218C123.979 58.4261 123.783 58.3251 123.588 58.2157C123.167 57.9788 123.646 57.9824 123.894 57.8766C124.219 57.7371 124.136 57.1688 123.794 57.1123C122.698 56.9308 121.999 56.0499 120.97 55.7284C120.564 55.6014 120.177 55.5481 119.756 55.5144C118.979 55.4515 118.921 55.0928 118.934 54.3582C118.94 54.0167 118.572 53.8516 118.293 53.9903C118.26 54.0071 118.226 54.0235 118.193 54.04C117.711 52.4946 120.223 52.2489 120.259 53.3935C120.273 53.8849 120.999 54.0047 121.127 53.5109C121.323 52.7523 122.031 51.6317 123.039 52.2517C123.292 52.4072 123.664 52.2088 123.648 51.9022C123.633 51.6068 123.652 51.3255 123.676 51.0405C123.82 51.0662 123.965 51.0918 124.109 51.1251C124.47 51.2073 124.747 50.7728 124.475 50.4963C124.161 50.1781 122.913 49.8025 122.42 49.4418C123.507 49.2627 124.595 49.4523 125.7 49.3368C125.914 49.3144 126.03 49.1525 126.018 48.9861C125.348 48.8491 124.654 48.7773 123.945 48.7773C121.298 48.7773 118.886 49.7769 117.063 51.4181C116.895 51.5976 116.729 51.7832 116.562 51.9743C116.37 52.1932 116.626 52.5879 116.89 52.4Z" fill="white"/>
<path d="M126.986 49.5328C128.326 50.1832 128.776 51.5567 128.9 52.955C128.936 53.3558 129.403 53.4824 129.637 53.1542C130.083 52.5266 130.933 53.6323 131.212 53.9197C131.42 54.1157 131.599 54.3377 131.747 54.5858L131.401 55.5172C131.25 55.3228 131.124 55.1124 131.024 54.888C130.798 54.4359 130.473 53.4584 129.783 53.5261C129.035 53.5991 128.321 53.965 127.712 54.3922C127.553 54.504 127.334 54.6763 127.28 54.8759C127.158 55.3168 128.079 56.7572 126.752 56.7231C126.46 56.7159 126.343 57.0241 126.446 57.2562C126.861 58.1824 128.108 58.6072 128.085 59.7089C128.08 59.9197 128.302 60.0977 128.508 60.0311C128.744 59.955 128.91 59.8873 129.139 59.7871C129.389 59.66 129.646 59.549 129.911 59.4556C130.295 59.4552 130.49 59.6127 130.496 59.9277C130.187 60.1265 130.02 60.2291 129.937 60.6091C129.793 61.2659 129.506 61.8487 129.417 62.5336C129.24 63.9063 129.251 65.034 128.241 66.1105C128.069 66.2945 128.239 66.5895 128.485 66.5289C129.042 66.3923 129.515 65.9863 130.085 65.9117C130.19 65.8981 130.287 65.8488 130.314 65.737C130.413 65.3462 131.133 63.9375 131.695 63.9844C131.666 64.4293 132.365 64.5916 132.494 64.1147C132.921 62.5508 133.708 61.1237 134.221 59.5931C134.229 59.4187 134.233 59.2432 134.233 59.0669C134.233 54.373 131.089 50.4153 126.792 49.1797C126.787 49.322 126.845 49.4638 126.986 49.5328Z" fill="white"/>
<path d="M172.161 78.4991H159.755L156.678 70.6875H173.065L172.161 78.4991Z" fill="#93CED4" stroke="black" stroke-width="1.7719" stroke-miterlimit="10" stroke-linecap="round" stroke-linejoin="round"/>
<path d="M160.229 81.9691H171.748L173.192 69.8159L175.023 69.2656" stroke="black" stroke-width="1.7719" stroke-miterlimit="10" stroke-linecap="round" stroke-linejoin="round"/>
<path d="M162.99 83.3514C162.99 84.1141 162.372 84.7321 161.61 84.7321C160.847 84.7321 160.229 84.1141 160.229 83.3514C160.229 82.5887 160.847 81.9707 161.61 81.9707C162.372 81.9707 162.99 82.5887 162.99 83.3514Z" fill="#93CED4" stroke="black" stroke-width="1.4423" stroke-miterlimit="10" stroke-linecap="round" stroke-linejoin="round"/>
<path d="M162.161 83.3511C162.161 83.6561 161.915 83.9034 161.61 83.9034C161.304 83.9034 161.057 83.6561 161.057 83.3511C161.057 83.0461 161.304 82.7988 161.61 82.7988C161.914 82.7988 162.161 83.0461 162.161 83.3511Z" fill="black"/>
<path d="M171.512 83.3514C171.512 84.1141 170.894 84.7321 170.131 84.7321C169.369 84.7321 168.751 84.1141 168.751 83.3514C168.751 82.5887 169.369 81.9707 170.131 81.9707C170.894 81.9707 171.512 82.5887 171.512 83.3514Z" fill="#93CED4" stroke="black" stroke-width="1.4423" stroke-miterlimit="10" stroke-linecap="round" stroke-linejoin="round"/>
<path d="M170.683 83.3511C170.683 83.6561 170.436 83.9034 170.131 83.9034C169.826 83.9034 169.579 83.6561 169.579 83.3511C169.579 83.0461 169.826 82.7988 170.131 82.7988C170.436 82.7988 170.683 83.0461 170.683 83.3511Z" fill="black"/>
<path d="M175.694 69.5826C175.694 69.9529 175.393 70.2535 175.023 70.2535C174.652 70.2535 174.353 69.9529 174.353 69.5826C174.353 69.2123 174.652 68.9121 175.023 68.9121C175.393 68.9121 175.694 69.2123 175.694 69.5826Z" fill="black"/>
<path d="M172.625 74.5938H158.216" stroke="black" stroke-width="1.7719" stroke-miterlimit="10" stroke-linecap="round" stroke-linejoin="round"/>
<path d="M165.42 70.6875V78.2622" stroke="black" stroke-width="1.7719" stroke-miterlimit="10" stroke-linecap="round" stroke-linejoin="round"/>
<path d="M159.913 70.6875L162.438 78.2622" stroke="black" stroke-width="1.7719" stroke-miterlimit="10" stroke-linecap="round" stroke-linejoin="round"/>
<path d="M169.381 70.6875L168.75 78.2622" stroke="black" stroke-width="1.7719" stroke-miterlimit="10" stroke-linecap="round" stroke-linejoin="round"/>
<path d="M172.887 72.2246H157.309" stroke="black" stroke-width="1.7719" stroke-miterlimit="10" stroke-linecap="round" stroke-linejoin="round"/>
<path d="M172.362 76.7637H159.084" stroke="black" stroke-width="1.7719" stroke-miterlimit="10" stroke-linecap="round" stroke-linejoin="round"/>
<path d="M198.778 121.613C198.864 127.582 194.094 132.49 188.124 132.575C182.154 132.66 177.247 127.89 177.162 121.92C177.077 115.951 181.847 111.043 187.817 110.958C193.786 110.874 198.694 115.644 198.778 121.613Z" fill="#EE332A"/>
<path d="M187.843 112.839C182.912 112.909 178.971 116.963 179.041 121.894C179.112 126.826 183.166 130.766 188.097 130.696C193.029 130.626 196.969 126.572 196.899 121.641C196.829 116.71 192.774 112.769 187.843 112.839ZM188.073 129.025C184.064 129.082 180.769 125.878 180.713 121.871C180.655 117.863 183.859 114.567 187.867 114.51C191.876 114.453 195.171 117.657 195.228 121.665C195.285 125.673 192.082 128.968 188.073 129.025Z" fill="white"/>
<path d="M187.89 116.145C184.786 116.189 182.304 118.742 182.348 121.847C182.392 124.952 184.945 127.433 188.05 127.389C191.155 127.346 193.636 124.792 193.593 121.687C193.548 118.583 190.995 116.101 187.89 116.145ZM188.024 125.564C185.928 125.593 184.203 123.918 184.174 121.821C184.144 119.724 185.82 118 187.917 117.971C190.013 117.941 191.737 119.616 191.767 121.713C191.797 123.81 190.121 125.534 188.024 125.564Z" fill="white"/>
<path d="M187.942 119.781C186.847 119.797 185.971 120.698 185.986 121.794C186.001 122.889 186.902 123.765 187.999 123.75C189.094 123.734 189.97 122.833 189.954 121.738C189.939 120.642 189.037 119.766 187.942 119.781ZM187.981 122.549C187.549 122.555 187.193 122.21 187.187 121.777C187.181 121.344 187.527 120.989 187.959 120.983C188.392 120.976 188.748 121.322 188.753 121.754C188.76 122.187 188.414 122.543 187.981 122.549Z" fill="white"/>
<path d="M197.83 127.688L198.119 129.416L198.568 129.674L198.542 128.958L199.005 129.924L200.038 130.516L200.046 129.707L200.464 130.76L201.37 131.279L201.082 129.551L197.83 127.688Z" fill="#F9A45A"/>
<path d="M198.016 127.364L199.749 126.828L200.495 127.092L199.873 127.344L200.774 127.416L201.564 127.869L201.202 128.054L202.053 128.149L203 128.691L201.268 129.228L198.016 127.364Z" fill="#DA844D"/>
<path d="M187.887 121.974C187.744 121.892 187.836 121.524 188.109 121.658L201.812 129.409C201.955 129.491 202.004 129.673 201.922 129.816C201.84 129.96 201.658 130.009 201.514 129.927L187.887 121.974Z" fill="#603913"/>
<path d="M66.3998 130.41C66.3998 131.169 65.7842 131.786 65.0243 131.786H53.8454C53.086 131.786 52.47 131.17 52.47 130.41V119.782C52.47 119.023 53.086 118.406 53.8454 118.406H65.0247C65.7846 118.406 66.4002 119.023 66.4002 119.782L66.3998 130.41Z" fill="#FFC421"/>
<path d="M65.4895 130.533C65.4895 131.225 64.9537 131.785 64.2936 131.785H54.5768C53.9163 131.785 53.3809 131.225 53.3809 130.533V120.977C53.3809 120.285 53.9163 119.725 54.5768 119.725H64.2932C64.9533 119.725 65.4891 120.285 65.4891 120.977L65.4895 130.533Z" fill="#FFD31C"/>
<path d="M59.4346 110.84C56.8757 110.84 54.796 112.888 54.7419 115.434V118.407H56.3326V115.434C56.3863 113.765 57.7522 112.427 59.4346 112.427C61.1171 112.427 62.4834 113.765 62.5379 115.434V118.407H64.1277V115.434C64.0736 112.888 61.994 110.84 59.4346 110.84Z" fill="#D1D3D4"/>
<path d="M60.9666 124.336C60.9666 123.49 60.2813 122.805 59.4353 122.805C58.59 122.805 57.9043 123.49 57.9043 124.336C57.9043 124.91 58.2205 125.41 58.6882 125.673L58.3199 128.016H60.4617L60.1699 125.681C60.6448 125.42 60.9666 124.916 60.9666 124.336Z" fill="#E49723"/>
<path d="M58.4192 124.336C58.4192 123.579 58.9703 122.951 59.6933 122.828C59.6091 122.814 59.5229 122.805 59.4348 122.805C58.5895 122.805 57.9038 123.49 57.9038 124.336C57.9038 124.91 58.22 125.41 58.6877 125.673L58.3194 128.016H58.8348L59.2035 125.673C58.7358 125.411 58.4192 124.911 58.4192 124.336Z" fill="#D27D21"/>
<path d="M67.1509 66.5972L62.1113 74.4648L79.0404 85.3086L84.08 77.4409L67.1509 66.5972Z" fill="#51693C"/>
<path d="M62.4253 74.4242L67.2442 66.9004L83.7655 77.4825L62.4253 74.4242Z" fill="#445F37"/>
<path d="M79.8293 82.7325L82.0684 79.2361C81.0817 78.6041 80.7154 77.4142 81.2508 76.579L69.1137 68.8047C68.5783 69.6403 67.3443 69.8054 66.358 69.173L64.1184 72.6694C65.1051 73.3014 65.4714 74.4909 64.936 75.3261L77.0735 83.1004C77.609 82.2656 78.8426 82.1005 79.8293 82.7325Z" fill="#6F8A52"/>
<path d="M79.6619 82.4963L81.7832 79.1842C80.8241 78.5706 80.459 77.4316 80.9656 76.6397L69.1788 69.0898C68.6714 69.881 67.4839 70.0253 66.5256 69.4113L64.4043 72.7233C65.363 73.3369 65.7281 74.4759 65.2219 75.2674L77.0087 82.8173C77.5157 82.0261 78.7032 81.8827 79.6619 82.4963Z" fill="#E8E2C3"/>
<path d="M76.761 78.3005C75.4308 80.3781 72.7099 81.0105 70.6836 79.7132C68.6585 78.4159 68.0954 75.6798 69.426 73.6022C70.7561 71.5245 73.477 70.8921 75.503 72.1894C77.5289 73.4871 78.092 76.2228 76.761 78.3005Z" fill="#51693C"/>
<path d="M74.0486 78.0207C73.8017 78.4066 73.4679 78.6375 73.0475 78.714C72.6271 78.7906 72.163 78.7028 71.6556 78.4511L71.2187 79.1316L70.9534 78.9613L71.3891 78.2808C70.9145 77.9766 70.5146 77.5333 70.1899 76.9502L70.8412 75.933L70.9666 76.0132C70.5935 76.848 70.7811 77.5309 71.5297 78.0616L72.9377 75.8637C72.3269 74.774 72.1998 73.95 72.5577 73.3917C72.7746 73.0526 73.0731 72.8563 73.4535 72.8018C73.8338 72.7477 74.253 72.845 74.7111 73.0943L75.0317 72.5938L75.2979 72.7641L74.972 73.2727C75.473 73.5933 75.8052 73.9981 75.9708 74.4858L75.4201 75.3463L75.2946 75.2661C75.4429 74.8974 75.4834 74.576 75.4165 74.3015C75.3496 74.0269 75.1632 73.744 74.857 73.4522L73.6198 75.384C74.025 76.0705 74.2514 76.6308 74.2967 77.0644C74.3252 77.3995 74.2422 77.7181 74.0486 78.0207ZM73.4282 75.097L74.5857 73.2903C74.3496 73.1761 74.0971 73.154 73.8282 73.2246C73.5593 73.2947 73.3657 73.4214 73.2491 73.6037C73.0519 73.9111 73.1116 74.4089 73.4282 75.097ZM73.3232 77.8099C73.5741 77.4187 73.5076 76.8684 73.1228 76.1591L71.7955 78.2319C72.0864 78.3742 72.3718 78.4062 72.6503 78.3269C72.9285 78.2483 73.1533 78.0756 73.3232 77.8099Z" fill="#E8E2C3"/>
</svg>
