<svg width="246" height="246" viewBox="0 0 246 246" fill="none" xmlns="http://www.w3.org/2000/svg">
<rect width="246" height="246" rx="123" fill="#FF7C33" fill-opacity="0.11"/>
<path d="M163.776 153.241C165.869 146.497 150.868 137.31 145.054 144.287L134.828 123.952L134.762 156.032C134.762 156.032 144.007 166.265 153.659 165.567C163.31 164.869 163.776 153.241 163.776 153.241Z" fill="#FF7C33"/>
<path d="M154.763 163.3C145.868 162.486 135.184 148.357 135.184 148.357L134.762 156.207C137.616 159.157 146.042 166.265 153.659 165.567C157.907 165.178 160.382 162.827 161.814 160.203C159.831 162.199 157.467 163.548 154.763 163.3Z" fill="#DD692F"/>
<path d="M145.054 144.288L145.012 144.204C143.877 145.647 142.981 147.386 142.612 149.462C142.612 149.462 144.917 142.802 153.408 142.106C150.249 141.385 147.089 141.846 145.054 144.288Z" fill="#A04F27"/>
<path d="M159.779 118.467C159.779 118.467 148.657 147.543 147.241 151.42C145.914 155.051 148.068 158.78 150.981 160.446C153.895 162.112 160.819 155.968 161.499 153.984C162.178 152.001 169.615 121.719 169.615 121.719L159.779 118.467Z" fill="#FFCFA8"/>
<path d="M159.21 122.513C159.471 120.867 157.204 114.314 159.035 112.396C160.867 110.477 159.035 103.762 159.035 103.762C159.035 103.762 165.634 102.541 164.239 112.076C164.239 112.076 184.095 108.617 185.752 109.925C187.409 111.233 187.583 113.559 186.449 114.169C185.316 114.78 174.297 116.321 174.297 116.321C174.297 116.321 177.35 122.513 175.082 125.391C172.815 128.269 167.495 130.537 165.314 129.926C163.134 129.315 158.338 128.007 159.21 122.513Z" fill="#FFCFA8"/>
<path d="M170.722 116.364L165.402 118.763L163.353 117.542C163.353 117.542 160.954 118.414 161.041 120.507C161.041 120.507 160.925 121.481 161.564 122.135C161.564 122.135 160.692 124.519 162.204 125.536C162.204 125.536 162.553 127.164 164.181 127.833C165.808 128.501 168.6 128.414 170.431 127.862C172.263 127.31 174.559 124.199 174.559 124.199C174.559 124.199 171.594 126.699 170.606 126.961C169.617 127.222 164.617 128.472 163.076 125.798C163.076 125.798 168.047 126.263 169.704 125.332C171.361 124.402 174.501 121.495 174.501 121.495C174.501 121.495 170.518 124.46 169.065 124.664C167.611 124.867 163.512 125.129 162.96 124.867C162.407 124.606 161.913 123.181 162.378 122.338C162.378 122.338 167.408 122.833 168.774 122.135C170.141 121.437 173.833 118.937 173.833 118.937C173.833 118.937 168.716 121.64 168.193 121.67C167.67 121.699 162.408 121.495 162.408 121.495C162.408 121.495 161.884 120.914 161.884 120.303C161.884 119.693 163.193 118.559 163.193 118.559C163.193 118.559 164.791 119.751 165.548 119.605C166.303 119.46 170.722 116.364 170.722 116.364Z" fill="#F0AB90"/>
<path d="M87.3165 170.103L84.7894 130.572C84.3853 124.248 89.1334 118.771 95.4508 118.273L123.018 116.104C129.291 115.61 134.813 120.209 135.461 126.468L140.342 173.591L87.3165 170.103Z" fill="#FF7C33"/>
<path d="M128.859 117.17C127.094 116.339 125.099 115.94 123.018 116.104L95.451 118.273C93.9234 118.393 92.4892 118.807 91.1958 119.451C95.3738 124.435 110.023 138.436 128.859 117.17Z" fill="#DD692F"/>
<path d="M119.237 106.785L96.561 99.1104L99.7008 120.216C99.7008 120.216 102.666 127.397 112.521 129.141C112.521 129.141 118.452 127.339 120.458 119.17L119.237 106.785Z" fill="#FFCFA8"/>
<path d="M120.142 115.963L119.237 106.785L96.561 99.1104L99.2795 117.386C106.798 120.256 114.062 118.811 120.142 115.963Z" fill="#F0AB90"/>
<path d="M128.615 87.1048C127.494 92.3129 129.637 97.1911 133.4 98.0008C137.163 98.8105 141.122 95.2452 142.243 90.0372C143.364 84.8291 141.221 79.9508 137.458 79.1411C133.694 78.331 129.735 81.8967 128.615 87.1048Z" fill="#FFCFA8"/>
<path d="M132.601 87.785C132.026 87.6614 131.445 87.6981 130.881 87.8611C130.897 87.7746 130.908 87.6885 130.927 87.6017C131.667 84.1611 134.283 81.8054 136.769 82.3404C139.255 82.8754 140.671 86.0982 139.93 89.5387C139.361 92.1837 137.683 94.1816 135.808 94.7235C136.424 91.3824 135.024 88.3062 132.601 87.785Z" fill="#F0AB90"/>
<path d="M112.409 54.9645C128.237 55.5611 134.397 67.2879 133.727 85.0547C133.666 86.6745 133.55 88.263 133.38 89.8143L133.454 89.7301C139.364 97.5316 127.333 117.215 110.878 116.289C93.5317 115.314 81.9771 100.896 82.6468 83.1291C83.3161 65.3623 96.5801 54.3679 112.409 54.9645Z" fill="#EEBF99"/>
<path d="M112.409 54.9645C128.237 55.5611 134.397 67.2879 133.727 85.0547C133.666 86.6745 133.55 88.263 133.38 89.8143L133.454 89.7301C139.364 97.5316 127.333 117.215 110.878 116.289C93.5317 115.314 81.9771 100.896 82.6468 83.1291C83.3161 65.3623 96.5801 54.3679 112.409 54.9645Z" fill="#FFCFA8"/>
<path d="M105.835 79.1853C105.624 78.17 103.497 77.7529 101.083 78.2542C98.6698 78.7551 96.8843 79.9843 97.0947 80.9999C97.3056 82.0151 99.4328 82.4322 101.846 81.9313C104.26 81.4296 106.046 80.2005 105.835 79.1853Z" fill="#3D3D60"/>
<path d="M117.841 79.1853C118.051 78.17 120.179 77.7529 122.592 78.2542C125.006 78.7551 126.791 79.9843 126.58 80.9999C126.37 82.0151 124.242 82.4322 121.829 81.9313C119.415 81.4296 117.63 80.2005 117.841 79.1853Z" fill="#3D3D60"/>
<path d="M112.409 54.9645C99.7598 54.4877 88.7558 61.4186 84.501 73.287C106.092 81.2342 121.374 73.2965 121.374 73.2965L118.294 72.0069C118.294 72.0069 125.353 71.498 132.226 70.1877C129.539 60.9919 123.237 55.3728 112.409 54.9645Z" fill="#F0AB90"/>
<path d="M99.4709 89.0771C99.3848 91.3654 100.595 93.2688 102.174 93.3285C103.753 93.3878 105.103 91.5812 105.19 89.2929C105.276 87.0046 104.066 85.1012 102.487 85.0415C100.907 84.9818 99.557 86.7887 99.4709 89.0771Z" fill="#34344F"/>
<path d="M119.181 89.1738C119.095 91.4621 120.305 93.3655 121.884 93.4252C123.463 93.4849 124.814 91.6779 124.9 89.3896C124.986 87.1012 123.776 85.1979 122.197 85.1382C120.617 85.0785 119.267 86.8854 119.181 89.1738Z" fill="#34344F"/>
<path d="M111.049 85.7773L112.984 93.1395L117.481 92.9837C117.481 92.9837 117.316 97.3381 113.383 98.1007L115.468 94.5672L111.48 95.0352L111.049 85.7773Z" fill="#F0AB90"/>
<path d="M103.006 98.873C103.006 98.873 112.561 101.319 120.406 100.702C120.406 100.702 117.93 107.584 110.775 107.183C103.62 106.784 102.672 100.816 103.006 98.873Z" fill="#34344F"/>
<path d="M110.776 107.184C112.217 107.264 113.465 107.046 114.545 106.652C113.034 103.006 108.427 100.343 103.088 101.009C103.572 103.518 105.461 106.886 110.776 107.184Z" fill="#FF6F6C"/>
<path d="M120.116 100.722C113.257 101.195 105.214 99.4029 103.39 98.9678C108.057 103.707 116.167 103.761 120.116 100.722Z" fill="white"/>
<path d="M119.817 99.0502L122.421 100.843C122.421 100.843 110.404 101.466 103.006 98.873C103.006 98.873 113 100.912 120.62 100.222L119.817 99.0502Z" fill="#F0AB90"/>
<path d="M146.424 57.228L137.384 60.9938C144.296 48.8369 137.188 40.2579 137.188 40.2579L125.222 48.752C129.008 44.9513 133.199 38.8164 133.199 38.8164C130.36 42.1904 123.099 47.9851 121.258 49.4354C96.9954 42.1705 80.434 56.9892 80.434 56.9892C77.1848 70.5555 82.2203 86.5521 82.2203 86.5521L87.8723 85.331L88.9273 75.4954L92.3479 70.3443C100.749 75.7452 114.775 71.9718 114.775 71.9718C103.648 71.4544 97.7565 66.9301 97.7565 66.9301C109.343 73.429 124.321 67.736 124.321 67.736L131.589 74.6589L133.607 85.9793L133.883 78.6566C140.852 77.9414 144.726 71.1456 144.726 71.1456L136.141 70.6263C143.574 67.9737 146.424 57.228 146.424 57.228Z" fill="#3D3D60"/>
<path d="M89.6263 85.6351C90.3514 90.9129 87.8476 95.6158 84.034 96.1401C80.2203 96.664 76.5406 92.8105 75.8154 87.5332C75.0903 82.2554 77.5937 77.5525 81.4077 77.0282C85.2214 76.504 88.9011 80.3574 89.6263 85.6351Z" fill="#FFCFA8"/>
<path d="M85.6002 86.0135C86.1826 85.9335 86.7593 86.0138 87.3092 86.219C87.2996 86.1313 87.295 86.0448 87.2828 85.9568C86.8037 82.4704 84.3726 79.9245 81.8531 80.2708C79.3337 80.6171 77.6794 83.724 78.1589 87.2108C78.5274 89.8914 80.0504 92.0095 81.8792 92.6914C81.5164 89.3128 83.1443 86.351 85.6002 86.0135Z" fill="#F0AB90"/>
<path d="M79.6047 61.9208C79.5316 62.615 79.4769 63.3088 79.4355 64.0018C95.5737 66.6839 121.741 55.8342 142.576 65.3384C145.285 61.5122 146.424 57.2274 146.424 57.2274L137.384 60.9933C140.271 55.9157 140.708 51.466 140.243 48.001C126.223 51.2253 109.902 55.4875 102.411 59.3164C94.6902 63.2629 86.0568 63.9532 79.6047 61.9208Z" fill="#585893"/>
<path d="M141.272 194.585H87.8278C84.7182 194.585 82.4184 191.691 83.1202 188.662L87.1133 171.429C87.6208 169.238 89.5724 167.688 91.8209 167.688H137.279C139.528 167.688 141.479 169.238 141.987 171.429L145.98 188.662C146.681 191.691 144.381 194.585 141.272 194.585Z" fill="#DFE5E5"/>
<path d="M141.272 192.836H87.8278C84.7182 192.836 82.4184 189.942 83.1202 186.913L87.1133 169.68C87.6208 167.489 89.5724 165.938 91.8209 165.938H137.279C139.528 165.938 141.479 167.489 141.987 169.68L145.98 186.913C146.681 189.942 144.381 192.836 141.272 192.836Z" fill="#323244"/>
<path d="M87.8278 191.359C86.7984 191.359 85.8406 190.897 85.2 190.091C84.5598 189.286 84.3256 188.249 84.5579 187.246L88.551 170.013C88.9054 168.483 90.2501 167.414 91.8205 167.414H137.279C138.849 167.414 140.194 168.483 140.549 170.013L144.542 187.246C144.774 188.249 144.54 189.285 143.9 190.091C143.259 190.897 142.301 191.359 141.272 191.359H87.8278Z" fill="#47476B"/>
<path d="M142.088 176.655L105.033 191.36H113.935L142.901 180.163L142.088 176.655Z" fill="#51517A"/>
<path d="M137.279 167.414H130.03L86.1511 180.372L84.5585 187.246C84.3262 188.249 84.56 189.286 85.2006 190.091C85.8412 190.897 86.799 191.359 87.8283 191.359H89.9847L141.273 173.137L140.549 170.013C140.194 168.483 138.85 167.414 137.279 167.414Z" fill="#51517A"/>
<path d="M83.3931 170.818L65.5502 188.981C65.5502 188.981 63.951 191.769 64.1561 191.769C64.3612 191.769 66.9442 190.416 66.9442 190.416L84.5369 171.914C84.8036 171.633 84.8469 171.195 84.6119 170.887C84.6073 170.881 84.6024 170.874 84.5974 170.868C84.3008 170.49 83.7299 170.475 83.3931 170.818Z" fill="#DFE5E5"/>
<path d="M57.4312 153.241C55.338 146.497 70.3389 137.31 76.1531 144.287L86.3791 123.952L86.4445 156.032C86.4445 156.032 77.1997 166.265 67.5481 165.567C57.8965 164.869 57.4312 153.241 57.4312 153.241Z" fill="#FF7C33"/>
<path d="M66.4433 163.3C75.3392 162.486 86.0228 148.357 86.0228 148.357L86.4445 156.207C83.591 159.157 75.1647 166.265 67.5481 165.567C63.2993 165.178 60.8246 162.827 59.3931 160.203C61.3757 162.199 63.7402 163.548 66.4433 163.3Z" fill="#DD692F"/>
<path d="M86.7932 163.932L85.7466 144.636L88.5485 163.937L86.7932 163.932Z" fill="#A04F27"/>
<path d="M76.1531 144.288L76.1944 144.204C77.3301 145.647 78.2252 147.386 78.5949 149.462C78.5949 149.462 76.2897 142.802 67.7991 142.106C70.958 141.385 74.118 141.846 76.1531 144.288Z" fill="#A04F27"/>
<path d="M55.7054 120.369C48.6314 121.781 44.4098 111.285 44.7737 109.927C45.1373 108.57 53.5318 102.341 56.9727 102.476C60.4137 102.611 62.34 109.82 62.34 109.82C62.34 109.82 63.7498 102.527 68.5576 103.083L67.6097 108.015C67.6097 108.015 70.2249 120.488 55.7054 120.369Z" fill="#FFCFA8"/>
<path d="M50.8351 106.119L55.3785 111.287L58.3816 112.865C58.3816 112.865 58.6315 115.432 55.6134 115.89C55.6134 115.89 55.4481 117.553 53.9282 117.983C52.4082 118.412 49.3618 116.841 48.717 116.153C48.0718 115.464 45.2202 110.545 45.2202 110.545L48.8747 115.242C48.8747 115.242 51.3475 117.218 53.0679 117.33C54.7884 117.441 54.7352 115.925 54.7352 115.925C54.7352 115.925 52.3198 114.691 51.3735 113.787C50.4275 112.884 47.5755 108.23 47.5755 108.23C47.5755 108.23 51.6601 113.386 51.7248 113.375C51.7894 113.365 54.4769 115.172 55.1546 115.126C55.8323 115.079 57.1261 114.886 57.5386 113.513C57.5386 113.513 54.6751 112.111 54.2557 111.716C53.8371 111.322 50.8351 106.119 50.8351 106.119Z" fill="#F0AB90"/>
<path d="M62.555 110.58L56.905 90.1651C56.5135 88.75 54.9212 87.9827 53.6133 88.6501C53.3948 88.7614 53.1812 88.9076 52.9807 89.0963C52.4105 89.6328 52.1779 90.439 52.3195 91.209L54.6116 103.664L48.7473 92.7894C48.0436 91.4841 46.2335 91.2434 45.2646 92.3658C45.2493 92.3834 45.2344 92.4014 45.2191 92.4193C44.6795 93.0703 44.6019 93.9902 44.9884 94.7417L50.8355 106.12L62.555 110.58Z" fill="#FFCFA8"/>
<path d="M64.2996 117.613C64.2996 117.613 73.944 147.955 73.1591 151.74C72.3743 155.525 71.5316 158.966 68.4535 160.303C65.3753 161.641 59.1642 154.776 58.7062 152.73C58.2481 150.684 54.167 119.77 54.167 119.77L64.2996 117.613Z" fill="#FFCFA8"/>
<path d="M140.349 168.539L137.414 149.161L138.618 168.544L140.349 168.539Z" fill="#A04F27"/>
<path d="M163.617 170.202H155.526V210.948H163.617V170.202Z" fill="#2D3551"/>
<path d="M196.697 195.794L177.771 179.14H171.052V177.664H178.328L197.672 194.687L196.697 195.794Z" fill="#414B91"/>
<path d="M185.167 188.796L195.408 199.634C196.651 200.95 198.579 201.413 200.254 200.727C200.288 200.713 200.321 200.699 200.356 200.684C203.521 199.321 203.93 194.985 201.12 192.991L188.976 184.368C187.996 183.672 186.68 183.607 185.673 184.263C185.654 184.275 185.635 184.288 185.616 184.3C184.109 185.319 183.917 187.474 185.167 188.796Z" fill="#2D3551"/>
<path d="M173.539 173.4H146.15V181.355H173.539V173.4Z" fill="#2D3551"/>
<path d="M173.539 173.4H151.808V181.355H173.539V173.4Z" fill="#374068"/>
<path d="M159.127 146.433H149.566V139.247C149.566 137.525 150.962 136.129 152.684 136.129H159.127V146.433Z" fill="#2D3551"/>
<path d="M171.981 146.433H155.94V139.842C155.94 137.792 157.603 136.129 159.654 136.129H168.438C170.395 136.129 171.981 137.715 171.981 139.672V146.433Z" fill="#374068"/>
<path d="M180.236 145.054H135.188C132.531 145.054 130.377 147.208 130.377 149.865V170.858C130.377 173.515 132.531 175.669 135.188 175.669H180.236C182.893 175.669 185.047 173.515 185.047 170.858V149.865C185.048 147.207 182.894 145.054 180.236 145.054Z" fill="#374068"/>
<path d="M184.719 145.054H139.671C137.014 145.054 134.86 147.208 134.86 149.865V170.858C134.86 173.515 137.014 175.669 139.671 175.669H184.719C187.376 175.669 189.53 173.515 189.53 170.858V149.865C189.531 147.207 187.376 145.054 184.719 145.054Z" fill="#4E5DA8"/>
<path d="M170.396 149.877H139.781V170.845H170.396V149.877Z" fill="#88CFFF"/>
<path d="M175.082 172.28C175.082 173.095 174.421 173.756 173.606 173.756C172.791 173.756 172.13 173.095 172.13 172.28C172.13 171.465 172.791 170.804 173.606 170.804C174.421 170.804 175.082 171.465 175.082 172.28Z" fill="#F43D53"/>
<path d="M186.026 164.809C186.147 161.369 183.457 158.482 180.017 158.36C176.577 158.238 173.69 160.928 173.568 164.368C173.446 167.808 176.136 170.695 179.576 170.817C183.016 170.939 185.904 168.249 186.026 164.809Z" fill="#374068"/>
<path d="M182.223 164.598C182.223 165.936 181.137 167.021 179.799 167.021C178.46 167.021 177.375 165.936 177.375 164.598C177.375 163.259 178.46 162.174 179.799 162.174C181.137 162.174 182.223 163.259 182.223 164.598Z" fill="#4E5DA8"/>
<path d="M166.824 141.504C167.19 139.799 166.105 138.12 164.4 137.754C162.695 137.388 161.016 138.473 160.65 140.178C160.283 141.883 161.369 143.562 163.074 143.928C164.778 144.294 166.457 143.209 166.824 141.504Z" fill="#2D3551"/>
<path d="M174.995 153.493C174.089 153.493 173.355 154.227 173.355 155.133C173.355 156.039 174.089 156.773 174.995 156.773C175.901 156.773 176.635 156.039 176.635 155.133C176.635 154.227 175.901 153.493 174.995 153.493Z" fill="#2D3551"/>
<path d="M179.792 153.493C178.887 153.493 178.152 154.227 178.152 155.133C178.152 156.039 178.887 156.773 179.792 156.773C180.698 156.773 181.433 156.039 181.433 155.133C181.433 154.227 180.698 153.493 179.792 153.493Z" fill="#2D3551"/>
<path d="M184.59 153.493C183.684 153.493 182.949 154.227 182.949 155.133C182.949 156.039 183.684 156.773 184.59 156.773C185.495 156.773 186.23 156.039 186.23 155.133C186.23 154.227 185.495 153.493 184.59 153.493Z" fill="#2D3551"/>
<path d="M170.396 149.877H139.781V170.845H170.396V149.877Z" fill="black"/>
<path d="M163.343 168.404C163.675 167.337 161.302 165.884 160.382 166.988L158.764 163.771L158.753 168.845C158.753 168.845 160.216 170.464 161.743 170.354C163.27 170.244 163.343 168.404 163.343 168.404Z" fill="#FF7C33"/>
<path d="M162.712 162.903C162.712 162.903 160.952 167.503 160.728 168.117C160.518 168.691 160.859 169.281 161.32 169.545C161.781 169.809 162.876 168.836 162.984 168.523C163.091 168.209 164.268 163.418 164.268 163.418L162.712 162.903Z" fill="#FFCFA8"/>
<path d="M162.622 163.543C162.663 163.283 162.304 162.247 162.594 161.943C162.884 161.64 162.594 160.577 162.594 160.577C162.594 160.577 163.638 160.384 163.417 161.893C163.417 161.893 166.558 161.345 166.821 161.552C167.083 161.759 167.11 162.127 166.931 162.224C166.751 162.32 165.008 162.564 165.008 162.564C165.008 162.564 165.491 163.544 165.132 163.999C164.773 164.455 163.932 164.813 163.587 164.717C163.242 164.619 162.483 164.413 162.622 163.543Z" fill="#FFCFA8"/>
<path d="M164.443 162.571L163.601 162.951L163.277 162.758C163.277 162.758 162.897 162.895 162.911 163.227C162.911 163.227 162.893 163.381 162.994 163.484C162.994 163.484 162.856 163.862 163.095 164.022C163.095 164.022 163.15 164.28 163.408 164.386C163.665 164.491 164.107 164.477 164.396 164.39C164.686 164.303 165.05 163.811 165.05 163.811C165.05 163.811 164.58 164.206 164.424 164.248C164.268 164.289 163.477 164.487 163.233 164.064C163.233 164.064 164.019 164.137 164.282 163.99C164.544 163.843 165.04 163.383 165.04 163.383C165.04 163.383 164.41 163.852 164.181 163.885C163.951 163.917 163.302 163.958 163.215 163.917C163.127 163.875 163.049 163.65 163.123 163.516C163.123 163.516 163.918 163.595 164.135 163.484C164.351 163.374 164.935 162.978 164.935 162.978C164.935 162.978 164.125 163.406 164.042 163.411C163.96 163.415 163.127 163.383 163.127 163.383C163.127 163.383 163.044 163.291 163.044 163.195C163.044 163.098 163.251 162.919 163.251 162.919C163.251 162.919 163.504 163.107 163.624 163.084C163.744 163.061 164.443 162.571 164.443 162.571Z" fill="#F0AB90"/>
<path d="M151.248 171.071L150.848 164.817C150.784 163.817 151.535 162.95 152.535 162.871L156.896 162.528C157.888 162.45 158.762 163.178 158.864 164.168L159.636 171.623L151.248 171.071Z" fill="#FF7C33"/>
<path d="M156.298 161.054L152.71 159.84L153.207 163.179C153.207 163.179 153.676 164.315 155.235 164.591C155.235 164.591 156.174 164.306 156.491 163.013L156.298 161.054Z" fill="#FFCFA8"/>
<path d="M156.441 162.506L156.297 161.054L152.71 159.84L153.14 162.731C154.33 163.185 155.479 162.957 156.441 162.506Z" fill="#F0AB90"/>
<path d="M157.781 157.942C157.604 158.766 157.943 159.538 158.538 159.666C159.133 159.794 159.76 159.23 159.937 158.406C160.114 157.582 159.775 156.81 159.18 156.682C158.585 156.554 157.959 157.118 157.781 157.942Z" fill="#FFCFA8"/>
<path d="M158.412 158.05C158.321 158.03 158.229 158.036 158.14 158.062C158.142 158.048 158.144 158.035 158.147 158.021C158.264 157.477 158.678 157.104 159.071 157.189C159.464 157.273 159.688 157.783 159.571 158.328C159.481 158.746 159.216 159.062 158.919 159.148C159.017 158.619 158.795 158.132 158.412 158.05Z" fill="#F0AB90"/>
<path d="M155.218 152.857C157.722 152.952 158.696 154.807 158.591 157.618C158.581 157.874 158.563 158.125 158.535 158.371L158.547 158.357C159.482 159.591 157.579 162.705 154.976 162.559C152.232 162.405 150.404 160.124 150.51 157.313C150.615 154.502 152.714 152.763 155.218 152.857Z" fill="#EEBF99"/>
<path d="M155.218 152.857C157.722 152.952 158.696 154.807 158.591 157.618C158.581 157.874 158.563 158.125 158.535 158.371L158.547 158.357C159.482 159.591 157.579 162.705 154.976 162.559C152.232 162.405 150.404 160.124 150.51 157.313C150.615 154.502 152.714 152.763 155.218 152.857Z" fill="#FFCFA8"/>
<path d="M153.171 158.254C153.157 158.616 153.349 158.917 153.598 158.926C153.848 158.936 154.062 158.65 154.076 158.288C154.089 157.926 153.898 157.625 153.648 157.615C153.398 157.606 153.184 157.892 153.171 158.254Z" fill="#34344F"/>
<path d="M156.289 158.269C156.275 158.631 156.467 158.933 156.717 158.942C156.966 158.952 157.18 158.666 157.194 158.304C157.208 157.942 157.016 157.641 156.766 157.631C156.516 157.622 156.303 157.907 156.289 158.269Z" fill="#34344F"/>
<path d="M153.73 159.804C153.73 159.804 155.242 160.191 156.483 160.093C156.483 160.093 156.091 161.182 154.959 161.118C153.827 161.055 153.677 160.111 153.73 159.804Z" fill="#34344F"/>
<path d="M160.599 153.215L159.169 153.811C160.262 151.888 159.138 150.53 159.138 150.53L157.245 151.874C157.844 151.273 158.507 150.303 158.507 150.303C158.058 150.837 156.909 151.753 156.618 151.983C152.779 150.833 150.159 153.178 150.159 153.178C149.645 155.324 150.442 157.855 150.442 157.855L151.336 157.661L151.503 156.105L152.044 155.291C153.373 156.145 155.592 155.548 155.592 155.548C153.832 155.466 152.9 154.751 152.9 154.751C154.733 155.779 157.102 154.878 157.102 154.878L158.252 155.973L158.571 157.764L158.615 156.606C159.718 156.493 160.331 155.418 160.331 155.418L158.972 155.336C160.148 154.915 160.599 153.215 160.599 153.215Z" fill="#3D3D60"/>
<path d="M151.613 157.709C151.728 158.544 151.332 159.288 150.729 159.371C150.125 159.454 149.543 158.844 149.428 158.009C149.313 157.174 149.71 156.43 150.313 156.347C150.916 156.264 151.498 156.874 151.613 157.709Z" fill="#FFCFA8"/>
<path d="M150.977 157.769C151.069 157.756 151.16 157.769 151.247 157.801C151.246 157.788 151.245 157.774 151.243 157.76C151.167 157.209 150.783 156.806 150.384 156.86C149.985 156.915 149.724 157.407 149.799 157.958C149.858 158.382 150.099 158.718 150.388 158.825C150.33 158.291 150.588 157.822 150.977 157.769Z" fill="#F0AB90"/>
<path d="M146.52 168.404C146.189 167.337 148.562 165.884 149.482 166.988L151.099 163.771L151.11 168.845C151.11 168.845 149.647 170.464 148.12 170.354C146.593 170.244 146.52 168.404 146.52 168.404Z" fill="#FF7C33"/>
<path d="M146.247 163.203C145.128 163.427 144.46 161.766 144.518 161.551C144.575 161.337 145.904 160.351 146.448 160.372C146.992 160.393 147.297 161.534 147.297 161.534C147.297 161.534 147.52 160.38 148.28 160.468L148.13 161.249C148.13 161.249 148.544 163.222 146.247 163.203Z" fill="#FFCFA8"/>
<path d="M145.477 160.949L146.195 161.767L146.67 162.016C146.67 162.016 146.71 162.422 146.233 162.494C146.233 162.494 146.207 162.758 145.966 162.825C145.726 162.894 145.243 162.645 145.142 162.536C145.04 162.427 144.588 161.649 144.588 161.649L145.167 162.392C145.167 162.392 145.558 162.705 145.83 162.722C146.102 162.74 146.094 162.5 146.094 162.5C146.094 162.5 145.711 162.305 145.562 162.162C145.412 162.018 144.961 161.283 144.961 161.283C144.961 161.283 145.607 162.098 145.617 162.096C145.628 162.095 146.053 162.381 146.16 162.374C146.267 162.366 146.472 162.336 146.537 162.118C146.537 162.118 146.084 161.896 146.018 161.834C145.951 161.772 145.477 160.949 145.477 160.949Z" fill="#F0AB90"/>
<path d="M147.331 161.654L146.437 158.425C146.375 158.201 146.123 158.079 145.916 158.185C145.881 158.203 145.847 158.226 145.816 158.255C145.726 158.34 145.689 158.468 145.711 158.59L146.074 160.56L145.147 158.839C145.035 158.633 144.749 158.595 144.596 158.772C144.593 158.775 144.591 158.778 144.588 158.781C144.503 158.884 144.491 159.029 144.552 159.148L145.477 160.948L147.331 161.654Z" fill="#FFCFA8"/>
<path d="M147.606 162.768C147.606 162.768 149.132 167.568 149.008 168.167C148.884 168.765 148.751 169.31 148.264 169.521C147.777 169.733 146.794 168.647 146.722 168.323C146.649 167.999 146.003 163.109 146.003 163.109L147.606 162.768Z" fill="#FFCFA8"/>
<path d="M169.848 149.877H158.695L139.781 168.792V170.845H148.88L169.848 149.877Z" fill="white"/>
<path d="M170.396 152.828L152.379 170.845H154.675L170.396 155.124V152.828Z" fill="white"/>
<path d="M178.773 70.3984H167.272C160.335 70.3984 154.711 76.0221 154.711 82.9591C154.711 86.0939 155.862 88.9578 157.761 91.1585L153.4 95.5197H167.272H174.183H178.773C185.71 95.5197 191.334 89.8961 191.334 82.9591C191.334 76.0221 185.71 70.3984 178.773 70.3984Z" fill="white"/>
<path d="M163.211 80.6143C161.915 80.6143 160.865 81.6643 160.865 82.96C160.865 84.2553 161.915 85.3058 163.211 85.3058C164.506 85.3058 165.556 84.2557 165.556 82.96C165.556 81.6647 164.506 80.6143 163.211 80.6143Z" fill="#606AD1"/>
<path d="M172.366 80.6143C171.071 80.6143 170.021 81.6643 170.021 82.96C170.021 84.2553 171.071 85.3058 172.366 85.3058C173.662 85.3058 174.712 84.2557 174.712 82.96C174.712 81.6647 173.662 80.6143 172.366 80.6143Z" fill="#606AD1"/>
<path d="M181.522 80.6143C180.227 80.6143 179.177 81.6643 179.177 82.96C179.177 84.2553 180.227 85.3058 181.522 85.3058C182.818 85.3058 183.868 84.2557 183.868 82.96C183.868 81.6647 182.818 80.6143 181.522 80.6143Z" fill="#606AD1"/>
<path d="M153.959 102.652C153.453 101.051 151.815 100.042 150.125 100.362C149.153 100.545 148.335 101.137 147.852 101.957C147.103 101.37 146.125 101.118 145.153 101.302C143.461 101.622 142.303 103.165 142.421 104.843L142.399 104.851L142.495 105.354C143.336 109.803 149.112 111.236 149.357 111.294L149.63 111.36L149.86 111.199C150.067 111.055 154.921 107.612 154.08 103.163L153.98 102.652L153.959 102.652Z" fill="#E55A85"/>
<path d="M116.073 39.7099C116.28 38.5925 115.621 37.4682 114.51 37.1219C113.871 36.9229 113.193 37.0159 112.644 37.3526C112.383 36.7637 111.878 36.3026 111.239 36.1032C110.125 35.7565 108.943 36.3106 108.48 37.3515L108.464 37.3496L108.361 37.6802C107.45 40.6072 110.447 43.3 110.575 43.4129L110.718 43.5384L110.906 43.5159C111.075 43.4956 115.072 42.9809 115.983 40.0539L116.086 39.7164L116.073 39.7099Z" fill="#E55A85"/>
<path d="M79.1214 120.296C78.5922 119.29 77.3795 118.815 76.292 119.23C75.6667 119.47 75.1922 119.962 74.9687 120.566C74.3989 120.265 73.7174 120.215 73.0917 120.454C72.0023 120.87 71.4164 122.037 71.6965 123.141L71.6831 123.149L71.8067 123.473C72.9015 126.337 76.9222 126.597 77.0929 126.607L77.2823 126.618L77.4162 126.483C77.5368 126.363 80.3582 123.486 79.2634 120.622L79.1352 120.293L79.1214 120.296Z" fill="#E55A85"/>
<path d="M66.2032 75.3082C66.1405 74.7215 65.6461 74.2596 65.0419 74.2524C64.6944 74.2482 64.371 74.3947 64.1476 74.6438C63.9302 74.3894 63.6107 74.2348 63.2632 74.2306C62.6578 74.2229 62.1516 74.6741 62.0754 75.2607L62.0674 75.2622L62.0651 75.4421C62.0456 77.0336 63.9359 77.929 64.0163 77.9665L64.1059 78.0079L64.1962 77.9685C64.2777 77.9332 66.1895 77.0849 66.2094 75.4934L66.2105 75.3101L66.2032 75.3082Z" fill="#E55A85"/>
<path d="M144.891 125.423C144.828 124.837 144.334 124.375 143.73 124.368C143.382 124.363 143.059 124.51 142.835 124.759C142.618 124.505 142.299 124.35 141.951 124.346C141.346 124.338 140.839 124.789 140.763 125.376L140.755 125.377L140.753 125.557C140.733 127.149 142.624 128.044 142.704 128.082L142.794 128.123L142.884 128.084C142.965 128.048 144.877 127.2 144.897 125.609L144.898 125.425L144.891 125.423Z" fill="#E55A85"/>
<path d="M159.976 55.3291C159.718 57.8708 157.703 59.8905 155.166 60.1633C157.703 60.4358 159.717 62.4559 159.976 64.9975C160.235 62.4559 162.25 60.4358 164.787 60.1633C162.249 59.8909 160.235 57.8708 159.976 55.3291Z" fill="white"/>
<path d="M79.0418 100.564C78.8577 102.373 77.4247 103.809 75.6196 104.003C77.4247 104.197 78.8577 105.634 79.0418 107.442C79.2259 105.634 80.659 104.197 82.464 104.003C80.659 103.809 79.2259 102.373 79.0418 100.564Z" fill="white"/>
<path d="M146.603 44.1074C146.485 45.2734 145.561 46.2002 144.396 46.325C145.56 46.4501 146.484 47.3765 146.603 48.5425C146.722 47.3765 147.646 46.4497 148.811 46.325C147.647 46.1998 146.722 45.2734 146.603 44.1074Z" fill="white"/>
<path d="M50.9009 126.612C50.7823 127.778 49.8582 128.705 48.6941 128.83C49.8582 128.955 50.7823 129.881 50.9009 131.048C51.0196 129.882 51.9437 128.955 53.1081 128.83C51.9437 128.705 51.0196 127.778 50.9009 126.612Z" fill="white"/>
<path d="M151.358 126.158C151.239 127.324 150.315 128.251 149.15 128.376C150.314 128.501 151.239 129.427 151.358 130.594C151.476 129.428 152.4 128.501 153.564 128.376C152.4 128.251 151.476 127.324 151.358 126.158Z" fill="white"/>
<path d="M135.673 109.401C135.504 111.056 134.193 112.372 132.54 112.55C134.192 112.727 135.504 114.042 135.673 115.697C135.841 114.042 137.153 112.727 138.806 112.55C137.153 112.372 135.841 111.056 135.673 109.401Z" fill="white"/>
<path d="M46.1329 77.3066C45.9641 78.9617 44.6524 80.2769 43 80.4548C44.6524 80.6324 45.9641 81.9476 46.1329 83.603C46.3013 81.948 47.613 80.6324 49.2658 80.4548C47.6134 80.2769 46.3016 78.9617 46.1329 77.3066Z" fill="white"/>
<path d="M68.5762 53.0254C68.2781 55.9532 65.9576 58.2802 63.0344 58.5943C65.9576 58.9081 68.2781 61.2351 68.5762 64.1633C68.8743 61.2355 71.1948 58.9085 74.118 58.5943C71.1948 58.2802 68.8743 55.9532 68.5762 53.0254Z" fill="white"/>
</svg>
